# Blender 5.2.0 LTS
# www.blender.org
o Cube
v -0.903749 -1.000000 -0.903749 0.0627 0.3294 0.0000
v -1.000000 1.000000 -1.000000 0.0627 0.3294 0.0000
v -0.903749 -1.000000 0.903749 0.0627 0.3294 0.0000
v -1.000000 1.000000 1.000000 0.0627 0.3294 0.0000
v 0.903749 -1.000000 -0.903749 0.0627 0.3294 0.0000
v 1.000000 1.000000 -1.000000 0.0627 0.3294 0.0000
v 0.903749 -1.000000 0.903749 0.0627 0.3294 0.0000
v 1.000000 1.000000 1.000000 0.0627 0.3294 0.0000
v -1.000000 -1.000000 1.000000 0.0627 0.3294 0.0000
v 1.000000 -1.000000 1.000000 0.0627 0.3294 0.0000
v -1.000000 -1.000000 -1.000000 0.0627 0.3294 0.0000
v 1.000000 -1.000000 -1.000000 0.0627 0.3294 0.0000
v -0.903749 -0.231924 0.903749 0.0627 0.3294 0.0000
v 0.903749 -0.231924 0.903749 0.0627 0.3294 0.0000
v -0.903749 -0.231924 -0.903749 0.0627 0.3294 0.0000
v 0.903749 -0.231924 -0.903749 0.0627 0.3294 0.0000
v -1.000000 1.000000 0.230689 0.0627 0.3294 0.0000
v -1.000000 1.000000 0.087731 0.0627 0.3294 0.0000
v -1.000000 0.027956 0.232795 0.0627 0.3294 0.0000
v -1.000000 -0.217937 0.193468 0.0627 0.3294 0.0000
v -1.000000 -0.449800 0.153972 0.0627 0.3294 0.0000
v -1.000000 -0.262865 0.124136 0.0627 0.3294 0.0000
v -1.000000 -0.013908 0.094138 0.0627 0.3294 0.0000
v -1.000000 0.005138 0.157221 0.0627 0.3294 0.0000
v -1.000000 -0.463253 0.133499 0.0627 0.3294 0.0000
v -1.000000 0.852287 0.088665 0.0627 0.3294 0.0000
v -1.000000 0.847306 0.231020 0.0627 0.3294 0.0000
v -1.099699 1.000000 0.230689 0.0627 0.3294 0.0000
v -1.099699 1.000000 0.087731 0.0627 0.3294 0.0000
v -1.099699 0.852287 0.088665 0.0627 0.3294 0.0000
v -1.099699 0.847306 0.231020 0.0627 0.3294 0.0000
v -1.000000 1.000000 0.099816 0.0627 0.3294 0.0000
v -1.000000 0.851866 0.100699 0.0627 0.3294 0.0000
v -1.099699 1.000000 0.099816 0.0627 0.3294 0.0000
v -1.099699 0.851866 0.100699 0.0627 0.3294 0.0000
v -1.000000 1.000000 0.216444 0.0627 0.3294 0.0000
v -1.000000 0.847802 0.216835 0.0627 0.3294 0.0000
v -1.099699 1.000000 0.216444 0.0627 0.3294 0.0000
v -1.099699 0.847802 0.216835 0.0627 0.3294 0.0000
v -1.087024 0.852287 0.088665 0.0627 0.3294 0.0000
v -1.087024 1.000000 0.087731 0.0627 0.3294 0.0000
v -1.087024 1.000000 0.230689 0.0627 0.3294 0.0000
v -1.087024 0.847306 0.231020 0.0627 0.3294 0.0000
v -1.087024 0.851866 0.100699 0.0627 0.3294 0.0000
v -1.087024 1.000000 0.099816 0.0627 0.3294 0.0000
v -1.087024 1.000000 0.216444 0.0627 0.3294 0.0000
v -1.087024 0.847802 0.216835 0.0627 0.3294 0.0000
v -1.000000 0.734730 0.100625 0.0627 0.3294 0.0000
v -1.000000 0.735151 0.088591 0.0627 0.3294 0.0000
v -1.099699 0.734730 0.100625 0.0627 0.3294 0.0000
v -1.099699 0.735151 0.088591 0.0627 0.3294 0.0000
v -1.087024 0.735151 0.088591 0.0627 0.3294 0.0000
v -1.087024 0.730169 0.230947 0.0627 0.3294 0.0000
v -1.000000 0.730169 0.230947 0.0627 0.3294 0.0000
v -1.099699 0.730666 0.216761 0.0627 0.3294 0.0000
v -1.087024 0.734730 0.100625 0.0627 0.3294 0.0000
v -1.000000 0.730666 0.216761 0.0627 0.3294 0.0000
v -1.099699 0.730169 0.230947 0.0627 0.3294 0.0000
v -1.087024 0.730666 0.216761 0.0627 0.3294 0.0000
v -0.923278 0.847306 0.231020 0.0627 0.3294 0.0000
v -0.923278 0.027956 0.232795 0.0627 0.3294 0.0000
v -0.923278 0.005138 0.157221 0.0627 0.3294 0.0000
v -0.923278 -0.013908 0.094138 0.0627 0.3294 0.0000
v -0.923278 0.852287 0.088665 0.0627 0.3294 0.0000
v -0.923278 0.851866 0.100699 0.0627 0.3294 0.0000
v -0.923278 0.847802 0.216835 0.0627 0.3294 0.0000
v -0.895666 1.000000 -1.000000 0.0627 0.3294 0.0000
v -0.895666 -1.000000 1.000000 0.0627 0.3294 0.0000
v -0.895666 1.000000 1.000000 0.0627 0.3294 0.0000
v -0.895666 -1.000000 -1.000000 0.0627 0.3294 0.0000
v -0.809457 -1.000000 0.903749 0.0627 0.3294 0.0000
v -0.809457 -1.000000 -0.903749 0.0627 0.3294 0.0000
v -0.809457 -0.231924 0.903749 0.0627 0.3294 0.0000
v -0.809457 -0.231924 -0.903749 0.0627 0.3294 0.0000
v -0.779160 1.000000 -1.000000 0.0627 0.3294 0.0000
v -0.779160 -1.000000 1.000000 0.0627 0.3294 0.0000
v -0.704165 -1.000000 0.903749 0.0627 0.3294 0.0000
v -0.704165 -0.231924 0.903749 0.0627 0.3294 0.0000
v -0.779160 1.000000 1.000000 0.0627 0.3294 0.0000
v -0.779160 -1.000000 -1.000000 0.0627 0.3294 0.0000
v -0.704165 -1.000000 -0.903749 0.0627 0.3294 0.0000
v -0.704165 -0.231924 -0.903749 0.0627 0.3294 0.0000
v 0.897832 1.000000 -1.000000 0.0627 0.3294 0.0000
v 0.897832 -1.000000 1.000000 0.0627 0.3294 0.0000
v 0.811415 -1.000000 0.903749 0.0627 0.3294 0.0000
v 0.811415 -0.231924 0.903749 0.0627 0.3294 0.0000
v 0.897832 1.000000 1.000000 0.0627 0.3294 0.0000
v 0.897832 -1.000000 -1.000000 0.0627 0.3294 0.0000
v 0.811415 -1.000000 -0.903749 0.0627 0.3294 0.0000
v 0.811415 -0.231924 -0.903749 0.0627 0.3294 0.0000
v 0.785273 1.000000 1.000000 0.0627 0.3294 0.0000
v 0.785273 -1.000000 -1.000000 0.0627 0.3294 0.0000
v 0.709690 -1.000000 -0.903749 0.0627 0.3294 0.0000
v 0.709690 -0.231924 -0.903749 0.0627 0.3294 0.0000
v 0.785273 1.000000 -1.000000 0.0627 0.3294 0.0000
v 0.785273 -1.000000 1.000000 0.0627 0.3294 0.0000
v 0.709690 -1.000000 0.903749 0.0627 0.3294 0.0000
v 0.709690 -0.231924 0.903749 0.0627 0.3294 0.0000
v 1.000000 1.000000 0.812247 0.0627 0.3294 0.0000
v -1.000000 -1.000000 0.812247 0.0627 0.3294 0.0000
v 1.000000 -1.000000 0.812247 0.0627 0.3294 0.0000
v -0.903749 -1.000000 0.734067 0.0627 0.3294 0.0000
v 0.903749 -1.000000 0.734067 0.0627 0.3294 0.0000
v -0.903749 -0.231924 0.734067 0.0627 0.3294 0.0000
v 0.903749 -0.231924 0.734067 0.0627 0.3294 0.0000
v -0.809457 -0.231924 0.734067 0.0627 0.3294 0.0000
v -0.895666 1.000000 0.812247 0.0627 0.3294 0.0000
v -0.779160 1.000000 0.812247 0.0627 0.3294 0.0000
v -0.704165 -0.231924 0.734067 0.0627 0.3294 0.0000
v 0.897832 1.000000 0.812247 0.0627 0.3294 0.0000
v 0.811415 -0.231924 0.734067 0.0627 0.3294 0.0000
v 0.709690 -0.231924 0.734067 0.0627 0.3294 0.0000
v 0.785273 1.000000 0.812247 0.0627 0.3294 0.0000
v 1.000000 -1.000000 0.653652 0.0627 0.3294 0.0000
v 0.903749 -1.000000 0.590738 0.0627 0.3294 0.0000
v 0.903749 -0.231924 0.590738 0.0627 0.3294 0.0000
v 1.000000 1.000000 0.653652 0.0627 0.3294 0.0000
v -1.000000 -1.000000 0.653652 0.0627 0.3294 0.0000
v -0.903749 -1.000000 0.590738 0.0627 0.3294 0.0000
v -0.903749 -0.231924 0.590738 0.0627 0.3294 0.0000
v -0.809457 -0.231924 0.590738 0.0627 0.3294 0.0000
v -0.895666 1.000000 0.653652 0.0627 0.3294 0.0000
v -0.779160 1.000000 0.653652 0.0627 0.3294 0.0000
v -0.704165 -0.231924 0.590738 0.0627 0.3294 0.0000
v 0.897832 1.000000 0.653652 0.0627 0.3294 0.0000
v 0.811415 -0.231924 0.590738 0.0627 0.3294 0.0000
v 0.709690 -0.231924 0.590738 0.0627 0.3294 0.0000
v 0.785273 1.000000 0.653652 0.0627 0.3294 0.0000
v 1.000000 -1.000000 -0.814632 0.0627 0.3294 0.0000
v 0.903749 -1.000000 -0.736223 0.0627 0.3294 0.0000
v 0.903749 -0.231924 -0.736223 0.0627 0.3294 0.0000
v 1.000000 1.000000 -0.814632 0.0627 0.3294 0.0000
v -1.000000 -1.000000 -0.814632 0.0627 0.3294 0.0000
v -0.903749 -1.000000 -0.736223 0.0627 0.3294 0.0000
v -0.903749 -0.231924 -0.736223 0.0627 0.3294 0.0000
v -0.809457 -0.231924 -0.736223 0.0627 0.3294 0.0000
v -0.895666 1.000000 -0.814632 0.0627 0.3294 0.0000
v -0.779160 1.000000 -0.814632 0.0627 0.3294 0.0000
v -0.704165 -0.231924 -0.736223 0.0627 0.3294 0.0000
v 0.897832 1.000000 -0.814632 0.0627 0.3294 0.0000
v 0.811415 -0.231924 -0.736223 0.0627 0.3294 0.0000
v 0.709690 -0.231924 -0.736223 0.0627 0.3294 0.0000
v 0.785273 1.000000 -0.814632 0.0627 0.3294 0.0000
v 1.000000 1.000000 -0.663016 0.0627 0.3294 0.0000
v -1.000000 -1.000000 -0.663016 0.0627 0.3294 0.0000
v -0.903749 -1.000000 -0.599200 0.0627 0.3294 0.0000
v -0.903749 -0.231924 -0.599200 0.0627 0.3294 0.0000
v -0.809457 -0.231924 -0.599200 0.0627 0.3294 0.0000
v -0.895666 1.000000 -0.663016 0.0627 0.3294 0.0000
v -0.779160 1.000000 -0.663016 0.0627 0.3294 0.0000
v -0.704165 -0.231924 -0.599200 0.0627 0.3294 0.0000
v 0.897832 1.000000 -0.663016 0.0627 0.3294 0.0000
v 0.811415 -0.231924 -0.599200 0.0627 0.3294 0.0000
v 0.709690 -0.231924 -0.599200 0.0627 0.3294 0.0000
v 0.785273 1.000000 -0.663016 0.0627 0.3294 0.0000
v 1.000000 -1.000000 -0.663016 0.0627 0.3294 0.0000
v 0.903749 -1.000000 -0.599200 0.0627 0.3294 0.0000
v 0.903749 -0.231924 -0.599200 0.0627 0.3294 0.0000
v -0.895666 5.024498 0.653652 0.0627 0.3294 0.0000
v -0.895666 5.024498 0.812247 0.0627 0.3294 0.0000
v -0.779160 5.024498 0.653652 0.0627 0.3294 0.0000
v -0.779160 5.024498 0.812247 0.0627 0.3294 0.0000
v 0.897832 5.024498 0.653652 0.0627 0.3294 0.0000
v 0.897832 5.024498 0.812247 0.0627 0.3294 0.0000
v 0.785273 5.024498 0.653652 0.0627 0.3294 0.0000
v 0.785273 5.024498 0.812247 0.0627 0.3294 0.0000
v 0.785273 5.024498 -0.814632 0.0627 0.3294 0.0000
v 0.897832 5.024498 -0.814632 0.0627 0.3294 0.0000
v -0.895666 5.024498 -0.814632 0.0627 0.3294 0.0000
v -0.779160 5.024498 -0.814632 0.0627 0.3294 0.0000
v -0.895666 5.024498 -0.663016 0.0627 0.3294 0.0000
v -0.779160 5.024498 -0.663016 0.0627 0.3294 0.0000
v 0.897832 5.024498 -0.663016 0.0627 0.3294 0.0000
v 0.785273 5.024498 -0.663016 0.0627 0.3294 0.0000
v -0.763614 1.000000 1.000000 0.0627 0.3294 0.0000
v -0.763614 -1.000000 -1.000000 0.0627 0.3294 0.0000
v -0.690115 -1.000000 -0.903749 0.0627 0.3294 0.0000
v -0.690115 -0.231924 -0.903749 0.0627 0.3294 0.0000
v -0.763614 1.000000 -1.000000 0.0627 0.3294 0.0000
v -0.763614 -1.000000 1.000000 0.0627 0.3294 0.0000
v -0.690115 -1.000000 0.903749 0.0627 0.3294 0.0000
v -0.690115 -0.231924 0.903749 0.0627 0.3294 0.0000
v -0.690115 -0.231924 0.734067 0.0627 0.3294 0.0000
v -0.763614 1.000000 0.812247 0.0627 0.3294 0.0000
v -0.763614 1.000000 0.653652 0.0627 0.3294 0.0000
v -0.690115 -0.231924 0.590738 0.0627 0.3294 0.0000
v -0.690115 -0.231924 -0.736223 0.0627 0.3294 0.0000
v -0.763614 1.000000 -0.814632 0.0627 0.3294 0.0000
v -0.690115 -0.231924 -0.599200 0.0627 0.3294 0.0000
v -0.763614 1.000000 -0.663016 0.0627 0.3294 0.0000
v 0.767405 1.000000 -1.000000 0.0627 0.3294 0.0000
v 0.767405 -1.000000 1.000000 0.0627 0.3294 0.0000
v 0.693542 -1.000000 0.903749 0.0627 0.3294 0.0000
v 0.693542 -0.231924 0.903749 0.0627 0.3294 0.0000
v 0.767405 1.000000 0.812247 0.0627 0.3294 0.0000
v 0.767405 1.000000 0.653652 0.0627 0.3294 0.0000
v 0.767405 1.000000 -0.814632 0.0627 0.3294 0.0000
v 0.767405 1.000000 -0.663016 0.0627 0.3294 0.0000
v 0.767405 1.000000 1.000000 0.0627 0.3294 0.0000
v 0.767405 -1.000000 -1.000000 0.0627 0.3294 0.0000
v 0.693542 -1.000000 -0.903749 0.0627 0.3294 0.0000
v 0.693542 -0.231924 -0.903749 0.0627 0.3294 0.0000
v 0.693542 -0.231924 0.734067 0.0627 0.3294 0.0000
v 0.693542 -0.231924 0.590738 0.0627 0.3294 0.0000
v 0.693542 -0.231924 -0.736223 0.0627 0.3294 0.0000
v 0.693542 -0.231924 -0.599200 0.0627 0.3294 0.0000
v -0.779160 4.834432 0.812247 0.0627 0.3294 0.0000
v -0.895666 4.834432 0.812247 0.0627 0.3294 0.0000
v -0.895666 4.834432 0.653652 0.0627 0.3294 0.0000
v -0.779160 4.834432 0.653652 0.0627 0.3294 0.0000
v 0.785273 4.839364 0.812247 0.0627 0.3294 0.0000
v 0.785273 4.839364 0.653652 0.0627 0.3294 0.0000
v 0.897832 4.839364 0.812247 0.0627 0.3294 0.0000
v 0.897832 4.839364 0.653652 0.0627 0.3294 0.0000
v 0.897832 4.815590 -0.814632 0.0627 0.3294 0.0000
v 0.897832 4.815590 -0.663016 0.0627 0.3294 0.0000
v 0.785273 4.815590 -0.814632 0.0627 0.3294 0.0000
v 0.785273 4.815590 -0.663016 0.0627 0.3294 0.0000
v -0.779160 4.908312 -0.663016 0.0627 0.3294 0.0000
v -0.895666 4.908312 -0.663016 0.0627 0.3294 0.0000
v -0.895666 4.908312 -0.814632 0.0627 0.3294 0.0000
v -0.779160 4.908312 -0.814632 0.0627 0.3294 0.0000
v -0.976974 1.000000 1.000000 0.0627 0.3294 0.0000
v -0.976974 -1.000000 -1.000000 0.0627 0.3294 0.0000
v -0.882940 -1.000000 -0.903749 0.0627 0.3294 0.0000
v -0.882940 -0.231924 -0.903749 0.0627 0.3294 0.0000
v -0.976974 1.000000 -1.000000 0.0627 0.3294 0.0000
v -0.976974 -1.000000 1.000000 0.0627 0.3294 0.0000
v -0.882940 -1.000000 0.903749 0.0627 0.3294 0.0000
v -0.882940 -0.231924 0.903749 0.0627 0.3294 0.0000
v -0.882940 -0.231924 0.734067 0.0627 0.3294 0.0000
v -0.882940 -0.231924 0.590738 0.0627 0.3294 0.0000
v -0.882940 -0.231924 -0.736223 0.0627 0.3294 0.0000
v -0.882940 -0.231924 -0.599200 0.0627 0.3294 0.0000
v 0.999699 1.000000 -1.000000 0.0627 0.3294 0.0000
v 0.999699 -1.000000 1.000000 0.0627 0.3294 0.0000
v 0.903478 -1.000000 0.903749 0.0627 0.3294 0.0000
v 0.903478 -0.231924 0.903749 0.0627 0.3294 0.0000
v 0.999699 1.000000 1.000000 0.0627 0.3294 0.0000
v 0.999699 -1.000000 -1.000000 0.0627 0.3294 0.0000
v 0.903478 -1.000000 -0.903749 0.0627 0.3294 0.0000
v 0.903478 -0.231924 -0.903749 0.0627 0.3294 0.0000
v 0.999699 1.000000 0.812247 0.0627 0.3294 0.0000
v 0.903478 -0.231924 0.734067 0.0627 0.3294 0.0000
v 0.903478 -0.231924 0.590738 0.0627 0.3294 0.0000
v 0.999699 1.000000 0.653652 0.0627 0.3294 0.0000
v 0.999699 1.000000 -0.814632 0.0627 0.3294 0.0000
v 0.903478 -0.231924 -0.736223 0.0627 0.3294 0.0000
v 0.999699 1.000000 -0.663016 0.0627 0.3294 0.0000
v 0.903478 -0.231924 -0.599200 0.0627 0.3294 0.0000
v 1.000000 -1.000000 -1.000000 0.0627 0.3294 0.0000
v 0.903749 -1.000000 -0.903749 0.0627 0.3294 0.0000
v 0.903749 -0.231924 -0.903749 0.0627 0.3294 0.0000
v 1.000000 1.000000 -1.000000 0.0627 0.3294 0.0000
v -1.000000 -1.000000 -1.000000 0.0627 0.3294 0.0000
v -0.903749 -1.000000 -0.903749 0.0627 0.3294 0.0000
v -0.903749 -0.231924 -0.903749 0.0627 0.3294 0.0000
v -0.809457 -0.231924 -0.903749 0.0627 0.3294 0.0000
v -0.895666 1.000000 -1.000000 0.0627 0.3294 0.0000
v -0.779160 1.000000 -1.000000 0.0627 0.3294 0.0000
v -0.704165 -0.231924 -0.903749 0.0627 0.3294 0.0000
v 0.897832 1.000000 -1.000000 0.0627 0.3294 0.0000
v 0.811415 -0.231924 -0.903749 0.0627 0.3294 0.0000
v 0.709690 -0.231924 -0.903749 0.0627 0.3294 0.0000
v 0.785273 1.000000 -1.000000 0.0627 0.3294 0.0000
v -0.763614 1.000000 -1.000000 0.0627 0.3294 0.0000
v -0.690115 -0.231924 -0.903749 0.0627 0.3294 0.0000
v 0.767405 1.000000 -1.000000 0.0627 0.3294 0.0000
v 0.693542 -0.231924 -0.903749 0.0627 0.3294 0.0000
v -0.882940 -0.231924 -0.903749 0.0627 0.3294 0.0000
v 0.903478 -0.231924 -0.903749 0.0627 0.3294 0.0000
v 0.999699 1.000000 -1.000000 0.0627 0.3294 0.0000
v 1.000000 1.000000 0.973881 0.0627 0.3294 0.0000
v -1.000000 -1.000000 0.973881 0.0627 0.3294 0.0000
v -0.903749 -1.000000 0.880144 0.0627 0.3294 0.0000
v -0.903749 -0.231924 0.880144 0.0627 0.3294 0.0000
v -0.809457 -0.231924 0.880144 0.0627 0.3294 0.0000
v -0.895666 1.000000 0.973881 0.0627 0.3294 0.0000
v -0.779160 1.000000 0.973881 0.0627 0.3294 0.0000
v -0.704165 -0.231924 0.880144 0.0627 0.3294 0.0000
v 0.897832 1.000000 0.973881 0.0627 0.3294 0.0000
v 0.811415 -0.231924 0.880144 0.0627 0.3294 0.0000
v 0.709690 -0.231924 0.880144 0.0627 0.3294 0.0000
v 0.785273 1.000000 0.973881 0.0627 0.3294 0.0000
v 1.000000 -1.000000 0.973881 0.0627 0.3294 0.0000
v 0.903749 -1.000000 0.880144 0.0627 0.3294 0.0000
v 0.903749 -0.231924 0.880144 0.0627 0.3294 0.0000
v -0.690115 -0.231924 0.880144 0.0627 0.3294 0.0000
v -0.763614 1.000000 0.973881 0.0627 0.3294 0.0000
v 0.767405 1.000000 0.973881 0.0627 0.3294 0.0000
v 0.693542 -0.231924 0.880144 0.0627 0.3294 0.0000
v -0.882940 -0.231924 0.880144 0.0627 0.3294 0.0000
v 0.999699 1.000000 0.973881 0.0627 0.3294 0.0000
v 0.903478 -0.231924 0.880144 0.0627 0.3294 0.0000
v -0.930274 0.027956 0.232795 0.0627 0.3294 0.0000
v -0.930274 0.005138 0.157221 0.0627 0.3294 0.0000
v -0.930274 0.847802 0.216835 0.0627 0.3294 0.0000
v -0.930274 0.847306 0.231020 0.0627 0.3294 0.0000
v -0.930274 -0.013908 0.094138 0.0627 0.3294 0.0000
v -0.930274 0.852287 0.088665 0.0627 0.3294 0.0000
v -0.930274 0.851866 0.100699 0.0627 0.3294 0.0000
vn -1.0000 -0.0000 -0.0000
vn -0.0000 -0.0000 1.0000
vn -0.0000 -1.0000 -0.0000
vn -0.0000 1.0000 -0.0000
vn -0.0000 -0.0000 -1.0000
vn -0.0000 -0.0063 -1.0000
vn -0.0000 0.9573 -0.2890
vn -0.0000 0.0022 1.0000
vn -0.0000 -0.0006 1.0000
vn -0.0000 -0.9994 -0.0350
vn -0.0000 0.0006 -1.0000
vn 1.0000 -0.0000 -0.0000
vn -0.0000 -0.0022 -1.0000
vn -0.0000 0.0063 1.0000
vt 0.862969 0.735018
vt 0.862969 0.737969
vt 0.862969 0.735018
vt 0.375000 0.999962
vt 0.625000 0.999962
vt 0.625000 1.000000
vt 0.375000 1.000000
vt 0.375000 0.250000
vt 0.625000 0.250000
vt 0.372122 0.500000
vt 0.375000 0.500000
vt 0.375000 0.635966
vt 0.375000 0.637477
vt 0.375000 0.652055
vt 0.375000 0.653836
vt 0.375000 0.750000
vt 0.372122 0.750000
vt 0.625000 0.500000
vt 0.625000 0.523171
vt 0.625000 0.542123
vt 0.625000 0.706707
vt 0.625000 0.726531
vt 0.625000 0.746735
vt 0.625000 0.750000
vt 0.394087 0.653877
vt 0.496506 0.654099
vt 0.527242 0.649184
vt 0.556225 0.644246
vt 0.557907 0.641687
vt 0.501739 0.636767
vt 0.393464 0.636083
vt 0.375000 0.497122
vt 0.625000 0.497122
vt 0.862935 0.737969
vt 0.875000 0.750000
vt 0.874963 0.750000
vt 0.637031 0.735018
vt 0.637031 0.737969
vt 0.862969 0.512031
vt 0.875000 0.500000
vt 0.875000 0.500000
vt 0.639632 0.512031
vt 0.637031 0.512031
vt 0.627878 0.500000
vt 0.862935 0.735018
vt 0.862935 0.737969
vt 0.639632 0.737969
vt 0.862935 0.512031
vt 0.862935 0.512031
vt 0.375000 0.652055
vt 0.394025 0.652104
vt 0.499358 0.644653
vt 0.532858 0.640517
vt 0.496506 0.654099
vt 0.394087 0.653877
vt 0.375000 0.637477
vt 0.393517 0.637587
vt 0.393517 0.637587
vt 0.394025 0.652104
vt 0.393464 0.636083
vt 0.648818 0.512031
vt 0.661979 0.737969
vt 0.648818 0.737969
vt 0.639632 0.735018
vt 0.648818 0.735018
vt 0.661979 0.512031
vt 0.638042 0.500000
vt 0.652605 0.500000
vt 0.638042 0.750000
vt 0.627878 0.750000
vt 0.375000 0.472395
vt 0.625000 0.472395
vt 0.625000 0.486958
vt 0.375000 0.486958
vt 0.347395 0.746735
vt 0.361958 0.746735
vt 0.361958 0.750000
vt 0.347395 0.750000
vt 0.375000 0.752878
vt 0.625000 0.752878
vt 0.625000 0.763042
vt 0.375000 0.763042
vt 0.345452 0.746735
vt 0.345452 0.750000
vt 0.375000 0.470452
vt 0.625000 0.470452
vt 0.663736 0.512031
vt 0.654548 0.500000
vt 0.663735 0.737969
vt 0.663735 0.737969
vt 0.661979 0.512031
vt 0.661979 0.735018
vt 0.652605 0.750000
vt 0.625000 0.777605
vt 0.375000 0.777605
vt 0.851427 0.737969
vt 0.851427 0.737969
vt 0.851427 0.512031
vt 0.862229 0.500000
vt 0.874962 0.500000
vt 0.375000 0.250038
vt 0.625000 0.250038
vt 0.625000 0.262771
vt 0.375000 0.262771
vt 0.125038 0.746735
vt 0.137771 0.746735
vt 0.137771 0.750000
vt 0.125038 0.750000
vt 0.838711 0.512031
vt 0.851427 0.512031
vt 0.838711 0.512031
vt 0.838711 0.735018
vt 0.851427 0.735018
vt 0.838711 0.737969
vt 0.838711 0.737969
vt 0.862229 0.750000
vt 0.848159 0.750000
vt 0.375000 0.973159
vt 0.625000 0.973159
vt 0.625000 0.987229
vt 0.375000 0.987229
vt 0.375000 0.970926
vt 0.625000 0.970926
vt 0.836693 0.737969
vt 0.845926 0.750000
vt 0.836693 0.735018
vt 0.836693 0.737969
vt 0.836693 0.512031
vt 0.848159 0.500000
vt 0.625000 0.276841
vt 0.375000 0.276841
vt 0.151841 0.746735
vt 0.151841 0.750000
vt 0.151841 0.706707
vt 0.151841 0.726531
vt 0.836693 0.698842
vt 0.838711 0.698842
vt 0.838711 0.716758
vt 0.836693 0.716758
vt 0.851427 0.698842
vt 0.851427 0.716758
vt 0.125038 0.706707
vt 0.137771 0.706707
vt 0.137771 0.726531
vt 0.125038 0.726531
vt 0.648818 0.698842
vt 0.661979 0.698842
vt 0.661979 0.716758
vt 0.648818 0.716758
vt 0.345452 0.706707
vt 0.347395 0.706707
vt 0.347395 0.726531
vt 0.345452 0.726531
vt 0.137771 0.523171
vt 0.151841 0.523171
vt 0.137771 0.523171
vt 0.639632 0.698842
vt 0.639632 0.716758
vt 0.637031 0.716758
vt 0.637031 0.735018
vt 0.862935 0.698842
vt 0.862969 0.698842
vt 0.862969 0.716758
vt 0.862935 0.716758
vt 0.875000 0.726531
vt 0.875000 0.746735
vt 0.637031 0.698842
vt 0.375000 0.003265
vt 0.625000 0.003265
vt 0.625000 0.023469
vt 0.375000 0.023469
vt 0.862969 0.698842
vt 0.862969 0.550100
vt 0.637031 0.550100
vt 0.862935 0.550100
vt 0.639632 0.550100
vt 0.648818 0.550100
vt 0.347395 0.542123
vt 0.361958 0.542123
vt 0.361958 0.706707
vt 0.345452 0.542123
vt 0.661979 0.550100
vt 0.125038 0.542123
vt 0.137771 0.542123
vt 0.838711 0.550100
vt 0.851427 0.550100
vt 0.836693 0.550100
vt 0.151841 0.542123
vt 0.875000 0.706707
vt 0.625000 0.043293
vt 0.375000 0.043293
vt 0.137771 0.500000
vt 0.151841 0.500000
vt 0.838711 0.532972
vt 0.836693 0.532972
vt 0.851427 0.532972
vt 0.125038 0.500000
vt 0.125038 0.523171
vt 0.661979 0.532972
vt 0.648818 0.532972
vt 0.345452 0.500000
vt 0.347395 0.500000
vt 0.347395 0.523171
vt 0.345452 0.523171
vt 0.361958 0.500000
vt 0.361958 0.523171
vt 0.639632 0.532972
vt 0.862969 0.512031
vt 0.862969 0.532972
vt 0.862935 0.532972
vt 0.637031 0.532972
vt 0.862969 0.532972
vt 0.637031 0.550100
vt 0.875000 0.523171
vt 0.875000 0.542123
vt 0.375000 0.207877
vt 0.625000 0.207877
vt 0.625000 0.226829
vt 0.375000 0.226829
vt 0.361958 0.726531
vt 0.137771 0.542123
vt 0.151841 0.542123
vt 0.137771 0.706707
vt 0.154074 0.523171
vt 0.154074 0.542123
vt 0.663735 0.532972
vt 0.663735 0.550100
vt 0.154074 0.500000
vt 0.663735 0.698842
vt 0.154074 0.706707
vt 0.154074 0.726531
vt 0.663736 0.716758
vt 0.663735 0.735018
vt 0.654548 0.750000
vt 0.625000 0.779548
vt 0.375000 0.779548
vt 0.845926 0.500000
vt 0.375000 0.279074
vt 0.625000 0.279074
vt 0.154074 0.746735
vt 0.154074 0.750000
vt 0.125000 0.523171
vt 0.125000 0.542123
vt 0.125000 0.500000
vt 0.125000 0.706707
vt 0.125000 0.726531
vt 0.125000 0.746735
vt 0.125000 0.750000
vt 0.375000 0.000000
vt 0.625000 0.000000
s 0
f 286/1/1 7/2/1 14/2/1 287/3/1
f 239/4/2 236/5/2 10/6/2 8/7/2
f 254/8/3 251/9/3 12/9/3 6/8/3
f 227/10/4 2/11/4 18/12/4 32/13/4 36/14/4 17/15/4 4/16/4 223/17/4
f 2/11/1 11/18/1 255/18/1 133/19/1 145/20/1 118/21/1 100/22/1 274/23/1 9/24/1 4/16/1 17/15/1 27/25/1 19/26/1 20/27/1 21/28/1 25/29/1 23/30/1 26/31/1 18/12/1
f 227/32/5 224/33/5 11/18/5 2/11/5
f 237/34/3 7/2/3 10/35/3 236/36/3
f 275/37/3 3/38/3 9/24/3 274/23/3
f 252/39/3 5/39/3 12/40/3 251/41/3
f 225/42/3 1/43/3 11/18/3 224/44/3
f 294/45/3 287/3/3 14/2/3 238/46/3
f 229/47/5 3/38/5 13/38/5 230/47/5
f 241/48/2 5/39/2 16/39/2 242/49/2
f 256/43/3 1/43/3 15/43/3 257/43/3
f 38/50/1 39/51/1 31/25/1 28/15/1
f 41/12/6 40/31/6 30/31/6 29/12/6
f 24/52/1 23/30/1 22/53/1 21/28/1
f 22/53/1 23/30/1 25/29/1 21/28/1
f 24/52/1 21/28/1 20/27/1 19/26/1
f 296/52/7 295/54/7 61/26/7 62/52/7
f 43/55/8 42/15/8 28/15/8 31/25/8
f 45/56/4 41/12/4 29/12/4 34/56/4
f 43/55/9 31/25/9 58/25/9 53/55/9
f 31/25/1 39/51/1 55/51/1 58/25/1
f 46/50/4 45/56/4 34/56/4 38/50/4
f 29/12/1 30/31/1 35/57/1 34/56/1
f 42/15/4 46/50/4 38/50/4 28/15/4
f 39/51/1 35/57/1 50/57/1 55/51/1
f 34/56/1 35/57/1 39/51/1 38/50/1
f 33/58/10 37/51/10 47/51/10 44/57/10
f 17/15/4 36/14/4 46/50/4 42/15/4
f 36/14/4 32/13/4 45/56/4 46/50/4
f 30/31/11 40/31/11 52/31/11 51/31/11
f 27/25/9 43/55/9 53/55/9 54/25/9
f 32/13/4 18/12/4 41/12/4 45/56/4
f 27/25/8 17/15/8 42/15/8 43/55/8
f 18/12/6 26/31/6 40/31/6 41/12/6
f 59/51/10 53/55/10 58/25/10 55/51/10
f 52/31/10 56/57/10 50/57/10 51/31/10
f 56/57/10 59/51/10 55/51/10 50/57/10
f 49/31/10 48/58/10 56/57/10 52/31/10
f 57/51/10 54/25/10 53/55/10 59/51/10
f 40/31/11 26/31/11 49/31/11 52/31/11
f 47/51/11 37/51/11 57/51/11 59/51/11
f 33/58/9 44/57/9 56/57/9 48/58/9
f 26/31/12 33/58/12 48/58/12 49/31/12
f 37/51/12 27/25/12 54/25/12 57/51/12
f 44/57/12 47/51/12 59/51/12 56/57/12
f 35/57/1 30/31/1 51/31/1 50/57/1
f 60/25/1 66/51/1 65/58/1 64/31/1 63/30/1 62/52/1 61/26/1
f 298/25/10 297/59/10 66/51/10 60/25/10
f 299/30/7 296/52/7 62/52/7 63/30/7
f 301/58/10 300/60/10 64/31/10 65/58/10
f 295/54/13 298/25/13 60/25/13 61/26/13
f 300/60/14 299/30/14 63/30/14 64/31/14
f 297/59/10 301/58/10 65/58/10 66/51/10
f 225/42/2 72/61/2 74/61/2 226/42/2
f 77/62/5 71/63/5 73/63/5 78/62/5
f 292/64/3 277/65/3 73/63/3 230/47/3
f 81/66/3 72/61/3 70/67/3 80/68/3
f 229/47/3 71/63/3 68/69/3 228/70/3
f 75/71/5 80/72/5 70/73/5 67/74/5
f 279/75/4 278/76/4 69/77/4 79/78/4
f 223/79/2 228/80/2 68/81/2 69/82/2
f 289/83/4 279/75/4 79/78/4 175/84/4
f 179/85/5 176/86/5 80/72/5 75/71/5
f 177/87/3 81/66/3 80/68/3 176/88/3
f 181/89/5 77/62/5 78/62/5 182/90/5
f 72/61/2 81/66/2 82/91/2 74/61/2
f 277/65/3 280/92/3 78/62/3 73/63/3
f 71/63/3 77/62/3 76/93/3 68/69/3
f 69/82/2 68/81/2 76/94/2 79/95/2
f 237/34/5 85/96/5 86/97/5 238/46/5
f 241/48/3 89/98/3 88/99/3 240/100/3
f 235/101/5 240/102/5 88/103/5 83/104/5
f 293/105/4 281/106/4 87/107/4 239/108/4
f 93/109/2 89/98/2 90/110/2 94/111/2
f 283/112/3 282/113/3 86/97/3 98/114/3
f 97/115/3 85/96/3 84/116/3 96/117/3
f 91/118/2 96/119/2 84/120/2 87/121/2
f 199/122/2 192/123/2 96/119/2 91/118/2
f 193/124/3 97/115/3 96/117/3 192/125/3
f 291/126/3 283/112/3 98/114/3 194/127/3
f 201/128/2 93/109/2 94/111/2 202/128/2
f 85/96/5 97/115/5 98/114/5 86/97/5
f 89/98/3 93/109/3 92/129/3 88/99/3
f 83/104/5 88/103/5 92/130/5 95/131/5
f 281/106/4 284/132/4 91/133/4 87/107/4
f 212/134/1 211/135/1 166/135/1 165/134/1
f 204/136/3 127/137/3 112/138/3 203/139/3
f 127/137/3 126/140/3 111/141/3 112/138/3
f 246/142/4 125/143/4 110/144/4 243/145/4
f 121/146/3 124/147/3 109/148/3 106/149/3
f 185/150/4 123/151/4 108/152/4 184/153/4
f 215/154/5 217/155/5 167/155/5 168/156/5
f 232/157/3 121/146/3 106/149/3 231/158/3
f 275/37/12 102/159/12 104/159/12 276/160/12
f 245/161/3 116/162/3 105/163/3 244/164/3
f 286/1/3 103/163/3 101/165/3 285/166/3
f 119/167/3 102/159/3 100/22/3 118/21/3
f 273/168/12 285/169/12 101/170/12 99/171/12
f 115/172/1 103/163/1 105/163/1 116/162/1
f 157/173/1 115/172/1 116/162/1 158/173/1
f 146/174/3 119/167/3 118/21/3 145/20/3
f 250/175/3 158/173/3 116/162/3 245/161/3
f 234/176/3 148/177/3 121/146/3 232/157/3
f 150/178/4 149/179/4 122/180/4 123/151/4
f 190/181/4 150/178/4 123/151/4 185/150/4
f 148/177/3 151/182/3 124/147/3 121/146/3
f 249/183/4 152/184/4 125/143/4 246/142/4
f 154/185/3 153/186/3 126/140/3 127/137/3
f 206/187/3 154/185/3 127/137/3 204/136/3
f 152/184/4 155/188/4 128/134/4 125/143/4
f 102/159/12 119/167/12 120/167/12 104/159/12
f 103/163/3 115/172/3 114/189/3 101/165/3
f 99/171/12 101/170/12 114/190/12 117/191/12
f 262/192/4 265/193/4 143/155/4 140/156/4
f 269/128/3 264/111/3 142/194/3 205/195/3
f 264/111/3 263/110/3 141/196/3 142/194/3
f 272/197/4 262/192/4 140/156/4 247/198/4
f 258/61/3 261/91/3 139/199/3 136/200/3
f 266/201/4 260/202/4 138/203/4 188/204/4
f 260/202/4 259/205/4 137/206/4 138/203/4
f 270/42/3 258/61/3 136/200/3 233/207/3
f 271/49/3 253/208/3 131/209/3 248/210/3
f 256/43/3 134/211/3 133/19/3 255/18/3
f 252/39/1 130/212/1 131/209/1 253/208/1
f 146/174/12 134/211/12 135/211/12 147/213/12
f 157/173/3 130/212/3 129/214/3 156/215/3
f 144/216/12 156/217/12 129/218/12 132/219/12
f 117/191/12 114/190/12 156/217/12 144/216/12
f 115/172/3 157/173/3 156/215/3 114/189/3
f 119/167/12 146/174/12 147/213/12 120/167/12
f 208/220/2 207/152/2 162/152/2 160/220/2
f 205/195/3 142/194/3 154/185/3 206/187/3
f 142/194/3 141/196/3 153/186/3 154/185/3
f 247/198/4 140/156/4 152/184/4 249/183/4
f 136/200/3 139/199/3 151/182/3 148/177/3
f 188/204/4 138/203/4 150/178/4 190/181/4
f 216/221/12 215/154/12 168/156/12 173/184/12
f 233/207/3 136/200/3 148/177/3 234/176/3
f 248/210/3 131/209/3 158/173/3 250/175/3
f 134/211/3 146/174/3 145/20/3 133/19/3
f 130/212/1 157/173/1 158/173/1 131/209/1
f 163/143/4 165/134/4 166/135/4 164/144/4
f 161/151/4 159/180/4 160/220/4 162/152/4
f 168/156/4 167/155/4 174/188/4 173/184/4
f 170/203/4 169/206/4 171/179/4 172/178/4
f 220/179/2 219/178/2 172/178/2 171/179/2
f 211/135/2 213/144/2 164/144/2 166/135/2
f 209/180/1 208/220/1 160/220/1 159/180/1
f 218/222/2 216/221/2 173/184/2 174/188/2
f 207/152/12 210/151/12 161/151/12 162/152/12
f 217/155/1 218/222/1 174/188/1 167/155/1
f 214/223/5 212/134/5 165/134/5 163/143/5
f 221/206/1 220/179/1 171/179/1 169/206/1
f 210/151/5 209/180/5 159/180/5 161/151/5
f 213/144/12 214/223/12 163/143/12 164/144/12
f 219/178/12 222/203/12 170/203/12 172/178/12
f 222/203/5 221/206/5 169/206/5 170/203/5
f 197/224/4 188/204/4 190/181/4 198/225/4
f 139/199/3 187/226/3 189/227/3 151/182/3
f 268/228/4 266/201/4 188/204/4 197/224/4
f 261/91/3 267/87/3 187/226/3 139/199/3
f 151/182/3 189/227/3 186/229/3 124/147/3
f 198/225/4 190/181/4 185/150/4 196/230/4
f 196/230/4 185/150/4 184/153/4 195/231/4
f 124/147/3 186/229/3 183/232/3 109/148/3
f 81/66/2 177/87/2 178/87/2 82/91/2
f 280/92/3 288/233/3 182/90/3 78/62/3
f 77/62/3 181/89/3 180/234/3 76/93/3
f 79/95/2 76/94/2 180/235/2 175/236/2
f 193/124/5 181/89/5 182/90/5 194/127/5
f 201/128/3 177/87/3 176/88/3 200/237/3
f 191/238/5 200/239/5 176/86/5 179/85/5
f 290/240/4 289/83/4 175/84/4 199/241/4
f 284/132/4 290/240/4 199/241/4 91/133/4
f 95/131/5 92/130/5 200/239/5 191/238/5
f 93/109/3 201/128/3 200/237/3 92/129/3
f 97/115/5 193/124/5 194/127/5 98/114/5
f 128/134/4 196/230/4 195/231/4 113/135/4
f 155/188/4 198/225/4 196/230/4 128/134/4
f 265/193/4 268/228/4 197/224/4 143/155/4
f 143/155/4 197/224/4 198/225/4 155/188/4
f 187/226/3 205/195/3 206/187/3 189/227/3
f 267/87/3 269/128/3 205/195/3 187/226/3
f 189/227/3 206/187/3 204/136/3 186/229/3
f 186/229/3 204/136/3 203/139/3 183/232/3
f 177/87/2 201/128/2 202/128/2 178/87/2
f 288/233/3 291/126/3 194/127/3 182/90/3
f 181/89/3 193/124/3 192/125/3 180/234/3
f 175/236/2 180/235/2 192/123/2 199/122/2
f 123/151/5 122/180/5 209/180/5 210/151/5
f 108/152/12 123/151/12 210/151/12 207/152/12
f 122/180/1 107/220/1 208/220/1 209/180/1
f 107/220/2 108/152/2 207/152/2 208/220/2
f 110/144/12 125/143/12 214/223/12 213/144/12
f 125/143/5 128/134/5 212/134/5 214/223/5
f 113/135/2 110/144/2 213/144/2 211/135/2
f 128/134/1 113/135/1 211/135/1 212/134/1
f 143/155/1 155/188/1 218/222/1 217/155/1
f 155/188/2 152/184/2 216/221/2 218/222/2
f 152/184/12 140/156/12 215/154/12 216/221/12
f 140/156/5 143/155/5 217/155/5 215/154/5
f 138/203/5 137/206/5 221/206/5 222/203/5
f 150/178/12 138/203/12 222/203/12 219/178/12
f 137/206/1 149/179/1 220/179/1 221/206/1
f 149/179/2 150/178/2 219/178/2 220/179/2
f 135/211/3 233/207/3 234/176/3 147/213/3
f 257/43/3 270/42/3 233/207/3 135/211/3
f 147/213/3 234/176/3 232/157/3 120/167/3
f 120/167/3 232/157/3 231/158/3 104/159/3
f 4/16/2 9/24/2 228/80/2 223/79/2
f 3/38/3 229/47/3 228/70/3 9/24/3
f 276/160/3 292/64/3 230/47/3 13/38/3
f 1/43/2 225/42/2 226/42/2 15/43/2
f 71/63/5 229/47/5 230/47/5 73/63/5
f 72/61/3 225/42/3 224/44/3 70/67/3
f 67/74/5 70/73/5 224/33/5 227/32/5
f 67/205/4 227/10/4 223/17/4 69/77/4 278/76/4 107/220/4 122/180/4 149/179/4 137/206/4 259/205/4
f 141/196/3 248/210/3 250/175/3 153/186/3
f 132/242/4 247/198/4 249/183/4 144/243/4
f 263/110/3 271/49/3 248/210/3 141/196/3
f 254/244/4 272/197/4 247/198/4 132/242/4
f 144/243/4 249/183/4 246/142/4 117/245/4
f 153/186/3 250/175/3 245/161/3 126/140/3
f 126/140/3 245/161/3 244/164/3 111/141/3
f 117/245/4 246/142/4 243/145/4 99/246/4
f 273/247/4 293/105/4 239/108/4 8/248/4
f 6/8/5 12/9/5 240/102/5 235/101/5
f 5/39/3 241/48/3 240/100/3 12/40/3
f 7/2/5 237/34/5 238/46/5 14/2/5
f 89/98/2 241/48/2 242/49/2 90/110/2
f 282/113/3 294/45/3 238/46/3 86/97/3
f 85/96/3 237/34/3 236/36/3 84/116/3
f 87/121/2 84/120/2 236/5/2 239/4/2
f 6/244/3 235/197/3 272/197/3 254/244/3
f 90/110/3 242/49/3 271/49/3 263/110/3
f 15/43/3 226/42/3 270/42/3 257/43/3
f 178/87/3 202/128/3 269/128/3 267/87/3
f 95/193/3 191/228/3 268/228/3 265/193/3
f 82/91/3 178/87/3 267/87/3 261/91/3
f 191/228/3 179/201/3 266/201/3 268/228/3
f 5/39/3 252/39/3 253/208/3 16/39/3
f 1/43/3 256/43/3 255/18/3 11/18/3
f 242/49/3 16/39/3 253/208/3 271/49/3
f 226/42/3 74/61/3 258/61/3 270/42/3
f 75/202/3 67/205/3 259/205/3 260/202/3
f 179/201/3 75/202/3 260/202/3 266/201/3
f 74/61/3 82/91/3 261/91/3 258/61/3
f 235/197/3 83/192/3 262/192/3 272/197/3
f 94/111/3 90/110/3 263/110/3 264/111/3
f 202/128/3 94/111/3 264/111/3 269/128/3
f 83/192/3 95/193/3 265/193/3 262/192/3
f 134/211/12 256/43/12 257/43/12 135/211/12
f 130/212/3 252/39/3 251/41/3 129/214/3
f 132/219/12 129/218/12 251/9/12 254/8/12
f 111/141/3 244/164/3 294/45/3 282/113/3
f 99/246/4 243/145/4 293/105/4 273/247/4
f 104/159/3 231/158/3 292/64/3 276/160/3
f 183/232/3 203/139/3 291/126/3 288/233/3
f 113/135/4 195/231/4 290/240/4 284/132/4
f 195/231/4 184/153/4 289/83/4 290/240/4
f 109/148/3 183/232/3 288/233/3 280/92/3
f 8/249/12 10/250/12 285/169/12 273/168/12
f 7/2/3 286/1/3 285/166/3 10/35/3
f 3/38/12 275/37/12 276/160/12 13/38/12
f 110/144/4 113/135/4 284/132/4 281/106/4
f 203/139/3 112/138/3 283/112/3 291/126/3
f 112/138/3 111/141/3 282/113/3 283/112/3
f 243/145/4 110/144/4 281/106/4 293/105/4
f 106/149/3 109/148/3 280/92/3 277/65/3
f 184/153/4 108/152/4 279/75/4 289/83/4
f 108/152/4 107/220/4 278/76/4 279/75/4
f 231/158/3 106/149/3 277/65/3 292/64/3
f 244/164/3 105/163/3 287/3/3 294/45/3
f 102/159/3 275/37/3 274/23/3 100/22/3
f 103/163/1 286/1/1 287/3/1 105/163/1
f 37/51/10 33/58/10 301/58/10 297/59/10
f 26/31/14 23/30/14 299/30/14 300/60/14
f 19/26/13 27/25/13 298/25/13 295/54/13
f 33/58/10 26/31/10 300/60/10 301/58/10
f 23/30/7 24/52/7 296/52/7 299/30/7
f 27/25/10 37/51/10 297/59/10 298/25/10
f 24/52/7 19/26/7 295/54/7 296/52/7
