# Blender 5.2.0 LTS
# www.blender.org
mtllib blade1.mtl
o Sword-LowPoly.001
v 0.000096 0.037400 0.170689
v -0.020596 0.037180 0.173108
v 0.000096 0.037369 0.197723
v -0.011270 0.037365 0.200240
v -0.031986 0.031606 0.175183
v -0.028358 0.031606 0.192015
v 0.000096 0.037399 0.151230
v -0.029922 0.037349 0.152193
v -0.037423 0.031606 0.149327
v 0.000096 0.035661 0.037006
v -0.013143 0.035460 0.031051
v -0.008101 0.037369 0.095176
v 0.000096 0.037400 0.094198
v -0.019880 0.031606 0.094010
v -0.021866 0.031606 0.027281
v -0.018724 0.036732 0.123715
v 0.000096 0.037399 0.122711
v -0.025980 0.031606 0.121450
v 0.000096 0.036886 0.258593
v -0.007123 0.037061 0.261128
v 0.000096 0.035836 0.404581
v -0.005766 0.037215 0.407049
v 0.000096 0.035856 0.525662
v -0.004633 0.037233 0.528167
v 0.000096 0.035625 0.650690
v -0.004361 0.037240 0.653190
v 0.000096 0.035837 0.757955
v -0.004020 0.037240 0.760566
v 0.000096 0.036581 0.856333
v -0.003190 0.036893 0.845444
v -0.019686 0.031606 0.258890
v -0.020262 0.031606 0.407096
v -0.019099 0.031606 0.528204
v -0.018836 0.031606 0.654279
v -0.018225 0.031606 0.761836
v -0.016031 0.031606 0.844432
v -0.012648 0.031606 0.856817
v 0.000096 0.031606 0.891626
v -0.006181 0.031606 0.877446
v 0.020788 0.037180 0.173108
v 0.011463 0.037365 0.200240
v 0.032178 0.031606 0.175183
v 0.028550 0.031606 0.192015
v 0.030114 0.037349 0.152193
v 0.037615 0.031606 0.149327
v 0.013335 0.035460 0.031051
v 0.008293 0.037369 0.095176
v 0.020073 0.031606 0.094010
v 0.022058 0.031606 0.027281
v 0.018916 0.036732 0.123715
v 0.026172 0.031606 0.121450
v 0.007315 0.037061 0.261128
v 0.005958 0.037215 0.407049
v 0.004825 0.037233 0.528167
v 0.004553 0.037240 0.653190
v 0.004212 0.037240 0.760566
v 0.003382 0.036893 0.845444
v 0.019878 0.031606 0.258890
v 0.020454 0.031606 0.407096
v 0.019291 0.031606 0.528204
v 0.019028 0.031606 0.654279
v 0.018417 0.031606 0.761836
v 0.016223 0.031606 0.844432
v 0.012840 0.031606 0.856816
v 0.006373 0.031606 0.877446
v 0.000096 0.025812 0.170689
v -0.020596 0.026032 0.173108
v 0.000096 0.025844 0.197723
v -0.011270 0.025847 0.200240
v 0.000096 0.025814 0.151230
v -0.029922 0.025863 0.152193
v 0.000096 0.027551 0.037006
v -0.013143 0.027752 0.031051
v -0.008101 0.025843 0.095176
v 0.000096 0.025812 0.094198
v -0.018724 0.026480 0.123715
v 0.000096 0.025813 0.122711
v 0.000096 0.026326 0.258593
v -0.007123 0.026151 0.261128
v 0.000096 0.027376 0.404581
v -0.005766 0.025997 0.407049
v 0.000096 0.027356 0.525662
v -0.004633 0.025979 0.528167
v 0.000096 0.027587 0.650690
v -0.004361 0.025972 0.653190
v 0.000096 0.027375 0.757955
v -0.004020 0.025972 0.760566
v 0.000096 0.026631 0.856333
v -0.003190 0.026319 0.845444
v 0.020788 0.026032 0.173108
v 0.011463 0.025847 0.200240
v 0.030114 0.025863 0.152193
v 0.013335 0.027752 0.031051
v 0.008293 0.025843 0.095176
v 0.018916 0.026480 0.123715
v 0.007315 0.026151 0.261128
v 0.005958 0.025997 0.407049
v 0.004825 0.025979 0.528167
v 0.004553 0.025972 0.653190
v 0.004212 0.025972 0.760566
v 0.003382 0.026319 0.845444
vn -0.0000 1.0000 0.0021
vn -0.2255 0.9718 0.0688
vn -0.1731 0.9845 0.0291
vn -0.0000 1.0000 0.0017
vn -0.4524 0.8810 0.1384
vn -0.3811 0.9204 0.0878
vn -0.0000 1.0000 -0.0044
vn -0.0101 0.9999 -0.0042
vn -0.5281 0.8492 0.0034
vn -0.5307 0.8454 -0.0608
vn -0.2094 0.9773 -0.0317
vn -0.0000 0.9999 -0.0131
vn -0.0000 0.9996 -0.0299
vn -0.2870 0.9579 -0.0040
vn -0.2690 0.9585 -0.0939
vn -0.0000 1.0000 -0.0033
vn -0.5017 0.8468 -0.1766
vn -0.4517 0.8901 -0.0610
vn -0.4266 0.9044 0.0097
vn -0.1490 0.9888 0.0108
vn -0.0000 1.0000 0.0047
vn -0.0883 0.9961 0.0011
vn -0.0000 1.0000 0.0011
vn 0.2894 0.9572 -0.0001
vn -0.0000 1.0000 -0.0007
vn 0.3239 0.9461 -0.0008
vn 0.3173 0.9483 -0.0002
vn 0.2630 0.9648 -0.0026
vn -0.0000 1.0000 -0.0021
vn 0.2290 0.9734 -0.0031
vn -0.0000 1.0000 -0.0032
vn -0.3712 0.9283 0.0223
vn -0.3701 0.9290 0.0019
vn -0.3621 0.9321 0.0021
vn -0.3640 0.9314 0.0012
vn -0.3641 0.9313 0.0012
vn -0.3697 0.9291 0.0050
vn -0.3701 0.9290 0.0053
vn -0.3735 0.9250 0.0706
vn -0.3738 0.9258 0.0560
vn -0.3585 0.9261 0.1176
vn -0.3658 0.9234 0.1160
vn -0.3126 0.9411 0.1288
vn -0.3007 0.9444 0.1331
vn 0.1731 0.9845 0.0291
vn 0.2255 0.9718 0.0688
vn 0.3811 0.9204 0.0878
vn 0.4524 0.8810 0.1384
vn 0.0101 0.9999 -0.0042
vn 0.5307 0.8454 -0.0608
vn 0.5281 0.8492 0.0034
vn 0.2094 0.9773 -0.0317
vn 0.2870 0.9579 -0.0040
vn 0.2690 0.9585 -0.0939
vn 0.5017 0.8468 -0.1766
vn 0.4517 0.8901 -0.0610
vn 0.4266 0.9044 0.0097
vn 0.1490 0.9888 0.0108
vn 0.0883 0.9961 0.0011
vn -0.2894 0.9572 -0.0001
vn -0.3173 0.9483 -0.0002
vn -0.3239 0.9461 -0.0008
vn -0.2630 0.9648 -0.0026
vn -0.2290 0.9734 -0.0031
vn 0.3712 0.9283 0.0223
vn 0.3701 0.9290 0.0019
vn 0.3621 0.9321 0.0021
vn 0.3640 0.9314 0.0012
vn 0.3641 0.9313 0.0012
vn 0.3697 0.9291 0.0050
vn 0.3701 0.9290 0.0053
vn 0.3735 0.9250 0.0706
vn 0.3738 0.9258 0.0560
vn 0.3585 0.9261 0.1176
vn 0.3658 0.9234 0.1160
vn 0.3126 0.9411 0.1288
vn 0.3007 0.9444 0.1331
vn -0.0000 -1.0000 0.0021
vn -0.0000 -1.0000 0.0017
vn -0.1731 -0.9845 0.0291
vn -0.2255 -0.9718 0.0688
vn -0.3811 -0.9204 0.0878
vn -0.4524 -0.8810 0.1384
vn -0.0101 -0.9999 -0.0042
vn -0.0000 -1.0000 -0.0045
vn -0.5307 -0.8454 -0.0608
vn -0.5281 -0.8492 0.0034
vn -0.2094 -0.9773 -0.0317
vn -0.2870 -0.9579 -0.0040
vn -0.0000 -0.9996 -0.0299
vn -0.0000 -0.9999 -0.0131
vn -0.2690 -0.9585 -0.0939
vn -0.0000 -1.0000 -0.0033
vn -0.5017 -0.8468 -0.1766
vn -0.4517 -0.8901 -0.0610
vn -0.4266 -0.9044 0.0097
vn -0.0000 -1.0000 0.0047
vn -0.1490 -0.9888 0.0108
vn -0.0000 -1.0000 0.0011
vn -0.0883 -0.9961 0.0011
vn -0.0000 -1.0000 -0.0007
vn 0.2894 -0.9572 -0.0001
vn 0.3173 -0.9483 -0.0002
vn 0.3239 -0.9461 -0.0008
vn -0.0000 -1.0000 -0.0021
vn 0.2630 -0.9648 -0.0026
vn -0.0000 -1.0000 -0.0032
vn 0.2290 -0.9734 -0.0031
vn -0.3712 -0.9283 0.0223
vn -0.3701 -0.9290 0.0019
vn -0.3621 -0.9321 0.0021
vn -0.3640 -0.9314 0.0012
vn -0.3641 -0.9313 0.0012
vn -0.3697 -0.9291 0.0050
vn -0.3701 -0.9290 0.0053
vn -0.3735 -0.9250 0.0706
vn -0.3738 -0.9258 0.0560
vn -0.3585 -0.9261 0.1176
vn -0.3658 -0.9234 0.1160
vn -0.3126 -0.9411 0.1288
vn -0.3007 -0.9444 0.1331
vn 0.2255 -0.9718 0.0688
vn 0.1731 -0.9845 0.0291
vn 0.4524 -0.8810 0.1384
vn 0.3811 -0.9204 0.0878
vn 0.0101 -0.9999 -0.0042
vn 0.5281 -0.8492 0.0034
vn 0.5307 -0.8454 -0.0608
vn 0.2094 -0.9773 -0.0317
vn 0.2870 -0.9579 -0.0040
vn 0.2690 -0.9585 -0.0939
vn 0.5017 -0.8468 -0.1766
vn 0.4517 -0.8901 -0.0610
vn 0.4266 -0.9044 0.0097
vn 0.1490 -0.9888 0.0108
vn 0.0883 -0.9961 0.0011
vn -0.2894 -0.9572 -0.0001
vn -0.3239 -0.9461 -0.0008
vn -0.3173 -0.9483 -0.0002
vn -0.2630 -0.9648 -0.0026
vn -0.2290 -0.9734 -0.0031
vn 0.3712 -0.9283 0.0223
vn 0.3701 -0.9290 0.0019
vn 0.3621 -0.9321 0.0021
vn 0.3640 -0.9314 0.0012
vn 0.3641 -0.9313 0.0012
vn 0.3697 -0.9291 0.0050
vn 0.3701 -0.9290 0.0053
vn 0.3735 -0.9250 0.0706
vn 0.3738 -0.9258 0.0560
vn 0.3585 -0.9261 0.1176
vn 0.3658 -0.9234 0.1160
vn 0.3126 -0.9411 0.1288
vn 0.3007 -0.9444 0.1331
vt 0.043442 0.166995
vt 0.067050 0.170369
vt 0.055571 0.201444
vt 0.042500 0.198182
vt 0.081559 0.173388
vt 0.076824 0.192734
vt 0.044108 0.144921
vt 0.077489 0.147036
vt 0.088232 0.144136
vt 0.055641 0.080435
vt 0.046100 0.079003
vt 0.048114 0.012296
vt 0.063676 0.005834
vt 0.066858 0.114171
vt 0.045095 0.112258
vt 0.077179 0.111419
vt 0.070945 0.079306
vt 0.074875 0.001708
vt 0.048635 0.271872
vt 0.040370 0.268686
vt 0.042138 0.440566
vt 0.035270 0.437508
vt 0.036649 0.580403
vt 0.031047 0.577338
vt 0.032072 0.724737
vt 0.026687 0.721685
vt 0.027875 0.848657
vt 0.022947 0.845485
vt 0.023711 0.946227
vt 0.019531 0.958563
vt 0.064553 0.269824
vt 0.060083 0.441158
vt 0.054572 0.580983
vt 0.049970 0.726539
vt 0.045454 0.850705
vt 0.039752 0.945893
vt 0.035278 0.960169
vt 0.026447 0.983754
vt 0.018283 0.999888
vt 0.029255 0.200650
vt 0.019672 0.168938
vt 0.008567 0.190672
vt 0.005008 0.171076
vt 0.010661 0.145017
vt 0.000112 0.141474
vt 0.036489 0.079856
vt 0.032971 0.004907
vt 0.023256 0.112854
vt 0.013120 0.109484
vt 0.021281 0.077806
vt 0.022042 0.000112
vt 0.031928 0.271367
vt 0.028231 0.440146
vt 0.025270 0.580059
vt 0.021127 0.724406
vt 0.017837 0.848354
vt 0.016104 0.945997
vt 0.016162 0.268363
vt 0.010283 0.439654
vt 0.007344 0.579556
vt 0.003153 0.725125
vt 0.000166 0.849337
vt 0.000112 0.944695
vt 0.003716 0.959215
vt 0.011108 0.983290
vt 0.131786 0.166995
vt 0.130844 0.198182
vt 0.117600 0.200650
vt 0.108017 0.168938
vt 0.096912 0.190672
vt 0.093353 0.171076
vt 0.099006 0.145017
vt 0.132453 0.144921
vt 0.088457 0.141474
vt 0.124833 0.079856
vt 0.121316 0.004907
vt 0.136459 0.012296
vt 0.134444 0.079003
vt 0.111601 0.112854
vt 0.133440 0.112259
vt 0.101465 0.109484
vt 0.109626 0.077806
vt 0.110386 0.000112
vt 0.128715 0.268686
vt 0.120272 0.271367
vt 0.123615 0.437508
vt 0.116575 0.440146
vt 0.119391 0.577338
vt 0.113615 0.580059
vt 0.115031 0.721685
vt 0.109472 0.724406
vt 0.111292 0.845485
vt 0.106181 0.848354
vt 0.107876 0.958563
vt 0.104448 0.945997
vt 0.104507 0.268363
vt 0.098628 0.439654
vt 0.095689 0.579556
vt 0.091498 0.725125
vt 0.088511 0.849337
vt 0.088457 0.944695
vt 0.092061 0.959215
vt 0.099452 0.983290
vt 0.106628 0.999887
vt 0.155395 0.170369
vt 0.143915 0.201444
vt 0.169903 0.173388
vt 0.165168 0.192734
vt 0.165834 0.147036
vt 0.176577 0.144136
vt 0.143986 0.080435
vt 0.152021 0.005834
vt 0.155203 0.114171
vt 0.165524 0.111419
vt 0.159289 0.079306
vt 0.163220 0.001708
vt 0.136980 0.271872
vt 0.130483 0.440566
vt 0.124993 0.580402
vt 0.120417 0.724737
vt 0.116220 0.848657
vt 0.112056 0.946227
vt 0.152898 0.269824
vt 0.148427 0.441158
vt 0.142917 0.580983
vt 0.138314 0.726539
vt 0.133798 0.850705
vt 0.128097 0.945893
vt 0.123623 0.960168
vt 0.114792 0.983754
s 1
usemtl Weapon_1
f 1/1/1 2/2/2 4/3/3 3/4/4
f 4/3/3 2/2/2 5/5/5 6/6/6
f 2/2/2 1/1/1 7/7/7 8/8/8
f 5/5/5 2/2/2 8/8/9 9/9/10
f 12/10/11 13/11/12 10/12/13 11/13/14
f 16/14/15 17/15/16 13/11/12 12/10/11
f 18/16/17 16/14/15 12/10/11 14/17/18
f 15/18/19 14/17/18 12/10/11 11/13/14
f 9/9/10 8/8/9 16/14/15 18/16/17
f 8/8/8 7/7/7 17/15/16 16/14/15
f 3/4/4 4/3/3 20/19/20 19/20/21
f 19/20/21 20/19/20 22/21/22 21/22/23
f 21/22/23 22/21/22 24/23/24 23/24/25
f 23/24/25 24/23/24 26/25/26 25/26/27
f 25/26/27 26/25/26 28/27/28 27/28/29
f 27/28/29 28/27/28 30/29/30 29/30/31
f 31/31/32 20/19/20 4/3/3 6/6/6
f 22/21/22 20/19/20 31/31/32 32/32/33
f 24/23/34 22/21/22 32/32/33 33/33/34
f 26/25/35 24/23/34 33/33/34 34/34/36
f 28/27/37 26/25/35 34/34/36 35/35/38
f 30/29/39 28/27/37 35/35/38 36/36/40
f 29/30/41 30/29/39 36/36/40 37/37/42
f 29/30/41 37/37/42 39/38/43
f 38/39/44 29/30/41 39/38/43
f 1/1/1 3/4/4 41/40/45 40/41/46
f 41/40/45 43/42/47 42/43/48 40/41/46
f 40/41/46 44/44/49 7/7/7 1/1/1
f 42/43/48 45/45/50 44/44/51 40/41/46
f 47/46/52 46/47/53 10/12/13 13/11/12
f 50/48/54 47/46/52 13/11/12 17/15/16
f 51/49/55 48/50/56 47/46/52 50/48/54
f 49/51/57 46/47/53 47/46/52 48/50/56
f 45/45/50 51/49/55 50/48/54 44/44/51
f 44/44/49 50/48/54 17/15/16 7/7/7
f 3/4/4 19/20/21 52/52/58 41/40/45
f 19/20/21 21/22/23 53/53/59 52/52/58
f 21/22/23 23/24/25 54/54/60 53/53/59
f 23/24/25 25/26/61 55/55/62 54/54/60
f 25/26/61 27/28/29 56/56/63 55/55/62
f 27/28/29 29/30/31 57/57/64 56/56/63
f 58/58/65 43/42/47 41/40/45 52/52/58
f 53/53/59 59/59/66 58/58/65 52/52/58
f 54/54/67 60/60/67 59/59/66 53/53/59
f 55/55/68 61/61/69 60/60/67 54/54/67
f 56/56/70 62/62/71 61/61/69 55/55/68
f 57/57/72 63/63/73 62/62/71 56/56/70
f 29/30/74 64/64/75 63/63/73 57/57/72
f 29/30/74 65/65/76 64/64/75
f 38/39/77 65/65/76 29/30/74
f 66/66/78 68/67/79 69/68/80 67/69/81
f 69/68/80 6/70/82 5/71/83 67/69/81
f 67/69/81 71/72/84 70/73/85 66/66/78
f 5/71/83 9/74/86 71/72/87 67/69/81
f 74/75/88 73/76/89 72/77/90 75/78/91
f 76/79/92 74/75/88 75/78/91 77/80/93
f 18/81/94 14/82/95 74/75/88 76/79/92
f 15/83/96 73/76/89 74/75/88 14/82/95
f 9/74/86 18/81/94 76/79/92 71/72/87
f 71/72/84 76/79/92 77/80/93 70/73/85
f 68/67/79 78/84/97 79/85/98 69/68/80
f 78/84/97 80/86/99 81/87/100 79/85/98
f 80/86/99 82/88/101 83/89/102 81/87/100
f 82/88/101 84/90/103 85/91/104 83/89/102
f 84/90/103 86/92/105 87/93/106 85/91/104
f 86/92/105 88/94/107 89/95/108 87/93/106
f 31/96/109 6/70/82 69/68/80 79/85/98
f 81/87/100 32/97/110 31/96/109 79/85/98
f 83/89/111 33/98/111 32/97/110 81/87/100
f 85/91/112 34/99/113 33/98/111 83/89/111
f 87/93/114 35/100/115 34/99/113 85/91/112
f 89/95/116 36/101/117 35/100/115 87/93/114
f 88/94/118 37/102/119 36/101/117 89/95/116
f 88/94/118 39/103/120 37/102/119
f 38/104/121 39/103/120 88/94/118
f 66/66/78 90/105/122 91/106/123 68/67/79
f 91/106/123 90/105/122 42/107/124 43/108/125
f 90/105/122 66/66/78 70/73/85 92/109/126
f 42/107/124 90/105/122 92/109/127 45/110/128
f 94/111/129 75/78/91 72/77/90 93/112/130
f 95/113/131 77/80/93 75/78/91 94/111/129
f 51/114/132 95/113/131 94/111/129 48/115/133
f 49/116/134 48/115/133 94/111/129 93/112/130
f 45/110/128 92/109/127 95/113/131 51/114/132
f 92/109/126 70/73/85 77/80/93 95/113/131
f 68/67/79 91/106/123 96/117/135 78/84/97
f 78/84/97 96/117/135 97/118/136 80/86/99
f 80/86/99 97/118/136 98/119/137 82/88/101
f 82/88/101 98/119/137 99/120/138 84/90/139
f 84/90/139 99/120/138 100/121/140 86/92/105
f 86/92/105 100/121/140 101/122/141 88/94/107
f 58/123/142 96/117/135 91/106/123 43/108/125
f 97/118/136 96/117/135 58/123/142 59/124/143
f 98/119/144 97/118/136 59/124/143 60/125/144
f 99/120/145 98/119/144 60/125/144 61/126/146
f 100/121/147 99/120/145 61/126/146 62/127/148
f 101/122/149 100/121/147 62/127/148 63/128/150
f 88/94/151 101/122/149 63/128/150 64/129/152
f 88/94/151 64/129/152 65/130/153
f 38/104/154 88/94/151 65/130/153
