# Blender 5.2.0 LTS
# www.blender.org
mtllib blade2.mtl
o Historical_sword_Milano_1848.002
v 0.025717 0.028555 0.012882
v 0.023470 0.028555 0.143724
v 0.024045 0.028555 0.279411
v 0.024045 0.028555 0.377602
v 0.022687 0.028555 0.466291
v 0.022763 0.028555 0.497385
v 0.021672 0.028555 0.525971
v 0.020581 0.028555 0.550193
v 0.018617 0.028555 0.573106
v 0.015998 0.028555 0.593836
v 0.013379 0.028555 0.609766
v 0.008008 0.028555 0.634002
v -0.002291 0.028555 0.666744
v -0.002291 0.030319 0.633625
v 0.003200 0.030397 0.609557
v 0.006216 0.030448 0.593720
v 0.008980 0.030514 0.573358
v 0.010869 0.030591 0.549602
v 0.012250 0.030668 0.525846
v 0.012627 0.030759 0.497565
v 0.013004 0.030861 0.465891
v 0.014512 0.031148 0.377278
v 0.014135 0.031465 0.278860
v 0.014135 0.031903 0.143490
v 0.015643 0.032324 0.012882
v -0.002291 0.030397 0.609557
v -0.002291 0.030448 0.593720
v -0.002291 0.030514 0.573358
v -0.002291 0.030591 0.549602
v -0.002291 0.030668 0.525846
v -0.002291 0.030759 0.497565
v -0.002291 0.030861 0.465891
v -0.002291 0.031148 0.377278
v -0.002291 0.031465 0.278860
v -0.002291 0.031903 0.143490
v -0.002291 0.032324 0.012882
v -0.030299 0.028555 0.012882
v -0.028052 0.028555 0.143724
v -0.028627 0.028555 0.279411
v -0.028627 0.028555 0.377602
v -0.027269 0.028555 0.466291
v -0.027345 0.028555 0.497385
v -0.026254 0.028555 0.525971
v -0.025163 0.028555 0.550193
v -0.023199 0.028555 0.573106
v -0.020580 0.028555 0.593836
v -0.017961 0.028555 0.609766
v -0.012589 0.028555 0.634002
v -0.007782 0.030397 0.609557
v -0.010798 0.030448 0.593720
v -0.013562 0.030514 0.573358
v -0.015451 0.030591 0.549602
v -0.016832 0.030668 0.525846
v -0.017209 0.030759 0.497565
v -0.017586 0.030861 0.465891
v -0.019094 0.031148 0.377278
v -0.018717 0.031465 0.278860
v -0.018717 0.031903 0.143490
v -0.020225 0.032324 0.012882
v -0.002291 0.026790 0.633625
v 0.003200 0.026712 0.609557
v 0.006216 0.026661 0.593720
v 0.008980 0.026595 0.573358
v 0.010869 0.026519 0.549602
v 0.012250 0.026442 0.525846
v 0.012627 0.026351 0.497565
v 0.013004 0.026248 0.465891
v 0.014512 0.025962 0.377278
v 0.014135 0.025644 0.278860
v 0.014135 0.025207 0.143490
v 0.015643 0.024785 0.012882
v -0.002291 0.026712 0.609557
v -0.002291 0.026661 0.593720
v -0.002291 0.026595 0.573358
v -0.002291 0.026519 0.549602
v -0.002291 0.026442 0.525846
v -0.002291 0.026351 0.497565
v -0.002291 0.026248 0.465891
v -0.002291 0.025962 0.377278
v -0.002291 0.025644 0.278860
v -0.002291 0.025207 0.143490
v -0.002291 0.024785 0.012882
v -0.007782 0.026712 0.609557
v -0.010798 0.026661 0.593720
v -0.013562 0.026595 0.573358
v -0.015451 0.026519 0.549602
v -0.016832 0.026442 0.525846
v -0.017209 0.026351 0.497565
v -0.017586 0.026248 0.465891
v -0.019094 0.025962 0.377278
v -0.018717 0.025644 0.278860
v -0.018717 0.025207 0.143490
v -0.020225 0.024785 0.012882
vn 0.1700 0.9844 0.0452
vn 0.1766 0.9836 0.0379
vn 0.1766 0.9835 0.0378
vn 0.1899 0.9813 0.0300
vn 0.1897 0.9814 0.0302
vn 0.1986 0.9798 0.0223
vn 0.1986 0.9798 0.0224
vn 0.2067 0.9783 0.0154
vn 0.2137 0.9768 0.0095
vn 0.2137 0.9769 0.0096
vn 0.2188 0.9758 0.0048
vn 0.2187 0.9758 0.0049
vn 0.2402 0.9707 0.0048
vn 0.2604 0.9655 0.0031
vn 0.2603 0.9655 0.0032
vn 0.2938 0.9559 0.0009
vn 0.2937 0.9559 0.0009
vn 0.3266 0.9452 0.0036
vn 0.3265 0.9452 0.0036
vn 0.3442 0.9389 0.0065
vn -0.0000 1.0000 0.0032
vn 0.1668 0.9846 0.0525
vn -0.1700 0.9844 0.0452
vn -0.1766 0.9835 0.0378
vn -0.1766 0.9836 0.0379
vn -0.1897 0.9814 0.0302
vn -0.1898 0.9814 0.0301
vn -0.1986 0.9798 0.0223
vn -0.2067 0.9783 0.0154
vn -0.2137 0.9769 0.0096
vn -0.2137 0.9768 0.0095
vn -0.2187 0.9758 0.0049
vn -0.2188 0.9758 0.0048
vn -0.2402 0.9707 0.0048
vn -0.2604 0.9655 0.0032
vn -0.2937 0.9559 0.0009
vn -0.2938 0.9559 0.0009
vn -0.3265 0.9452 0.0036
vn -0.3266 0.9452 0.0036
vn -0.3442 0.9389 0.0065
vn -0.1668 0.9846 0.0525
vn 0.1700 -0.9844 0.0452
vn 0.1766 -0.9836 0.0379
vn 0.1897 -0.9814 0.0302
vn 0.1899 -0.9813 0.0300
vn 0.1986 -0.9798 0.0223
vn 0.2067 -0.9783 0.0154
vn 0.2138 -0.9768 0.0095
vn 0.2137 -0.9768 0.0095
vn 0.2189 -0.9757 0.0047
vn 0.2191 -0.9757 0.0047
vn 0.2402 -0.9707 0.0048
vn 0.2601 -0.9656 0.0032
vn 0.2603 -0.9655 0.0032
vn 0.2937 -0.9559 0.0009
vn 0.2938 -0.9559 0.0009
vn 0.3265 -0.9452 0.0036
vn 0.3266 -0.9452 0.0036
vn 0.3442 -0.9389 0.0065
vn -0.0000 -1.0000 0.0032
vn 0.1668 -0.9846 0.0525
vn -0.1700 -0.9844 0.0452
vn -0.1765 -0.9836 0.0379
vn -0.1766 -0.9835 0.0378
vn -0.1899 -0.9813 0.0300
vn -0.1897 -0.9814 0.0302
vn -0.1986 -0.9798 0.0223
vn -0.1986 -0.9798 0.0224
vn -0.2067 -0.9783 0.0154
vn -0.2138 -0.9768 0.0094
vn -0.2138 -0.9768 0.0095
vn -0.2188 -0.9758 0.0048
vn -0.2189 -0.9757 0.0047
vn -0.2402 -0.9707 0.0048
vn -0.2604 -0.9655 0.0032
vn -0.2938 -0.9559 0.0009
vn -0.3266 -0.9452 0.0036
vn -0.3265 -0.9452 0.0036
vn -0.3442 -0.9389 0.0065
vn -0.1668 -0.9846 0.0525
vt 0.479055 0.121356
vt 0.584812 0.120847
vt 0.639976 0.153555
vt 0.535440 0.153837
vt 0.666867 0.175053
vt 0.566419 0.175210
vt 0.693758 0.203030
vt 0.594803 0.202690
vt 0.713926 0.233952
vt 0.614201 0.234749
vt 0.725130 0.266640
vt 0.628375 0.266809
vt 0.736334 0.305219
vt 0.632247 0.304975
vt 0.735561 0.347182
vt 0.636119 0.347722
vt 0.749501 0.466871
vt 0.651608 0.467309
vt 0.749501 0.599384
vt 0.647736 0.600128
vt 0.743598 0.782501
vt 0.647736 0.782817
vt 0.766676 0.958173
vt 0.663225 0.958173
vt 0.479055 0.600128
vt 0.479055 0.467309
vt 0.479055 0.304975
vt 0.479055 0.266809
vt 0.479055 0.202690
vt 0.479055 0.175210
vt 0.479055 0.782817
vt 0.479055 0.347722
vt 0.479055 0.234749
vt 0.479055 0.958173
vt 0.479055 0.153837
vt 0.479055 0.076660
vt 0.422669 0.153837
vt 0.318133 0.153555
vt 0.373298 0.120847
vt 0.391691 0.175210
vt 0.291243 0.175053
vt 0.363307 0.202690
vt 0.264352 0.203030
vt 0.343909 0.234749
vt 0.244184 0.233952
vt 0.329735 0.266809
vt 0.232979 0.266640
vt 0.325863 0.304975
vt 0.221775 0.305219
vt 0.321990 0.347722
vt 0.222549 0.347182
vt 0.306501 0.467309
vt 0.208609 0.466871
vt 0.310374 0.600128
vt 0.208609 0.599384
vt 0.310374 0.782817
vt 0.214511 0.782501
vt 0.294885 0.958173
vt 0.191433 0.958173
vt 0.474928 0.120871
vt 0.418542 0.153352
vt 0.314006 0.153070
vt 0.369171 0.120363
vt 0.387564 0.174725
vt 0.287115 0.174568
vt 0.359179 0.202205
vt 0.260225 0.202545
vt 0.339782 0.234264
vt 0.240057 0.233467
vt 0.325608 0.266324
vt 0.228852 0.266155
vt 0.321736 0.304490
vt 0.217648 0.304734
vt 0.317863 0.347236
vt 0.218422 0.346696
vt 0.302374 0.466824
vt 0.204482 0.466386
vt 0.306247 0.599643
vt 0.204482 0.598899
vt 0.306247 0.782332
vt 0.210385 0.782015
vt 0.290758 0.957688
vt 0.187306 0.957688
vt 0.474928 0.466824
vt 0.474928 0.599643
vt 0.474928 0.266324
vt 0.474928 0.304490
vt 0.474928 0.174725
vt 0.474928 0.202205
vt 0.474928 0.782332
vt 0.474928 0.347236
vt 0.474928 0.234264
vt 0.474928 0.957688
vt 0.474928 0.153352
vt 0.474928 0.076175
vt 0.580685 0.120363
vt 0.635849 0.153070
vt 0.531313 0.153352
vt 0.662740 0.174568
vt 0.562291 0.174725
vt 0.689631 0.202545
vt 0.590676 0.202205
vt 0.709798 0.233467
vt 0.610073 0.234264
vt 0.721003 0.266155
vt 0.624247 0.266324
vt 0.732208 0.304734
vt 0.628120 0.304490
vt 0.731433 0.346696
vt 0.631992 0.347236
vt 0.745373 0.466386
vt 0.647481 0.466824
vt 0.745373 0.598899
vt 0.643609 0.599643
vt 0.739471 0.782015
vt 0.643609 0.782332
vt 0.762550 0.957688
vt 0.659098 0.957688
s 1
usemtl Klinge-mitte.001
f 14/1/1 12/2/1 11/3/2 15/4/3
f 15/4/3 11/3/2 10/5/4 16/6/5
f 16/6/5 10/5/4 9/7/6 17/8/7
f 17/8/7 9/7/6 8/9/8 18/10/8
f 18/10/8 8/9/8 7/11/9 19/12/10
f 19/12/10 7/11/9 6/13/11 20/14/12
f 20/14/12 6/13/11 5/15/13 21/16/13
f 21/16/13 5/15/13 4/17/14 22/18/15
f 22/18/15 4/17/14 3/19/16 23/20/17
f 23/20/17 3/19/16 2/21/18 24/22/19
f 24/22/19 2/21/18 1/23/20 25/24/20
f 23/20/21 34/25/21 33/26/21 22/18/21
f 20/14/21 31/27/21 30/28/21 19/12/21
f 17/8/21 28/29/21 27/30/21 16/6/21
f 24/22/21 35/31/21 34/25/21 23/20/21
f 21/16/21 32/32/21 31/27/21 20/14/21
f 18/10/21 29/33/21 28/29/21 17/8/21
f 25/24/21 36/34/21 35/31/21 24/22/21
f 22/18/21 33/26/21 32/32/21 21/16/21
f 19/12/21 30/28/21 29/33/21 18/10/21
f 16/6/21 27/30/21 26/35/21 15/4/21
f 15/4/21 26/35/21 14/1/21
f 12/2/1 14/1/1 13/36/22
f 14/1/23 49/37/24 47/38/25 48/39/23
f 49/37/24 50/40/26 46/41/27 47/38/25
f 50/40/26 51/42/28 45/43/28 46/41/27
f 51/42/28 52/44/29 44/45/29 45/43/28
f 52/44/29 53/46/30 43/47/31 44/45/29
f 53/46/30 54/48/32 42/49/33 43/47/31
f 54/48/32 55/50/34 41/51/34 42/49/33
f 55/50/34 56/52/35 40/53/35 41/51/34
f 56/52/35 57/54/36 39/55/37 40/53/35
f 57/54/36 58/56/38 38/57/39 39/55/37
f 58/56/38 59/58/40 37/59/40 38/57/39
f 57/54/21 56/52/21 33/26/21 34/25/21
f 54/48/21 53/46/21 30/28/21 31/27/21
f 51/42/21 50/40/21 27/30/21 28/29/21
f 58/56/21 57/54/21 34/25/21 35/31/21
f 55/50/21 54/48/21 31/27/21 32/32/21
f 52/44/21 51/42/21 28/29/21 29/33/21
f 59/58/21 58/56/21 35/31/21 36/34/21
f 56/52/21 55/50/21 32/32/21 33/26/21
f 53/46/21 52/44/21 29/33/21 30/28/21
f 50/40/21 49/37/21 26/35/21 27/30/21
f 49/37/21 14/1/21 26/35/21
f 48/39/23 13/36/41 14/1/23
f 60/60/42 61/61/43 11/62/43 12/63/42
f 61/61/43 62/64/44 10/65/45 11/62/43
f 62/64/44 63/66/46 9/67/46 10/65/45
f 63/66/46 64/68/47 8/69/47 9/67/46
f 64/68/47 65/70/48 7/71/49 8/69/47
f 65/70/48 66/72/50 6/73/51 7/71/49
f 66/72/50 67/74/52 5/75/52 6/73/51
f 67/74/52 68/76/53 4/77/54 5/75/52
f 68/76/53 69/78/55 3/79/56 4/77/54
f 69/78/55 70/80/57 2/81/58 3/79/56
f 70/80/57 71/82/59 1/83/59 2/81/58
f 69/78/60 68/76/60 79/84/60 80/85/60
f 66/72/60 65/70/60 76/86/60 77/87/60
f 63/66/60 62/64/60 73/88/60 74/89/60
f 70/80/60 69/78/60 80/85/60 81/90/60
f 67/74/60 66/72/60 77/87/60 78/91/60
f 64/68/60 63/66/60 74/89/60 75/92/60
f 71/82/60 70/80/60 81/90/60 82/93/60
f 68/76/60 67/74/60 78/91/60 79/84/60
f 65/70/60 64/68/60 75/92/60 76/86/60
f 62/64/60 61/61/60 72/94/60 73/88/60
f 61/61/60 60/60/60 72/94/60
f 12/63/42 13/95/61 60/60/42
f 60/60/62 48/96/62 47/97/63 83/98/64
f 83/98/64 47/97/63 46/99/65 84/100/66
f 84/100/66 46/99/65 45/101/67 85/102/68
f 85/102/68 45/101/67 44/103/69 86/104/69
f 86/104/69 44/103/69 43/105/70 87/106/71
f 87/106/71 43/105/70 42/107/72 88/108/73
f 88/108/73 42/107/72 41/109/74 89/110/74
f 89/110/74 41/109/74 40/111/75 90/112/75
f 90/112/75 40/111/75 39/113/76 91/114/76
f 91/114/76 39/113/76 38/115/77 92/116/78
f 92/116/78 38/115/77 37/117/79 93/118/79
f 91/114/60 80/85/60 79/84/60 90/112/60
f 88/108/60 77/87/60 76/86/60 87/106/60
f 85/102/60 74/89/60 73/88/60 84/100/60
f 92/116/60 81/90/60 80/85/60 91/114/60
f 89/110/60 78/91/60 77/87/60 88/108/60
f 86/104/60 75/92/60 74/89/60 85/102/60
f 93/118/60 82/93/60 81/90/60 92/116/60
f 90/112/60 79/84/60 78/91/60 89/110/60
f 87/106/60 76/86/60 75/92/60 86/104/60
f 84/100/60 73/88/60 72/94/60 83/98/60
f 83/98/60 72/94/60 60/60/60
f 48/96/62 60/60/62 13/95/80
