# Blender 5.2.0 LTS
# www.blender.org
o Cube
v -0.129489 -0.151013 -0.127831
v -0.129489 0.106368 -0.127831
v -0.129489 -0.151013 0.129551
v -0.129489 0.106368 0.129551
v 0.127892 -0.151013 -0.127831
v 0.127892 0.106368 -0.127831
v 0.127892 -0.151013 0.129551
v 0.127892 0.106368 0.129551
v -0.121734 -1.027709 0.136865
v 0.135207 -1.027709 0.121795
v -0.136803 -1.027709 -0.120075
v 0.126395 -1.050780 -0.142146
v -0.019610 -2.857460 0.019610
v 0.019610 -2.857460 0.019610
v -0.019610 -2.857460 -0.019610
v 0.019610 -2.857460 -0.019610
v 0.056839 -2.813125 0.056453
v 0.056453 -2.813125 -0.056839
v -0.056453 -2.813125 0.056839
v -0.056839 -2.813125 -0.056453
v 0.107965 -1.078491 -0.121281
v -0.122939 -1.078491 -0.107903
v 0.121342 -1.078491 0.109623
v -0.109561 -1.078491 0.123001
v 0.128243 -0.193000 0.129179
v 0.134113 -0.178384 -0.134867
v -0.129839 -0.193000 -0.127459
v -0.129118 -0.193000 0.129901
v 0.134131 -0.898829 0.122935
v -0.135728 -0.898829 -0.121215
v 0.127587 -0.916081 -0.141022
v -0.122874 -0.898829 0.135790
vn 0.9996 -0.0002 -0.0291
vn -0.0000 -0.0000 1.0000
vn 1.0000 -0.0000 -0.0000
vn -0.0000 1.0000 -0.0000
vn -1.0000 -0.0000 -0.0000
vn -0.0000 -0.0000 -1.0000
vn 0.7675 -0.6411 -0.0019
vn -0.9985 0.0002 0.0543
vn -0.0792 0.0006 -0.9969
vn 0.0543 0.0002 0.9985
vn -0.0000 -1.0000 -0.0000
vn 0.0019 -0.6411 0.7675
vn -0.0019 -0.6411 -0.7675
vn -0.7675 -0.6411 0.0019
vn -0.9986 -0.0345 0.0399
vn -0.0399 -0.0335 -0.9986
vn 0.0399 -0.0345 0.9986
vn 0.9986 -0.0335 -0.0399
vn 0.9236 -0.3826 -0.0236
vn 0.0564 -0.2488 0.9669
vn -0.0839 -0.3824 -0.9202
vn -0.9669 -0.2488 0.0564
vn 0.0014 -0.0002 1.0000
vn -0.0168 0.0942 -0.9954
vn -1.0000 -0.0002 0.0014
vn 0.9956 0.0928 0.0138
vn 0.0264 -0.0000 0.9997
vn -0.0515 0.0004 -0.9987
vn -0.9997 -0.0000 0.0264
vn 1.0000 -0.0004 -0.0013
vt 0.625000 0.250000
vt 0.625000 0.000000
vt 0.375000 0.750000
vt 0.625000 0.750000
vt 0.625000 1.000000
vt 0.375000 1.000000
vt 0.375000 0.000000
vt 0.375000 0.250000
vt 0.125000 0.500000
vt 0.375000 0.500000
vt 0.125000 0.750000
vt 0.625000 0.500000
vt 0.625000 0.000000
vt 0.875000 0.500000
vt 0.875000 0.750000
vt 0.625000 1.000000
vt 0.625000 0.250000
vt 0.625000 0.500000
s 0
f 31/1/1 29/2/1 10/2/1 12/1/1
f 4/3/2 3/4/2 7/5/2 8/6/2
f 8/7/3 7/2/3 5/1/3 6/8/3
f 6/9/4 2/10/4 4/3/4 8/11/4
f 2/10/5 1/12/5 3/4/5 4/3/5
f 6/8/6 5/1/6 1/12/6 2/10/6
f 18/1/7 17/13/7 14/2/7 16/1/7
f 32/4/8 30/12/8 11/12/8 9/4/8
f 30/12/9 31/1/9 12/1/9 11/12/9
f 29/5/10 32/4/10 9/4/10 10/5/10
f 15/12/11 16/14/11 14/15/11 13/4/11
f 17/16/12 19/4/12 13/4/12 14/5/12
f 20/12/13 18/1/13 16/1/13 15/12/13
f 19/4/14 20/12/14 15/12/14 13/4/14
f 24/4/15 22/12/15 20/12/15 19/4/15
f 22/12/16 21/17/16 18/1/16 20/12/16
f 23/5/17 24/4/17 19/4/17 17/16/17
f 21/17/18 23/2/18 17/13/18 18/1/18
f 12/1/19 10/2/19 23/2/19 21/17/19
f 10/5/20 9/4/20 24/4/20 23/5/20
f 11/12/21 12/1/21 21/17/21 22/12/21
f 9/4/22 11/12/22 22/12/22 24/4/22
f 7/5/23 3/4/23 28/4/23 25/5/23
f 1/12/24 5/1/24 26/1/24 27/18/24
f 3/4/25 1/12/25 27/18/25 28/4/25
f 5/1/26 7/2/26 25/2/26 26/1/26
f 25/5/27 28/4/27 32/4/27 29/5/27
f 27/18/28 26/1/28 31/1/28 30/12/28
f 28/4/29 27/18/29 30/12/29 32/4/29
f 26/1/30 25/2/30 29/2/30 31/1/30
