# Blender 5.2.0 LTS
# www.blender.org
mtllib fence.mtl
o Cube.004
v 0.175838 0.175838 0.175838
v 0.175838 -3.429285 0.175838
v 0.175838 0.175838 -0.175838
v 0.175838 -3.429285 -0.175838
v -0.175838 0.175838 0.175838
v -0.175838 -3.429285 0.175838
v -0.175838 0.175838 -0.175838
v -0.175838 -3.429285 -0.175838
v 0.131170 -0.728053 0.131739
v 0.212932 -1.626723 0.128445
v 0.121282 -2.498038 0.090879
v 0.171324 -2.506902 -0.172790
v 0.128445 -1.626723 -0.212932
v 0.163332 -0.782950 -0.174534
v -0.175838 -2.528004 -0.175838
v -0.212932 -1.626723 -0.128445
v -0.149553 -0.728053 -0.152223
v -0.202433 -2.521123 0.159582
v -0.128445 -1.626723 0.212932
v -0.190423 -0.728053 0.082725
v 0.173286 0.175838 -4.533043
v 0.173286 -3.429285 -4.533043
v -0.178390 0.175838 -4.532845
v -0.178390 -3.429285 -4.532845
v 0.173484 0.175838 -4.181367
v 0.173484 -3.429285 -4.181367
v -0.178192 0.175838 -4.181169
v -0.178192 -3.429285 -4.181169
v 0.129212 -0.728053 -4.488350
v 0.125872 -1.626723 -4.570110
v 0.088357 -2.498038 -4.478439
v -0.175340 -2.506902 -4.528333
v -0.215457 -1.626723 -4.485431
v -0.177080 -0.782950 -4.520339
v -0.178192 -2.528004 -4.181169
v -0.130779 -1.626723 -4.144102
v -0.154592 -0.728053 -4.207467
v 0.157243 -2.521123 -4.154762
v 0.210551 -1.626723 -4.228780
v 0.080379 -0.728053 -4.166729
v -0.061410 -0.804045 -0.117927
v -0.076911 -0.626795 -0.078073
v 0.080721 -0.823570 -0.110063
v 0.078595 -0.601611 -0.108148
v -0.076550 -0.823570 -4.249598
v -0.076550 -0.593494 -4.249598
v 0.071765 -0.823570 -4.249681
v 0.071765 -0.593494 -4.249681
v 0.047414 -0.806252 -3.121551
v 0.059111 -0.832075 -2.139541
v 0.068241 -0.811827 -1.106102
v 0.085368 -0.632101 -1.189008
v 0.070876 -0.596291 -2.157448
v 0.062407 -0.607484 -3.186679
v -0.074793 -0.823570 -1.129375
v -0.083144 -0.797667 -2.134193
v -0.075965 -0.823570 -3.209523
v -0.073095 -0.609793 -3.203018
v -0.067809 -0.614614 -2.184913
v -0.105445 -0.618761 -1.127742
v -0.009041 -1.695178 -4.280427
v -0.059322 -1.865950 -4.319862
v 0.134209 -1.704689 -4.286205
v 0.087497 -1.921693 -4.287340
v -0.078294 -1.645593 -0.149559
v -0.124583 -1.870963 -0.148718
v 0.066972 -1.675420 -0.147226
v 0.020683 -1.900790 -0.146384
v 0.055571 -1.694972 -1.275525
v 0.086090 -1.678546 -2.257332
v 0.105555 -1.707073 -3.290433
v 0.085001 -1.886017 -3.206620
v 0.049924 -1.911754 -2.238387
v 0.029345 -1.892258 -1.209450
v -0.032506 -1.666649 -3.269376
v -0.060087 -1.683676 -2.264712
v -0.063031 -1.652611 -1.189498
v -0.103138 -1.862636 -1.195177
v -0.082612 -1.865732 -2.213096
v -0.103710 -1.861116 -3.270724
v 0.058988 -2.861360 -4.285297
v 0.058005 -2.683363 -4.324823
v -0.080383 -2.894585 -4.296082
v -0.099795 -2.673466 -4.297953
v -0.008604 -2.887592 -0.154189
v -0.030960 -2.658604 -0.154188
v -0.156187 -2.902001 -0.157155
v -0.178544 -2.673013 -0.157154
v -0.110553 -2.880141 -1.284546
v -0.099585 -2.905012 -2.266588
v -0.089489 -2.883678 -3.299997
v -0.125692 -2.706633 -3.217460
v -0.134570 -2.671523 -2.248927
v -0.146119 -2.683900 -1.219739
v 0.053503 -2.881517 -3.273788
v 0.038732 -2.856936 -2.269011
v 0.012099 -2.885567 -1.194055
v -0.011397 -2.673067 -1.200617
v 0.004648 -2.676341 -2.218616
v 0.064135 -2.674696 -3.274790
vn 0.9961 0.0353 0.0805
vn 0.0043 0.0017 -1.0000
vn -0.9991 -0.0150 -0.0385
vn 0.0990 0.0590 0.9933
vn -0.0000 1.0000 -0.0000
vn -0.0000 -1.0000 -0.0000
vn -0.0724 -0.0731 0.9947
vn 0.0533 0.0746 0.9958
vn 0.2262 -0.0712 0.9715
vn -0.9976 -0.0038 -0.0695
vn -0.9971 0.0072 0.0755
vn -0.9963 0.0157 0.0851
vn -0.0347 -0.0136 -0.9993
vn -0.1597 0.0173 -0.9870
vn -0.1174 -0.0012 -0.9931
vn 0.9982 -0.0318 0.0514
vn 0.9961 0.0288 -0.0829
vn 0.9980 -0.0279 -0.0564
vn 0.0799 0.0353 -0.9962
vn -1.0000 0.0017 -0.0037
vn -0.0380 -0.0150 0.9992
vn 0.9933 0.0590 -0.0996
vn 0.9947 -0.0731 0.0719
vn 0.9958 0.0746 -0.0538
vn 0.9713 -0.0712 -0.2268
vn -0.0689 -0.0038 0.9976
vn 0.0760 0.0072 0.9971
vn 0.0856 0.0157 0.9962
vn -0.9993 -0.0136 0.0352
vn -0.9869 0.0173 0.1602
vn -0.9930 -0.0012 0.1180
vn 0.0509 -0.0318 -0.9982
vn -0.0835 0.0288 -0.9961
vn -0.0570 -0.0279 -0.9980
vn 0.0759 -0.1004 0.9920
vn 0.9993 -0.0326 0.0154
vn -0.0006 -0.0000 -1.0000
vn -0.9923 -0.1221 0.0209
vn 0.0608 -0.9981 0.0086
vn -0.0369 0.9993 -0.0102
vn -0.0090 0.9999 0.0143
vn -0.0746 0.9972 -0.0026
vn -0.0131 0.9997 0.0196
vn -0.0277 -0.9996 0.0042
vn -0.0791 -0.9969 -0.0021
vn -0.0643 -0.9979 0.0002
vn -1.0000 0.0064 0.0020
vn -0.9990 0.0457 -0.0014
vn -0.9990 -0.0413 -0.0148
vn 0.9993 -0.0378 -0.0024
vn 0.9973 -0.0723 -0.0123
vn 0.9979 -0.0634 -0.0105
vn 0.1086 0.0765 -0.9911
vn 0.9856 -0.1692 -0.0004
vn -0.0147 0.0067 0.9999
vn -0.9470 0.3191 -0.0364
vn 0.2605 0.9654 -0.0114
vn -0.2373 -0.9714 0.0133
vn -0.2097 -0.9777 -0.0108
vn -0.2738 -0.9618 0.0051
vn -0.2137 -0.9768 -0.0161
vn 0.1740 0.9847 -0.0083
vn 0.1231 0.9924 -0.0028
vn 0.1378 0.9904 -0.0048
vn -0.9807 0.1948 -0.0171
vn -0.9876 0.1562 -0.0136
vn -0.9704 0.2415 -0.0005
vn 0.9863 -0.1639 0.0174
vn 0.9912 -0.1296 0.0272
vn 0.9900 -0.1385 0.0254
vn -0.0455 -0.1054 -0.9934
vn -0.9909 -0.1295 -0.0360
vn -0.0199 -0.0019 0.9998
vn 0.9997 -0.0251 -0.0005
vn 0.0366 -0.9993 -0.0099
vn -0.0606 0.9981 0.0109
vn -0.0880 0.9960 -0.0141
vn -0.0227 0.9997 0.0041
vn -0.0837 0.9963 -0.0193
vn 0.1248 -0.9922 -0.0037
vn 0.1755 -0.9845 0.0037
vn 0.1609 -0.9870 0.0011
vn 0.9944 0.1036 0.0186
vn 0.9896 0.1425 0.0219
vn 0.9978 0.0559 0.0353
vn -0.9907 -0.1347 -0.0181
vn -0.9856 -0.1689 -0.0082
vn -0.9870 -0.1601 -0.0101
vt 0.739651 0.774746
vt 1.000046 0.776343
vt 0.992292 0.963393
vt 0.741369 0.926859
vt 0.744312 0.208095
vt 0.994472 0.202570
vt 0.995148 0.395580
vt 0.749700 0.399103
vt 0.995981 0.588761
vt 0.747080 0.585941
vt 0.524740 0.022253
vt 0.524740 0.210610
vt 0.431644 0.210610
vt 0.431644 0.022253
vt 0.288347 0.018717
vt 0.383400 0.018717
vt 0.383400 0.211032
vt 0.288347 0.211032
vt 0.002922 0.563037
vt 0.258989 0.541408
vt 0.258764 0.731572
vt 0.003128 0.753775
vt 0.506423 0.602531
vt 0.502181 0.781426
vt 0.007912 0.372436
vt 0.259802 0.403583
vt 0.507343 0.416898
vt 0.015875 0.180878
vt 0.276519 0.227526
vt 0.506381 0.225990
vt 0.274064 0.908933
vt 0.010475 0.944391
vt 0.501856 0.966916
vt 0.375000 0.000000
vt 0.375000 0.250000
vt 0.625000 0.250000
vt 0.625000 0.000000
vt 0.375000 0.437500
vt 0.375000 0.500000
vt 0.625000 0.500000
vt 0.625000 0.437500
vt 0.375000 0.750000
vt 0.625000 0.750000
vt 0.375000 0.937500
vt 0.375000 1.000000
vt 0.625000 1.000000
vt 0.625000 0.937500
vt 0.312500 0.500000
vt 0.312500 0.750000
vt 0.812500 0.500000
vt 0.812500 0.750000
vt 0.875000 0.750000
vt 0.875000 0.500000
vt 0.687500 0.750000
vt 0.687500 0.500000
vt 0.750000 0.750000
vt 0.750000 0.500000
vt 0.125000 0.500000
vt 0.125000 0.750000
vt 0.187500 0.750000
vt 0.187500 0.500000
vt 0.250000 0.750000
vt 0.250000 0.500000
vt 0.375000 0.812500
vt 0.625000 0.812500
vt 0.375000 0.875000
vt 0.625000 0.875000
vt 0.375000 0.312500
vt 0.625000 0.312500
vt 0.375000 0.375000
vt 0.625000 0.375000
s 0
usemtl Material.001
f 11/1/1 2/2/1 4/3/1 12/4/1
f 12/5/2 4/6/2 8/7/2 15/8/2
f 15/8/3 8/7/3 6/9/3 18/10/3
f 18/10/4 6/9/4 2/2/4 11/1/4
f 3/11/5 7/12/5 5/13/5 1/14/5
f 8/15/6 4/16/6 2/17/6 6/18/6
f 5/19/7 20/20/7 9/21/7 1/22/7
f 20/20/8 19/23/8 10/24/8 9/21/8
f 19/23/9 18/10/9 11/1/9 10/24/9
f 7/25/10 17/26/10 20/20/10 5/19/10
f 17/26/11 16/27/11 19/23/11 20/20/11
f 16/27/12 15/8/12 18/10/12 19/23/12
f 3/28/13 14/29/13 17/26/13 7/25/13
f 14/29/14 13/30/14 16/27/14 17/26/14
f 13/30/15 12/5/15 15/8/15 16/27/15
f 1/22/16 9/21/16 14/31/16 3/32/16
f 9/21/17 10/24/17 13/33/17 14/31/17
f 10/24/18 11/1/18 12/4/18 13/33/18
f 31/1/19 22/2/19 24/3/19 32/4/19
f 32/5/20 24/6/20 28/7/20 35/8/20
f 35/8/21 28/7/21 26/9/21 38/10/21
f 38/10/22 26/9/22 22/2/22 31/1/22
f 23/11/5 27/12/5 25/13/5 21/14/5
f 28/15/6 24/16/6 22/17/6 26/18/6
f 25/19/23 40/20/23 29/21/23 21/22/23
f 40/20/24 39/23/24 30/24/24 29/21/24
f 39/23/25 38/10/25 31/1/25 30/24/25
f 27/25/26 37/26/26 40/20/26 25/19/26
f 37/26/27 36/27/27 39/23/27 40/20/27
f 36/27/28 35/8/28 38/10/28 39/23/28
f 23/28/29 34/29/29 37/26/29 27/25/29
f 34/29/30 33/30/30 36/27/30 37/26/30
f 33/30/31 32/5/31 35/8/31 36/27/31
f 21/22/32 29/21/32 34/31/32 23/32/32
f 29/21/33 30/24/33 33/33/33 34/31/33
f 30/24/34 31/1/34 32/4/34 33/33/34
f 41/34/35 43/35/35 44/36/35 42/37/35
f 49/38/36 47/39/36 48/40/36 54/41/36
f 47/39/37 45/42/37 46/43/37 48/40/37
f 55/44/38 41/45/38 42/46/38 60/47/38
f 49/48/39 57/49/39 45/42/39 47/39/39
f 52/50/40 60/51/40 42/52/40 44/53/40
f 48/40/41 46/43/41 58/54/41 54/55/41
f 54/55/42 58/54/42 59/56/42 53/57/42
f 53/57/43 59/56/43 60/51/43 52/50/43
f 43/58/44 41/59/44 55/60/44 51/61/44
f 51/61/45 55/60/45 56/62/45 50/63/45
f 50/63/46 56/62/46 57/49/46 49/48/46
f 45/42/47 57/64/47 58/65/47 46/43/47
f 57/64/48 56/66/48 59/67/48 58/65/48
f 56/66/49 55/44/49 60/47/49 59/67/49
f 43/35/50 51/68/50 52/69/50 44/36/50
f 51/68/51 50/70/51 53/71/51 52/69/51
f 50/70/52 49/38/52 54/41/52 53/71/52
f 61/34/53 63/35/53 64/36/53 62/37/53
f 69/38/54 67/39/54 68/40/54 74/41/54
f 67/39/55 65/42/55 66/43/55 68/40/55
f 75/44/56 61/45/56 62/46/56 80/47/56
f 69/48/57 77/49/57 65/42/57 67/39/57
f 72/50/58 80/51/58 62/52/58 64/53/58
f 68/40/59 66/43/59 78/54/59 74/55/59
f 74/55/60 78/54/60 79/56/60 73/57/60
f 73/57/61 79/56/61 80/51/61 72/50/61
f 63/58/62 61/59/62 75/60/62 71/61/62
f 71/61/63 75/60/63 76/62/63 70/63/63
f 70/63/64 76/62/64 77/49/64 69/48/64
f 65/42/65 77/64/65 78/65/65 66/43/65
f 77/64/66 76/66/66 79/67/66 78/65/66
f 76/66/67 75/44/67 80/47/67 79/67/67
f 63/35/68 71/68/68 72/69/68 64/36/68
f 71/68/69 70/70/69 73/71/69 72/69/69
f 70/70/70 69/38/70 74/41/70 73/71/70
f 81/34/71 83/35/71 84/36/71 82/37/71
f 89/38/72 87/39/72 88/40/72 94/41/72
f 87/39/73 85/42/73 86/43/73 88/40/73
f 95/44/74 81/45/74 82/46/74 100/47/74
f 89/48/75 97/49/75 85/42/75 87/39/75
f 92/50/76 100/51/76 82/52/76 84/53/76
f 88/40/77 86/43/77 98/54/77 94/55/77
f 94/55/78 98/54/78 99/56/78 93/57/78
f 93/57/79 99/56/79 100/51/79 92/50/79
f 83/58/80 81/59/80 95/60/80 91/61/80
f 91/61/81 95/60/81 96/62/81 90/63/81
f 90/63/82 96/62/82 97/49/82 89/48/82
f 85/42/83 97/64/83 98/65/83 86/43/83
f 97/64/84 96/66/84 99/67/84 98/65/84
f 96/66/85 95/44/85 100/47/85 99/67/85
f 83/35/86 91/68/86 92/69/86 84/36/86
f 91/68/87 90/70/87 93/71/87 92/69/87
f 90/70/88 89/38/88 94/41/88 93/71/88
