# Blender 5.2.0 LTS
# www.blender.org
o Cube
v 1.000000 1.000000 1.000000 0.3294 0.3137 0.2745
v 1.000000 -1.000000 1.000000 0.3294 0.3137 0.2745
v 1.000000 1.000000 -1.000000 0.3294 0.3137 0.2745
v 1.000000 -1.000000 -1.000000 0.3294 0.3137 0.2745
v -1.000000 1.000000 1.000000 0.3294 0.3137 0.2745
v -1.000000 -1.000000 1.000000 0.3294 0.3137 0.2745
v -1.000000 1.000000 -1.000000 0.3294 0.3137 0.2745
v -1.000000 -1.000000 -1.000000 0.3294 0.3137 0.2745
v 1.000000 1.000000 -0.876715 0.3294 0.3137 0.2745
v 1.000000 1.000000 -0.759068 0.3294 0.3137 0.2745
v 1.000000 1.000000 -0.641421 0.3294 0.3137 0.2745
v 1.000000 1.000000 -0.523774 0.3294 0.3137 0.2745
v 1.000000 1.000000 -0.406127 0.3294 0.3137 0.2745
v 1.000000 1.000000 -0.288480 0.3294 0.3137 0.2745
v 1.000000 1.000000 -0.170833 0.3294 0.3137 0.2745
v 1.000000 1.000000 -0.053186 0.3294 0.3137 0.2745
v 1.000000 1.000000 0.064461 0.3294 0.3137 0.2745
v 1.000000 1.000000 0.182108 0.3294 0.3137 0.2745
v 1.000000 1.000000 0.299755 0.3294 0.3137 0.2745
v 1.000000 1.000000 0.417402 0.3294 0.3137 0.2745
v 1.000000 1.000000 0.535049 0.3294 0.3137 0.2745
v 1.000000 1.000000 0.652696 0.3294 0.3137 0.2745
v 1.000000 1.000000 0.770343 0.3294 0.3137 0.2745
v 1.000000 1.000000 0.887991 0.3294 0.3137 0.2745
v 1.000000 -1.000000 0.887991 0.3294 0.3137 0.2745
v 1.000000 -1.000000 0.770343 0.3294 0.3137 0.2745
v 1.000000 -1.000000 0.652696 0.3294 0.3137 0.2745
v 1.000000 -1.000000 0.535049 0.3294 0.3137 0.2745
v 1.000000 -1.000000 0.417402 0.3294 0.3137 0.2745
v 1.000000 -1.000000 0.299755 0.3294 0.3137 0.2745
v 1.000000 -1.000000 0.182108 0.3294 0.3137 0.2745
v 1.000000 -1.000000 0.064461 0.3294 0.3137 0.2745
v 1.000000 -1.000000 -0.053186 0.3294 0.3137 0.2745
v 1.000000 -1.000000 -0.170833 0.3294 0.3137 0.2745
v 1.000000 -1.000000 -0.288480 0.3294 0.3137 0.2745
v 1.000000 -1.000000 -0.406127 0.3294 0.3137 0.2745
v 1.000000 -1.000000 -0.523774 0.3294 0.3137 0.2745
v 1.000000 -1.000000 -0.641421 0.3294 0.3137 0.2745
v 1.000000 -1.000000 -0.759068 0.3294 0.3137 0.2745
v 1.000000 -1.000000 -0.876715 0.3294 0.3137 0.2745
v -1.000000 1.000000 0.887991 0.3294 0.3137 0.2745
v -1.000000 1.000000 0.770343 0.3294 0.3137 0.2745
v -1.000000 1.000000 0.652696 0.3294 0.3137 0.2745
v -1.000000 1.000000 0.535049 0.3294 0.3137 0.2745
v -1.000000 1.000000 0.417402 0.3294 0.3137 0.2745
v -1.000000 1.000000 0.299755 0.3294 0.3137 0.2745
v -1.000000 1.000000 0.182108 0.3294 0.3137 0.2745
v -1.000000 1.000000 0.064461 0.3294 0.3137 0.2745
v -1.000000 1.000000 -0.053186 0.3294 0.3137 0.2745
v -1.000000 1.000000 -0.170833 0.3294 0.3137 0.2745
v -1.000000 1.000000 -0.288480 0.3294 0.3137 0.2745
v -1.000000 1.000000 -0.406127 0.3294 0.3137 0.2745
v -1.000000 1.000000 -0.523774 0.3294 0.3137 0.2745
v -1.000000 1.000000 -0.641421 0.3294 0.3137 0.2745
v -1.000000 1.000000 -0.759068 0.3294 0.3137 0.2745
v -1.000000 1.000000 -0.876715 0.3294 0.3137 0.2745
v -1.000000 -1.000000 -0.876715 0.3294 0.3137 0.2745
v -1.000000 -1.000000 -0.759068 0.3294 0.3137 0.2745
v -1.000000 -1.000000 -0.641421 0.3294 0.3137 0.2745
v -1.000000 -1.000000 -0.523774 0.3294 0.3137 0.2745
v -1.000000 -1.000000 -0.406127 0.3294 0.3137 0.2745
v -1.000000 -1.000000 -0.288480 0.3294 0.3137 0.2745
v -1.000000 -1.000000 -0.170833 0.3294 0.3137 0.2745
v -1.000000 -1.000000 -0.053186 0.3294 0.3137 0.2745
v -1.000000 -1.000000 0.064461 0.3294 0.3137 0.2745
v -1.000000 -1.000000 0.182108 0.3294 0.3137 0.2745
v -1.000000 -1.000000 0.299755 0.3294 0.3137 0.2745
v -1.000000 -1.000000 0.417402 0.3294 0.3137 0.2745
v -1.000000 -1.000000 0.535049 0.3294 0.3137 0.2745
v -1.000000 -1.000000 0.652696 0.3294 0.3137 0.2745
v -1.000000 -1.000000 0.770343 0.3294 0.3137 0.2745
v -1.000000 -1.000000 0.887991 0.3294 0.3137 0.2745
v 0.911969 -14.156742 -0.892080 0.3294 0.3137 0.2745
v 0.929095 -14.177112 -0.983926 0.3294 0.3137 0.2745
v -0.561006 -14.177517 -0.984426 0.3294 0.3137 0.2745
v -0.778495 -13.757457 0.909561 0.3294 0.3137 0.2745
v -0.791221 -13.742321 0.977812 0.3294 0.3137 0.2745
v 0.427532 -13.741989 0.978221 0.3294 0.3137 0.2745
v 0.440259 -13.757125 0.909970 0.3294 0.3137 0.2745
v -0.578133 -14.157148 -0.892580 0.3294 0.3137 0.2745
v 1.624585 -11.981597 0.713428 0.3294 0.3137 0.2745
v 1.626293 -11.981597 0.635609 0.3294 0.3137 0.2745
v 1.406479 -12.035483 0.481482 0.3294 0.3137 0.2745
v 1.406479 -12.035483 0.401728 0.3294 0.3137 0.2745
v 1.245257 -11.715420 0.301915 0.3294 0.3137 0.2745
v 1.245257 -11.715420 0.235758 0.3294 0.3137 0.2745
v 1.121837 -12.200452 0.038675 0.3294 0.3137 0.2745
v 1.121069 -12.200260 -0.040996 0.3294 0.3137 0.2745
v 0.890558 -12.224831 -0.192859 0.3294 0.3137 0.2745
v 0.890558 -12.224831 -0.272613 0.3294 0.3137 0.2745
v 0.782861 -12.347045 -0.415756 0.3294 0.3137 0.2745
v 0.782861 -12.347045 -0.495511 0.3294 0.3137 0.2745
v 1.028188 -12.452933 -0.616677 0.3294 0.3137 0.2745
v 1.028188 -12.452933 -0.721516 0.3294 0.3137 0.2745
v -0.754070 -12.452933 -0.721516 0.3294 0.3137 0.2745
v -0.754070 -12.452933 -0.616677 0.3294 0.3137 0.2745
v -0.572963 -12.347045 -0.495511 0.3294 0.3137 0.2745
v -0.572963 -12.347045 -0.415756 0.3294 0.3137 0.2745
v -0.465266 -12.224831 -0.272613 0.3294 0.3137 0.2745
v -0.465266 -12.224831 -0.192859 0.3294 0.3137 0.2745
v -0.496639 -12.097951 -0.036484 0.3294 0.3137 0.2745
v -0.490590 -12.100300 0.034697 0.3294 0.3137 0.2745
v 0.120587 -11.715420 0.235758 0.3294 0.3137 0.2745
v 0.120587 -11.715420 0.301915 0.3294 0.3137 0.2745
v 0.050655 -12.035483 0.401728 0.3294 0.3137 0.2745
v 0.050655 -12.035483 0.481482 0.3294 0.3137 0.2745
v 0.277741 -11.981597 0.635609 0.3294 0.3137 0.2745
v 0.279449 -11.981597 0.713428 0.3294 0.3137 0.2745
v 0.688933 -23.354464 -0.671066 0.3294 0.3137 0.2745
v 0.701857 -23.369837 -0.740377 0.3294 0.3137 0.2745
v -0.422645 -23.370142 -0.740755 0.3294 0.3137 0.2745
v -0.586772 -23.053144 0.688538 0.3294 0.3137 0.2745
v -0.596376 -23.041721 0.740043 0.3294 0.3137 0.2745
v 0.323354 -23.041471 0.740352 0.3294 0.3137 0.2745
v 0.332958 -23.052895 0.688847 0.3294 0.3137 0.2745
v -0.435569 -23.354771 -0.671444 0.3294 0.3137 0.2745
v 1.354653 -21.276928 0.549764 0.3294 0.3137 0.2745
v 1.355962 -21.276928 0.490103 0.3294 0.3137 0.2745
v 1.187440 -21.318241 0.371940 0.3294 0.3137 0.2745
v 1.187440 -21.318241 0.310796 0.3294 0.3137 0.2745
v 1.167228 -21.446129 0.209180 0.3294 0.3137 0.2745
v 1.167228 -21.446129 0.148036 0.3294 0.3137 0.2745
v 0.971944 -21.445396 0.032485 0.3294 0.3137 0.2745
v 0.971944 -21.445396 -0.028660 0.3294 0.3137 0.2745
v 0.791903 -21.463404 -0.145050 0.3294 0.3137 0.2745
v 0.791903 -21.463404 -0.206195 0.3294 0.3137 0.2745
v 0.709336 -21.557102 -0.315937 0.3294 0.3137 0.2745
v 0.709336 -21.557102 -0.377081 0.3294 0.3137 0.2745
v 0.709336 -21.557102 -0.438226 0.3294 0.3137 0.2745
v 0.709336 -21.557102 -0.499370 0.3294 0.3137 0.2745
v -0.330121 -21.557102 -0.499370 0.3294 0.3137 0.2745
v -0.330121 -21.557102 -0.438226 0.3294 0.3137 0.2745
v -0.330121 -21.557102 -0.377082 0.3294 0.3137 0.2745
v -0.330121 -21.557102 -0.315937 0.3294 0.3137 0.2745
v -0.247554 -21.463404 -0.206195 0.3294 0.3137 0.2745
v -0.247554 -21.463404 -0.145050 0.3294 0.3137 0.2745
v -0.067512 -21.445396 -0.028660 0.3294 0.3137 0.2745
v -0.067512 -21.445396 0.032485 0.3294 0.3137 0.2745
v 0.127771 -21.446129 0.148036 0.3294 0.3137 0.2745
v 0.127771 -21.446129 0.209180 0.3294 0.3137 0.2745
v 0.147983 -21.318241 0.310796 0.3294 0.3137 0.2745
v 0.147983 -21.318241 0.371940 0.3294 0.3137 0.2745
v 0.322081 -21.276928 0.490103 0.3294 0.3137 0.2745
v 0.323390 -21.276928 0.549764 0.3294 0.3137 0.2745
v 0.742090 -17.454222 -0.499274 0.3294 0.3137 0.2745
v 0.742090 -17.454222 -0.568709 0.3294 0.3137 0.2745
v -0.438302 -17.454222 -0.568709 0.3294 0.3137 0.2745
v -0.438302 -17.454222 -0.499274 0.3294 0.3137 0.2745
v 0.746713 -16.875038 -0.366682 0.3294 0.3137 0.2745
v 0.746713 -16.875038 -0.437287 0.3294 0.3137 0.2745
v -0.453573 -16.875038 -0.437287 0.3294 0.3137 0.2745
v -0.453573 -16.875038 -0.366682 0.3294 0.3137 0.2745
v 1.145329 -16.800631 -0.257578 0.3294 0.3137 0.2745
v -0.661069 -16.800631 -0.257578 0.3294 0.3137 0.2745
v -0.661069 -16.800631 -0.151319 0.3294 0.3137 0.2745
v 1.145329 -16.800631 -0.151319 0.3294 0.3137 0.2745
v 1.510823 -16.823368 -0.062037 0.3294 0.3137 0.2745
v -0.611122 -16.823368 -0.062037 0.3294 0.3137 0.2745
v -0.611122 -16.823368 0.062783 0.3294 0.3137 0.2745
v 1.510823 -16.823368 0.062783 0.3294 0.3137 0.2745
v 1.249245 -16.824213 0.170170 0.3294 0.3137 0.2745
v 0.100457 -16.824213 0.170170 0.3294 0.3137 0.2745
v 0.100457 -16.824213 0.237746 0.3294 0.3137 0.2745
v 1.249245 -16.824213 0.237746 0.3294 0.3137 0.2745
v 1.593470 -16.676863 0.338820 0.3294 0.3137 0.2745
v -0.197192 -16.676863 0.338820 0.3294 0.3137 0.2745
v -0.197192 -16.676863 0.444153 0.3294 0.3137 0.2745
v 1.593470 -16.676863 0.444153 0.3294 0.3137 0.2745
v 1.208263 -16.629263 0.579179 0.3294 0.3137 0.2745
v 0.582776 -16.629263 0.579179 0.3294 0.3137 0.2745
v 0.583568 -16.629263 0.615273 0.3294 0.3137 0.2745
v 1.207471 -16.629263 0.615273 0.3294 0.3137 0.2745
v 0.038535 -6.977674 0.626828 0.3294 0.3137 0.2745
v 0.039001 -6.977674 0.680153 0.3294 0.3137 0.2745
v 0.952046 -6.977674 0.626828 0.3294 0.3137 0.2745
v 0.951580 -6.977674 0.680153 0.3294 0.3137 0.2745
v 1.178682 -5.851022 0.410512 0.3294 0.3137 0.2745
v -0.538149 -5.851022 0.410512 0.3294 0.3137 0.2745
v -0.538149 -5.851022 0.511502 0.3294 0.3137 0.2745
v 1.178682 -5.851022 0.511502 0.3294 0.3137 0.2745
v -0.487854 -6.601148 0.284470 0.3294 0.3137 0.2745
v 1.190058 -6.601148 0.284470 0.3294 0.3137 0.2745
v 1.190058 -6.601148 0.185769 0.3294 0.3137 0.2745
v -0.487854 -6.601148 0.185769 0.3294 0.3137 0.2745
v 1.062698 -6.600671 0.051586 0.3294 0.3137 0.2745
v 1.062698 -6.600671 -0.047115 0.3294 0.3137 0.2745
v -0.615214 -6.600671 -0.047115 0.3294 0.3137 0.2745
v -0.615214 -6.600671 0.051586 0.3294 0.3137 0.2745
v 0.945279 -6.612415 -0.181846 0.3294 0.3137 0.2745
v 0.945279 -6.612415 -0.280547 0.3294 0.3137 0.2745
v -0.732633 -6.612415 -0.280547 0.3294 0.3137 0.2745
v -0.732633 -6.612415 -0.181846 0.3294 0.3137 0.2745
v -0.523389 -6.673522 -0.494166 0.3294 0.3137 0.2745
v -0.523389 -6.673522 -0.426418 0.3294 0.3137 0.2745
v 0.628338 -6.673522 -0.494166 0.3294 0.3137 0.2745
v 0.628338 -6.673522 -0.426418 0.3294 0.3137 0.2745
v -0.785188 -6.707902 -0.706729 0.3294 0.3137 0.2745
v -0.785188 -6.707902 -0.608143 0.3294 0.3137 0.2745
v 0.890772 -6.707902 -0.706729 0.3294 0.3137 0.2745
v 0.890772 -6.707902 -0.608143 0.3294 0.3137 0.2745
v -1.771446 -10.506442 -0.030820 0.3294 0.3137 0.2745
v -1.771446 -11.993456 -0.030820 0.3294 0.3137 0.2745
v -3.765350 -10.506442 -0.030632 0.3294 0.3137 0.2745
v -3.765350 -11.993456 -0.030632 0.3294 0.3137 0.2745
v -1.768175 -10.506442 0.031870 0.3294 0.3137 0.2745
v -1.768175 -11.993733 0.031870 0.3294 0.3137 0.2745
v -3.762079 -10.506442 0.032058 0.3294 0.3137 0.2745
v -3.762079 -11.993586 0.032058 0.3294 0.3137 0.2745
v -3.333375 -10.485619 -0.031551 0.3294 0.3137 0.2745
v -2.932420 -10.441735 -0.033438 0.3294 0.3137 0.2745
v -2.502960 -10.453887 -0.032966 0.3294 0.3137 0.2745
v -2.110174 -10.493279 -0.031343 0.3294 0.3137 0.2745
v -2.110174 -12.007666 -0.031343 0.3294 0.3137 0.2745
v -2.502960 -12.050381 -0.032966 0.3294 0.3137 0.2745
v -2.932420 -12.063299 -0.033438 0.3294 0.3137 0.2745
v -3.333375 -12.015752 -0.031551 0.3294 0.3137 0.2745
v -2.106845 -10.493279 0.032457 0.3294 0.3137 0.2745
v -2.499458 -10.453887 0.034155 0.3294 0.3137 0.2745
v -2.928864 -10.441735 0.034707 0.3294 0.3137 0.2745
v -3.330012 -10.485619 0.032895 0.3294 0.3137 0.2745
v -3.330012 -12.017846 0.032895 0.3294 0.3137 0.2745
v -2.928864 -12.067224 0.034707 0.3294 0.3137 0.2745
v -2.499458 -12.053939 0.034155 0.3294 0.3137 0.2745
v -2.106845 -12.009461 0.032457 0.3294 0.3137 0.2745
v -3.796469 -10.481594 0.011514 0.3294 0.3137 0.2745
v -3.797596 -10.481594 -0.010082 0.3294 0.3137 0.2745
v -3.797596 -12.018636 -0.010082 0.3294 0.3137 0.2745
v -3.796469 -12.018604 0.011514 0.3294 0.3137 0.2745
v -1.737057 -10.481594 -0.010275 0.3294 0.3137 0.2745
v -1.735930 -10.481594 0.011320 0.3294 0.3137 0.2745
v -1.735930 -12.018824 0.011320 0.3294 0.3137 0.2745
v -1.737057 -12.018866 -0.010275 0.3294 0.3137 0.2745
v -3.348470 -12.040926 -0.010375 0.3294 0.3137 0.2745
v -3.347317 -12.040833 0.011723 0.3294 0.3137 0.2745
v -2.934806 -12.086653 -0.010969 0.3294 0.3137 0.2745
v -2.933594 -12.086624 0.012239 0.3294 0.3137 0.2745
v -2.495581 -12.074374 -0.010856 0.3294 0.3137 0.2745
v -2.494386 -12.074316 0.012043 0.3294 0.3137 0.2745
v -2.089201 -12.033342 -0.010399 0.3294 0.3137 0.2745
v -2.088058 -12.033246 0.011510 0.3294 0.3137 0.2745
v -3.347317 -10.463701 0.011723 0.3294 0.3137 0.2745
v -3.348470 -10.463701 -0.010375 0.3294 0.3137 0.2745
v -2.933595 -10.424187 0.012239 0.3294 0.3137 0.2745
v -2.934806 -10.424187 -0.010969 0.3294 0.3137 0.2745
v -2.494386 -10.435225 0.012043 0.3294 0.3137 0.2745
v -2.495581 -10.435225 -0.010856 0.3294 0.3137 0.2745
v -2.088058 -10.470428 0.011510 0.3294 0.3137 0.2745
v -2.089201 -10.470428 -0.010399 0.3294 0.3137 0.2745
v -3.418470 -12.768524 -0.011698 0.3294 0.3137 0.2745
v -3.417178 -12.769175 0.013059 0.3294 0.3137 0.2745
v -2.947941 -12.662560 -0.011875 0.3294 0.3137 0.2745
v -2.946635 -12.662460 0.013147 0.3294 0.3137 0.2745
v -2.472804 -12.666281 -0.011819 0.3294 0.3137 0.2745
v -2.471509 -12.666486 0.013002 0.3294 0.3137 0.2745
v -2.018831 -12.736467 -0.011543 0.3294 0.3137 0.2745
v -2.017569 -12.737330 0.012641 0.3294 0.3137 0.2745
v -2.737490 -12.798367 -0.004657 0.3294 0.3137 0.2745
v -2.736322 -12.788113 0.021657 0.3294 0.3137 0.2745
v -2.743878 -13.114727 -0.004747 0.3294 0.3137 0.2745
v -2.742511 -13.110435 0.022137 0.3294 0.3137 0.2745
v -2.742899 -13.062079 -0.006497 0.3294 0.3137 0.2745
v -2.741541 -13.057199 0.020351 0.3294 0.3137 0.2745
v -2.737783 -12.715604 -0.006279 0.3294 0.3137 0.2745
v -2.736650 -12.708457 0.019634 0.3294 0.3137 0.2745
v -1.754991 -10.750169 -0.031339 0.3294 0.3137 0.2745
v -1.713512 -10.991940 -0.032649 0.3294 0.3137 0.2745
v -1.659060 -11.254421 -0.034369 0.3294 0.3137 0.2745
v -1.715146 -11.516049 -0.032598 0.3294 0.3137 0.2745
v -1.755972 -11.757408 -0.031308 0.3294 0.3137 0.2745
v -3.780876 -11.757408 -0.031118 0.3294 0.3137 0.2745
v -3.821836 -11.516049 -0.032400 0.3294 0.3137 0.2745
v -3.878106 -11.254421 -0.034161 0.3294 0.3137 0.2745
v -3.823475 -10.991940 -0.032451 0.3294 0.3137 0.2745
v -3.781860 -10.750169 -0.031149 0.3294 0.3137 0.2745
v -3.777554 -11.757408 0.032547 0.3294 0.3137 0.2745
v -3.818380 -11.516049 0.033836 0.3294 0.3137 0.2745
v -3.874465 -11.254421 0.035608 0.3294 0.3137 0.2745
v -3.820014 -10.991940 0.033888 0.3294 0.3137 0.2745
v -3.778535 -10.750169 0.032578 0.3294 0.3137 0.2745
v -1.752650 -11.757408 0.032356 0.3294 0.3137 0.2745
v -1.711690 -11.516049 0.033638 0.3294 0.3137 0.2745
v -1.655420 -11.254421 0.035399 0.3294 0.3137 0.2745
v -1.710051 -10.991940 0.033690 0.3294 0.3137 0.2745
v -1.751666 -10.750169 0.032387 0.3294 0.3137 0.2745
v -3.337378 -11.770352 0.033317 0.3294 0.3137 0.2745
v -3.357731 -11.521599 0.034484 0.3294 0.3137 0.2745
v -3.386254 -11.254493 0.036118 0.3294 0.3137 0.2745
v -3.358557 -10.986601 0.034531 0.3294 0.3137 0.2745
v -3.337857 -10.737488 0.033345 0.3294 0.3137 0.2745
v -2.930456 -11.798464 0.035042 0.3294 0.3137 0.2745
v -2.934951 -11.534002 0.035987 0.3294 0.3137 0.2745
v -2.941345 -11.254654 0.037332 0.3294 0.3137 0.2745
v -2.935135 -10.974660 0.036026 0.3294 0.3137 0.2745
v -2.930561 -10.709914 0.035064 0.3294 0.3137 0.2745
v -2.496619 -11.790642 0.034511 0.3294 0.3137 0.2745
v -2.488633 -11.530526 0.035513 0.3294 0.3137 0.2745
v -2.477291 -11.254608 0.036936 0.3294 0.3137 0.2745
v -2.488307 -10.978007 0.035554 0.3294 0.3137 0.2745
v -2.496433 -10.717588 0.034534 0.3294 0.3137 0.2745
v -2.097721 -11.765516 0.032897 0.3294 0.3137 0.2745
v -2.072750 -11.519505 0.034102 0.3294 0.3137 0.2745
v -2.037958 -11.254465 0.035781 0.3294 0.3137 0.2745
v -2.071741 -10.988616 0.034151 0.3294 0.3137 0.2745
v -2.097131 -10.742228 0.032926 0.3294 0.3137 0.2745
v -2.101096 -11.765516 -0.031785 0.3294 0.3137 0.2745
v -2.076251 -11.519505 -0.032994 0.3294 0.3137 0.2745
v -2.041634 -11.254465 -0.034679 0.3294 0.3137 0.2745
v -2.075247 -10.988616 -0.033043 0.3294 0.3137 0.2745
v -2.100508 -10.742228 -0.031813 0.3294 0.3137 0.2745
v -2.500159 -11.790642 -0.033323 0.3294 0.3137 0.2745
v -2.492277 -11.530526 -0.034327 0.3294 0.3137 0.2745
v -2.481084 -11.254608 -0.035752 0.3294 0.3137 0.2745
v -2.491955 -10.978007 -0.034368 0.3294 0.3137 0.2745
v -2.499975 -10.717588 -0.033346 0.3294 0.3137 0.2745
v -2.934047 -11.798464 -0.033773 0.3294 0.3137 0.2745
v -2.938640 -11.534002 -0.034717 0.3294 0.3137 0.2745
v -2.945175 -11.254654 -0.036061 0.3294 0.3137 0.2745
v -2.938828 -10.974660 -0.034756 0.3294 0.3137 0.2745
v -2.934154 -10.709914 -0.033795 0.3294 0.3137 0.2745
v -3.340785 -11.770352 -0.031971 0.3294 0.3137 0.2745
v -3.361259 -11.521599 -0.033134 0.3294 0.3137 0.2745
v -3.389952 -11.254493 -0.034763 0.3294 0.3137 0.2745
v -3.362090 -10.986601 -0.033181 0.3294 0.3137 0.2745
v -3.341267 -10.737488 -0.031999 0.3294 0.3137 0.2745
v -1.722818 -11.772907 0.011456 0.3294 0.3137 0.2745
v -1.686455 -11.522712 0.011833 0.3294 0.3137 0.2745
v -1.635365 -11.254507 0.012364 0.3294 0.3137 0.2745
v -1.684978 -10.985530 0.011849 0.3294 0.3137 0.2745
v -1.721964 -10.734982 0.011465 0.3294 0.3137 0.2745
v -1.723959 -11.772907 -0.010414 0.3294 0.3137 0.2745
v -1.687636 -11.522712 -0.010798 0.3294 0.3137 0.2745
v -1.636602 -11.254507 -0.011338 0.3294 0.3137 0.2745
v -1.686160 -10.985530 -0.010814 0.3294 0.3137 0.2745
v -1.723106 -10.734982 -0.010423 0.3294 0.3137 0.2745
v -3.810708 -11.772907 -0.010218 0.3294 0.3137 0.2745
v -3.847071 -11.522712 -0.010595 0.3294 0.3137 0.2745
v -3.898160 -11.254507 -0.011125 0.3294 0.3137 0.2745
v -3.848548 -10.985530 -0.010610 0.3294 0.3137 0.2745
v -3.811562 -10.734982 -0.010227 0.3294 0.3137 0.2745
v -3.809567 -11.772907 0.011652 0.3294 0.3137 0.2745
v -3.845890 -11.522712 0.012036 0.3294 0.3137 0.2745
v -3.896924 -11.254507 0.012576 0.3294 0.3137 0.2745
v -3.847366 -10.985530 0.012052 0.3294 0.3137 0.2745
v -3.810420 -10.734982 0.011661 0.3294 0.3137 0.2745
v -2.936086 -11.535007 0.016692 0.3294 0.3137 0.2745
v -2.942391 -11.254666 0.017628 0.3294 0.3137 0.2745
v -2.936268 -10.973694 0.016719 0.3294 0.3137 0.2745
v -2.931759 -10.707702 0.016050 0.3294 0.3137 0.2745
v -2.488112 -11.531590 0.016349 0.3294 0.3137 0.2745
v -2.476987 -11.254622 0.017339 0.3294 0.3137 0.2745
v -2.487792 -10.976983 0.016378 0.3294 0.3137 0.2745
v -2.495759 -10.715237 0.015669 0.3294 0.3137 0.2745
v -2.070007 -11.520769 0.015357 0.3294 0.3137 0.2745
v -2.035868 -11.254481 0.016522 0.3294 0.3137 0.2745
v -0.218475 -24.633627 0.710612 0.3294 0.3137 0.2745
v -0.220318 -24.631435 0.720496 0.3294 0.3137 0.2745
v -0.043819 -24.631388 0.720555 0.3294 0.3137 0.2745
v -0.041976 -24.633579 0.710671 0.3294 0.3137 0.2745
v 0.245634 -25.472744 -0.697388 0.3294 0.3137 0.2745
v 0.248233 -25.475834 -0.711323 0.3294 0.3137 0.2745
v 0.022156 -25.475895 -0.711399 0.3294 0.3137 0.2745
v 0.019557 -25.472805 -0.697464 0.3294 0.3137 0.2745
vn 1.0000 -0.0000 -0.0000
vn -0.0000 -0.0000 -1.0000
vn -1.0000 -0.0000 -0.0000
vn -0.0000 -0.0000 1.0000
vn -0.0000 1.0000 -0.0000
vn -0.0001 -0.0012 1.0000
vn 0.0001 -0.0017 -1.0000
vn -0.0000 -1.0000 -0.0000
vn -0.0000 -0.0018 -1.0000
vn -1.0000 -0.0054 -0.0000
vn -0.0000 -0.0049 1.0000
vn 0.9999 0.0108 -0.0000
vn -0.9987 -0.0478 0.0166
vn -0.0000 0.0014 -1.0000
vn -0.0000 0.0034 1.0000
vn -0.0000 0.0048 -1.0000
vn -0.9997 -0.0264 -0.0000
vn -0.9975 -0.0168 -0.0690
vn 0.9963 -0.0442 0.0741
vn 0.9968 -0.0060 0.0799
vn -0.0001 -0.0017 1.0000
vn -0.9966 -0.0326 -0.0763
vn 0.0001 -0.0012 -1.0000
vn -0.0000 -0.0066 1.0000
vn -0.0000 -0.0072 -1.0000
vn 1.0000 -0.0080 -0.0000
vn -0.0000 0.0013 1.0000
vn -0.0000 -0.0110 -0.9999
vn 0.9999 0.0105 -0.0043
vn -0.0000 0.0066 1.0000
vn -0.0000 0.0026 -1.0000
vn -1.0000 0.0087 -0.0000
vn -0.0000 -0.0015 1.0000
vn 1.0000 -0.0097 -0.0000
vn -0.0000 0.0002 -1.0000
vn -0.9989 -0.0476 -0.0000
vn -0.0000 0.0019 1.0000
vn 0.9996 0.0272 -0.0000
vn -0.0000 -0.0014 -1.0000
vn -0.9991 -0.0221 0.0353
vn -0.0000 -0.0020 1.0000
vn 0.9997 0.0239 -0.0000
vn -0.0014 -0.0015 -1.0000
vn -0.9930 -0.1181 -0.0000
vn 0.9909 0.1335 0.0164
vn -0.0013 -0.0027 1.0000
vn -0.0000 -0.0098 -1.0000
vn -0.9955 -0.0948 -0.0000
vn 0.9993 0.0368 -0.0000
vn 0.9485 -0.2219 0.2261
vn -0.0003 -0.0124 0.9999
vn -0.9961 -0.0883 -0.0000
vn -0.0000 -0.0062 1.0000
vn -0.9932 -0.1168 -0.0000
vn -0.0000 0.0060 -1.0000
vn 0.9821 -0.0193 0.1874
vn -1.0000 -0.0059 -0.0000
vn -0.0000 -0.0156 0.9999
vn 0.0003 -0.0265 -0.9996
vn -0.9972 -0.0742 -0.0000
vn -0.0000 0.0192 -0.9998
vn -0.9836 -0.0160 -0.1799
vn -0.9982 0.0556 0.0219
vn 0.9993 0.0313 0.0219
vn -0.0000 -0.0141 0.9999
vn -0.0003 -0.0256 0.9997
vn -0.0000 -0.0169 -0.9999
vn 0.9962 -0.0871 -0.0000
vn 0.9823 -0.0158 0.1867
vn -0.0000 0.0149 0.9999
vn 0.9998 -0.0177 -0.0000
vn -0.9836 -0.0196 -0.1791
vn -0.0000 -0.0129 -0.9999
vn 0.9933 -0.1158 -0.0000
vn -0.0003 0.0240 0.9997
vn -0.0000 0.0108 0.9999
vn 0.9971 -0.0756 -0.0000
vn 0.0003 0.0238 -0.9997
vn -0.0000 0.0235 0.9997
vn -0.0000 -0.0305 -0.9995
vn 0.9984 -0.0571 -0.0000
vn -0.9980 -0.0630 -0.0000
vn 0.9985 0.0556 -0.0000
vn -0.9991 0.0428 -0.0000
vn -0.0000 -0.0033 -1.0000
vn -0.0000 0.0091 1.0000
vn 0.9965 0.0839 -0.0037
vn -0.9992 0.0249 0.0311
vn -0.0011 0.0050 -1.0000
vn -0.0009 0.0056 1.0000
vn 1.0000 0.0008 -0.0000
vn -1.0000 0.0039 -0.0000
vn -0.0000 -0.0126 0.9999
vn -0.0000 0.0128 -0.9999
vn 0.9992 0.0403 -0.0000
vn -0.9986 0.0533 -0.0000
vn -0.0000 -0.0080 1.0000
vn -0.0000 0.0136 -0.9999
vn -0.0000 -0.0211 0.9998
vn 0.9957 -0.0898 0.0218
vn -0.9976 -0.0657 0.0219
vn -0.0000 0.0121 -0.9999
vn 1.0000 -0.0081 0.0027
vn -0.0000 -0.0151 0.9999
vn -0.9852 -0.1712 0.0027
vn -0.0000 0.0043 -1.0000
vn -0.0000 -0.0007 -1.0000
vn -0.9958 -0.0911 -0.0000
vn -0.0000 -0.0027 1.0000
vn 0.9994 0.0339 -0.0000
vn -0.0000 -0.0023 1.0000
vn -0.0000 -0.0011 -1.0000
vn -0.9976 -0.0685 -0.0000
vn 0.9999 0.0112 -0.0000
vn 0.9979 -0.0654 -0.0000
vn -0.0000 -0.0036 1.0000
vn -0.0000 -0.0052 -1.0000
vn -0.9965 -0.0837 -0.0000
vn 0.9998 -0.0191 -0.0000
vn -0.0000 0.0058 1.0000
vn -0.0000 -0.0092 -1.0000
vn -0.9993 -0.0376 -0.0000
vn -0.0021 -0.0020 -1.0000
vn -0.5152 -0.0317 0.8565
vn 0.0017 -0.0020 1.0000
vn 0.5151 -0.0316 -0.8566
vn 0.0235 0.6418 0.7665
vn 0.0262 -0.6129 -0.7897
vn -0.0324 -0.6195 -0.7844
vn -0.0769 -0.6513 -0.7549
vn 0.0203 -0.6842 -0.7290
vn 0.0681 -0.6310 -0.7728
vn -0.0293 0.6471 0.7618
vn -0.0757 0.7203 0.6896
vn 0.0213 0.7759 0.6304
vn 0.0673 0.6994 0.7116
vn -0.0019 -0.0020 1.0000
vn -0.0045 -0.0015 1.0000
vn 0.0013 -0.0013 1.0000
vn 0.0043 -0.0017 1.0000
vn 0.0015 -0.0020 -1.0000
vn 0.0041 -0.0017 -1.0000
vn 0.0011 -0.0013 -1.0000
vn -0.0047 -0.0016 -1.0000
vn 0.0668 0.6959 -0.7150
vn 0.0863 0.9963 -0.0045
vn 0.0211 0.7749 -0.6318
vn 0.0251 0.9997 -0.0013
vn -0.0762 0.7242 -0.6854
vn -0.0951 0.9955 0.0050
vn -0.0295 0.6487 -0.7605
vn -0.0398 0.9992 0.0021
vn 0.0744 -0.6753 0.7338
vn -0.0010 0.0018 -1.0000
vn 0.0226 -0.7459 0.6657
vn 0.0280 -0.9996 0.0004
vn -0.0830 -0.6936 0.7156
vn 0.0011 0.0017 1.0000
vn -0.0344 -0.6342 0.7724
vn -0.0495 -0.9988 0.0054
vn 0.0284 -0.6296 0.7764
vn 0.0410 -0.9992 0.0010
vn 0.0233 0.6406 -0.7675
vn 0.0317 0.9995 -0.0017
vn 0.5399 -0.0331 0.8411
vn 0.9972 -0.0531 -0.0520
vn -0.5399 -0.0332 -0.8411
vn -0.9972 -0.0532 0.0521
vn 0.0116 0.0135 0.9998
vn -0.0108 0.0126 0.9999
vn 0.9938 0.0995 -0.0502
vn -0.9979 -0.0385 0.0520
vn 0.0009 0.0017 -1.0000
vn 0.9984 -0.0227 -0.0520
vn -0.9940 0.0955 0.0530
vn -0.0008 0.0018 1.0000
vn -0.9989 0.0197 0.0422
vn -0.4307 0.8893 -0.1540
vn -0.0087 -0.0105 -0.9999
vn 0.4601 -0.8871 0.0359
vn 0.9989 -0.0144 -0.0439
vn -0.3943 -0.9140 0.0952
vn 0.0087 -0.0090 -0.9999
vn 0.2309 0.9617 -0.1479
vn -0.9971 0.0549 0.0520
vn -0.9880 0.1458 0.0515
vn -0.9821 0.1811 0.0513
vn -0.9811 -0.1868 0.0512
vn -0.9883 -0.1436 0.0516
vn -0.5406 0.0343 -0.8406
vn -0.5885 0.0967 -0.8027
vn -0.6886 0.1380 -0.7119
vn -0.6857 -0.1420 -0.7139
vn -0.5859 -0.0949 -0.8048
vn 0.9971 0.0549 -0.0520
vn 0.9880 0.1458 -0.0516
vn 0.9821 0.1811 -0.0512
vn 0.9811 -0.1868 -0.0512
vn 0.9883 -0.1436 -0.0516
vn 0.5406 0.0343 0.8406
vn 0.5885 0.0967 0.8027
vn 0.6886 0.1380 0.7119
vn 0.6857 -0.1420 0.7139
vn 0.5859 -0.0949 0.8048
vn -0.0047 0.0016 -1.0000
vn -0.0043 0.0044 -1.0000
vn -0.0034 0.0055 -1.0000
vn -0.0034 -0.0057 -1.0000
vn -0.0043 -0.0043 -1.0000
vn 0.0011 0.0014 -1.0000
vn 0.0010 0.0038 -1.0000
vn 0.0008 0.0048 -1.0000
vn 0.0008 -0.0050 -1.0000
vn 0.0010 -0.0037 -1.0000
vn 0.0041 0.0018 -1.0000
vn 0.0037 0.0047 -1.0000
vn 0.0029 0.0058 -1.0000
vn 0.0029 -0.0060 -1.0000
vn 0.0037 -0.0046 -1.0000
vn 0.0015 0.0021 -1.0000
vn 0.0013 0.0054 -1.0000
vn 0.0010 0.0065 -1.0000
vn 0.0010 -0.0067 -1.0000
vn 0.0013 -0.0053 -1.0000
vn 0.0043 0.0018 1.0000
vn 0.0039 0.0047 1.0000
vn 0.0031 0.0058 1.0000
vn -0.0175 -0.9927 -0.1194
vn 0.0039 -0.0046 1.0000
vn 0.0013 0.0014 1.0000
vn -0.9990 -0.0394 -0.0221
vn -0.0077 0.9985 -0.0536
vn 0.9979 -0.0173 -0.0621
vn 0.0012 -0.0037 1.0000
vn -0.0045 0.0016 1.0000
vn -0.0041 0.0044 1.0000
vn -0.0032 0.0055 1.0000
vn -0.0032 -0.0057 1.0000
vn -0.0041 -0.0043 1.0000
vn -0.0019 0.0020 1.0000
vn -0.0017 0.0053 1.0000
vn -0.0013 0.0064 1.0000
vn -0.0013 -0.0066 1.0000
vn -0.0017 -0.0052 1.0000
vn 0.5158 0.0327 -0.8561
vn 0.5604 0.0921 -0.8231
vn 0.6542 0.1312 -0.7448
vn 0.6515 -0.1350 -0.7465
vn 0.5580 -0.0904 -0.8249
vn 0.0017 0.0021 1.0000
vn 0.0015 0.0054 1.0000
vn 0.0012 0.0065 1.0000
vn 0.0012 -0.0067 1.0000
vn 0.0015 -0.0053 1.0000
vn -0.5158 0.0327 0.8561
vn -0.5604 0.0921 0.8231
vn -0.6543 0.1312 0.7448
vn -0.6515 -0.1350 0.7465
vn -0.5580 -0.0904 0.8249
vn -0.0021 0.0021 -1.0000
vn -0.0019 0.0053 -1.0000
vn -0.0014 0.0064 -1.0000
vn -0.0014 -0.0066 -1.0000
vn -0.0019 -0.0052 -1.0000
vn 0.0022 -0.0041 1.0000
vn 0.0008 0.0026 1.0000
vn 0.0007 0.0034 1.0000
vn 0.0007 -0.0035 1.0000
vn -0.9833 0.1283 -0.1293
vn 0.0003 -1.0000 0.0008
vn 0.9981 0.0229 -0.0564
vn -0.9989 -0.0309 -0.0340
vn -0.0263 0.9976 -0.0636
vn 0.9982 -0.0222 -0.0563
vn 0.0002 -0.9763 0.2165
vn -0.9653 -0.2267 -0.1297
vn 0.0003 -0.0139 -0.9999
vn 0.9537 -0.2023 0.2227
vn -0.9691 -0.2066 -0.1349
vt 0.914279 0.760914
vt 0.940973 0.627330
vt 0.953752 0.629874
vt 0.921632 0.761602
vt 0.953492 0.990375
vt 0.922959 0.858144
vt 0.825009 0.860068
vt 0.798122 0.993467
vt 0.786672 0.991175
vt 0.818257 0.859437
vt 0.786672 0.630570
vt 0.816854 0.762749
vt 0.822509 0.761937
vt 0.001124 0.019527
vt 0.059842 0.015472
vt 0.030656 0.857901
vt 0.001231 0.853883
vt 0.062134 0.016908
vt 0.120683 0.011665
vt 0.116086 0.813500
vt 0.092895 0.827757
vt 0.593590 0.775050
vt 0.593590 0.663550
vt 0.600149 0.663550
vt 0.600149 0.775050
vt 0.437930 0.354303
vt 0.466206 0.363905
vt 0.466741 0.726146
vt 0.436205 0.702789
vt 0.774543 0.748043
vt 0.774543 0.636543
vt 0.781102 0.636543
vt 0.781102 0.748043
vt 0.172172 0.386654
vt 0.128033 0.387441
vt 0.156111 0.738674
vt 0.190700 0.739667
vt 0.773696 0.636543
vt 0.773696 0.748043
vt 0.767137 0.748043
vt 0.767137 0.636543
vt 0.385165 0.285679
vt 0.435357 0.278705
vt 0.410241 0.732334
vt 0.380847 0.727555
vt 0.608403 0.775050
vt 0.608403 0.663550
vt 0.614961 0.663550
vt 0.614961 0.775050
vt 0.547733 0.337319
vt 0.498605 0.336637
vt 0.500598 0.688776
vt 0.524736 0.692283
vt 0.615809 0.775050
vt 0.615809 0.663550
vt 0.622368 0.663550
vt 0.622368 0.775050
vt 0.465429 0.354578
vt 0.466176 0.700810
vt 0.600996 0.775050
vt 0.600996 0.663550
vt 0.607555 0.663550
vt 0.607555 0.775050
vt 0.383738 0.278350
vt 0.431918 0.286478
vt 0.411119 0.731430
vt 0.378800 0.746492
vt 0.548580 0.806483
vt 0.548580 0.694983
vt 0.555139 0.694983
vt 0.555139 0.806483
vt 0.545034 0.331584
vt 0.523796 0.692457
vt 0.623215 0.775050
vt 0.623215 0.663550
vt 0.629774 0.663550
vt 0.629774 0.775050
vt 0.916788 0.859042
vt 0.910798 0.859773
vt 0.908328 0.760327
vt 0.904746 0.860408
vt 0.902312 0.759833
vt 0.898643 0.860947
vt 0.896239 0.759431
vt 0.892498 0.861391
vt 0.890119 0.759123
vt 0.886322 0.861740
vt 0.883962 0.758908
vt 0.880124 0.861995
vt 0.877777 0.758787
vt 0.873915 0.862155
vt 0.871575 0.758759
vt 0.867705 0.862220
vt 0.865365 0.758825
vt 0.861502 0.862192
vt 0.859157 0.758986
vt 0.855318 0.862071
vt 0.852961 0.759240
vt 0.849161 0.861856
vt 0.846787 0.759589
vt 0.843043 0.861548
vt 0.840645 0.760033
vt 0.836971 0.861147
vt 0.834544 0.760572
vt 0.830957 0.860653
vt 0.828496 0.761207
vt 0.943412 0.992443
vt 0.933835 0.994154
vt 0.924225 0.995627
vt 0.914585 0.996865
vt 0.904919 0.997870
vt 0.895233 0.998643
vt 0.885529 0.999185
vt 0.875812 0.999497
vt 0.866086 0.999576
vt 0.856356 0.999423
vt 0.846624 0.999036
vt 0.836897 0.998411
vt 0.827178 0.997545
vt 0.817472 0.996436
vt 0.807785 0.995078
vt 0.795668 0.628710
vt 0.805236 0.626974
vt 0.814839 0.625477
vt 0.824473 0.624215
vt 0.834134 0.623186
vt 0.843818 0.622389
vt 0.853520 0.621824
vt 0.863236 0.621489
vt 0.872963 0.621386
vt 0.882696 0.621515
vt 0.892431 0.621880
vt 0.902164 0.622481
vt 0.911889 0.623323
vt 0.921603 0.624408
vt 0.931299 0.625743
vt 0.699921 0.342552
vt 0.731584 0.343069
vt 0.712869 0.609699
vt 0.694341 0.615932
vt 0.972908 0.281550
vt 0.937393 0.280987
vt 0.928842 0.594728
vt 0.949438 0.605163
vt 0.122303 0.012010
vt 0.116561 0.820141
vt 0.062134 0.000424
vt 0.091613 0.811999
vt 0.061287 0.015967
vt 0.030773 0.856595
vt 0.000424 0.000424
vt 0.000424 0.865752
vt 0.637033 0.316762
vt 0.691746 0.316578
vt 0.691963 0.615703
vt 0.672778 0.609901
vt 0.926847 0.304952
vt 0.893561 0.303720
vt 0.879695 0.596446
vt 0.901011 0.609139
vt 0.630891 0.318617
vt 0.693143 0.315242
vt 0.693143 0.612114
vt 0.673375 0.635696
vt 0.927513 0.305604
vt 0.893106 0.304988
vt 0.879070 0.590842
vt 0.901729 0.590189
vt 0.786672 0.294254
vt 0.835529 0.298143
vt 0.809512 0.592173
vt 0.786672 0.620538
vt 0.970602 0.282252
vt 0.937505 0.281823
vt 0.928360 0.590220
vt 0.949729 0.589378
vt 0.787270 0.296341
vt 0.838866 0.295574
vt 0.807721 0.606846
vt 0.789173 0.588519
vt 0.362071 0.367567
vt 0.314430 0.368697
vt 0.346371 0.750886
vt 0.376642 0.732814
vt 0.438950 0.363352
vt 0.437906 0.715915
vt 0.173245 0.388879
vt 0.189087 0.752195
vt 0.225785 0.330167
vt 0.194281 0.330492
vt 0.217706 0.741674
vt 0.248595 0.742122
vt 0.123150 0.389887
vt 0.157258 0.771146
vt 0.308726 0.348282
vt 0.262789 0.347346
vt 0.249443 0.729191
vt 0.278237 0.727958
vt 0.226994 0.333202
vt 0.247842 0.749497
vt 0.312878 0.346057
vt 0.262742 0.345115
vt 0.250326 0.735169
vt 0.277795 0.751718
vt 0.191547 0.333934
vt 0.218381 0.762352
vt 0.361128 0.363034
vt 0.313725 0.363745
vt 0.343828 0.712868
vt 0.377952 0.713867
vt 0.497440 0.331050
vt 0.498681 0.706342
vt 0.615616 0.593200
vt 0.593590 0.592429
vt 0.605404 0.655648
vt 0.607470 0.655446
vt 0.548581 0.584844
vt 0.577349 0.585823
vt 0.567421 0.686445
vt 0.564391 0.683596
vt 0.693990 0.610299
vt 0.712483 0.624385
vt 0.734098 0.621917
vt 0.756794 0.594087
vt 0.736557 0.590466
vt 0.755013 0.608442
vt 0.855247 0.599332
vt 0.877607 0.603447
vt 0.855584 0.610708
vt 0.877724 0.599369
vt 0.700104 0.342565
vt 0.733241 0.343018
vt 0.734088 0.299195
vt 0.782588 0.302972
vt 0.591460 0.012433
vt 0.548581 0.000424
vt 0.576831 0.585778
vt 0.734721 0.301150
vt 0.785825 0.300506
vt 0.548974 0.015053
vt 0.549101 0.586437
vt 0.840941 0.278451
vt 0.858992 0.275077
vt 0.630043 0.008053
vt 0.593800 0.010997
vt 0.593997 0.592610
vt 0.615865 0.592164
vt 0.858507 0.278081
vt 0.839713 0.275177
vt 0.593590 0.000424
vt 0.629319 0.008822
vt 0.592743 0.011058
vt 0.883655 0.021873
vt 0.926700 0.030313
vt 0.878571 0.024696
vt 0.927513 0.000424
vt 0.928360 0.019152
vt 0.966683 0.000424
vt 0.931862 0.018185
vt 0.965944 0.023794
vt 0.838211 0.000424
vt 0.802464 0.025842
vt 0.835193 0.033280
vt 0.797371 0.023866
vt 0.690432 0.048145
vt 0.643413 0.059536
vt 0.682274 0.035596
vt 0.640837 0.000424
vt 0.728196 0.018901
vt 0.693990 0.014771
vt 0.728737 0.000424
vt 0.696080 0.014649
vt 0.782851 0.032818
vt 0.744851 0.023481
vt 0.785825 0.000424
vt 0.749806 0.025425
vt 0.840879 0.000424
vt 0.877724 0.012841
vt 0.875486 0.012714
vt 0.841194 0.015225
vt 0.490948 0.028258
vt 0.436274 0.032825
vt 0.485920 0.020563
vt 0.436205 0.000424
vt 0.429764 0.044937
vt 0.378800 0.036541
vt 0.431431 0.000424
vt 0.387490 0.028484
vt 0.491795 0.022504
vt 0.547733 0.000424
vt 0.544332 0.031137
vt 0.497654 0.027391
vt 0.320046 0.043940
vt 0.370352 0.031090
vt 0.319133 0.000424
vt 0.377952 0.035941
vt 0.249443 0.031446
vt 0.305170 0.000424
vt 0.256175 0.028783
vt 0.303729 0.038878
vt 0.243669 0.022753
vt 0.195813 0.000424
vt 0.248595 0.025024
vt 0.196505 0.029963
vt 0.183629 0.032292
vt 0.129628 0.000424
vt 0.190700 0.034631
vt 0.131341 0.043001
vt 0.696564 0.712996
vt 0.695429 0.715708
vt 0.694943 0.710121
vt 0.695231 0.709000
vt 0.696654 0.708663
vt 0.696879 0.709310
vt 0.697934 0.709344
vt 0.697247 0.708406
vt 0.689101 0.759367
vt 0.705425 0.770456
vt 0.698058 0.791828
vt 0.670096 0.781488
vt 0.579948 0.695752
vt 0.579948 0.709484
vt 0.577652 0.708170
vt 0.577780 0.694983
vt 0.685793 0.678746
vt 0.681059 0.680636
vt 0.668443 0.660901
vt 0.677600 0.654651
vt 0.719604 0.772344
vt 0.720292 0.765824
vt 0.737104 0.781043
vt 0.724466 0.788305
vt 0.695845 0.709575
vt 0.697450 0.716957
vt 0.694396 0.724435
vt 0.697531 0.721343
vt 0.703682 0.758601
vt 0.706915 0.771661
vt 0.695319 0.694099
vt 0.696772 0.693201
vt 0.696224 0.682332
vt 0.694130 0.684813
vt 0.680805 0.656524
vt 0.676738 0.636543
vt 0.681180 0.683329
vt 0.685980 0.682962
vt 0.700052 0.714300
vt 0.697660 0.712273
vt 0.705364 0.721449
vt 0.698860 0.721347
vt 0.715315 0.755898
vt 0.700388 0.743522
vt 0.756291 0.758072
vt 0.728847 0.747895
vt 0.709872 0.740066
vt 0.699601 0.721364
vt 0.695890 0.681780
vt 0.691076 0.682354
vt 0.690815 0.677571
vt 0.695859 0.677235
vt 0.687368 0.667038
vt 0.682060 0.651866
vt 0.688484 0.687745
vt 0.691148 0.686633
vt 0.692045 0.694711
vt 0.693726 0.694570
vt 0.718958 0.768639
vt 0.709415 0.775615
vt 0.698278 0.718269
vt 0.698311 0.718277
vt 0.700944 0.720413
vt 0.698905 0.716514
vt 0.740243 0.849223
vt 0.718719 0.832537
vt 0.712361 0.791632
vt 0.686502 0.652355
vt 0.697640 0.653387
vt 0.582861 0.694983
vt 0.582987 0.708186
vt 0.580795 0.709488
vt 0.580795 0.695758
vt 0.502376 0.707189
vt 0.502360 0.720919
vt 0.501155 0.720924
vt 0.501155 0.707192
vt 0.695867 0.708885
vt 0.750708 0.901661
vt 0.753993 0.951689
vt 0.698823 0.718123
vt 0.698825 0.718140
vt 0.698599 0.718289
vt 0.698580 0.718157
vt 0.743586 0.826105
vt 0.728787 0.853065
vt 0.741282 0.906912
vt 0.766290 0.966386
vt 0.698557 0.718299
vt 0.698514 0.718175
vt 0.693576 0.695468
vt 0.694588 0.695105
vt 0.693964 0.698785
vt 0.694837 0.698479
vt 0.694578 0.702559
vt 0.695473 0.702298
vt 0.695294 0.706132
vt 0.696087 0.705895
vt 0.692785 0.695891
vt 0.693276 0.699112
vt 0.693768 0.702806
vt 0.694647 0.706294
vt 0.496085 0.707193
vt 0.496085 0.721341
vt 0.494863 0.721337
vt 0.494879 0.707189
vt 0.498154 0.707197
vt 0.498197 0.721316
vt 0.496932 0.721309
vt 0.496932 0.707189
vt 0.562814 0.694993
vt 0.562872 0.710241
vt 0.561549 0.710231
vt 0.561549 0.694983
vt 0.570620 0.694983
vt 0.570561 0.710204
vt 0.569297 0.710214
vt 0.569297 0.694993
vt 0.500308 0.707189
vt 0.500265 0.721284
vt 0.499044 0.721292
vt 0.499044 0.707197
vt 0.573661 0.696268
vt 0.573529 0.709886
vt 0.571468 0.709131
vt 0.571468 0.694983
vt 0.585947 0.695580
vt 0.585716 0.709256
vt 0.583835 0.709102
vt 0.583835 0.694983
vt 0.560702 0.695080
vt 0.560506 0.710027
vt 0.558816 0.710232
vt 0.558816 0.694983
vt 0.568247 0.695185
vt 0.568450 0.710103
vt 0.566557 0.710204
vt 0.566557 0.694983
vt 0.588683 0.694983
vt 0.588913 0.708629
vt 0.586794 0.709247
vt 0.586794 0.695152
vt 0.694425 0.683156
vt 0.692249 0.691866
vt 0.698921 0.694500
vt 0.694780 0.697336
vt 0.701426 0.704791
vt 0.696206 0.703176
vt 0.701802 0.714160
vt 0.696937 0.708676
vt 0.701827 0.686986
vt 0.708100 0.696232
vt 0.712756 0.709275
vt 0.713107 0.724368
vt 0.710486 0.680178
vt 0.723437 0.690147
vt 0.733786 0.707154
vt 0.734029 0.728267
vt 0.724011 0.658150
vt 0.747632 0.672948
vt 0.766266 0.697417
vt 0.766290 0.728959
vt 0.680874 0.689712
vt 0.670337 0.689648
vt 0.680388 0.701744
vt 0.664479 0.704398
vt 0.682650 0.714949
vt 0.664576 0.723936
vt 0.683622 0.678012
vt 0.684176 0.682050
vt 0.678199 0.691309
vt 0.689608 0.732744
vt 0.675681 0.745052
vt 0.678837 0.701662
vt 0.681688 0.715517
vt 0.692455 0.715841
vt 0.688945 0.727925
vt 0.694399 0.714774
vt 0.684460 0.693924
vt 0.686874 0.694336
vt 0.692915 0.688475
vt 0.692299 0.695635
vt 0.693433 0.702419
vt 0.687786 0.705803
vt 0.695210 0.708278
vt 0.695335 0.694841
vt 0.695516 0.698256
vt 0.696262 0.702052
vt 0.696689 0.705648
vt 0.576805 0.694983
vt 0.576805 0.709131
vt 0.574642 0.709880
vt 0.574509 0.696261
vt 0.591974 0.694983
vt 0.591974 0.709102
vt 0.589995 0.709237
vt 0.589760 0.695563
vt 0.557969 0.694983
vt 0.557969 0.710231
vt 0.556190 0.710002
vt 0.555987 0.695058
vt 0.565709 0.694983
vt 0.565709 0.710204
vt 0.563719 0.710126
vt 0.563931 0.695210
vt 0.494015 0.707340
vt 0.494015 0.721435
vt 0.491795 0.720834
vt 0.492029 0.707189
vt 0.648133 0.677566
vt 0.634999 0.701844
vt 0.630891 0.732597
vt 0.646853 0.760845
vt 0.674400 0.741472
vt 0.664684 0.726549
vt 0.690020 0.705911
vt 0.605503 0.662702
vt 0.607593 0.657529
vt 0.564492 0.694136
vt 0.567598 0.683234
s 0
f 9/1/1 40/2/1 4/3/1 3/4/1
f 3/4/2 4/3/2 8/5/2 7/6/2
f 41/7/3 72/8/3 6/9/3 5/10/3
f 5/10/4 6/9/4 2/11/4 1/12/4
f 24/13/5 41/7/5 5/10/5 1/12/5
f 40/14/6 57/15/6 80/16/6 73/17/6
f 72/18/7 25/19/7 79/20/7 76/21/7
f 57/22/8 40/23/8 39/24/8 58/25/8
f 173/26/9 175/27/9 82/28/9 107/29/9
f 59/30/8 38/31/8 37/32/8 60/33/8
f 198/34/10 197/35/10 95/36/10 96/37/10
f 61/38/8 36/39/8 35/40/8 62/41/8
f 180/42/11 179/43/11 106/44/11 83/45/11
f 63/46/8 34/47/8 33/48/8 64/49/8
f 183/50/12 182/51/12 85/52/12 86/53/12
f 65/54/8 32/55/8 31/56/8 66/57/8
f 174/58/13 173/26/13 107/29/13 108/59/13
f 67/60/8 30/61/8 29/62/8 68/63/8
f 178/64/14 177/65/14 84/66/14 105/67/14
f 69/68/8 28/69/8 27/70/8 70/71/8
f 182/51/15 181/72/15 104/73/15 85/52/15
f 71/74/8 26/75/8 25/76/8 72/77/8
f 3/4/5 7/6/5 56/78/5 9/1/5
f 9/1/5 56/78/5 55/79/5 10/80/5
f 10/80/5 55/79/5 54/81/5 11/82/5
f 11/82/5 54/81/5 53/83/5 12/84/5
f 12/84/5 53/83/5 52/85/5 13/86/5
f 13/86/5 52/85/5 51/87/5 14/88/5
f 14/88/5 51/87/5 50/89/5 15/90/5
f 15/90/5 50/89/5 49/91/5 16/92/5
f 16/92/5 49/91/5 48/93/5 17/94/5
f 17/94/5 48/93/5 47/95/5 18/96/5
f 18/96/5 47/95/5 46/97/5 19/98/5
f 19/98/5 46/97/5 45/99/5 20/100/5
f 20/100/5 45/99/5 44/101/5 21/102/5
f 21/102/5 44/101/5 43/103/5 22/104/5
f 22/104/5 43/103/5 42/105/5 23/106/5
f 23/106/5 42/105/5 41/7/5 24/13/5
f 7/6/3 8/5/3 57/107/3 56/78/3
f 56/78/3 57/107/3 58/108/3 55/79/3
f 55/79/3 58/108/3 59/109/3 54/81/3
f 54/81/3 59/109/3 60/110/3 53/83/3
f 53/83/3 60/110/3 61/111/3 52/85/3
f 52/85/3 61/111/3 62/112/3 51/87/3
f 51/87/3 62/112/3 63/113/3 50/89/3
f 50/89/3 63/113/3 64/114/3 49/91/3
f 49/91/3 64/114/3 65/115/3 48/93/3
f 48/93/3 65/115/3 66/116/3 47/95/3
f 47/95/3 66/116/3 67/117/3 46/97/3
f 46/97/3 67/117/3 68/118/3 45/99/3
f 45/99/3 68/118/3 69/119/3 44/101/3
f 44/101/3 69/119/3 70/120/3 43/103/3
f 43/103/3 70/120/3 71/121/3 42/105/3
f 42/105/3 71/121/3 72/8/3 41/7/3
f 1/12/1 2/11/1 25/122/1 24/13/1
f 24/13/1 25/122/1 26/123/1 23/106/1
f 23/106/1 26/123/1 27/124/1 22/104/1
f 22/104/1 27/124/1 28/125/1 21/102/1
f 21/102/1 28/125/1 29/126/1 20/100/1
f 20/100/1 29/126/1 30/127/1 19/98/1
f 19/98/1 30/127/1 31/128/1 18/96/1
f 18/96/1 31/128/1 32/129/1 17/94/1
f 17/94/1 32/129/1 33/130/1 16/92/1
f 16/92/1 33/130/1 34/131/1 15/90/1
f 15/90/1 34/131/1 35/132/1 14/88/1
f 14/88/1 35/132/1 36/133/1 13/86/1
f 13/86/1 36/133/1 37/134/1 12/84/1
f 12/84/1 37/134/1 38/135/1 11/82/1
f 11/82/1 38/135/1 39/136/1 10/80/1
f 10/80/1 39/136/1 40/2/1 9/1/1
f 162/137/16 161/138/16 122/139/16 139/140/16
f 152/141/17 151/142/17 133/143/17 134/144/17
f 6/145/18 72/18/18 76/21/18 77/146/18
f 25/19/19 2/147/19 78/148/19 79/20/19
f 4/149/20 40/14/20 73/17/20 74/150/20
f 2/147/21 6/145/21 77/146/21 78/148/21
f 57/15/22 8/151/22 75/152/22 80/16/22
f 8/151/23 4/149/23 74/150/23 75/152/23
f 160/153/24 159/154/24 138/155/24 123/156/24
f 148/157/17 147/158/17 131/159/17 132/160/17
f 158/161/25 157/162/25 124/163/25 137/164/25
f 146/165/26 145/166/26 129/167/26 130/168/26
f 156/169/27 155/170/27 136/171/27 125/172/27
f 150/173/26 149/174/26 127/175/26 128/176/26
f 154/177/28 153/178/28 126/179/28 135/180/28
f 186/181/29 185/182/29 87/183/29 88/184/29
f 176/185/30 174/58/30 108/59/30 81/186/30
f 197/35/31 199/187/31 94/188/31 95/36/31
f 194/189/32 193/190/32 97/191/32 98/192/32
f 200/193/33 198/34/33 96/37/33 93/194/33
f 190/195/34 189/196/34 89/197/34 90/198/34
f 193/190/35 195/199/35 92/200/35 97/191/35
f 192/201/36 191/202/36 99/203/36 100/204/36
f 196/205/37 194/189/37 98/192/37 91/206/37
f 195/199/38 196/205/38 91/206/38 92/200/38
f 191/202/39 190/195/39 90/198/39 99/203/39
f 188/207/40 187/208/40 101/209/40 102/210/40
f 189/196/41 192/201/41 100/204/41 89/197/41
f 199/187/42 200/193/42 93/194/42 94/188/42
f 187/208/43 186/181/43 88/184/43 101/209/43
f 181/72/44 184/211/44 103/212/44 104/73/44
f 175/27/45 176/185/45 81/186/45 82/28/45
f 185/182/46 188/207/46 102/210/46 87/183/46
f 184/211/47 183/50/47 86/53/47 103/212/47
f 179/43/48 178/64/48 105/67/48 106/44/48
f 177/65/49 180/42/49 83/45/49 84/66/49
f 115/213/50 114/214/50 357/215/50 358/216/50
f 109/217/51 116/218/51 362/219/51 359/220/51
f 131/159/8 130/168/8 129/167/8 132/160/8
f 133/143/8 128/176/8 127/175/8 134/144/8
f 135/180/8 126/179/8 125/172/8 136/171/8
f 137/164/8 124/163/8 123/156/8 138/155/8
f 139/140/8 122/139/8 121/221/8 140/222/8
f 141/223/8 120/224/8 119/225/8 142/226/8
f 143/227/8 118/228/8 117/229/8 144/230/8
f 155/170/52 154/177/52 135/180/52 136/171/52
f 164/231/53 163/232/53 140/222/53 121/221/53
f 159/154/54 158/161/54 137/164/54 138/155/54
f 166/233/55 165/234/55 120/224/55 141/223/55
f 74/235/56 73/236/56 109/217/56 110/237/56
f 163/232/57 162/137/57 139/140/57 140/222/57
f 168/238/58 167/239/58 142/226/58 119/225/58
f 75/240/59 74/235/59 110/237/59 111/241/59
f 167/239/60 166/233/60 141/223/60 142/226/60
f 170/242/61 169/243/61 118/228/61 143/227/61
f 77/244/62 76/245/62 112/246/62 113/247/62
f 171/248/63 170/242/63 143/227/63 144/230/63
f 169/243/64 172/249/64 117/229/64 118/228/64
f 172/249/65 171/248/65 144/230/65 117/229/65
f 78/250/66 77/244/66 113/247/66 114/214/66
f 147/158/67 146/165/67 130/168/67 131/159/67
f 165/234/68 168/238/68 119/225/68 120/224/68
f 79/251/69 78/250/69 114/214/69 115/213/69
f 145/166/70 148/157/70 132/160/70 129/167/70
f 161/138/71 164/231/71 121/221/71 122/139/71
f 80/252/72 75/240/72 111/241/72 116/218/72
f 151/142/73 150/173/73 128/176/73 133/143/73
f 157/162/74 160/153/74 123/156/74 124/163/74
f 73/236/75 80/252/75 116/218/75 109/217/75
f 149/174/76 152/141/76 134/144/76 127/175/76
f 153/178/77 156/169/77 125/172/77 126/179/77
f 76/245/78 79/251/78 115/213/78 112/246/78
f 93/253/79 96/254/79 148/157/79 145/166/79
f 95/255/80 94/256/80 146/165/80 147/158/80
f 94/256/81 93/253/81 145/166/81 146/165/81
f 96/254/82 95/255/82 147/158/82 148/157/82
f 91/257/76 98/258/76 152/141/76 149/174/76
f 97/259/73 92/260/73 150/173/73 151/142/73
f 92/260/26 91/257/26 149/174/26 150/173/26
f 98/258/17 97/259/17 151/142/17 152/141/17
f 90/261/83 89/262/83 156/169/83 153/178/83
f 100/263/84 99/264/84 154/177/84 155/170/84
f 99/264/85 90/261/85 153/178/85 154/177/85
f 89/262/86 100/263/86 155/170/86 156/169/86
f 88/265/87 87/266/87 160/153/87 157/162/87
f 102/267/88 101/268/88 158/161/88 159/154/88
f 101/268/89 88/265/89 157/162/89 158/161/89
f 87/266/90 102/267/90 159/154/90 160/153/90
f 86/269/91 85/270/91 164/231/91 161/138/91
f 104/271/92 103/272/92 162/137/92 163/232/92
f 85/270/93 104/271/93 163/232/93 164/231/93
f 103/272/94 86/269/94 161/138/94 162/137/94
f 84/273/95 83/274/95 168/238/95 165/234/95
f 106/275/96 105/276/96 166/233/96 167/239/96
f 83/274/97 106/275/97 167/239/97 168/238/97
f 105/276/98 84/273/98 165/234/98 166/233/98
f 81/277/99 108/278/99 171/248/99 172/249/99
f 82/279/100 81/277/100 172/249/100 169/243/100
f 108/278/101 107/280/101 170/242/101 171/248/101
f 107/280/102 82/279/102 169/243/102 170/242/102
f 27/281/103 26/282/103 176/185/103 175/27/103
f 26/282/104 71/283/104 174/58/104 176/185/104
f 71/283/105 70/284/105 173/26/105 174/58/105
f 70/284/106 27/281/106 175/27/106 173/26/106
f 29/285/49 28/286/49 180/42/49 177/65/49
f 69/287/48 68/288/48 178/64/48 179/43/48
f 68/288/14 29/285/14 177/65/14 178/64/14
f 28/286/11 69/287/11 179/43/11 180/42/11
f 66/289/107 31/290/107 183/50/107 184/211/107
f 67/291/108 66/289/108 184/211/108 181/72/108
f 30/292/109 67/291/109 181/72/109 182/51/109
f 31/290/110 30/292/110 182/51/110 183/50/110
f 32/293/111 65/294/111 188/207/111 185/182/111
f 64/295/112 33/296/112 186/181/112 187/208/112
f 65/294/113 64/295/113 187/208/113 188/207/113
f 33/296/114 32/293/114 185/182/114 186/181/114
f 34/297/41 63/298/41 192/201/41 189/196/41
f 62/299/39 35/300/39 190/195/39 191/202/39
f 63/298/36 62/299/36 191/202/36 192/201/36
f 35/300/34 34/297/34 189/196/34 190/195/34
f 37/301/115 36/302/115 196/205/115 195/199/115
f 36/302/116 61/303/116 194/189/116 196/205/116
f 60/304/117 37/301/117 195/199/117 193/190/117
f 61/303/118 60/304/118 193/190/118 194/189/118
f 39/305/119 38/306/119 200/193/119 199/187/119
f 38/306/120 59/307/120 198/34/120 200/193/120
f 58/308/121 39/305/121 199/187/121 197/35/121
f 59/307/122 58/308/122 197/35/122 198/34/122
f 320/309/123 216/310/123 204/311/123 270/312/123
f 340/313/124 228/314/124 208/315/124 275/316/124
f 300/317/125 224/318/125 206/319/125 280/320/125
f 330/321/126 232/322/126 202/323/126 269/324/126
f 247/325/127 217/326/127 205/327/127 230/328/127
f 239/329/128 213/330/128 202/331/128 232/332/128
f 227/333/129 204/311/129 216/310/129 233/334/129
f 233/334/130 216/310/130 215/335/130 235/336/130
f 235/336/131 215/335/131 214/337/131 237/338/131
f 237/338/132 214/337/132 213/330/132 239/329/132
f 225/339/133 207/340/133 220/341/133 241/342/133
f 241/342/134 220/341/134 219/343/134 243/344/134
f 243/344/135 219/343/135 218/345/135 245/346/135
f 245/346/136 218/345/136 217/326/136 247/325/136
f 275/316/137 208/315/137 221/347/137 285/348/137
f 285/348/138 221/347/138 222/349/138 290/350/138
f 290/350/139 222/349/139 223/351/139 295/352/139
f 295/352/140 223/351/140 224/318/140 300/317/140
f 269/353/141 202/331/141 213/330/141 305/354/141
f 305/354/142 213/330/142 214/337/142 310/355/142
f 310/355/143 214/337/143 215/335/143 315/356/143
f 315/356/144 215/335/144 216/310/144 320/309/144
f 211/357/145 246/358/145 248/359/145 212/360/145
f 246/358/146 245/346/146 247/325/146 248/359/146
f 210/361/147 244/362/147 246/358/147 211/357/147
f 244/362/148 243/344/148 245/346/148 246/358/148
f 209/363/149 242/364/149 244/362/149 210/361/149
f 242/364/150 241/342/150 243/344/150 244/362/150
f 203/365/151 226/366/151 242/364/151 209/363/151
f 226/366/152 225/339/152 241/342/152 242/364/152
f 223/351/153 238/367/153 240/368/153 224/318/153
f 233/334/154 235/336/154 251/369/154 249/370/154
f 222/349/155 236/371/155 238/367/155 223/351/155
f 236/371/156 235/336/156 237/338/156 238/367/156
f 221/347/157 234/372/157 236/371/157 222/349/157
f 240/368/158 238/367/158 254/373/158 256/374/158
f 208/315/159 228/314/159 234/372/159 221/347/159
f 228/314/160 227/333/160 233/334/160 234/372/160
f 224/318/161 240/368/161 231/375/161 206/319/161
f 240/368/162 239/329/162 232/332/162 231/375/162
f 212/360/163 248/359/163 229/376/163 201/377/163
f 248/359/164 247/325/164 230/328/164 229/376/164
f 280/378/165 206/379/165 231/380/165 325/381/165
f 325/382/166 231/383/166 232/384/166 330/385/166
f 270/312/167 204/311/167 227/333/167 335/386/167
f 335/386/168 227/333/168 228/314/168 340/313/168
f 256/374/169 254/373/169 258/387/169 260/388/169
f 252/389/170 250/390/170 262/391/170 264/392/170
f 239/329/171 240/368/171 256/374/171 255/393/171
f 238/367/172 237/338/172 253/394/172 254/373/172
f 237/338/173 239/329/173 255/393/173 253/394/173
f 235/336/174 236/371/174 252/389/174 251/369/174
f 234/372/175 233/334/175 249/370/175 250/390/175
f 236/371/176 234/372/176 250/390/176 252/389/176
f 258/387/177 257/395/177 259/396/177 260/388/177
f 254/373/178 253/394/178 257/395/178 258/387/178
f 253/394/179 255/393/179 259/396/179 257/395/179
f 255/393/180 256/374/180 260/388/180 259/396/180
f 262/391/181 261/397/181 263/398/181 264/392/181
f 250/390/182 249/370/182 261/397/182 262/391/182
f 249/370/183 251/369/183 263/398/183 261/397/183
f 251/369/184 252/389/184 264/392/184 263/398/184
f 226/366/185 339/399/185 344/400/185 225/339/185
f 339/399/186 338/401/186 343/402/186 344/400/186
f 338/401/187 337/403/187 342/404/187 343/402/187
f 337/403/188 336/405/188 341/406/188 342/404/188
f 336/405/189 335/386/189 340/313/189 341/406/189
f 203/365/190 274/407/190 339/399/190 226/366/190
f 274/407/191 273/408/191 338/401/191 339/399/191
f 273/408/192 272/409/192 337/403/192 338/401/192
f 272/409/193 271/410/193 336/405/193 337/403/193
f 271/410/194 270/312/194 335/386/194 336/405/194
f 230/411/195 329/412/195 334/413/195 229/414/195
f 329/415/196 328/416/196 333/417/196 334/418/196
f 328/419/197 327/420/197 332/421/197 333/422/197
f 327/423/198 326/424/198 331/425/198 332/426/198
f 326/427/199 325/428/199 330/429/199 331/430/199
f 205/431/200 284/432/200 329/433/200 230/434/200
f 284/435/201 283/436/201 328/437/201 329/438/201
f 283/439/202 282/440/202 327/441/202 328/442/202
f 282/443/203 281/444/203 326/445/203 327/446/203
f 281/447/204 280/448/204 325/449/204 326/450/204
f 210/361/205 319/451/205 324/452/205 209/363/205
f 319/451/206 318/453/206 323/454/206 324/452/206
f 318/453/207 317/455/207 322/456/207 323/454/207
f 317/455/208 316/457/208 321/458/208 322/456/208
f 316/457/209 315/356/209 320/309/209 321/458/209
f 211/357/210 314/459/210 319/451/210 210/361/210
f 314/459/211 313/460/211 318/453/211 319/451/211
f 313/460/212 312/461/212 317/455/212 318/453/212
f 312/461/213 311/462/213 316/457/213 317/455/213
f 311/462/214 310/355/214 315/356/214 316/457/214
f 212/360/215 309/463/215 314/459/215 211/357/215
f 309/463/216 308/464/216 313/460/216 314/459/216
f 308/464/217 307/465/217 312/461/217 313/460/217
f 307/465/218 306/466/218 311/462/218 312/461/218
f 306/466/219 305/354/219 310/355/219 311/462/219
f 201/377/220 265/467/220 309/463/220 212/360/220
f 265/467/221 266/468/221 308/464/221 309/463/221
f 266/468/222 267/469/222 307/465/222 308/464/222
f 267/469/223 268/470/223 306/466/223 307/465/223
f 268/470/224 269/353/224 305/354/224 306/466/224
f 218/345/225 299/471/225 304/472/225 217/326/225
f 299/471/226 298/473/226 303/474/226 304/472/226
f 298/473/227 297/475/227 302/476/227 303/474/227
f 299/471/228 294/477/228 348/478/228 352/479/228
f 296/480/229 295/352/229 300/317/229 301/481/229
f 219/343/230 294/477/230 299/471/230 218/345/230
f 297/475/231 298/473/231 351/482/231 350/483/231
f 291/484/232 296/480/232 349/485/232 345/486/232
f 294/477/233 293/487/233 347/488/233 348/478/233
f 291/484/234 290/350/234 295/352/234 296/480/234
f 220/341/235 289/489/235 294/477/235 219/343/235
f 289/489/236 288/490/236 293/487/236 294/477/236
f 288/490/237 287/491/237 292/492/237 293/487/237
f 287/491/238 286/493/238 291/484/238 292/492/238
f 286/493/239 285/348/239 290/350/239 291/484/239
f 207/340/240 279/494/240 289/489/240 220/341/240
f 279/494/241 278/495/241 288/490/241 289/489/241
f 278/495/242 277/496/242 287/491/242 288/490/242
f 277/496/243 276/497/243 286/493/243 287/491/243
f 276/497/244 275/316/244 285/348/244 286/493/244
f 229/498/245 334/499/245 265/500/245 201/501/245
f 334/502/246 333/503/246 266/504/246 265/505/246
f 333/506/247 332/507/247 267/508/247 266/509/247
f 332/510/248 331/511/248 268/512/248 267/513/248
f 331/514/249 330/515/249 269/516/249 268/517/249
f 217/326/250 304/472/250 284/518/250 205/327/250
f 304/472/251 303/474/251 283/519/251 284/518/251
f 303/474/252 302/476/252 282/520/252 283/519/252
f 302/476/253 301/481/253 281/521/253 282/520/253
f 301/481/254 300/317/254 280/320/254 281/521/254
f 225/339/255 344/400/255 279/494/255 207/340/255
f 344/400/256 343/402/256 278/495/256 279/494/256
f 343/402/257 342/404/257 277/496/257 278/495/257
f 342/404/258 341/406/258 276/497/258 277/496/258
f 341/406/259 340/313/259 275/316/259 276/497/259
f 209/363/260 324/452/260 274/407/260 203/365/260
f 324/452/261 323/454/261 273/408/261 274/407/261
f 323/454/262 322/456/262 272/409/262 273/408/262
f 322/456/263 321/458/263 271/410/263 272/409/263
f 321/458/264 320/309/264 270/312/264 271/410/264
f 350/483/265 349/485/265 353/522/265 354/523/265
f 348/478/266 347/488/266 351/482/266 352/479/266
f 347/488/267 346/524/267 350/483/267 351/482/267
f 346/524/268 345/486/268 349/485/268 350/483/268
f 301/481/269 302/476/269 354/523/269 353/522/269
f 302/476/270 297/475/270 350/483/270 354/523/270
f 292/492/271 291/484/271 345/486/271 346/524/271
f 298/473/272 299/471/272 352/479/272 351/482/272
f 296/480/273 301/481/273 353/522/273 349/485/273
f 293/487/274 292/492/274 346/524/274 347/488/274
f 355/525/275 358/216/275 357/215/275 356/526/275
f 113/247/276 112/246/276 355/525/276 356/526/276
f 112/246/277 115/213/277 358/216/277 355/525/277
f 114/214/51 113/247/51 356/526/51 357/215/51
f 361/527/275 360/528/275 359/220/275 362/219/275
f 110/237/278 109/217/278 359/220/278 360/528/278
f 116/218/279 111/241/279 361/527/279 362/219/279
f 111/241/277 110/237/277 360/528/277 361/527/277
