# Blender 5.2.0 LTS
# www.blender.org
mtllib guard1.mtl
o Sword-LowPoly.002
v 0.000096 0.035661 0.037006
v -0.013143 0.035460 0.031051
v -0.021866 0.031606 0.027281
v 0.000096 0.038227 0.035720
v -0.012343 0.036518 0.029678
v -0.026599 0.031606 0.022829
v -0.012746 0.037781 0.018870
v -0.022713 0.038011 0.010733
v 0.000096 0.039151 0.027465
v -0.013730 0.036484 0.014461
v 0.000096 0.040975 0.016185
v -0.044037 0.031606 0.018779
v -0.042171 0.038018 0.008866
v -0.064192 0.031606 0.018414
v -0.070388 0.037897 0.011806
v -0.087395 0.031606 0.020117
v -0.086571 0.037124 0.016371
v -0.099156 0.031606 0.028026
v -0.098717 0.034487 0.027006
v -0.022855 0.031606 0.004749
v -0.042389 0.031606 0.003176
v -0.069538 0.031606 0.005873
v -0.085622 0.031606 0.009156
v -0.105167 0.031606 0.016871
v -0.092373 0.031606 0.022813
v -0.093902 0.036773 0.020865
v -0.095496 0.031606 0.011962
v -0.107352 0.033393 0.028844
v -0.122451 0.031606 0.031761
v -0.107228 0.031606 0.029714
v -0.017064 0.037308 -0.007734
v 0.000096 0.040615 -0.010451
v -0.014253 0.035494 -0.012006
v 0.000096 0.038979 -0.011226
v -0.018453 0.031606 -0.008781
v -0.015195 0.031606 -0.012512
v -0.021107 0.036407 -0.004349
v -0.025455 0.031606 -0.001743
v -0.012153 0.039363 0.001932
v 0.000096 0.042054 0.001791
v 0.000096 0.039199 0.027172
v -0.009395 0.041683 0.002063
v -0.013390 0.040531 -0.008711
v -0.005960 0.040629 0.014798
v -0.004902 0.038860 0.024137
v -0.007267 0.039898 0.015143
v -0.008684 0.037457 -0.011772
v 0.013335 0.035460 0.031051
v 0.022058 0.031606 0.027281
v 0.012535 0.036518 0.029678
v 0.026791 0.031606 0.022829
v 0.012938 0.037781 0.018870
v 0.022905 0.038011 0.010733
v 0.013922 0.036484 0.014461
v 0.044229 0.031606 0.018779
v 0.042363 0.038018 0.008866
v 0.064384 0.031606 0.018414
v 0.070580 0.037897 0.011806
v 0.087588 0.031606 0.020117
v 0.086763 0.037124 0.016371
v 0.099348 0.031606 0.028026
v 0.098909 0.034487 0.027006
v 0.023048 0.031606 0.004749
v 0.042581 0.031606 0.003176
v 0.069730 0.031606 0.005874
v 0.085815 0.031606 0.009156
v 0.105359 0.031606 0.016871
v 0.092566 0.031606 0.022813
v 0.094094 0.036773 0.020865
v 0.095688 0.031606 0.011962
v 0.107544 0.033393 0.028844
v 0.122643 0.031606 0.031761
v 0.107420 0.031606 0.029714
v 0.017256 0.037308 -0.007734
v 0.014445 0.035494 -0.012006
v 0.018646 0.031606 -0.008781
v 0.015387 0.031606 -0.012512
v 0.021299 0.036407 -0.004349
v 0.025647 0.031606 -0.001743
v 0.012346 0.039363 0.001932
v 0.009587 0.041683 0.002063
v 0.013582 0.040531 -0.008711
v 0.006152 0.040629 0.014798
v 0.005095 0.038860 0.024137
v 0.007459 0.039898 0.015143
v 0.008876 0.037457 -0.011772
v 0.000096 0.027551 0.037006
v -0.013143 0.027752 0.031051
v 0.000096 0.024985 0.035720
v -0.012343 0.026694 0.029678
v -0.012746 0.025431 0.018870
v -0.022713 0.025201 0.010733
v 0.000096 0.024061 0.027465
v -0.013730 0.026729 0.014461
v 0.000096 0.022237 0.016185
v -0.042171 0.025194 0.008866
v -0.070388 0.025315 0.011806
v -0.086571 0.026088 0.016371
v -0.098717 0.028725 0.027006
v -0.093902 0.026439 0.020865
v -0.107352 0.029819 0.028844
v -0.017064 0.025904 -0.007734
v 0.000096 0.022597 -0.010451
v -0.014253 0.027718 -0.012006
v 0.000096 0.024233 -0.011226
v -0.021107 0.026805 -0.004349
v -0.012153 0.023849 0.001932
v 0.000096 0.021158 0.001791
v 0.000096 0.024013 0.027172
v -0.009395 0.021529 0.002063
v -0.013390 0.022681 -0.008711
v -0.005960 0.022583 0.014798
v -0.004902 0.024352 0.024137
v -0.007267 0.023314 0.015143
v -0.008684 0.025755 -0.011772
v 0.013335 0.027752 0.031051
v 0.012535 0.026694 0.029678
v 0.012938 0.025431 0.018870
v 0.022905 0.025201 0.010733
v 0.013922 0.026729 0.014461
v 0.042363 0.025194 0.008866
v 0.070580 0.025315 0.011806
v 0.086763 0.026088 0.016371
v 0.098909 0.028725 0.027007
v 0.094094 0.026439 0.020865
v 0.107544 0.029819 0.028844
v 0.017256 0.025904 -0.007734
v 0.014445 0.027718 -0.012006
v 0.021299 0.026805 -0.004349
v 0.012346 0.023849 0.001932
v 0.009587 0.021529 0.002064
v 0.013582 0.022681 -0.008711
v 0.006152 0.022583 0.014798
v 0.005095 0.024352 0.024137
v 0.007459 0.023314 0.015143
v 0.008876 0.025755 -0.011772
vn -0.4471 0.6818 0.5790
vn -0.3746 0.6007 0.7062
vn -0.3540 0.8446 0.4016
vn -0.4953 0.7322 0.4674
vn -0.2408 0.8878 0.3921
vn -0.3083 0.9389 0.1527
vn -0.2009 0.9019 0.3824
vn -0.0000 0.9897 0.1432
vn -0.2295 0.9616 0.1503
vn -0.0000 0.9920 0.1263
vn -0.4049 0.9015 0.1530
vn -0.4393 0.8896 0.1251
vn -0.0298 0.8405 0.5411
vn -0.0222 0.8353 0.5494
vn 0.0769 0.7248 0.6847
vn 0.0534 0.7622 0.6451
vn 0.2343 0.6053 0.7608
vn 0.3064 0.5556 0.7729
vn 0.5330 0.3976 0.7469
vn 0.5238 0.4027 0.7507
vn 0.4726 0.3601 0.8043
vn 0.3677 0.3644 0.8556
vn -0.0046 0.6727 -0.7399
vn 0.2409 0.7146 -0.6567
vn 0.1615 0.6981 -0.6975
vn -0.0066 0.6727 -0.7399
vn -0.1354 0.6998 -0.7014
vn -0.1220 0.6935 -0.7100
vn -0.2188 0.7804 -0.5858
vn -0.2058 0.7604 -0.6159
vn -0.2996 0.8835 -0.3600
vn -0.2845 0.8672 -0.4086
vn -0.2477 0.9453 -0.2122
vn -0.2445 0.9464 -0.2109
vn -0.1528 0.9730 -0.1731
vn 0.1471 0.3976 0.9057
vn 0.1448 0.4014 0.9044
vn 0.1196 0.4412 0.8894
vn -0.5126 0.8471 0.1399
vn -0.6025 0.7767 0.1838
vn -0.6328 0.7583 0.1568
vn -0.5025 0.8557 0.1237
vn -0.6763 0.3507 -0.6478
vn -0.3223 0.5616 -0.7621
vn -0.5640 0.4304 -0.7047
vn -0.7337 0.2787 -0.6197
vn -0.7036 0.2721 -0.6564
vn -0.6731 0.2652 -0.6903
vn 0.3645 0.7288 -0.5796
vn -0.6490 0.7172 0.2537
vn -0.4996 0.8506 0.1641
vn -0.0387 0.9989 -0.0277
vn -0.2533 0.9536 0.1630
vn -0.0000 0.9918 0.1274
vn -0.0000 0.9999 -0.0128
vn -0.1099 0.5716 -0.8132
vn -0.0000 0.9788 0.2049
vn -0.0291 0.9939 -0.1068
vn -0.0000 0.9943 -0.1069
vn -0.0000 0.5787 -0.8155
vn 0.4471 0.6818 0.5790
vn 0.3540 0.8446 0.4016
vn 0.3746 0.6008 0.7062
vn 0.4953 0.7322 0.4675
vn 0.2408 0.8878 0.3921
vn 0.2009 0.9019 0.3824
vn 0.3083 0.9389 0.1527
vn 0.2295 0.9616 0.1503
vn 0.4393 0.8896 0.1251
vn 0.4049 0.9015 0.1530
vn 0.0222 0.8353 0.5494
vn 0.0298 0.8405 0.5411
vn -0.0534 0.7622 0.6451
vn -0.0769 0.7248 0.6847
vn -0.3064 0.5556 0.7729
vn -0.2343 0.6053 0.7608
vn -0.5330 0.3976 0.7469
vn -0.3677 0.3644 0.8556
vn -0.4726 0.3601 0.8043
vn -0.5238 0.4027 0.7507
vn 0.0046 0.6727 -0.7399
vn 0.0066 0.6727 -0.7399
vn -0.1615 0.6981 -0.6975
vn -0.2409 0.7146 -0.6567
vn 0.1354 0.6998 -0.7014
vn 0.1220 0.6935 -0.7100
vn 0.2188 0.7804 -0.5858
vn 0.2058 0.7604 -0.6159
vn 0.2996 0.8835 -0.3600
vn 0.2845 0.8672 -0.4086
vn 0.2477 0.9453 -0.2122
vn 0.2445 0.9464 -0.2109
vn 0.1528 0.9730 -0.1731
vn -0.1448 0.4013 0.9044
vn -0.1471 0.3976 0.9057
vn -0.1196 0.4412 0.8894
vn 0.5126 0.8471 0.1399
vn 0.5025 0.8557 0.1237
vn 0.6328 0.7583 0.1568
vn 0.6025 0.7767 0.1838
vn 0.6763 0.3507 -0.6478
vn 0.5640 0.4304 -0.7047
vn 0.3222 0.5616 -0.7621
vn 0.7036 0.2721 -0.6564
vn 0.7337 0.2787 -0.6197
vn 0.6732 0.2652 -0.6903
vn -0.3645 0.7288 -0.5796
vn 0.6490 0.7172 0.2537
vn 0.4996 0.8506 0.1640
vn 0.0387 0.9989 -0.0277
vn 0.2533 0.9536 0.1630
vn 0.1099 0.5716 -0.8132
vn 0.0291 0.9939 -0.1068
vn -0.4471 -0.6818 0.5790
vn -0.3540 -0.8446 0.4016
vn -0.3746 -0.6008 0.7062
vn -0.4953 -0.7322 0.4674
vn -0.2408 -0.8878 0.3921
vn -0.2009 -0.9019 0.3824
vn -0.3083 -0.9389 0.1527
vn -0.0000 -0.9897 0.1432
vn -0.0000 -0.9920 0.1263
vn -0.2295 -0.9616 0.1503
vn -0.4393 -0.8896 0.1251
vn -0.4049 -0.9015 0.1530
vn -0.0222 -0.8353 0.5494
vn -0.0298 -0.8405 0.5411
vn 0.0534 -0.7622 0.6451
vn 0.0769 -0.7248 0.6847
vn 0.3064 -0.5556 0.7729
vn 0.2343 -0.6053 0.7608
vn 0.5330 -0.3976 0.7469
vn 0.3677 -0.3644 0.8556
vn 0.4726 -0.3601 0.8043
vn 0.5238 -0.4027 0.7507
vn -0.0046 -0.6727 -0.7399
vn -0.0066 -0.6727 -0.7399
vn 0.1615 -0.6981 -0.6975
vn 0.2409 -0.7146 -0.6567
vn -0.1354 -0.6998 -0.7014
vn -0.1220 -0.6935 -0.7100
vn -0.2188 -0.7804 -0.5858
vn -0.2058 -0.7604 -0.6159
vn -0.2996 -0.8835 -0.3600
vn -0.2845 -0.8672 -0.4086
vn -0.2477 -0.9453 -0.2122
vn -0.2445 -0.9464 -0.2109
vn -0.1528 -0.9730 -0.1731
vn 0.1448 -0.4014 0.9044
vn 0.1471 -0.3976 0.9057
vn 0.1196 -0.4412 0.8894
vn -0.5126 -0.8471 0.1399
vn -0.5025 -0.8557 0.1237
vn -0.6328 -0.7583 0.1568
vn -0.6025 -0.7767 0.1838
vn -0.6763 -0.3507 -0.6478
vn -0.5640 -0.4304 -0.7047
vn -0.3222 -0.5616 -0.7621
vn -0.7036 -0.2721 -0.6564
vn -0.7337 -0.2787 -0.6197
vn -0.6732 -0.2652 -0.6903
vn 0.3645 -0.7288 -0.5796
vn -0.6490 -0.7172 0.2537
vn -0.4996 -0.8506 0.1640
vn -0.0387 -0.9989 -0.0277
vn -0.0000 -0.9999 -0.0128
vn -0.0000 -0.9918 0.1274
vn -0.2533 -0.9536 0.1630
vn -0.1099 -0.5716 -0.8132
vn -0.0000 -0.9788 0.2049
vn -0.0291 -0.9939 -0.1068
vn -0.0000 -0.9943 -0.1069
vn -0.0000 -0.5787 -0.8155
vn 0.4471 -0.6818 0.5790
vn 0.3746 -0.6008 0.7062
vn 0.3540 -0.8446 0.4016
vn 0.4953 -0.7322 0.4674
vn 0.2408 -0.8878 0.3921
vn 0.3083 -0.9389 0.1527
vn 0.2009 -0.9019 0.3824
vn 0.2295 -0.9616 0.1503
vn 0.4049 -0.9015 0.1530
vn 0.4393 -0.8896 0.1251
vn 0.0298 -0.8405 0.5411
vn 0.0222 -0.8353 0.5494
vn -0.0769 -0.7248 0.6847
vn -0.0534 -0.7622 0.6451
vn -0.2343 -0.6053 0.7608
vn -0.3064 -0.5556 0.7729
vn -0.5330 -0.3976 0.7469
vn -0.5238 -0.4027 0.7507
vn -0.4726 -0.3601 0.8043
vn -0.3677 -0.3644 0.8556
vn 0.0046 -0.6727 -0.7399
vn -0.2409 -0.7146 -0.6567
vn -0.1615 -0.6981 -0.6975
vn 0.0066 -0.6727 -0.7399
vn 0.1354 -0.6998 -0.7014
vn 0.1220 -0.6935 -0.7100
vn 0.2188 -0.7804 -0.5858
vn 0.2058 -0.7604 -0.6159
vn 0.2996 -0.8835 -0.3600
vn 0.2845 -0.8672 -0.4086
vn 0.2477 -0.9453 -0.2122
vn 0.2445 -0.9464 -0.2109
vn 0.1528 -0.9730 -0.1731
vn -0.1471 -0.3976 0.9057
vn -0.1448 -0.4013 0.9044
vn -0.1196 -0.4412 0.8894
vn 0.5126 -0.8471 0.1399
vn 0.6025 -0.7767 0.1838
vn 0.6328 -0.7583 0.1568
vn 0.5025 -0.8557 0.1237
vn 0.6763 -0.3507 -0.6478
vn 0.3222 -0.5616 -0.7621
vn 0.5640 -0.4304 -0.7047
vn 0.7337 -0.2787 -0.6197
vn 0.7036 -0.2721 -0.6564
vn 0.6732 -0.2652 -0.6903
vn -0.3645 -0.7288 -0.5796
vn 0.6490 -0.7172 0.2537
vn 0.4996 -0.8506 0.1640
vn 0.0387 -0.9989 -0.0277
vn 0.2533 -0.9536 0.1630
vn 0.1099 -0.5716 -0.8132
vn 0.0291 -0.9939 -0.1068
vt 0.280491 0.163145
vt 0.275212 0.148213
vt 0.278322 0.148213
vt 0.282538 0.162192
vt 0.282342 0.175236
vt 0.287134 0.181383
vt 0.295694 0.164082
vt 0.303396 0.177657
vt 0.286517 0.148213
vt 0.290074 0.154033
vt 0.300681 0.157067
vt 0.301244 0.166105
vt 0.304572 0.200264
vt 0.290701 0.202214
vt 0.301510 0.233255
vt 0.290815 0.225947
vt 0.297397 0.252638
vt 0.289423 0.253380
vt 0.287577 0.259785
vt 0.293781 0.261901
vt 0.288274 0.268769
vt 0.284847 0.269110
vt 0.313587 0.177737
vt 0.314590 0.200694
vt 0.311676 0.232615
vt 0.308172 0.251609
vt 0.305548 0.263326
vt 0.300608 0.275018
vt 0.284922 0.296314
vt 0.286779 0.278572
vt 0.284493 0.278584
vt 0.316071 0.162528
vt 0.315994 0.158492
vt 0.327112 0.162447
vt 0.326828 0.167581
vt 0.332773 0.165529
vt 0.335510 0.169463
vt 0.330884 0.173105
vt 0.321516 0.179234
vt 0.323263 0.171979
vt 0.301198 0.155332
vt 0.299646 0.148213
vt 0.316100 0.148213
vt 0.332542 0.158461
vt 0.286848 0.148213
vt 0.329603 0.148213
vt 0.331615 0.148213
vt 0.280491 0.133281
vt 0.282538 0.134234
vt 0.282342 0.121190
vt 0.287134 0.115043
vt 0.303396 0.118769
vt 0.295694 0.132344
vt 0.290074 0.142393
vt 0.301244 0.130321
vt 0.300681 0.139359
vt 0.290701 0.094212
vt 0.304572 0.096163
vt 0.290815 0.070479
vt 0.301510 0.063171
vt 0.289423 0.043046
vt 0.297397 0.043788
vt 0.287577 0.036641
vt 0.284847 0.027316
vt 0.288274 0.027657
vt 0.293781 0.034525
vt 0.314590 0.095732
vt 0.313587 0.118689
vt 0.311676 0.063811
vt 0.308172 0.044817
vt 0.305548 0.033100
vt 0.300608 0.021408
vt 0.286779 0.017855
vt 0.284922 0.000112
vt 0.284493 0.017842
vt 0.316071 0.133898
vt 0.326828 0.128845
vt 0.327112 0.133979
vt 0.315993 0.137934
vt 0.332773 0.130898
vt 0.330884 0.123321
vt 0.335510 0.126963
vt 0.323263 0.124447
vt 0.321516 0.117192
vt 0.301198 0.141094
vt 0.332542 0.137966
vt 0.390755 0.163145
vt 0.388708 0.162192
vt 0.392924 0.148213
vt 0.396034 0.148213
vt 0.388903 0.175236
vt 0.384111 0.181383
vt 0.367849 0.177657
vt 0.375552 0.164082
vt 0.384729 0.148213
vt 0.381172 0.154033
vt 0.370002 0.166105
vt 0.370564 0.157067
vt 0.380544 0.202214
vt 0.366673 0.200264
vt 0.380430 0.225947
vt 0.369735 0.233255
vt 0.381822 0.253380
vt 0.373849 0.252638
vt 0.383669 0.259785
vt 0.386399 0.269110
vt 0.382971 0.268769
vt 0.377465 0.261901
vt 0.356655 0.200694
vt 0.357658 0.177737
vt 0.359570 0.232615
vt 0.363073 0.251609
vt 0.365697 0.263326
vt 0.370637 0.275018
vt 0.384466 0.278572
vt 0.386323 0.296314
vt 0.386752 0.278584
vt 0.355175 0.162528
vt 0.344417 0.167581
vt 0.344134 0.162447
vt 0.355252 0.158492
vt 0.338472 0.165529
vt 0.340361 0.173105
vt 0.335735 0.169463
vt 0.347983 0.171979
vt 0.349730 0.179234
vt 0.355145 0.148213
vt 0.371599 0.148213
vt 0.370047 0.155332
vt 0.338704 0.158461
vt 0.384397 0.148213
vt 0.341643 0.148213
vt 0.339631 0.148213
vt 0.390755 0.133281
vt 0.388708 0.134234
vt 0.388903 0.121190
vt 0.384111 0.115043
vt 0.375552 0.132344
vt 0.367849 0.118769
vt 0.381172 0.142393
vt 0.370564 0.139359
vt 0.370002 0.130321
vt 0.366673 0.096163
vt 0.380544 0.094212
vt 0.369735 0.063171
vt 0.380430 0.070479
vt 0.373849 0.043788
vt 0.381822 0.043046
vt 0.383669 0.036641
vt 0.377465 0.034525
vt 0.382971 0.027657
vt 0.386399 0.027316
vt 0.357658 0.118689
vt 0.356655 0.095732
vt 0.359570 0.063811
vt 0.363073 0.044817
vt 0.365697 0.033100
vt 0.370637 0.021408
vt 0.386323 0.000112
vt 0.384466 0.017855
vt 0.386752 0.017842
vt 0.355175 0.133898
vt 0.355252 0.137934
vt 0.344134 0.133979
vt 0.344417 0.128845
vt 0.338472 0.130898
vt 0.335735 0.126963
vt 0.340361 0.123321
vt 0.349730 0.117192
vt 0.347983 0.124447
vt 0.370047 0.141094
vt 0.338704 0.137966
s 1
usemtl Weapon_1
f 2/1/1 1/2/2 4/3/2 5/4/3
f 3/5/4 2/1/1 5/4/3 6/6/5
f 6/6/5 5/4/3 7/7/6 8/8/7
f 9/9/8 45/10/9 4/3/10
f 7/7/6 45/10/9 46/11/11 10/12/12
f 6/6/5 8/8/7 13/13/13 12/14/14
f 12/14/14 13/13/13 15/15/15 14/16/16
f 14/16/16 15/15/15 17/17/17 16/18/18
f 25/19/19 26/20/20 19/21/21 18/22/22
f 13/13/23 8/8/24 20/23/25 21/24/26
f 15/15/27 13/13/23 21/24/26 22/25/28
f 17/17/29 15/15/27 22/25/28 23/26/30
f 26/20/31 17/17/29 23/26/30 27/27/32
f 19/21/33 26/20/31 27/27/32 24/28/34
f 16/18/18 17/17/17 26/20/20 25/19/19
f 19/21/33 24/28/34 29/29/35 28/30/35
f 18/22/22 19/21/21 28/30/36 30/31/37
f 28/30/36 29/29/38 30/31/37
f 39/32/39 42/33/40 43/34/41 31/35/42
f 31/35/43 43/34/44 33/36/45
f 31/35/43 33/36/45 36/37/46 35/38/47
f 31/35/43 35/38/47 38/39/48 37/40/48
f 20/23/25 8/8/24 7/7/49 10/12/49
f 38/39/50 20/23/50 10/12/12 37/40/51
f 31/35/42 37/40/51 10/12/12 39/32/39
f 10/12/12 46/11/11 39/32/39
f 42/33/52 44/41/53 11/42/54 40/43/55
f 33/36/45 43/34/44 47/44/56
f 44/41/53 41/45/57 11/42/54
f 43/34/58 42/33/52 40/43/55 32/46/59
f 39/32/39 46/11/11 44/41/53 42/33/40
f 4/3/10 45/10/9 7/7/6 5/4/3
f 46/11/11 45/10/9 9/9/8 41/45/57 44/41/53
f 47/44/56 43/34/44 32/46/60 34/47/60
f 48/48/61 50/49/62 4/3/63 1/2/63
f 49/50/64 51/51/65 50/49/62 48/48/61
f 51/51/65 53/52/66 52/53/67 50/49/62
f 9/9/8 4/3/10 84/54/68
f 52/53/67 54/55/69 85/56/70 84/54/68
f 51/51/65 55/57/71 56/58/72 53/52/66
f 55/57/71 57/59/73 58/60/74 56/58/72
f 57/59/73 59/61/75 60/62/76 58/60/74
f 68/63/77 61/64/78 62/65/79 69/66/80
f 56/58/81 64/67/82 63/68/83 53/52/84
f 58/60/85 65/69/86 64/67/82 56/58/81
f 60/62/87 66/70/88 65/69/86 58/60/85
f 69/66/89 70/71/90 66/70/88 60/62/87
f 62/65/91 67/72/92 70/71/90 69/66/89
f 59/61/75 68/63/77 69/66/80 60/62/76
f 62/65/91 71/73/93 72/74/93 67/72/92
f 61/64/78 73/75/94 71/73/95 62/65/79
f 71/73/95 73/75/94 72/74/96
f 80/76/97 74/77/98 82/78/99 81/79/100
f 74/77/101 75/80/102 82/78/103
f 74/77/101 76/81/104 77/82/105 75/80/102
f 74/77/101 78/83/106 79/84/106 76/81/104
f 63/68/83 54/55/107 52/53/107 53/52/84
f 79/84/108 78/83/109 54/55/69 63/68/108
f 74/77/98 80/76/97 54/55/69 78/83/109
f 54/55/69 80/76/97 85/56/70
f 81/79/110 40/43/55 11/42/54 83/85/111
f 75/80/102 86/86/112 82/78/103
f 83/85/111 11/42/54 41/45/57
f 82/78/113 32/46/59 40/43/55 81/79/110
f 80/76/97 81/79/100 83/85/111 85/56/70
f 4/3/10 50/49/62 52/53/67 84/54/68
f 85/56/70 83/85/111 41/45/57 9/9/8 84/54/68
f 86/86/112 34/47/60 32/46/60 82/78/103
f 88/87/114 90/88/115 89/89/116 87/90/116
f 3/91/117 6/92/118 90/88/115 88/87/114
f 6/92/118 92/93/119 91/94/120 90/88/115
f 93/95/121 89/89/122 113/96/123
f 91/94/120 94/97/124 114/98/125 113/96/123
f 6/92/118 12/99/126 96/100/127 92/93/119
f 12/99/126 14/101/128 97/102/129 96/100/127
f 14/101/128 16/103/130 98/104/131 97/102/129
f 25/105/132 18/106/133 99/107/134 100/108/135
f 96/100/136 21/109/137 20/110/138 92/93/139
f 97/102/140 22/111/141 21/109/137 96/100/136
f 98/104/142 23/112/143 22/111/141 97/102/140
f 100/108/144 27/113/145 23/112/143 98/104/142
f 99/107/146 24/114/147 27/113/145 100/108/144
f 16/103/130 25/105/132 100/108/135 98/104/131
f 99/107/146 101/115/148 29/116/148 24/114/147
f 18/106/133 30/117/149 101/115/150 99/107/134
f 101/115/150 30/117/149 29/116/151
f 107/118/152 102/119/153 111/120/154 110/121/155
f 102/119/156 104/122/157 111/120/158
f 102/119/156 35/123/159 36/124/160 104/122/157
f 102/119/156 106/125/161 38/126/161 35/123/159
f 20/110/138 94/97/162 91/94/162 92/93/139
f 38/126/163 106/125/164 94/97/124 20/110/163
f 102/119/153 107/118/152 94/97/124 106/125/164
f 94/97/124 107/118/152 114/98/125
f 110/121/165 108/127/166 95/128/167 112/129/168
f 104/122/157 115/130/169 111/120/158
f 112/129/168 95/128/167 109/131/170
f 111/120/171 103/132/172 108/127/166 110/121/165
f 107/118/152 110/121/155 112/129/168 114/98/125
f 89/89/122 90/88/115 91/94/120 113/96/123
f 114/98/125 112/129/168 109/131/170 93/95/121 113/96/123
f 115/130/169 105/133/173 103/132/173 111/120/158
f 116/134/174 87/90/175 89/89/175 117/135/176
f 49/136/177 116/134/174 117/135/176 51/137/178
f 51/137/178 117/135/176 118/138/179 119/139/180
f 93/95/121 134/140/181 89/89/122
f 118/138/179 134/140/181 135/141/182 120/142/183
f 51/137/178 119/139/180 121/143/184 55/144/185
f 55/144/185 121/143/184 122/145/186 57/146/187
f 57/146/187 122/145/186 123/147/188 59/148/189
f 68/149/190 125/150/191 124/151/192 61/152/193
f 121/143/194 119/139/195 63/153/196 64/154/197
f 122/145/198 121/143/194 64/154/197 65/155/199
f 123/147/200 122/145/198 65/155/199 66/156/201
f 125/150/202 123/147/200 66/156/201 70/157/203
f 124/151/204 125/150/202 70/157/203 67/158/205
f 59/148/189 123/147/188 125/150/191 68/149/190
f 124/151/204 67/158/205 72/159/206 126/160/206
f 61/152/193 124/151/192 126/160/207 73/161/208
f 126/160/207 72/159/209 73/161/208
f 130/162/210 131/163/211 132/164/212 127/165/213
f 127/165/214 132/164/215 128/166/216
f 127/165/214 128/166/216 77/167/217 76/168/218
f 127/165/214 76/168/218 79/169/219 129/170/219
f 63/153/196 119/139/195 118/138/220 120/142/220
f 79/169/221 63/153/221 120/142/183 129/170/222
f 127/165/213 129/170/222 120/142/183 130/162/210
f 120/142/183 135/141/182 130/162/210
f 131/163/223 133/171/224 95/128/167 108/127/166
f 128/166/216 132/164/215 136/172/225
f 133/171/224 109/131/170 95/128/167
f 132/164/226 131/163/223 108/127/166 103/132/172
f 130/162/210 135/141/182 133/171/224 131/163/211
f 89/89/122 134/140/181 118/138/179 117/135/176
f 135/141/182 134/140/181 93/95/121 109/131/170 133/171/224
f 136/172/225 132/164/215 103/132/173 105/133/173
