# Blender 5.2.0 LTS
# www.blender.org
mtllib hilt1.mtl
o Sword-LowPoly.003
v -0.014253 0.035494 -0.012006
v 0.000096 0.038979 -0.011226
v -0.015195 0.031606 -0.012512
v -0.008684 0.037457 -0.011772
v 0.000096 0.038475 -0.138216
v -0.009381 0.037098 -0.138362
v 0.000096 0.039865 -0.138731
v -0.009567 0.038230 -0.139109
v 0.000096 0.039968 -0.140312
v -0.009425 0.038162 -0.140779
v 0.000096 0.040174 -0.157693
v -0.009202 0.038395 -0.158057
v 0.000096 0.039988 -0.149215
v -0.009212 0.038301 -0.149568
v 0.000096 0.039896 -0.158819
v -0.009411 0.038114 -0.159044
v 0.000096 0.038995 -0.159252
v -0.009332 0.037039 -0.159626
v -0.013013 0.034666 -0.138175
v -0.014154 0.031606 -0.137831
v -0.009213 0.037201 -0.106709
v -0.009037 0.037289 -0.075065
v -0.008860 0.037378 -0.043419
v 0.000096 0.038700 -0.042972
v 0.000096 0.038710 -0.074723
v 0.000096 0.038705 -0.106436
v -0.013198 0.034740 -0.106674
v -0.013363 0.034780 -0.075136
v -0.013531 0.034816 -0.043547
v -0.014476 0.031606 -0.107062
v -0.014877 0.031606 -0.075542
v -0.015147 0.031606 -0.044055
v -0.014286 0.035461 -0.138768
v -0.017352 0.031606 -0.138723
v -0.014349 0.035579 -0.140252
v -0.016937 0.031606 -0.140395
v -0.014003 0.035629 -0.149387
v -0.017431 0.031606 -0.149292
v -0.013593 0.035884 -0.157299
v -0.016985 0.031606 -0.157376
v -0.013719 0.035660 -0.158637
v -0.012721 0.034599 -0.159292
v -0.017125 0.031606 -0.158271
v -0.014892 0.031606 -0.159970
v 0.000096 0.037243 -0.280514
v -0.005118 0.037802 -0.280165
v -0.008276 0.035070 -0.280052
v -0.009228 0.031606 -0.281489
v -0.006481 0.037502 -0.239994
v -0.007898 0.037264 -0.199800
v 0.000096 0.038687 -0.199644
v 0.000096 0.038637 -0.239779
v -0.009843 0.034999 -0.239759
v -0.011300 0.034816 -0.199533
v -0.010883 0.031606 -0.240587
v -0.012335 0.031606 -0.200248
v 0.000096 0.041960 -0.286842
v -0.005638 0.040291 -0.286224
v -0.010535 0.035655 -0.284168
v -0.011611 0.031606 -0.283551
v -0.006488 0.040454 -0.299909
v -0.011488 0.036411 -0.298470
v -0.013585 0.031606 -0.297022
v 0.000096 0.042167 -0.300312
v -0.004893 0.031606 -0.305794
v 0.000096 0.031606 -0.307460
v -0.005651 0.036219 -0.303600
v 0.000096 0.037034 -0.304492
v -0.008714 0.034631 -0.302822
v -0.008992 0.031606 -0.302852
v 0.014445 0.035494 -0.012006
v 0.015387 0.031606 -0.012512
v 0.008876 0.037457 -0.011772
v 0.009573 0.037098 -0.138362
v 0.009759 0.038230 -0.139109
v 0.009617 0.038162 -0.140779
v 0.009395 0.038395 -0.158057
v 0.009404 0.038301 -0.149568
v 0.009603 0.038114 -0.159044
v 0.009524 0.037039 -0.159626
v 0.013205 0.034666 -0.138175
v 0.014346 0.031606 -0.137831
v 0.009405 0.037201 -0.106709
v 0.009230 0.037289 -0.075065
v 0.009053 0.037378 -0.043419
v 0.013390 0.034740 -0.106674
v 0.013555 0.034780 -0.075136
v 0.013723 0.034816 -0.043547
v 0.014669 0.031606 -0.107062
v 0.015070 0.031606 -0.075542
v 0.015339 0.031606 -0.044055
v 0.014479 0.035461 -0.138768
v 0.017544 0.031606 -0.138723
v 0.014541 0.035579 -0.140252
v 0.017129 0.031606 -0.140395
v 0.014195 0.035629 -0.149387
v 0.017624 0.031606 -0.149292
v 0.013785 0.035884 -0.157299
v 0.017178 0.031606 -0.157376
v 0.013911 0.035660 -0.158637
v 0.012914 0.034599 -0.159292
v 0.017318 0.031606 -0.158271
v 0.015084 0.031606 -0.159970
v 0.005311 0.037802 -0.280165
v 0.008469 0.035070 -0.280052
v 0.009421 0.031606 -0.281489
v 0.006674 0.037502 -0.239994
v 0.008090 0.037264 -0.199800
v 0.010036 0.034999 -0.239759
v 0.011493 0.034816 -0.199533
v 0.011075 0.031606 -0.240587
v 0.012527 0.031606 -0.200248
v 0.005830 0.040291 -0.286224
v 0.010728 0.035655 -0.284168
v 0.011803 0.031606 -0.283551
v 0.006680 0.040454 -0.299909
v 0.011681 0.036411 -0.298470
v 0.013777 0.031606 -0.297022
v 0.005085 0.031606 -0.305794
v 0.005844 0.036219 -0.303600
v 0.008906 0.034631 -0.302822
v 0.009184 0.031606 -0.302852
v -0.014253 0.027718 -0.012006
v 0.000096 0.024233 -0.011226
v -0.008684 0.025755 -0.011772
v 0.000096 0.024737 -0.138216
v -0.009381 0.026114 -0.138362
v 0.000096 0.023347 -0.138731
v -0.009567 0.024982 -0.139109
v 0.000096 0.023244 -0.140312
v -0.009425 0.025050 -0.140779
v 0.000096 0.023038 -0.157693
v -0.009202 0.024818 -0.158057
v 0.000096 0.023224 -0.149215
v -0.009212 0.024911 -0.149568
v 0.000096 0.023316 -0.158819
v -0.009411 0.025098 -0.159044
v 0.000096 0.024217 -0.159252
v -0.009332 0.026174 -0.159626
v -0.013013 0.028546 -0.138175
v -0.009213 0.026011 -0.106709
v -0.009037 0.025923 -0.075065
v -0.008860 0.025834 -0.043419
v 0.000096 0.024512 -0.042972
v 0.000096 0.024502 -0.074723
v 0.000096 0.024508 -0.106436
v -0.013198 0.028473 -0.106674
v -0.013363 0.028432 -0.075136
v -0.013531 0.028396 -0.043547
v -0.014286 0.027751 -0.138768
v -0.014349 0.027633 -0.140252
v -0.014003 0.027583 -0.149387
v -0.013593 0.027328 -0.157299
v -0.013719 0.027552 -0.158637
v -0.012721 0.028613 -0.159292
v 0.000096 0.025969 -0.280514
v -0.005118 0.025410 -0.280165
v -0.008276 0.028143 -0.280052
v -0.006481 0.025710 -0.239994
v -0.007898 0.025949 -0.199800
v 0.000096 0.024525 -0.199644
v 0.000096 0.024575 -0.239779
v -0.009843 0.028213 -0.239759
v -0.011300 0.028396 -0.199533
v 0.000096 0.021252 -0.286842
v -0.005638 0.022922 -0.286224
v -0.010535 0.027557 -0.284168
v -0.006488 0.022758 -0.299909
v -0.011488 0.026801 -0.298470
v 0.000096 0.021045 -0.300312
v -0.005651 0.026993 -0.303600
v 0.000096 0.026179 -0.304492
v -0.008714 0.028581 -0.302822
v 0.014445 0.027718 -0.012006
v 0.008876 0.025755 -0.011772
v 0.009573 0.026114 -0.138362
v 0.009759 0.024982 -0.139109
v 0.009617 0.025050 -0.140779
v 0.009395 0.024818 -0.158057
v 0.009404 0.024911 -0.149568
v 0.009603 0.025098 -0.159044
v 0.009524 0.026174 -0.159626
v 0.013205 0.028546 -0.138175
v 0.009405 0.026011 -0.106709
v 0.009230 0.025923 -0.075065
v 0.009053 0.025834 -0.043419
v 0.013390 0.028473 -0.106674
v 0.013555 0.028432 -0.075136
v 0.013723 0.028396 -0.043547
v 0.014479 0.027751 -0.138768
v 0.014541 0.027633 -0.140252
v 0.014195 0.027583 -0.149387
v 0.013785 0.027328 -0.157299
v 0.013911 0.027552 -0.158637
v 0.012914 0.028613 -0.159292
v 0.005311 0.025410 -0.280165
v 0.008469 0.028143 -0.280052
v 0.006674 0.025710 -0.239994
v 0.008090 0.025949 -0.199800
v 0.010036 0.028213 -0.239759
v 0.011493 0.028396 -0.199533
v 0.005830 0.022922 -0.286224
v 0.010728 0.027557 -0.284168
v 0.006680 0.022758 -0.299909
v 0.011681 0.026801 -0.298470
v 0.005844 0.026993 -0.303600
v 0.008906 0.028581 -0.302822
vn -0.3474 0.9377 -0.0026
vn -0.0000 1.0000 -0.0029
vn -0.0000 1.0000 -0.0048
vn -0.3527 0.9357 -0.0037
vn -0.1629 0.4407 0.8828
vn -0.0000 0.4418 0.8971
vn -0.1492 0.4407 0.8852
vn -0.3428 0.9394 0.0021
vn -0.0000 1.0000 0.0029
vn -0.0000 1.0000 0.0048
vn -0.3324 0.9431 0.0013
vn -0.3368 0.9416 0.0060
vn -0.0000 0.9999 0.0114
vn -0.0000 0.9942 -0.1076
vn -0.3298 0.9395 -0.0925
vn -0.5268 0.8500 -0.0021
vn -0.5405 0.8414 -0.0025
vn -0.1680 0.4157 -0.8939
vn -0.0000 0.4548 -0.8906
vn -0.2083 0.3995 -0.8927
vn -0.0000 0.9710 -0.2390
vn -0.3715 0.9132 -0.1674
vn -0.9235 0.3834 -0.0082
vn -0.9223 0.3864 -0.0083
vn -0.9314 0.3639 -0.0080
vn -0.9400 0.3409 -0.0151
vn -0.9220 0.3869 -0.0112
vn -0.9182 0.3959 -0.0104
vn -0.9053 0.4247 -0.0074
vn -0.9065 0.4222 -0.0075
vn -0.4038 0.9147 -0.0144
vn -0.2788 0.9603 -0.0097
vn -0.3040 0.9527 -0.0056
vn -0.4484 0.8938 -0.0080
vn -0.3334 0.9428 -0.0013
vn -0.5022 0.8647 -0.0017
vn -0.0000 1.0000 -0.0052
vn -0.0000 1.0000 -0.0031
vn -0.0000 1.0000 -0.0009
vn -0.2523 0.3108 0.9164
vn -0.2463 0.3359 0.9091
vn -0.2792 -0.0000 0.9602
vn -0.6585 0.7524 -0.0164
vn -0.6688 0.7425 -0.0357
vn -0.8084 0.5846 -0.0685
vn -0.8044 0.5933 -0.0307
vn -0.6485 0.7612 -0.0063
vn -0.7861 0.6180 -0.0112
vn -0.6360 0.7711 -0.0289
vn -0.7735 0.6338 -0.0004
vn -0.6592 0.7510 -0.0387
vn -0.3851 0.3762 -0.8427
vn -0.3875 0.3769 -0.8413
vn -0.7740 0.6326 0.0287
vn -0.4533 0.3941 -0.7995
vn -0.3747 0.9271 -0.0133
vn -0.0000 1.0000 -0.0074
vn -0.0000 0.9999 -0.0144
vn -0.0489 0.9987 -0.0143
vn -0.6082 0.7936 -0.0180
vn -0.6073 0.7692 0.1989
vn -0.6081 0.7698 0.1940
vn -0.9541 0.2973 -0.0360
vn -0.9534 0.2995 -0.0354
vn -0.9562 0.2901 -0.0377
vn -0.8837 0.4661 -0.0424
vn -0.7519 0.6586 -0.0299
vn -0.7796 0.6257 -0.0286
vn -0.9250 0.3780 -0.0376
vn -0.4037 0.9148 -0.0108
vn -0.3948 0.9187 -0.0099
vn -0.0000 1.0000 -0.0045
vn -0.0000 1.0000 -0.0026
vn -0.0430 0.8628 0.5037
vn -0.0000 0.8636 0.5042
vn -0.5105 0.8499 0.1310
vn -0.7568 0.6236 0.1958
vn -0.7927 -0.0000 0.6096
vn -0.7842 0.1458 0.6031
vn -0.4529 0.8905 0.0436
vn -0.7872 0.6106 0.0864
vn -0.9277 0.3575 0.1075
vn -0.2631 0.9645 0.0214
vn -0.3772 0.4733 -0.7960
vn -0.0000 0.5429 -0.8398
vn -0.0000 0.4424 -0.8968
vn -0.3646 -0.0000 -0.9312
vn -0.3718 0.5886 -0.7178
vn -0.0000 0.6321 -0.7749
vn -0.7103 0.3069 -0.6335
vn -0.6204 0.3069 -0.7217
vn -0.7990 -0.0000 -0.6014
vn -0.6693 -0.0000 -0.7430
vn 0.3474 0.9377 -0.0026
vn 0.3527 0.9357 -0.0037
vn 0.1629 0.4407 0.8828
vn 0.1492 0.4407 0.8852
vn 0.3428 0.9394 0.0021
vn 0.3324 0.9431 0.0013
vn 0.3368 0.9416 0.0060
vn 0.3298 0.9395 -0.0925
vn 0.5268 0.8500 -0.0021
vn 0.5405 0.8414 -0.0025
vn 0.1679 0.4157 -0.8939
vn 0.2083 0.3995 -0.8927
vn 0.3715 0.9132 -0.1674
vn 0.9235 0.3834 -0.0082
vn 0.9314 0.3639 -0.0080
vn 0.9223 0.3864 -0.0083
vn 0.9400 0.3409 -0.0151
vn 0.9182 0.3959 -0.0104
vn 0.9220 0.3869 -0.0112
vn 0.9065 0.4222 -0.0075
vn 0.9053 0.4247 -0.0074
vn 0.4038 0.9147 -0.0144
vn 0.4484 0.8938 -0.0080
vn 0.3040 0.9527 -0.0056
vn 0.2788 0.9603 -0.0097
vn 0.5022 0.8647 -0.0017
vn 0.3334 0.9428 -0.0013
vn 0.2523 0.3108 0.9164
vn 0.2463 0.3359 0.9091
vn 0.2792 -0.0000 0.9602
vn 0.6585 0.7524 -0.0164
vn 0.6688 0.7426 -0.0357
vn 0.8084 0.5847 -0.0685
vn 0.8044 0.5933 -0.0307
vn 0.6485 0.7612 -0.0063
vn 0.7861 0.6180 -0.0112
vn 0.6360 0.7711 -0.0289
vn 0.7735 0.6338 -0.0004
vn 0.6592 0.7510 -0.0387
vn 0.3850 0.3762 -0.8428
vn 0.3875 0.3769 -0.8413
vn 0.7740 0.6326 0.0287
vn 0.4532 0.3941 -0.7995
vn 0.3747 0.9271 -0.0133
vn 0.0489 0.9987 -0.0143
vn 0.6082 0.7936 -0.0180
vn 0.6081 0.7698 0.1940
vn 0.6073 0.7692 0.1989
vn 0.9541 0.2973 -0.0360
vn 0.9562 0.2901 -0.0377
vn 0.9534 0.2995 -0.0354
vn 0.8837 0.4661 -0.0424
vn 0.9250 0.3780 -0.0376
vn 0.7796 0.6257 -0.0286
vn 0.7519 0.6586 -0.0299
vn 0.3948 0.9187 -0.0098
vn 0.4037 0.9148 -0.0108
vn 0.0430 0.8628 0.5037
vn 0.7568 0.6236 0.1958
vn 0.5105 0.8499 0.1310
vn 0.7927 -0.0000 0.6096
vn 0.7842 0.1457 0.6031
vn 0.7872 0.6106 0.0864
vn 0.4529 0.8905 0.0436
vn 0.9277 0.3575 0.1075
vn 0.2631 0.9645 0.0214
vn 0.3772 0.4733 -0.7960
vn 0.3646 -0.0000 -0.9312
vn 0.3718 0.5886 -0.7178
vn 0.7103 0.3069 -0.6335
vn 0.6204 0.3069 -0.7217
vn 0.7990 -0.0000 -0.6014
vn 0.6693 -0.0000 -0.7430
vn -0.3474 -0.9377 -0.0026
vn -0.3527 -0.9357 -0.0037
vn -0.0000 -1.0000 -0.0048
vn -0.0000 -1.0000 -0.0029
vn -0.1629 -0.4406 0.8828
vn -0.1492 -0.4406 0.8852
vn -0.0000 -0.4417 0.8971
vn -0.3428 -0.9394 0.0021
vn -0.3324 -0.9431 0.0013
vn -0.0000 -1.0000 0.0048
vn -0.0000 -1.0000 0.0029
vn -0.3368 -0.9416 0.0060
vn -0.3298 -0.9395 -0.0925
vn -0.0000 -0.9942 -0.1076
vn -0.0000 -0.9999 0.0114
vn -0.5268 -0.8500 -0.0021
vn -0.5405 -0.8414 -0.0025
vn -0.1679 -0.4157 -0.8939
vn -0.2083 -0.3995 -0.8927
vn -0.0000 -0.4548 -0.8906
vn -0.3715 -0.9132 -0.1674
vn -0.0000 -0.9710 -0.2390
vn -0.9235 -0.3834 -0.0082
vn -0.9314 -0.3639 -0.0080
vn -0.9223 -0.3864 -0.0083
vn -0.9400 -0.3409 -0.0151
vn -0.9182 -0.3959 -0.0104
vn -0.9220 -0.3869 -0.0112
vn -0.9065 -0.4222 -0.0075
vn -0.9053 -0.4247 -0.0074
vn -0.4038 -0.9147 -0.0144
vn -0.4484 -0.8938 -0.0080
vn -0.3040 -0.9527 -0.0056
vn -0.2788 -0.9603 -0.0097
vn -0.5022 -0.8647 -0.0017
vn -0.3334 -0.9428 -0.0013
vn -0.0000 -1.0000 -0.0031
vn -0.0000 -1.0000 -0.0052
vn -0.0000 -1.0000 -0.0009
vn -0.2523 -0.3108 0.9164
vn -0.2463 -0.3359 0.9091
vn -0.6585 -0.7524 -0.0164
vn -0.6688 -0.7425 -0.0357
vn -0.8084 -0.5847 -0.0685
vn -0.8044 -0.5933 -0.0307
vn -0.6485 -0.7612 -0.0063
vn -0.7861 -0.6180 -0.0112
vn -0.6360 -0.7711 -0.0289
vn -0.7735 -0.6338 -0.0004
vn -0.6592 -0.7510 -0.0387
vn -0.3850 -0.3762 -0.8427
vn -0.3875 -0.3769 -0.8413
vn -0.7740 -0.6326 0.0287
vn -0.4532 -0.3941 -0.7995
vn -0.3747 -0.9271 -0.0133
vn -0.0489 -0.9987 -0.0143
vn -0.0000 -0.9999 -0.0144
vn -0.0000 -1.0000 -0.0074
vn -0.6082 -0.7936 -0.0180
vn -0.6081 -0.7698 0.1940
vn -0.6073 -0.7692 0.1989
vn -0.9541 -0.2973 -0.0360
vn -0.9562 -0.2901 -0.0377
vn -0.9534 -0.2995 -0.0354
vn -0.8837 -0.4661 -0.0424
vn -0.9250 -0.3780 -0.0376
vn -0.7796 -0.6257 -0.0286
vn -0.7519 -0.6586 -0.0299
vn -0.3948 -0.9187 -0.0099
vn -0.4037 -0.9148 -0.0108
vn -0.0000 -1.0000 -0.0026
vn -0.0000 -1.0000 -0.0045
vn -0.0430 -0.8628 0.5037
vn -0.0000 -0.8636 0.5042
vn -0.7568 -0.6236 0.1958
vn -0.5105 -0.8499 0.1310
vn -0.7842 -0.1457 0.6031
vn -0.7872 -0.6106 0.0864
vn -0.4529 -0.8905 0.0436
vn -0.9277 -0.3575 0.1075
vn -0.2631 -0.9645 0.0214
vn -0.3772 -0.4733 -0.7960
vn -0.0000 -0.4424 -0.8968
vn -0.0000 -0.5429 -0.8398
vn -0.3718 -0.5886 -0.7178
vn -0.0000 -0.6321 -0.7749
vn -0.7103 -0.3069 -0.6335
vn -0.6204 -0.3069 -0.7217
vn 0.3474 -0.9377 -0.0026
vn 0.3527 -0.9357 -0.0037
vn 0.1629 -0.4406 0.8828
vn 0.1492 -0.4406 0.8852
vn 0.3428 -0.9394 0.0021
vn 0.3324 -0.9431 0.0013
vn 0.3368 -0.9416 0.0060
vn 0.3298 -0.9395 -0.0925
vn 0.5268 -0.8500 -0.0021
vn 0.5405 -0.8414 -0.0025
vn 0.1679 -0.4157 -0.8939
vn 0.2083 -0.3995 -0.8927
vn 0.3715 -0.9132 -0.1674
vn 0.9235 -0.3834 -0.0082
vn 0.9223 -0.3864 -0.0083
vn 0.9314 -0.3639 -0.0080
vn 0.9400 -0.3409 -0.0151
vn 0.9220 -0.3869 -0.0112
vn 0.9182 -0.3959 -0.0104
vn 0.9053 -0.4247 -0.0074
vn 0.9065 -0.4222 -0.0075
vn 0.4038 -0.9147 -0.0144
vn 0.2788 -0.9603 -0.0097
vn 0.3040 -0.9527 -0.0056
vn 0.4484 -0.8938 -0.0080
vn 0.3334 -0.9428 -0.0013
vn 0.5022 -0.8647 -0.0017
vn 0.2523 -0.3108 0.9164
vn 0.2463 -0.3359 0.9091
vn 0.6585 -0.7524 -0.0164
vn 0.6688 -0.7425 -0.0357
vn 0.8084 -0.5847 -0.0685
vn 0.8044 -0.5933 -0.0307
vn 0.6485 -0.7612 -0.0063
vn 0.7861 -0.6180 -0.0112
vn 0.6360 -0.7711 -0.0289
vn 0.7735 -0.6338 -0.0004
vn 0.6592 -0.7510 -0.0387
vn 0.3850 -0.3762 -0.8428
vn 0.3875 -0.3769 -0.8413
vn 0.7740 -0.6326 0.0287
vn 0.4532 -0.3941 -0.7995
vn 0.3747 -0.9271 -0.0133
vn 0.0489 -0.9987 -0.0143
vn 0.6082 -0.7936 -0.0180
vn 0.6073 -0.7692 0.1989
vn 0.6081 -0.7698 0.1940
vn 0.9541 -0.2973 -0.0360
vn 0.9534 -0.2995 -0.0354
vn 0.9562 -0.2901 -0.0377
vn 0.8837 -0.4661 -0.0424
vn 0.7519 -0.6586 -0.0299
vn 0.7796 -0.6257 -0.0286
vn 0.9250 -0.3780 -0.0376
vn 0.4037 -0.9148 -0.0108
vn 0.3948 -0.9187 -0.0099
vn 0.0430 -0.8628 0.5037
vn 0.5105 -0.8499 0.1310
vn 0.7568 -0.6236 0.1958
vn 0.7842 -0.1457 0.6031
vn 0.4529 -0.8905 0.0436
vn 0.7872 -0.6106 0.0864
vn 0.9277 -0.3575 0.1075
vn 0.2631 -0.9645 0.0214
vn 0.3772 -0.4733 -0.7960
vn 0.3718 -0.5886 -0.7178
vn 0.7103 -0.3069 -0.6335
vn 0.6204 -0.3069 -0.7217
vt 0.262306 0.239538
vt 0.251317 0.239994
vt 0.250536 0.200172
vt 0.262632 0.199358
vt 0.250499 0.198272
vt 0.262298 0.197793
vt 0.250462 0.196383
vt 0.262085 0.195713
vt 0.261417 0.185164
vt 0.250256 0.185875
vt 0.250062 0.176018
vt 0.260969 0.175301
vt 0.267710 0.239577
vt 0.268411 0.199723
vt 0.261257 0.174110
vt 0.250036 0.174658
vt 0.250012 0.173436
vt 0.261595 0.172702
vt 0.271603 0.239139
vt 0.272515 0.201102
vt 0.274987 0.347632
vt 0.270438 0.348425
vt 0.269298 0.312167
vt 0.273407 0.311444
vt 0.268374 0.275856
vt 0.272402 0.275307
vt 0.263670 0.348826
vt 0.263170 0.312444
vt 0.262639 0.276042
vt 0.253468 0.349662
vt 0.252753 0.313166
vt 0.252036 0.276641
vt 0.268926 0.197757
vt 0.274987 0.197703
vt 0.268789 0.195931
vt 0.274574 0.195534
vt 0.267940 0.185052
vt 0.274263 0.184718
vt 0.266782 0.175852
vt 0.273123 0.175074
vt 0.266934 0.174268
vt 0.266719 0.172507
vt 0.273105 0.173971
vt 0.271024 0.171246
vt 0.255740 0.078854
vt 0.248164 0.079239
vt 0.247220 0.031109
vt 0.253428 0.030814
vt 0.260497 0.079038
vt 0.258541 0.030600
vt 0.264484 0.077969
vt 0.262867 0.029273
vt 0.262958 0.124706
vt 0.266817 0.123673
vt 0.258220 0.124550
vt 0.249060 0.124942
vt 0.247061 0.023007
vt 0.252617 0.023650
vt 0.259395 0.025385
vt 0.263741 0.025960
vt 0.252048 0.011989
vt 0.257612 0.011934
vt 0.263110 0.011621
vt 0.246850 0.012261
vt 0.252210 0.007163
vt 0.246740 0.006650
vt 0.246612 0.000112
vt 0.252858 0.001489
vt 0.255611 0.007182
vt 0.258000 0.004821
vt 0.240319 0.239969
vt 0.238418 0.199833
vt 0.238690 0.198256
vt 0.238821 0.196169
vt 0.239075 0.185602
vt 0.239136 0.175730
vt 0.234921 0.240220
vt 0.232658 0.200424
vt 0.238801 0.174550
vt 0.238408 0.173157
vt 0.231014 0.239935
vt 0.228611 0.201963
vt 0.231886 0.348477
vt 0.232047 0.312255
vt 0.236181 0.312816
vt 0.236463 0.349091
vt 0.231633 0.276107
vt 0.235680 0.276498
vt 0.242315 0.312853
vt 0.243242 0.349226
vt 0.241418 0.276459
vt 0.232066 0.198480
vt 0.226007 0.198664
vt 0.232131 0.196651
vt 0.226334 0.196480
vt 0.232553 0.185746
vt 0.226222 0.185660
vt 0.233348 0.176508
vt 0.226982 0.175979
vt 0.233135 0.174931
vt 0.233281 0.173163
vt 0.226957 0.174876
vt 0.228930 0.172072
vt 0.240579 0.079152
vt 0.241005 0.031058
vt 0.235833 0.079522
vt 0.235887 0.031045
vt 0.231806 0.078610
vt 0.231512 0.029888
vt 0.231267 0.124371
vt 0.235165 0.125251
vt 0.239893 0.124909
vt 0.241534 0.023867
vt 0.234829 0.025867
vt 0.230509 0.026612
vt 0.236083 0.012356
vt 0.241646 0.012193
vt 0.230578 0.012259
vt 0.241294 0.007377
vt 0.240424 0.001733
vt 0.237896 0.007529
vt 0.235417 0.005264
vt 0.189483 0.239538
vt 0.189157 0.199358
vt 0.201253 0.200172
vt 0.200472 0.239994
vt 0.189491 0.197793
vt 0.201290 0.198272
vt 0.189704 0.195713
vt 0.201327 0.196383
vt 0.190372 0.185164
vt 0.190820 0.175302
vt 0.201727 0.176018
vt 0.201533 0.185875
vt 0.184079 0.239577
vt 0.183378 0.199723
vt 0.190531 0.174110
vt 0.190194 0.172702
vt 0.201777 0.173436
vt 0.201753 0.174658
vt 0.180186 0.239139
vt 0.179274 0.201102
vt 0.176801 0.347632
vt 0.178382 0.311444
vt 0.182491 0.312167
vt 0.181351 0.348425
vt 0.179386 0.275307
vt 0.183415 0.275856
vt 0.188619 0.312444
vt 0.188119 0.348826
vt 0.189150 0.276042
vt 0.199036 0.313166
vt 0.198320 0.349662
vt 0.199753 0.276641
vt 0.182863 0.197757
vt 0.176801 0.197703
vt 0.183000 0.195931
vt 0.177215 0.195534
vt 0.183849 0.185052
vt 0.177526 0.184718
vt 0.185006 0.175852
vt 0.178666 0.175074
vt 0.184855 0.174268
vt 0.185070 0.172507
vt 0.178684 0.173971
vt 0.180765 0.171246
vt 0.196049 0.078854
vt 0.198361 0.030814
vt 0.204569 0.031109
vt 0.203625 0.079239
vt 0.191292 0.079038
vt 0.193248 0.030600
vt 0.187304 0.077969
vt 0.188922 0.029273
vt 0.184972 0.123673
vt 0.188831 0.124706
vt 0.193569 0.124550
vt 0.202728 0.124942
vt 0.199172 0.023650
vt 0.204728 0.023007
vt 0.192393 0.025385
vt 0.188047 0.025960
vt 0.194177 0.011934
vt 0.199741 0.011989
vt 0.188679 0.011621
vt 0.204939 0.012261
vt 0.199578 0.007163
vt 0.198930 0.001489
vt 0.205177 0.000112
vt 0.205049 0.006650
vt 0.196177 0.007182
vt 0.193789 0.004821
vt 0.211470 0.239969
vt 0.213371 0.199833
vt 0.213099 0.198256
vt 0.212968 0.196169
vt 0.212714 0.185602
vt 0.212653 0.175730
vt 0.216868 0.240220
vt 0.219131 0.200424
vt 0.212988 0.174550
vt 0.213381 0.173157
vt 0.220775 0.239935
vt 0.223178 0.201963
vt 0.219903 0.348477
vt 0.215325 0.349091
vt 0.215608 0.312816
vt 0.219742 0.312255
vt 0.216109 0.276498
vt 0.220156 0.276107
vt 0.208547 0.349226
vt 0.209474 0.312853
vt 0.210371 0.276459
vt 0.219723 0.198480
vt 0.225782 0.198664
vt 0.219658 0.196651
vt 0.225455 0.196480
vt 0.219236 0.185747
vt 0.225567 0.185661
vt 0.218441 0.176508
vt 0.224807 0.175979
vt 0.218654 0.174931
vt 0.218508 0.173163
vt 0.224832 0.174876
vt 0.222859 0.172072
vt 0.211210 0.079152
vt 0.210784 0.031058
vt 0.215956 0.079522
vt 0.215902 0.031045
vt 0.219983 0.078610
vt 0.220276 0.029888
vt 0.216624 0.125251
vt 0.220521 0.124371
vt 0.211896 0.124909
vt 0.210255 0.023867
vt 0.216960 0.025867
vt 0.221280 0.026611
vt 0.210143 0.012193
vt 0.215705 0.012356
vt 0.221211 0.012259
vt 0.210495 0.007377
vt 0.211365 0.001733
vt 0.213892 0.007529
vt 0.216372 0.005264
s 1
usemtl Weapon_1
f 21/1/1 26/2/2 5/3/3 6/4/4
f 6/4/5 5/3/6 7/5/6 8/6/7
f 8/6/8 7/5/9 9/7/10 10/8/11
f 14/9/12 13/10/13 11/11/14 12/12/15
f 10/8/11 9/7/10 13/10/13 14/9/12
f 27/13/16 21/1/1 6/4/4 19/14/17
f 16/15/18 15/16/19 17/17/19 18/18/20
f 11/11/14 15/16/21 16/15/22 12/12/15
f 30/19/23 27/13/24 19/14/25 20/20/25
f 3/21/26 1/22/26 29/23/27 32/24/28
f 32/24/28 29/23/27 28/25/29 31/26/30
f 31/26/30 28/25/29 27/13/24 30/19/23
f 1/22/31 4/27/32 23/28/33 29/23/34
f 29/23/34 23/28/33 22/29/35 28/25/36
f 28/25/36 22/29/35 21/1/1 27/13/16
f 4/27/32 2/30/37 24/31/38 23/28/33
f 23/28/33 24/31/38 25/32/39 22/29/35
f 22/29/35 25/32/39 26/2/2 21/1/1
f 33/33/40 19/14/41 6/4/5 8/6/7
f 20/20/42 19/14/41 33/33/40 34/34/42
f 35/35/43 33/33/44 8/6/8 10/8/11
f 34/34/45 33/33/44 35/35/43 36/36/46
f 37/37/47 35/35/43 10/8/11 14/9/12
f 36/36/46 35/35/43 37/37/47 38/38/48
f 39/39/49 37/37/47 14/9/12 12/12/15
f 38/38/48 37/37/47 39/39/49 40/40/50
f 41/41/51 39/39/49 12/12/15 16/15/22
f 42/42/52 41/41/53 16/15/18 18/18/20
f 40/40/50 39/39/49 41/41/51 43/43/54
f 44/44/55 43/43/55 41/41/53 42/42/52
f 49/45/56 52/46/57 45/47/58 46/48/59
f 53/49/60 49/45/56 46/48/61 47/50/62
f 55/51/63 53/49/64 47/50/65 48/52/65
f 44/44/66 42/42/67 54/53/68 56/54/69
f 56/54/69 54/53/68 53/49/64 55/51/63
f 42/42/67 18/18/70 50/55/71 54/53/68
f 54/53/68 50/55/71 49/45/56 53/49/60
f 18/18/70 17/17/72 51/56/73 50/55/71
f 50/55/71 51/56/73 52/46/57 49/45/56
f 46/48/74 45/47/75 57/57/75 58/58/74
f 47/50/62 46/48/61 58/58/76 59/59/77
f 48/52/78 47/50/79 59/59/79 60/60/78
f 59/59/77 58/58/76 61/61/80 62/62/81
f 60/60/82 59/59/77 62/62/81 63/63/82
f 64/64/83 61/61/80 58/58/76 57/57/83
f 67/65/84 68/66/85 66/67/86 65/68/87
f 61/61/88 64/64/89 68/66/85 67/65/84
f 62/62/90 61/61/88 67/65/84 69/69/91
f 63/63/92 62/62/90 69/69/91 70/70/93
f 70/70/93 69/69/91 67/65/84 65/68/87
f 83/71/94 74/72/95 5/3/3 26/2/2
f 74/72/96 75/73/97 7/5/6 5/3/6
f 75/73/98 76/74/99 9/7/10 7/5/9
f 78/75/100 77/76/101 11/11/14 13/10/13
f 76/74/99 78/75/100 13/10/13 9/7/10
f 86/77/102 81/78/103 74/72/95 83/71/94
f 79/79/104 80/80/105 17/17/19 15/16/19
f 11/11/14 77/76/101 79/79/106 15/16/21
f 89/81/107 82/82/108 81/78/108 86/77/109
f 72/83/110 91/84/111 88/85/112 71/86/110
f 91/84/111 90/87/113 87/88/114 88/85/112
f 90/87/113 89/81/107 86/77/109 87/88/114
f 71/86/115 88/85/116 85/89/117 73/90/118
f 88/85/116 87/88/119 84/91/120 85/89/117
f 87/88/119 86/77/102 83/71/94 84/91/120
f 73/90/118 85/89/117 24/31/38 2/30/37
f 85/89/117 84/91/120 25/32/39 24/31/38
f 84/91/120 83/71/94 26/2/2 25/32/39
f 92/92/121 75/73/97 74/72/96 81/78/122
f 82/82/123 93/93/123 92/92/121 81/78/122
f 94/94/124 76/74/99 75/73/98 92/92/125
f 93/93/126 95/95/127 94/94/124 92/92/125
f 96/96/128 78/75/100 76/74/99 94/94/124
f 95/95/127 97/97/129 96/96/128 94/94/124
f 98/98/130 77/76/101 78/75/100 96/96/128
f 97/97/129 99/99/131 98/98/130 96/96/128
f 100/100/132 79/79/106 77/76/101 98/98/130
f 101/101/133 80/80/105 79/79/104 100/100/134
f 99/99/131 102/102/135 100/100/132 98/98/130
f 103/103/136 101/101/133 100/100/134 102/102/136
f 107/104/137 104/105/138 45/47/58 52/46/57
f 109/106/139 105/107/140 104/105/141 107/104/137
f 111/108/142 106/109/143 105/107/143 109/106/144
f 103/103/145 112/110/146 110/111/147 101/101/148
f 112/110/146 111/108/142 109/106/144 110/111/147
f 101/101/148 110/111/147 108/112/149 80/80/150
f 110/111/147 109/106/139 107/104/137 108/112/149
f 80/80/150 108/112/149 51/56/73 17/17/72
f 108/112/149 107/104/137 52/46/57 51/56/73
f 104/105/151 113/113/151 57/57/75 45/47/75
f 105/107/140 114/114/152 113/113/153 104/105/141
f 106/109/154 115/115/154 114/114/155 105/107/155
f 114/114/152 117/116/156 116/117/157 113/113/153
f 115/115/158 118/118/158 117/116/156 114/114/152
f 64/64/159 57/57/159 113/113/153 116/117/157
f 120/119/160 119/120/161 66/67/86 68/66/85
f 116/117/162 120/119/160 68/66/85 64/64/89
f 117/116/163 121/121/164 120/119/160 116/117/162
f 118/118/165 122/122/166 121/121/164 117/116/163
f 122/122/166 119/120/161 120/119/160 121/121/164
f 141/123/167 127/124/168 126/125/169 146/126/170
f 127/124/171 129/127/172 128/128/173 126/125/173
f 129/127/174 131/129/175 130/130/176 128/128/177
f 135/131/178 133/132/179 132/133/180 134/134/181
f 131/129/175 135/131/178 134/134/181 130/130/176
f 147/135/182 140/136/183 127/124/168 141/123/167
f 137/137/184 139/138/185 138/139/186 136/140/186
f 132/133/180 133/132/179 137/137/187 136/140/188
f 30/141/189 20/142/190 140/136/190 147/135/191
f 3/143/192 32/144/193 149/145/194 123/146/192
f 32/144/193 31/147/195 148/148/196 149/145/194
f 31/147/195 30/141/189 147/135/191 148/148/196
f 123/146/197 149/145/198 143/149/199 125/150/200
f 149/145/198 148/148/201 142/151/202 143/149/199
f 148/148/201 147/135/182 141/123/167 142/151/202
f 125/150/200 143/149/199 144/152/203 124/153/204
f 143/149/199 142/151/202 145/154/205 144/152/203
f 142/151/202 141/123/167 146/126/170 145/154/205
f 150/155/206 129/127/172 127/124/171 140/136/207
f 20/142/42 34/156/42 150/155/206 140/136/207
f 151/157/208 131/129/175 129/127/174 150/155/209
f 34/156/210 36/158/211 151/157/208 150/155/209
f 152/159/212 135/131/178 131/129/175 151/157/208
f 36/158/211 38/160/213 152/159/212 151/157/208
f 153/161/214 133/132/179 135/131/178 152/159/212
f 38/160/213 40/162/215 153/161/214 152/159/212
f 154/163/216 137/137/187 133/132/179 153/161/214
f 155/164/217 139/138/185 137/137/184 154/163/218
f 40/162/215 43/165/219 154/163/216 153/161/214
f 44/166/220 155/164/217 154/163/218 43/165/220
f 159/167/221 157/168/222 156/169/223 162/170/224
f 163/171/225 158/172/226 157/168/227 159/167/221
f 55/173/228 48/174/229 158/172/229 163/171/230
f 44/166/231 56/175/232 164/176/233 155/164/234
f 56/175/232 55/173/228 163/171/230 164/176/233
f 155/164/234 164/176/233 160/177/235 139/138/236
f 164/176/233 163/171/225 159/167/221 160/177/235
f 139/138/236 160/177/235 161/178/237 138/139/238
f 160/177/235 159/167/221 162/170/224 161/178/237
f 157/168/239 166/179/239 165/180/240 156/169/240
f 158/172/226 167/181/241 166/179/242 157/168/227
f 48/174/78 60/182/78 167/181/243 158/172/243
f 167/181/241 169/183/244 168/184/245 166/179/242
f 60/182/246 63/185/246 169/183/244 167/181/241
f 170/186/247 165/180/247 166/179/242 168/184/245
f 171/187/248 65/188/87 66/189/249 172/190/250
f 168/184/251 171/187/248 172/190/250 170/186/252
f 169/183/253 173/191/254 171/187/248 168/184/251
f 63/185/92 70/192/93 173/191/254 169/183/253
f 70/192/93 65/188/87 171/187/248 173/191/254
f 184/193/255 146/126/170 126/125/169 176/194/256
f 176/194/257 126/125/173 128/128/173 177/195/258
f 177/195/259 128/128/177 130/130/176 178/196/260
f 180/197/261 134/134/181 132/133/180 179/198/262
f 178/196/260 130/130/176 134/134/181 180/197/261
f 187/199/263 184/193/255 176/194/256 183/200/264
f 181/201/265 136/140/186 138/139/186 182/202/266
f 132/133/180 136/140/188 181/201/267 179/198/262
f 89/203/268 187/199/269 183/200/270 82/204/270
f 72/205/271 174/206/271 189/207/272 91/208/273
f 91/208/273 189/207/272 188/209/274 90/210/275
f 90/210/275 188/209/274 187/199/269 89/203/268
f 174/206/276 175/211/277 186/212/278 189/207/279
f 189/207/279 186/212/278 185/213/280 188/209/281
f 188/209/281 185/213/280 184/193/255 187/199/263
f 175/211/277 124/153/204 144/152/203 186/212/278
f 186/212/278 144/152/203 145/154/205 185/213/280
f 185/213/280 145/154/205 146/126/170 184/193/255
f 190/214/282 183/200/283 176/194/257 177/195/258
f 82/204/123 183/200/283 190/214/282 93/215/123
f 191/216/284 190/214/285 177/195/259 178/196/260
f 93/215/286 190/214/285 191/216/284 95/217/287
f 192/218/288 191/216/284 178/196/260 180/197/261
f 95/217/287 191/216/284 192/218/288 97/219/289
f 193/220/290 192/218/288 180/197/261 179/198/262
f 97/219/289 192/218/288 193/220/290 99/221/291
f 194/222/292 193/220/290 179/198/262 181/201/267
f 195/223/293 194/222/294 181/201/265 182/202/266
f 99/221/291 193/220/290 194/222/292 102/224/295
f 103/225/296 102/224/296 194/222/294 195/223/293
f 198/226/297 162/170/224 156/169/223 196/227/298
f 200/228/299 198/226/297 196/227/300 197/229/301
f 111/230/302 200/228/303 197/229/304 106/231/304
f 103/225/305 195/223/306 201/232/307 112/233/308
f 112/233/308 201/232/307 200/228/303 111/230/302
f 195/223/306 182/202/309 199/234/310 201/232/307
f 201/232/307 199/234/310 198/226/297 200/228/299
f 182/202/309 138/139/238 161/178/237 199/234/310
f 199/234/310 161/178/237 162/170/224 198/226/297
f 196/227/311 156/169/240 165/180/240 202/235/311
f 197/229/301 196/227/300 202/235/312 203/236/313
f 106/231/154 197/229/314 203/236/314 115/237/154
f 203/236/313 202/235/312 204/238/315 205/239/316
f 115/237/317 203/236/313 205/239/316 118/240/317
f 170/186/318 204/238/315 202/235/312 165/180/318
f 206/241/319 172/190/250 66/189/249 119/242/161
f 204/238/320 170/186/252 172/190/250 206/241/319
f 205/239/321 204/238/320 206/241/319 207/243/322
f 118/240/165 205/239/321 207/243/322 122/244/166
f 122/244/166 207/243/322 206/241/319 119/242/161
