# Blender 5.2.0 LTS
# www.blender.org
mtllib mannequin.mtl
o Cube
v -0.952094 -1.024227 -0.496047
v -0.608034 -0.102734 -0.210622
v -0.952094 -1.024227 0.209910
v -0.608034 -0.102734 0.190239
v 0.000000 -1.263689 -0.540383
v 0.000000 -0.102734 -0.486347
v 0.000000 -1.279305 0.251445
v 0.000000 -0.102734 0.448326
v -0.749997 0.895051 -0.151489
v -0.749997 0.895051 0.235566
v 0.000000 1.085816 -0.424596
v 0.000000 1.085816 0.436993
v -0.889178 2.877869 -0.122665
v -0.889178 2.874547 0.183322
v -0.430343 2.879186 -0.254391
v -0.430343 2.875865 0.289017
v -0.839368 4.412825 -0.346271
v -0.879230 4.412825 -0.011684
v -0.440406 4.413993 -0.343985
v -0.416490 4.413993 0.013932
v -0.748472 -0.416835 -0.304300
v 0.000000 -0.535183 0.425921
v -0.743565 -0.416835 0.159267
v 0.000000 -0.347808 -0.622850
v -1.039070 -0.969695 -0.511601
v -1.039070 -0.969695 0.194356
v -1.177597 -0.557115 -0.300185
v -1.177597 -0.557115 0.100888
v -1.368596 1.548808 -0.236241
v -1.370951 1.547236 0.050846
v -1.687730 1.548397 -0.232989
v -1.689100 1.547482 0.054374
v -1.344103 1.846586 -0.159013
v -1.344103 1.846586 0.051380
v -1.522801 1.841070 -0.159013
v -1.522801 1.841070 0.051380
v -1.179663 0.551168 -0.274629
v -1.182022 0.551168 0.064135
v -1.558008 0.512951 0.064135
v -1.558008 0.512951 -0.274629
v -0.840089 4.663766 -0.346271
v -0.879950 4.663766 -0.011684
v -0.441127 4.664934 -0.343985
v -0.417210 4.664934 0.013932
v -0.484613 4.572228 0.587427
v -0.803307 4.571335 0.543781
v -0.485160 4.652487 0.587492
v -0.803855 4.651592 0.543846
v -0.829581 4.289933 -0.049611
v -0.801435 4.289933 -0.301216
v -0.483224 4.290863 -0.309051
v -0.466336 4.290863 -0.022074
v -0.257133 -1.503359 0.063708
v 0.000000 -1.493865 0.067272
v -0.299270 -1.468893 -0.325788
v 0.000000 -1.455635 -0.516714
v -0.286221 -1.743396 0.137546
v 0.000000 -1.688912 0.134235
v -0.311632 -1.697630 -0.345811
v 0.000000 -1.733212 -0.533252
v -0.410527 -2.117698 0.141429
v -0.455418 -2.104604 -0.393018
v 0.000000 -2.101431 -0.581934
v -0.426466 -2.480714 0.156614
v -0.462760 -2.523348 -0.380672
v 0.000000 -2.559681 -0.580287
v -0.421886 -2.750972 0.180386
v 0.000000 -2.846117 0.155768
v -0.486976 -2.830880 -0.310057
v 0.000000 -2.905872 -0.475322
v -0.291642 -1.747729 0.183162
v 0.000000 -1.687546 0.176884
v 0.000000 -2.029041 0.212241
v -0.409117 -2.114696 0.199371
v 0.000000 -2.492095 0.229111
v -0.425051 -2.472686 0.219056
v -0.420542 -2.738410 0.241787
v 0.000000 -2.831903 0.217658
vn -0.1400 -0.5366 0.8321
vn -0.1913 -0.0602 0.9797
vn -0.9900 -0.1409 -0.0000
vn -0.5312 -0.8472 -0.0000
vn -0.1985 0.0965 -0.9753
vn -0.2483 0.0139 0.9686
vn -0.3778 0.0266 -0.9255
vn -0.3159 -0.0353 0.9481
vn -0.9354 -0.3365 -0.1085
vn 0.9723 0.2335 0.0006
vn -0.9975 -0.0701 -0.0003
vn -0.3179 0.0020 -0.9481
vn -0.9907 -0.0038 0.1361
vn -0.0065 -0.3091 -0.9510
vn -0.0608 -0.2872 0.9559
vn 0.9344 -0.3513 -0.0591
vn -0.3802 0.4321 -0.8177
vn -0.9159 0.4013 0.0052
vn -0.3620 -0.0009 0.9322
vn -0.9480 -0.3183 -0.0000
vn 0.9825 0.1861 0.0079
vn -0.1629 0.1490 0.9753
vn -0.0408 0.3695 -0.9283
vn 0.0071 0.0018 1.0000
vn 0.0044 0.0120 0.9999
vn -0.9922 -0.1250 -0.0024
vn -0.0068 0.0383 -0.9992
vn -0.0309 0.9995 -0.0000
vn -0.8706 0.4920 -0.0015
vn -0.0093 0.2509 -0.9680
vn 0.9963 -0.0862 0.0044
vn -0.0102 0.0230 -0.9997
vn -0.9422 -0.3350 -0.0000
vn -0.0790 0.0327 0.9963
vn 0.9122 0.4097 -0.0029
vn -0.0027 1.0000 -0.0001
vn 0.9978 0.0029 -0.0667
vn -0.9930 -0.0029 -0.1183
vn 0.0057 -0.0000 -1.0000
vn -0.1357 -0.0017 0.9908
vn -0.0214 -0.9626 0.2702
vn 0.9931 0.0038 0.1173
vn -0.0046 0.9998 0.0218
vn 0.9994 0.0288 -0.0202
vn -0.1576 0.1877 0.9695
vn -0.1760 -0.0789 -0.9812
vn -0.9977 0.0447 -0.0501
vn -0.5231 0.0741 -0.8490
vn -0.5653 -0.8249 -0.0042
vn -0.2468 -0.5050 -0.8271
vn -0.4262 0.1885 -0.8848
vn -0.9915 0.0975 0.0857
vn -0.0369 0.3099 0.9500
vn -0.3900 -0.0114 -0.9207
vn -0.9440 0.3193 0.0837
vn -0.9505 0.3091 -0.0328
vn -0.2021 -0.9566 0.2100
vn -0.9967 0.0323 0.0746
vn -0.9996 -0.0148 0.0247
vn -0.1559 -0.9790 0.1310
vn -0.3724 -0.2278 -0.8997
vn -0.9945 0.0489 0.0923
vn -0.0253 0.0767 0.9967
vn 0.0191 0.0188 0.9996
vn -0.0310 0.0451 0.9985
vn -0.1943 0.9807 0.0210
vn -0.9988 0.0451 0.0193
vt 0.619779 0.974866
vt 0.625000 0.750000
vt 0.387738 0.690841
vt 0.466413 0.985724
vt 0.317310 0.576719
vt 0.317310 0.673281
vt 0.625000 0.500000
vt 0.432223 0.261856
vt 0.625000 0.250000
vt 0.387738 0.559158
vt 0.375000 0.984625
vt 0.375000 0.265375
vt 0.317310 0.576719
vt 0.000000 0.000000
vt 0.375000 0.984625
vt 0.387738 0.690841
vt 0.125000 0.547869
vt 0.125000 0.702131
vt 0.875000 0.692116
vt 0.875000 0.500000
s 0
usemtl Material
f 7/1/1 3/2/1 53/2/1 54/1/1
f 23/3/2 3/2/2 7/1/2 22/4/2
f 2/5/3 4/6/3 10/6/3 9/5/3
f 1/7/4 3/2/4 26/2/4 25/7/4
f 24/8/5 5/9/5 1/7/5 21/10/5
f 10/6/6 12/11/6 16/11/6 14/6/6
f 6/12/7 2/5/7 9/5/7 11/12/7
f 4/6/8 8/11/8 12/11/8 10/6/8
f 50/13/9 49/6/9 18/6/9 17/5/9
f 12/14/10 11/14/10 15/14/10 16/14/10
f 9/5/11 10/6/11 14/6/11 13/5/11
f 11/12/12 9/5/12 13/5/12 15/12/12
f 42/6/13 18/6/13 46/6/13 48/6/13
f 51/12/14 50/13/14 17/5/14 19/12/14
f 49/6/15 52/15/15 20/11/15 18/6/15
f 52/14/16 51/14/16 19/14/16 20/14/16
f 6/12/17 24/8/17 21/10/17 2/5/17
f 2/5/18 21/10/18 23/3/18 4/6/18
f 4/6/19 23/3/19 22/4/19 8/11/19
f 27/10/20 25/7/20 26/2/20 28/3/20
f 38/16/21 37/10/21 29/10/21 30/3/21
f 3/2/22 23/3/22 28/3/22 26/2/22
f 21/10/23 1/7/23 25/7/23 27/10/23
f 32/3/24 30/3/24 34/3/24 36/3/24
f 39/3/25 38/16/25 30/3/25 32/3/25
f 40/10/26 39/3/26 32/3/26 31/10/26
f 37/10/27 40/10/27 31/10/27 29/10/27
f 34/3/28 33/10/28 35/10/28 36/3/28
f 31/10/29 32/3/29 36/3/29 35/10/29
f 29/10/30 31/10/30 35/10/30 33/10/30
f 30/3/31 29/10/31 33/10/31 34/3/31
f 21/10/32 27/10/32 40/10/32 37/10/32
f 27/10/33 28/3/33 39/3/33 40/10/33
f 28/3/34 23/3/34 38/16/34 39/3/34
f 23/3/35 21/10/35 37/10/35 38/16/35
f 43/17/36 41/5/36 42/6/36 44/18/36
f 20/14/37 19/14/37 43/14/37 44/14/37
f 17/5/38 18/6/38 42/6/38 41/5/38
f 19/12/39 17/5/39 41/5/39 43/12/39
f 46/6/40 45/11/40 47/11/40 48/6/40
f 18/6/41 20/11/41 45/11/41 46/6/41
f 20/14/42 44/14/42 47/14/42 45/14/42
f 44/18/43 42/6/43 48/6/43 47/18/43
f 16/14/44 15/14/44 51/14/44 52/14/44
f 14/6/45 16/11/45 52/15/45 49/6/45
f 15/12/46 13/5/46 50/13/46 51/12/46
f 13/5/47 14/6/47 49/6/47 50/13/47
f 55/7/48 56/9/48 60/9/48 59/7/48
f 3/2/49 1/7/49 55/7/49 53/2/49
f 1/7/50 5/9/50 56/9/50 55/7/50
f 59/7/51 60/9/51 63/9/51 62/7/51
f 53/2/52 55/7/52 59/7/52 57/2/52
f 54/1/53 53/2/53 57/2/53 58/1/53
f 62/7/54 63/9/54 66/9/54 65/7/54
f 57/2/55 59/7/55 62/7/55 61/2/55
f 57/2/56 61/2/56 74/2/56 71/2/56
f 67/2/57 68/19/57 78/19/57 77/2/57
f 61/2/58 62/7/58 65/7/58 64/2/58
f 64/2/59 67/2/59 77/2/59 76/2/59
f 69/7/60 70/20/60 68/19/60 67/2/60
f 65/7/61 66/9/61 70/9/61 69/7/61
f 64/2/62 65/7/62 69/7/62 67/2/62
f 72/1/63 71/2/63 74/2/63 73/1/63
f 75/1/64 76/2/64 77/2/64 78/1/64
f 73/1/65 74/2/65 76/2/65 75/1/65
f 58/1/66 57/2/66 71/2/66 72/1/66
f 61/2/67 64/2/67 76/2/67 74/2/67
