# Blender 5.2.0 LTS
# www.blender.org
o Cylinder
v 0.014077 -0.869503 -0.917520 0.3412 0.2549 0.1294
v 0.607068 0.954838 0.980214 0.3412 0.2549 0.1294
v -0.162284 -0.871101 -0.900236 0.3412 0.2549 0.1294
v -0.226136 0.942315 -0.952998 0.3412 0.2549 0.1294
v -0.331899 -0.872356 -0.848866 0.3412 0.2549 0.1294
v -0.569189 -0.871262 -0.721945 0.3412 0.2549 0.1294
v -0.818961 -0.363199 -0.747882 0.3412 0.2549 0.1294
v -0.822669 -0.363199 -0.743364 0.3412 0.2549 0.1294
v -0.801891 -0.871806 -0.423041 0.3412 0.2549 0.1294
v -0.872627 -0.872356 -0.189987 0.3412 0.2549 0.1294
v -0.889919 -0.871101 -0.013610 0.3412 0.2549 0.1294
v -0.872465 -0.869503 0.162735 0.3412 0.2549 0.1294
v -0.820953 -0.867621 0.332273 0.3412 0.2549 0.1294
v -0.737379 -0.865528 0.488501 0.3412 0.2549 0.1294
v -0.624959 -0.863305 0.625433 0.3412 0.2549 0.1294
v -0.488008 -0.861038 0.737826 0.3412 0.2549 0.1294
v -0.331775 -0.858814 0.821372 0.3412 0.2549 0.1294
v -0.162244 -0.856721 0.872862 0.3412 0.2549 0.1294
v -0.066697 -1.205888 1.305615 0.3412 0.2549 0.1294
v 0.014085 -0.854840 0.890308 0.3412 0.2549 0.1294
v -0.283412 -1.205888 1.284270 0.3412 0.2549 0.1294
v 0.255935 -0.852954 0.836711 0.3412 0.2549 0.1294
v -0.066697 -1.205888 1.412263 0.3412 0.2549 0.1294
v 0.354003 -0.852160 0.807009 0.3412 0.2549 0.1294
v -0.304218 -1.205888 1.388869 0.3412 0.2549 0.1294
v 0.507597 -0.851310 0.724979 0.3412 0.2549 0.1294
v -0.029665 -1.119966 1.098328 0.3412 0.2549 0.1294
v 0.642225 -0.850875 0.614534 0.3412 0.2549 0.1294
v -0.246379 -1.119966 1.076983 0.3412 0.2549 0.1294
v 0.752696 -0.850873 0.479924 0.3412 0.2549 0.1294
v -0.029665 -1.119966 1.204976 0.3412 0.2549 0.1294
v 0.834754 -0.851304 0.326336 0.3412 0.2549 0.1294
v -0.267185 -1.119966 1.181582 0.3412 0.2549 0.1294
v 0.885244 -0.852151 0.159690 0.3412 0.2549 0.1294
v 0.980785 0.858508 0.195090 0.3412 0.2549 0.1294
v 0.902233 -0.853382 -0.013593 0.3412 0.2549 0.1294
v 1.000000 0.858508 0.000000 0.3412 0.2549 0.1294
v 0.885084 -0.854953 -0.186846 0.3412 0.2549 0.1294
v 0.980785 0.858508 -0.195090 0.3412 0.2549 0.1294
v 0.834475 -0.856802 -0.353412 0.3412 0.2549 0.1294
v 0.923880 0.858508 -0.382683 0.3412 0.2549 0.1294
v 0.752365 -0.858860 -0.506903 0.3412 0.2549 0.1294
v 0.831470 0.858508 -0.555570 0.3412 0.2549 0.1294
v 0.641915 -0.861046 -0.641436 0.3412 0.2549 0.1294
v 0.707107 0.858508 -0.707107 0.3412 0.2549 0.1294
v 0.520496 -0.863072 -0.741082 0.3412 0.2549 0.1294
v 0.555570 0.858508 -0.831470 0.3412 0.2549 0.1294
v 0.359938 -0.865528 -0.848583 0.3412 0.2549 0.1294
v 0.382683 0.858508 -0.923880 0.3412 0.2549 0.1294
v 0.190407 -0.867621 -0.900073 0.3412 0.2549 0.1294
v 0.309813 1.069634 1.008001 0.3412 0.2549 0.1294
v 0.000000 0.679255 -1.000000 0.3412 0.2549 0.1294
v -0.226136 0.763062 -0.952998 0.3412 0.2549 0.1294
v -0.382683 0.679255 -0.923880 0.3412 0.2549 0.1294
v -0.555570 0.679255 -0.831470 0.3412 0.2549 0.1294
v -0.707107 0.679255 -0.707107 0.3412 0.2549 0.1294
v -0.831470 0.679255 -0.555570 0.3412 0.2549 0.1294
v -0.923880 0.679255 -0.382683 0.3412 0.2549 0.1294
v -0.980785 0.679255 -0.195090 0.3412 0.2549 0.1294
v -1.000000 0.679255 0.000000 0.3412 0.2549 0.1294
v -0.980785 0.679255 0.195090 0.3412 0.2549 0.1294
v -0.923880 0.679255 0.382683 0.3412 0.2549 0.1294
v -0.831470 0.679255 0.555570 0.3412 0.2549 0.1294
v -0.707107 0.679255 0.707107 0.3412 0.2549 0.1294
v -0.555570 0.679255 0.831470 0.3412 0.2549 0.1294
v -0.382683 0.679255 0.923880 0.3412 0.2549 0.1294
v -0.195090 0.679255 0.980785 0.3412 0.2549 0.1294
v 0.000000 0.679255 1.000000 0.3412 0.2549 0.1294
v 0.195090 0.679255 0.980785 0.3412 0.2549 0.1294
v 0.382683 0.679255 0.923880 0.3412 0.2549 0.1294
v 0.555570 0.656633 0.831470 0.3412 0.2549 0.1294
v 0.707107 0.656633 0.707107 0.3412 0.2549 0.1294
v 0.831470 0.679255 0.555570 0.3412 0.2549 0.1294
v 0.923880 0.679255 0.382683 0.3412 0.2549 0.1294
v 0.980785 0.679255 0.195090 0.3412 0.2549 0.1294
v 1.000000 0.679255 0.000000 0.3412 0.2549 0.1294
v 0.980785 0.679255 -0.195090 0.3412 0.2549 0.1294
v 0.923880 0.679255 -0.382683 0.3412 0.2549 0.1294
v 0.831470 0.679255 -0.555570 0.3412 0.2549 0.1294
v 0.707107 0.679255 -0.707107 0.3412 0.2549 0.1294
v 0.555570 0.679255 -0.831470 0.3412 0.2549 0.1294
v 0.382683 0.679255 -0.923880 0.3412 0.2549 0.1294
v 0.195090 0.679255 -0.980785 0.3412 0.2549 0.1294
v 0.014081 -0.862171 -1.231095 0.3412 0.2549 0.1294
v -0.223439 -0.862171 -1.207701 0.3412 0.2549 0.1294
v -0.451832 -0.862171 -1.138419 0.3412 0.2549 0.1294
v -0.662319 -0.862171 -1.025911 0.3412 0.2549 0.1294
v -0.976668 -0.351712 -1.047217 0.3412 0.2549 0.1294
v -1.128078 -0.351712 -0.862723 0.3412 0.2549 0.1294
v -1.110732 -0.862171 -0.479519 0.3412 0.2549 0.1294
v -1.180014 -0.862171 -0.251126 0.3412 0.2549 0.1294
v -1.203408 -0.862171 -0.013606 0.3412 0.2549 0.1294
v -1.180014 -0.862171 0.223914 0.3412 0.2549 0.1294
v -1.110732 -0.862171 0.452307 0.3412 0.2549 0.1294
v -0.998224 -0.862171 0.662795 0.3412 0.2549 0.1294
v -0.846813 -0.862171 0.847289 0.3412 0.2549 0.1294
v -0.662319 -0.862171 0.998699 0.3412 0.2549 0.1294
v -0.451832 -0.862171 1.111207 0.3412 0.2549 0.1294
v -0.223439 -0.862171 1.180490 0.3412 0.2549 0.1294
v 0.014081 -0.862171 1.203883 0.3412 0.2549 0.1294
v 0.251602 -0.862171 1.180490 0.3412 0.2549 0.1294
v 0.479994 -0.862171 1.111207 0.3412 0.2549 0.1294
v 0.690482 -0.862171 0.998699 0.3412 0.2549 0.1294
v 0.874976 -0.862171 0.847289 0.3412 0.2549 0.1294
v 1.026387 -0.862171 0.662795 0.3412 0.2549 0.1294
v 1.138895 -0.862171 0.452307 0.3412 0.2549 0.1294
v 1.208177 -0.862171 0.223914 0.3412 0.2549 0.1294
v 1.231570 -0.862171 -0.013606 0.3412 0.2549 0.1294
v 1.208177 -0.862171 -0.251126 0.3412 0.2549 0.1294
v 1.138895 -0.862171 -0.479519 0.3412 0.2549 0.1294
v 1.026387 -0.862171 -0.690007 0.3412 0.2549 0.1294
v 0.874976 -0.862171 -0.874501 0.3412 0.2549 0.1294
v 0.690482 -0.862171 -1.025911 0.3412 0.2549 0.1294
v 0.479994 -0.862171 -1.138419 0.3412 0.2549 0.1294
v 0.251602 -0.862171 -1.207701 0.3412 0.2549 0.1294
v -0.492345 0.973304 -0.952998 0.3412 0.2549 0.1294
v -0.297255 0.973304 -0.972213 0.3412 0.2549 0.1294
v -0.679938 0.973304 -0.896093 0.3412 0.2549 0.1294
v -0.852825 0.973304 -0.803683 0.3412 0.2549 0.1294
v -1.004362 0.973304 -0.679320 0.3412 0.2549 0.1294
v -1.128725 0.973304 -0.527783 0.3412 0.2549 0.1294
v -1.221134 0.973304 -0.354897 0.3412 0.2549 0.1294
v -1.278040 0.973304 -0.167303 0.3412 0.2549 0.1294
v -1.297255 0.973304 0.027787 0.3412 0.2549 0.1294
v -1.278040 0.973304 0.222877 0.3412 0.2549 0.1294
v -1.221134 0.973304 0.410470 0.3412 0.2549 0.1294
v -1.128725 0.973304 0.583357 0.3412 0.2549 0.1294
v -1.004362 0.973304 0.734894 0.3412 0.2549 0.1294
v -0.852825 0.973304 0.859256 0.3412 0.2549 0.1294
v -0.679938 0.973304 0.951666 0.3412 0.2549 0.1294
v -0.492345 0.973304 1.008572 0.3412 0.2549 0.1294
v -0.297255 0.973304 1.027787 0.3412 0.2549 0.1294
v -0.102165 0.973304 1.008572 0.3412 0.2549 0.1294
v 0.085429 0.973304 0.951666 0.3412 0.2549 0.1294
v 0.258315 0.973304 0.859256 0.3412 0.2549 0.1294
v 0.409852 0.973304 0.734894 0.3412 0.2549 0.1294
v 0.534215 0.973304 0.583357 0.3412 0.2549 0.1294
v 0.626625 0.973304 0.410470 0.3412 0.2549 0.1294
v 0.683530 0.973304 0.222877 0.3412 0.2549 0.1294
v 0.702745 0.973304 0.027787 0.3412 0.2549 0.1294
v 0.683530 0.973304 -0.167303 0.3412 0.2549 0.1294
v 0.626625 0.973304 -0.354897 0.3412 0.2549 0.1294
v 0.534215 0.973304 -0.527783 0.3412 0.2549 0.1294
v 0.409852 0.973304 -0.679320 0.3412 0.2549 0.1294
v 0.258315 0.973304 -0.803683 0.3412 0.2549 0.1294
v 0.085429 0.973304 -0.896093 0.3412 0.2549 0.1294
v -0.102165 0.973304 -0.952998 0.3412 0.2549 0.1294
v -0.492345 0.794051 -0.952998 0.3412 0.2549 0.1294
v -0.679938 0.794051 -0.896093 0.3412 0.2549 0.1294
v -0.852825 0.794051 -0.803683 0.3412 0.2549 0.1294
v -1.004362 0.794051 -0.679320 0.3412 0.2549 0.1294
v -1.128725 0.794051 -0.527783 0.3412 0.2549 0.1294
v -1.221134 0.794051 -0.354897 0.3412 0.2549 0.1294
v -1.278040 0.794051 -0.167303 0.3412 0.2549 0.1294
v -1.297255 0.794051 0.027787 0.3412 0.2549 0.1294
v -1.246994 0.710244 0.195090 0.3412 0.2549 0.1294
v -1.190088 0.710244 0.382683 0.3412 0.2549 0.1294
v -1.097678 0.710244 0.555570 0.3412 0.2549 0.1294
v -0.973316 0.710244 0.707107 0.3412 0.2549 0.1294
v -0.821779 0.710244 0.831470 0.3412 0.2549 0.1294
v -0.648892 0.710244 0.923880 0.3412 0.2549 0.1294
v -0.461299 0.710244 0.980785 0.3412 0.2549 0.1294
v -0.060906 1.029127 -1.162805 0.3412 0.2549 0.1294
v 0.165231 0.945319 -1.209807 0.3412 0.2549 0.1294
v 0.165231 0.766066 -1.209807 0.3412 0.2549 0.1294
v -0.327115 1.060115 -1.162805 0.3412 0.2549 0.1294
v -0.100978 0.976308 -1.209807 0.3412 0.2549 0.1294
v 0.879807 0.976308 -0.014717 0.3412 0.2549 0.1294
v 1.146016 0.945319 -0.014717 0.3412 0.2549 0.1294
v 0.730492 0.976308 -0.765377 0.3412 0.2549 0.1294
v 0.996700 0.945319 -0.765377 0.3412 0.2549 0.1294
v 0.094112 0.976308 -1.190592 0.3412 0.2549 0.1294
v 0.360321 0.945319 -1.190592 0.3412 0.2549 0.1294
v 1.165231 0.945319 -0.209807 0.3412 0.2549 0.1294
v 1.146016 0.945319 -0.404897 0.3412 0.2549 0.1294
v 1.089110 0.945319 -0.592490 0.3412 0.2549 0.1294
v 0.872338 0.945319 -0.916914 0.3412 0.2549 0.1294
v 0.720801 0.945319 -1.041276 0.3412 0.2549 0.1294
v 0.547914 0.945319 -1.133686 0.3412 0.2549 0.1294
v -0.029860 0.766066 -1.190592 0.3412 0.2549 0.1294
v 0.281705 0.976308 -1.133686 0.3412 0.2549 0.1294
v 1.146016 0.766066 -0.014717 0.3412 0.2549 0.1294
v 1.165231 0.766066 -0.209807 0.3412 0.2549 0.1294
v 1.146016 0.766066 -0.404897 0.3412 0.2549 0.1294
v 1.089110 0.766066 -0.592490 0.3412 0.2549 0.1294
v 0.996700 0.766066 -0.765377 0.3412 0.2549 0.1294
v 0.872338 0.766066 -0.916914 0.3412 0.2549 0.1294
v 0.720801 0.766066 -1.041276 0.3412 0.2549 0.1294
v 0.547914 0.766066 -1.133686 0.3412 0.2549 0.1294
v 0.360321 0.766066 -1.190592 0.3412 0.2549 0.1294
v 0.899022 0.976308 -0.209807 0.3412 0.2549 0.1294
v 0.606129 0.976308 -0.916914 0.3412 0.2549 0.1294
v 0.766074 0.985827 0.343834 0.3412 0.2549 0.1294
v 1.032283 0.954838 0.343834 0.3412 0.2549 0.1294
v 0.136926 1.069634 1.100410 0.3412 0.2549 0.1294
v 0.434181 0.954838 1.072624 0.3412 0.2549 0.1294
v 0.709168 0.985827 0.531428 0.3412 0.2549 0.1294
v 0.975377 0.954838 0.531428 0.3412 0.2549 0.1294
v -0.409801 0.806574 1.129529 0.3412 0.2549 0.1294
v -0.143593 0.775585 1.129529 0.3412 0.2549 0.1294
v 0.051498 0.954838 1.148744 0.3412 0.2549 0.1294
v -0.143593 0.954838 1.129529 0.3412 0.2549 0.1294
v 0.246588 0.954838 1.129529 0.3412 0.2549 0.1294
v 0.758604 0.954838 0.855851 0.3412 0.2549 0.1294
v 0.882967 0.954838 0.704314 0.3412 0.2549 0.1294
v -0.050667 1.069634 1.157316 0.3412 0.2549 0.1294
v -0.245757 1.069634 1.176531 0.3412 0.2549 0.1294
v 0.616758 0.985827 0.704314 0.3412 0.2549 0.1294
v 0.492396 0.985827 0.855851 0.3412 0.2549 0.1294
v 0.051498 0.775585 1.148744 0.3412 0.2549 0.1294
v 0.246588 0.775585 1.129529 0.3412 0.2549 0.1294
v 0.434181 0.775585 1.072624 0.3412 0.2549 0.1294
v 0.607068 0.775585 0.980214 0.3412 0.2549 0.1294
v 0.758604 0.775585 0.855851 0.3412 0.2549 0.1294
v 0.882967 0.775585 0.704314 0.3412 0.2549 0.1294
v 0.975377 0.775585 0.531428 0.3412 0.2549 0.1294
v 1.032283 0.775585 0.343834 0.3412 0.2549 0.1294
v 1.197514 1.041649 0.134027 0.3412 0.2549 0.1294
v 0.931305 1.072638 0.134027 0.3412 0.2549 0.1294
v -0.628441 1.069634 1.100410 0.3412 0.2549 0.1294
v -0.801328 1.069634 1.008001 0.3412 0.2549 0.1294
v -0.440848 1.069634 1.157316 0.3412 0.2549 0.1294
v -0.801328 0.890381 1.008001 0.3412 0.2549 0.1294
v -0.628441 0.890381 1.100410 0.3412 0.2549 0.1294
v -1.127027 -0.382643 -0.839503 0.3412 0.2549 0.1294
v -0.837069 0.679255 -0.545094 0.3412 0.2549 0.1294
v -0.834027 -0.390380 -0.811252 0.3412 0.2549 0.1294
v -1.134324 0.973304 -0.517307 0.3412 0.2549 0.1294
v -1.134324 0.794051 -0.517307 0.3412 0.2549 0.1294
v -0.959117 -0.380212 -1.046027 0.3412 0.2549 0.1294
v -0.698646 0.679255 -0.714050 0.3412 0.2549 0.1294
v -0.921133 -0.385818 -0.767137 0.3412 0.2549 0.1294
v -0.995901 0.973304 -0.686263 0.3412 0.2549 0.1294
v -0.995901 0.794051 -0.686263 0.3412 0.2549 0.1294
v -0.214801 0.170981 -0.963144 0.3412 0.2549 0.1294
v -0.382683 0.117774 -0.923880 0.3412 0.2549 0.1294
v -0.555570 0.117774 -0.831470 0.3412 0.2549 0.1294
v -0.746050 0.270862 -0.758905 0.3412 0.2549 0.1294
v -0.870413 0.270862 -0.607368 0.3412 0.2549 0.1294
v -0.923880 0.117774 -0.382683 0.3412 0.2549 0.1294
v -0.980785 0.117774 -0.195090 0.3412 0.2549 0.1294
v -1.000000 0.117774 0.000000 0.3412 0.2549 0.1294
v -0.980785 0.117774 0.195090 0.3412 0.2549 0.1294
v -0.923880 0.117774 0.382683 0.3412 0.2549 0.1294
v -0.831470 0.117774 0.555570 0.3412 0.2549 0.1294
v -0.707107 0.117774 0.707107 0.3412 0.2549 0.1294
v -0.555570 0.117774 0.831470 0.3412 0.2549 0.1294
v -0.382683 0.117774 0.923880 0.3412 0.2549 0.1294
v -0.195090 0.117774 0.980785 0.3412 0.2549 0.1294
v 0.000000 0.117774 1.000000 0.3412 0.2549 0.1294
v 0.195090 0.117774 0.980785 0.3412 0.2549 0.1294
v 0.382683 0.117774 0.923880 0.3412 0.2549 0.1294
v 0.555570 0.117774 0.831470 0.3412 0.2549 0.1294
v 0.707107 0.117774 0.707107 0.3412 0.2549 0.1294
v 0.831470 0.117774 0.555570 0.3412 0.2549 0.1294
v 0.923880 0.117774 0.382683 0.3412 0.2549 0.1294
v 0.980785 0.117774 0.195090 0.3412 0.2549 0.1294
v 1.000000 0.117774 0.000000 0.3412 0.2549 0.1294
v 0.980785 0.117774 -0.195090 0.3412 0.2549 0.1294
v 0.923880 0.117774 -0.382683 0.3412 0.2549 0.1294
v 0.831470 0.117774 -0.555570 0.3412 0.2549 0.1294
v 0.707107 0.117774 -0.707107 0.3412 0.2549 0.1294
v 0.555570 0.117774 -0.831470 0.3412 0.2549 0.1294
v 0.382683 0.117774 -0.923880 0.3412 0.2549 0.1294
v 0.195090 0.117774 -0.980785 0.3412 0.2549 0.1294
v 0.000000 0.117774 -1.000000 0.3412 0.2549 0.1294
v -0.873653 0.261586 -0.593754 0.3412 0.2549 0.1294
v -0.735416 0.262315 -0.762956 0.3412 0.2549 0.1294
v -0.221954 -0.684561 -1.165659 0.3412 0.2549 0.1294
v -0.439944 -0.693708 -1.101537 0.3412 0.2549 0.1294
v -0.643968 -0.693708 -0.992484 0.3412 0.2549 0.1294
v -0.937022 -0.244684 -0.997653 0.3412 0.2549 0.1294
v -1.083783 -0.244684 -0.818824 0.3412 0.2549 0.1294
v -1.078610 -0.693708 -0.462872 0.3412 0.2549 0.1294
v -1.145764 -0.693708 -0.241493 0.3412 0.2549 0.1294
v -1.168440 -0.693708 -0.011267 0.3412 0.2549 0.1294
v -1.145764 -0.693708 0.218959 0.3412 0.2549 0.1294
v -1.078610 -0.693708 0.440338 0.3412 0.2549 0.1294
v -0.969557 -0.693708 0.644362 0.3412 0.2549 0.1294
v -0.822796 -0.693708 0.823190 0.3412 0.2549 0.1294
v -0.643968 -0.693708 0.969951 0.3412 0.2549 0.1294
v -0.439944 -0.693708 1.079004 0.3412 0.2549 0.1294
v -0.218566 -0.693708 1.146158 0.3412 0.2549 0.1294
v 0.011661 -0.693708 1.168833 0.3412 0.2549 0.1294
v 0.241887 -0.693708 1.146158 0.3412 0.2549 0.1294
v 0.463266 -0.693708 1.079004 0.3412 0.2549 0.1294
v 0.667289 -0.693708 0.969951 0.3412 0.2549 0.1294
v 0.846118 -0.693708 0.823190 0.3412 0.2549 0.1294
v 0.992878 -0.693708 0.644362 0.3412 0.2549 0.1294
v 1.101931 -0.693708 0.440338 0.3412 0.2549 0.1294
v 1.169086 -0.693708 0.218959 0.3412 0.2549 0.1294
v 1.191761 -0.693708 -0.011267 0.3412 0.2549 0.1294
v 1.169086 -0.693708 -0.241493 0.3412 0.2549 0.1294
v 1.101931 -0.693708 -0.462872 0.3412 0.2549 0.1294
v 0.992878 -0.693708 -0.666896 0.3412 0.2549 0.1294
v 0.846118 -0.693708 -0.845724 0.3412 0.2549 0.1294
v 0.667289 -0.693708 -0.992484 0.3412 0.2549 0.1294
v 0.463266 -0.693708 -1.101537 0.3412 0.2549 0.1294
v 0.241887 -0.693708 -1.168692 0.3412 0.2549 0.1294
v -1.083470 -0.271893 -0.797256 0.3412 0.2549 0.1294
v -0.920660 -0.269755 -0.997364 0.3412 0.2549 0.1294
v 0.011661 -0.693708 -1.191367 0.3412 0.2549 0.1294
v 0.014081 -0.862171 -1.124447 0.3412 0.2549 0.1294
v -0.202633 -0.862171 -1.103102 0.3412 0.2549 0.1294
v -0.411019 -0.862171 -1.039889 0.3412 0.2549 0.1294
v -0.603069 -0.862171 -0.937236 0.3412 0.2549 0.1294
v -0.884608 -0.380212 -0.969875 0.3412 0.2549 0.1294
v -0.901256 -0.351712 -0.971805 0.3412 0.2549 0.1294
v -1.039404 -0.351712 -0.803472 0.3412 0.2549 0.1294
v -1.037755 -0.382643 -0.781369 0.3412 0.2549 0.1294
v -1.012202 -0.862171 -0.438706 0.3412 0.2549 0.1294
v -1.075415 -0.862171 -0.230320 0.3412 0.2549 0.1294
v -1.096760 -0.862171 -0.013606 0.3412 0.2549 0.1294
v -1.075415 -0.862171 0.203108 0.3412 0.2549 0.1294
v -1.012202 -0.862171 0.411495 0.3412 0.2549 0.1294
v -0.909549 -0.862171 0.603544 0.3412 0.2549 0.1294
v -0.771402 -0.862171 0.771877 0.3412 0.2549 0.1294
v -0.603069 -0.862171 0.910025 0.3412 0.2549 0.1294
v -0.411019 -0.862171 1.012678 0.3412 0.2549 0.1294
v -0.202633 -0.862171 1.075891 0.3412 0.2549 0.1294
v 0.014081 -0.862171 1.097235 0.3412 0.2549 0.1294
v 0.230796 -0.862171 1.075891 0.3412 0.2549 0.1294
v 0.439182 -0.862171 1.012678 0.3412 0.2549 0.1294
v 0.631232 -0.862171 0.910025 0.3412 0.2549 0.1294
v 0.799565 -0.862171 0.771877 0.3412 0.2549 0.1294
v 0.937712 -0.862171 0.603544 0.3412 0.2549 0.1294
v 1.040365 -0.862171 0.411495 0.3412 0.2549 0.1294
v 1.103578 -0.862171 0.203108 0.3412 0.2549 0.1294
v 1.124923 -0.862171 -0.013606 0.3412 0.2549 0.1294
v 1.103578 -0.862171 -0.230320 0.3412 0.2549 0.1294
v 1.040365 -0.862171 -0.438706 0.3412 0.2549 0.1294
v 0.937712 -0.862171 -0.630756 0.3412 0.2549 0.1294
v 0.799565 -0.862171 -0.799089 0.3412 0.2549 0.1294
v 0.631232 -0.862171 -0.937236 0.3412 0.2549 0.1294
v 0.439182 -0.862171 -1.039889 0.3412 0.2549 0.1294
v 0.230796 -0.862171 -1.103102 0.3412 0.2549 0.1294
v -0.771547 -0.829543 0.771759 0.3412 0.2549 0.1294
v -0.603214 -0.829543 0.909906 0.3412 0.2549 0.1294
v -0.625104 -0.830677 0.625314 0.3412 0.2549 0.1294
v -0.488153 -0.828409 0.737707 0.3412 0.2549 0.1294
v -0.164869 -0.870529 -0.913232 0.3412 0.2549 0.1294
v 0.014078 -0.869033 -0.930777 0.3412 0.2549 0.1294
v -0.336968 -0.871703 -0.861104 0.3412 0.2549 0.1294
v -0.571360 -0.870680 -0.735738 0.3412 0.2549 0.1294
v -0.824234 -0.362463 -0.762227 0.3412 0.2549 0.1294
v -0.918793 -0.385459 -0.780126 0.3412 0.2549 0.1294
v -0.836554 -0.362463 -0.747215 0.3412 0.2549 0.1294
v -0.815364 -0.871189 -0.424045 0.3412 0.2549 0.1294
v -0.847079 -0.389884 -0.809338 0.3412 0.2549 0.1294
v -0.885619 -0.871703 -0.192571 0.3412 0.2549 0.1294
v -0.903171 -0.870529 -0.013610 0.3412 0.2549 0.1294
v -0.885467 -0.869033 0.165322 0.3412 0.2549 0.1294
v -0.833206 -0.867272 0.337348 0.3412 0.2549 0.1294
v -0.748409 -0.865313 0.495871 0.3412 0.2549 0.1294
v -0.634341 -0.863232 0.634815 0.3412 0.2549 0.1294
v -0.495380 -0.861110 0.748858 0.3412 0.2549 0.1294
v -0.336852 -0.859029 0.833628 0.3412 0.2549 0.1294
v -0.164832 -0.857071 0.885869 0.3412 0.2549 0.1294
v 0.014085 -0.855310 0.903565 0.3412 0.2549 0.1294
v 0.193032 -0.853814 0.886021 0.3412 0.2549 0.1294
v 0.365130 -0.852640 0.833893 0.3412 0.2549 0.1294
v 0.523755 -0.851832 0.749170 0.3412 0.2549 0.1294
v 0.662793 -0.851420 0.635104 0.3412 0.2549 0.1294
v 0.776884 -0.851420 0.496084 0.3412 0.2549 0.1294
v 0.861633 -0.851832 0.337464 0.3412 0.2549 0.1294
v 0.913782 -0.852640 0.165359 0.3412 0.2549 0.1294
v 0.931334 -0.853814 -0.013602 0.3412 0.2549 0.1294
v 0.913630 -0.855310 -0.192533 0.3412 0.2549 0.1294
v 0.861369 -0.857071 -0.364560 0.3412 0.2549 0.1294
v 0.776572 -0.859029 -0.523083 0.3412 0.2549 0.1294
v 0.662504 -0.861110 -0.662027 0.3412 0.2549 0.1294
v 0.523542 -0.863232 -0.776070 0.3412 0.2549 0.1294
v 0.365015 -0.865313 -0.860839 0.3412 0.2549 0.1294
v 0.192995 -0.867272 -0.913080 0.3412 0.2549 0.1294
v -0.634486 -0.830604 0.634696 0.3412 0.2549 0.1294
v -0.495524 -0.828482 0.748739 0.3412 0.2549 0.1294
v 0.174743 -0.854632 0.699036 0.3412 0.2549 0.1294
v 0.462017 -0.852334 0.656499 0.3412 0.2549 0.1294
v 0.403689 -0.855515 0.304516 0.3412 0.2549 0.1294
v 0.066587 -0.857445 0.437823 0.3412 0.2549 0.1294
v 0.084310 -0.859391 0.147299 0.3412 0.2549 0.1294
v 0.480623 -0.856380 0.093095 0.3412 0.2549 0.1294
v 0.576639 -0.857200 -0.133130 0.3412 0.2549 0.1294
v 0.202251 -0.860075 -0.087235 0.3412 0.2549 0.1294
v 0.006187 -0.863251 -0.294541 0.3412 0.2549 0.1294
v 0.345673 -0.860849 -0.364393 0.3412 0.2549 0.1294
v 0.019957 -0.864632 -0.502071 0.3412 0.2549 0.1294
v 0.365969 -0.862187 -0.527977 0.3412 0.2549 0.1294
v 0.277014 -0.864637 -0.711507 0.3412 0.2549 0.1294
v 0.462271 -0.862531 -0.640851 0.3412 0.2549 0.1294
v 0.387066 -0.810695 0.302688 0.3412 0.2549 0.1294
v 0.066202 -0.812468 0.437498 0.3412 0.2549 0.1294
v 0.083925 -0.814414 0.146974 0.3412 0.2549 0.1294
v 0.465557 -0.811581 0.086989 0.3412 0.2549 0.1294
v 0.190447 -0.853242 0.873024 0.3412 0.2549 0.1294
v 0.360061 -0.851987 0.821655 0.3412 0.2549 0.1294
v 0.516398 -0.851124 0.738160 0.3412 0.2549 0.1294
v 0.653431 -0.850685 0.625742 0.3412 0.2549 0.1294
v 0.765875 -0.850685 0.488728 0.3412 0.2549 0.1294
v 0.849399 -0.851124 0.332397 0.3412 0.2549 0.1294
v 0.900790 -0.851987 0.162775 0.3412 0.2549 0.1294
v 0.918082 -0.853242 -0.013602 0.3412 0.2549 0.1294
v 0.900628 -0.854840 -0.189947 0.3412 0.2549 0.1294
v 0.849116 -0.856721 -0.359485 0.3412 0.2549 0.1294
v 0.765542 -0.858814 -0.515713 0.3412 0.2549 0.1294
v 0.653122 -0.861038 -0.652645 0.3412 0.2549 0.1294
v 0.516171 -0.863305 -0.765038 0.3412 0.2549 0.1294
v 0.445019 -0.852535 0.650410 0.3412 0.2549 0.1294
v 0.387451 -0.855672 0.303013 0.3412 0.2549 0.1294
v 0.465942 -0.856558 0.087314 0.3412 0.2549 0.1294
v 0.557966 -0.857336 -0.129505 0.3412 0.2549 0.1294
v 0.329072 -0.860950 -0.358693 0.3412 0.2549 0.1294
v 0.350899 -0.862376 -0.534614 0.3412 0.2549 0.1294
v 0.449347 -0.862720 -0.650005 0.3412 0.2549 0.1294
vn 0.2441 -0.9488 -0.2003
vn -0.1151 -0.9889 0.0945
vn 0.3395 0.9229 -0.1815
vn -0.1145 -0.9836 0.1395
vn 0.0522 -0.8464 0.5300
vn -0.1130 -0.9708 0.2114
vn 0.2492 0.8907 0.3802
vn 0.0548 0.8293 -0.5561
vn -0.1080 -0.9282 0.3562
vn -0.1404 -0.3673 -0.9194
vn 0.3496 0.9309 -0.1060
vn -0.1044 0.9940 -0.0317
vn -0.3321 -0.7096 -0.6214
vn 0.2696 0.8203 -0.5044
vn -0.3592 -0.8242 -0.4377
vn -0.9552 -0.0849 0.2834
vn 0.1516 -0.8528 0.4998
vn 0.1751 0.7976 -0.5772
vn -0.0847 0.9954 -0.0453
vn 0.9450 -0.0000 -0.3272
vn 0.2237 -0.8247 0.5194
vn 0.3156 0.7429 -0.5904
vn 0.0955 0.8201 -0.5642
vn 0.1962 -0.9510 -0.2390
vn -0.3526 0.9296 0.1070
vn -0.0077 1.0000 0.0063
vn 0.2370 0.8976 0.3717
vn 0.1478 -0.9496 -0.2765
vn -0.1478 0.9496 0.2765
vn 0.0957 -0.9441 -0.3153
vn -0.0686 0.9961 -0.0563
vn 0.0353 -0.9330 -0.3582
vn -0.4228 0.9053 0.0416
vn -0.0302 -0.9994 -0.0153
vn 0.0980 -0.0000 -0.9952
vn 0.2903 -0.0000 -0.9569
vn 0.4714 -0.0000 -0.8819
vn 0.6344 -0.0000 -0.7730
vn 0.7730 -0.0000 -0.6344
vn 0.8819 -0.0000 -0.4714
vn 0.9569 -0.0000 -0.2903
vn 0.9952 -0.0000 -0.0980
vn 0.9952 -0.0000 0.0980
vn 0.9569 -0.0000 0.2903
vn 0.8819 -0.0000 0.4714
vn 0.7730 -0.0000 0.6344
vn 0.6344 -0.0000 0.7730
vn 0.4714 -0.0000 0.8819
vn 0.2903 -0.0000 0.9569
vn 0.0980 -0.0000 0.9952
vn -0.0980 -0.0000 0.9952
vn -0.2903 -0.0000 0.9569
vn -0.4714 -0.0000 0.8819
vn -0.6344 -0.0000 0.7730
vn -0.7730 -0.0000 0.6344
vn -0.8819 -0.0000 0.4714
vn -0.9569 -0.0000 0.2903
vn -0.9952 -0.0000 0.0980
vn -0.9952 -0.0000 -0.0980
vn -0.9569 -0.0000 -0.2903
vn -0.9438 0.0515 -0.3265
vn -0.7640 0.1524 -0.6270
vn -0.4427 0.1485 -0.8843
vn -0.4714 -0.0000 -0.8819
vn -0.2089 0.0065 -0.9779
vn -0.1848 0.0068 -0.9828
vn -0.0000 -1.0000 -0.0000
vn -0.7130 -0.3961 0.5786
vn 0.4748 -0.5066 -0.7197
vn 0.0980 -0.0208 -0.9950
vn -0.2903 -0.0000 -0.9569
vn -0.6344 -0.0000 -0.7730
vn -0.7730 -0.0000 -0.6344
vn -0.8819 -0.0000 -0.4714
vn -0.9822 -0.0796 0.1699
vn -0.9472 -0.1421 0.2873
vn -0.8717 -0.1521 0.4659
vn -0.7635 -0.1563 0.6266
vn -0.6268 -0.1546 0.7637
vn -0.0955 -0.8201 0.5642
vn 0.3980 -0.7787 0.4850
vn -0.0000 1.0000 -0.0000
vn -0.0551 0.9351 -0.3500
vn 0.5239 -0.7658 0.3728
vn -0.2492 -0.8907 -0.3802
vn -0.1154 -0.9914 0.0617
vn -0.4151 0.8964 -0.1555
vn -0.1156 -0.9927 0.0351
vn -0.0174 0.9998 -0.0017
vn -0.0000 -0.0000 -1.0000
vn -0.2547 -0.9517 -0.1713
vn -0.3662 -0.6298 0.6851
vn -0.1962 0.9510 0.2390
vn -0.3629 -0.9311 -0.0357
vn -0.2483 0.8500 -0.4645
vn -0.3671 -0.9235 -0.1113
vn 0.3042 0.8775 -0.3707
vn -0.3692 -0.9082 -0.1973
vn 0.5648 -0.7681 0.3019
vn 0.3572 0.9334 -0.0352
vn -0.3679 -0.8795 -0.3019
vn -0.1450 0.0519 -0.9881
vn 0.1080 0.9282 -0.3562
vn -0.0735 -0.6313 0.7721
vn 0.0750 0.6441 -0.7613
vn 0.1151 0.9889 -0.0945
vn 0.1156 0.9932 0.0114
vn -0.2370 -0.8976 -0.3717
vn 0.7856 -0.0000 0.6187
vn 0.2950 -0.9424 -0.1577
vn -0.0031 0.9999 0.0101
vn -0.2950 0.9424 0.1577
vn 0.3526 -0.9296 -0.1070
vn -0.0012 0.9999 0.0117
vn -0.1033 -0.8877 -0.4487
vn 0.4228 -0.9053 -0.0416
vn 0.5141 -0.8562 0.0506
vn -0.7763 -0.0149 -0.6302
vn 0.2575 0.4614 0.8490
vn 0.1154 0.9914 0.0617
vn 0.0980 0.0129 0.9951
vn 0.1151 0.9889 0.0945
vn -0.2217 -0.0766 0.9721
vn 0.1156 0.9927 0.0351
vn 0.1033 0.8877 0.4487
vn 0.3321 0.7096 0.6214
vn 0.0336 -0.0603 0.9976
vn 0.2509 0.9680 0.0098
vn -0.0879 -0.4434 0.8920
vn -0.0522 0.8464 -0.5300
vn -0.0548 -0.8293 0.5561
vn 0.6651 -0.7105 0.2298
vn 0.6904 -0.6925 0.2094
vn -0.1516 0.8528 -0.4998
vn -0.2833 -0.6989 0.6567
vn -0.0371 0.9255 0.3770
vn 0.9859 -0.1673 -0.0000
vn -0.0980 0.0208 0.9950
vn -0.9676 0.1634 -0.1925
vn -0.9797 -0.0479 -0.1949
vn 0.9183 -0.3958 -0.0000
vn 0.0371 -0.9255 -0.3770
vn 0.3948 -0.5317 -0.7493
vn -0.9461 0.1230 -0.2998
vn -0.6628 -0.3618 0.6556
vn -0.4771 0.0618 -0.8767
vn 0.1728 0.2455 -0.9539
vn -0.9316 0.2882 0.2214
vn -0.1033 0.2285 -0.9681
vn -0.2858 0.2236 -0.9319
vn -0.4598 0.2208 -0.8602
vn 0.2662 0.3157 -0.9107
vn -0.6686 0.5018 -0.5487
vn -0.9612 0.2276 0.1561
vn -0.9363 0.2066 -0.2840
vn -0.9743 0.2036 -0.0960
vn -0.9749 0.2010 0.0960
vn -0.9378 0.1990 0.2845
vn -0.8645 0.1977 0.4621
vn -0.7579 0.1970 0.6220
vn -0.6220 0.1971 0.7578
vn -0.4621 0.1979 0.8645
vn -0.2845 0.1993 0.9377
vn -0.0960 0.2014 0.9748
vn 0.0960 0.2041 0.9742
vn 0.2840 0.2072 0.9362
vn 0.4608 0.2106 0.8621
vn 0.6197 0.2142 0.7551
vn 0.7545 0.2178 0.6192
vn 0.8600 0.2214 0.4597
vn 0.9325 0.2247 0.2829
vn 0.9690 0.2277 0.0954
vn 0.9685 0.2302 -0.0954
vn 0.9308 0.2321 -0.2824
vn 0.8576 0.2335 -0.4584
vn 0.7515 0.2341 -0.6168
vn 0.6168 0.2340 -0.7515
vn 0.4584 0.2333 -0.8576
vn 0.2824 0.2318 -0.9309
vn 0.0954 0.2298 -0.9686
vn -0.9394 0.1951 0.2819
vn 0.4219 0.2430 -0.8735
vn -0.2833 0.2236 -0.9326
vn -0.0965 0.2286 -0.9687
vn -0.9125 0.2360 0.3341
vn 0.3520 0.1976 -0.9149
vn -0.0001 -0.9992 -0.0396
vn -0.0106 -0.9989 -0.0452
vn -0.0241 -0.9989 -0.0407
vn -0.5622 0.8217 0.0932
vn -0.0431 -0.9984 -0.0354
vn -0.0527 -0.6050 -0.7945
vn -0.0459 -0.9988 -0.0151
vn -0.0465 -0.9989 -0.0016
vn -0.0389 -0.9992 0.0076
vn -0.0284 -0.9995 0.0132
vn -0.0165 -0.9998 0.0144
vn -0.0051 -0.9999 0.0110
vn 0.7071 0.0057 0.7071
vn 0.0098 -0.9999 -0.0071
vn 0.0109 -0.9998 -0.0190
vn 0.0075 -0.9995 -0.0304
vn -0.0225 -0.9987 -0.0464
vn -0.0339 -0.9985 -0.0429
vn -0.0487 -0.9985 -0.0249
vn -0.0499 -0.9987 -0.0130
vn 0.0041 -1.0000 0.0034
vn 0.0849 0.5547 -0.8277
vn -0.8372 -0.5464 -0.0245
vn -0.8314 -0.0057 -0.5556
vn 0.0095 -0.9999 0.0078
vn -0.8099 -0.5859 -0.0257
vn 0.0703 0.9154 -0.3963
vn 0.0132 -0.9995 -0.0299
vn 0.0171 -0.9997 -0.0171
vn 0.0158 -0.9999 -0.0039
vn -0.0008 -0.9999 0.0162
vn -0.0135 -0.9997 0.0201
vn -0.0267 -0.9995 0.0188
vn -0.0384 -0.9992 0.0125
vn -0.0468 -0.9989 0.0022
vn -0.0507 -0.9987 -0.0105
vn -0.0494 -0.9985 -0.0237
vn -0.0329 -0.9985 -0.0438
vn -0.0202 -0.9987 -0.0477
vn -0.0069 -0.9989 -0.0464
vn 0.0048 -0.9992 -0.0401
vn -0.0457 -0.9988 -0.0162
vn -0.0530 -0.6276 -0.7767
vn -0.2369 0.9694 0.0643
vn -0.0260 -0.9989 -0.0402
vn 0.0079 -0.9999 0.0106
vn 0.0089 -0.9999 0.0082
vn 0.0093 -0.9999 0.0072
vn 0.0088 -0.9999 0.0074
vn -0.9397 -0.0105 -0.3419
vn 0.0086 -0.9999 0.0072
vn 0.0082 -0.9999 0.0081
vn 0.0077 -0.9999 0.0096
vn 0.9981 0.0090 0.0608
vn -0.3873 -0.0100 -0.9219
vn 0.1552 0.0085 0.9878
vn 0.0108 -0.9999 0.0103
vn 0.0097 -0.9999 0.0077
vn 0.0095 -0.9999 0.0076
vn 0.0093 -0.9999 0.0076
vn 0.0091 -0.9999 0.0077
vn 0.0090 -0.9999 0.0078
vn 0.0089 -0.9999 0.0080
vn 0.0090 -0.9999 0.0084
vn 0.0091 -0.9999 0.0085
vn 0.0093 -0.9999 0.0086
vn 0.0098 -0.9999 0.0083
vn 0.0081 -0.9999 0.0060
vn 0.0090 -0.9999 0.0075
vn 0.0091 -0.9999 0.0074
vn 0.0089 -0.9999 0.0074
vn 0.0089 -0.9999 0.0092
vn 0.0080 -0.9999 0.0098
vn 0.0068 -0.9999 0.0092
vt 0.125000 0.947801
vt 0.156250 0.947801
vt 0.625000 0.947801
vt 0.656250 0.947801
vt 0.156250 1.000000
vt 0.187500 1.000000
vt 0.593750 0.947801
vt 0.468750 0.947801
vt 0.500000 0.947801
vt 0.562500 0.947801
vt 0.062500 1.000000
vt 0.296822 0.014612
vt 0.250000 0.010000
vt 0.531250 0.947801
vt 0.937500 0.947801
vt 0.968750 0.947801
vt 0.218750 1.000000
vt 0.028269 0.158156
vt 0.014612 0.203178
vt 0.906250 0.947801
vt 0.093750 1.000000
vt 0.876745 0.947801
vt 0.876745 0.947801
vt 0.593750 1.000000
vt 0.437500 0.947801
vt 0.341844 0.028269
vt 0.050447 0.116663
vt 0.281250 1.000000
vt 0.281250 0.947801
vt 0.406250 0.941213
vt 0.406250 0.947801
vt 0.383337 0.050447
vt 0.093750 0.947801
vt 0.050447 0.383337
vt 0.080294 0.419706
vt 0.250000 0.490000
vt 0.296822 0.485388
vt 0.062500 0.947801
vt 0.031250 0.947801
vt 0.080294 0.080294
vt 0.000000 0.947801
vt 0.250000 1.000000
vt 0.749213 0.427248
vt 0.714652 0.424046
vt 0.681359 0.414041
vt 0.697423 0.386662
vt 0.747122 0.344162
vt 0.749746 0.303130
vt 0.711762 0.263079
vt 0.735084 0.216933
vt 0.738965 0.160137
vt 0.718005 0.109081
vt 0.749843 0.071587
vt 0.784566 0.074990
vt 0.817941 0.085095
vt 0.848685 0.101509
vt 0.875617 0.123595
vt 0.897695 0.150496
vt 0.914055 0.181161
vt 0.924032 0.214372
vt 0.927139 0.248730
vt 0.922902 0.282482
vt 0.904701 0.323165
vt 0.900340 0.384184
vt 0.901006 0.374258
vt 0.900293 0.375170
vt 0.915055 0.372433
vt 0.857491 0.380432
vt 0.816087 0.412090
vt 0.783599 0.423379
vt 0.031250 0.784296
vt 0.000000 0.784296
vt 0.062500 0.784296
vt 0.093750 0.784296
vt 0.125000 0.784296
vt 0.156250 0.784296
vt 0.187500 0.784296
vt 0.187500 0.947801
vt 0.218750 0.784296
vt 0.218750 0.947801
vt 0.250000 0.784296
vt 0.250000 0.947801
vt 0.281250 0.784296
vt 0.312500 0.784296
vt 0.312500 0.947801
vt 0.343750 0.784296
vt 0.343750 0.947801
vt 0.375000 0.784296
vt 0.375000 0.941213
vt 0.406250 0.784296
vt 0.437500 0.784296
vt 0.468750 0.784296
vt 0.500000 0.784296
vt 0.531250 0.784296
vt 0.562500 0.784296
vt 0.593750 0.784296
vt 0.625000 0.784296
vt 0.656250 0.784296
vt 0.687500 0.784296
vt 0.687500 0.947801
vt 0.718750 0.784296
vt 0.718750 0.947801
vt 0.750000 0.784296
vt 0.750000 0.947801
vt 0.781250 0.784296
vt 0.781250 0.947801
vt 0.812500 0.784296
vt 0.812500 0.947801
vt 0.841857 0.784296
vt 0.841856 0.947801
vt 0.875000 0.784296
vt 0.843750 0.784296
vt 0.843750 0.947801
vt 0.875000 0.947801
vt 0.876745 0.784296
vt 0.937500 0.784296
vt 0.906250 0.784296
vt 0.968750 0.784296
vt 1.000000 0.784296
vt 1.000000 0.947801
vt 0.792720 0.464769
vt 0.796822 0.485388
vt 0.750000 0.490000
vt 0.750000 0.468977
vt 0.833799 0.452308
vt 0.841844 0.471731
vt 0.871657 0.432072
vt 0.883337 0.449553
vt 0.902987 0.406360
vt 0.917675 0.421372
vt 0.932073 0.371657
vt 0.949553 0.383337
vt 0.919706 0.419706
vt 0.904840 0.404840
vt 0.933299 0.369363
vt 0.950897 0.380823
vt 0.964769 0.292720
vt 0.985388 0.296822
vt 0.971731 0.341844
vt 0.952308 0.333799
vt 0.968976 0.250000
vt 0.990000 0.250000
vt 0.964769 0.207280
vt 0.985388 0.203178
vt 0.952308 0.166201
vt 0.971731 0.158156
vt 0.932073 0.128343
vt 0.949553 0.116663
vt 0.904840 0.095160
vt 0.919706 0.080294
vt 0.871657 0.067927
vt 0.883337 0.050447
vt 0.833799 0.047692
vt 0.841844 0.028269
vt 0.792720 0.035231
vt 0.796822 0.014612
vt 0.750000 0.031023
vt 0.707280 0.035231
vt 0.703178 0.014612
vt 0.750000 0.010000
vt 0.666201 0.047692
vt 0.658156 0.028269
vt 0.628343 0.067927
vt 0.616663 0.050447
vt 0.595160 0.095160
vt 0.580294 0.080294
vt 0.567927 0.128343
vt 0.550447 0.116663
vt 0.547692 0.166201
vt 0.528269 0.158156
vt 0.535231 0.207280
vt 0.514612 0.203178
vt 0.531023 0.250000
vt 0.510000 0.250000
vt 0.535231 0.292720
vt 0.514612 0.296822
vt 0.547692 0.333799
vt 0.528269 0.341844
vt 0.567927 0.371657
vt 0.550447 0.383337
vt 0.595160 0.404840
vt 0.580294 0.419706
vt 0.628343 0.432073
vt 0.616663 0.449553
vt 0.666201 0.452308
vt 0.658156 0.471731
vt 0.707280 0.464769
vt 0.703178 0.485388
vt 0.937500 1.000000
vt 0.968750 1.000000
vt 0.906250 1.000000
vt 0.875000 1.000000
vt 0.876745 1.000000
vt 0.843750 1.000000
vt 0.841856 0.947801
vt 0.812500 1.000000
vt 0.841856 1.000000
vt 0.781250 1.000000
vt 0.750000 1.000000
vt 0.718750 1.000000
vt 0.687500 1.000000
vt 0.656250 1.000000
vt 0.625000 1.000000
vt 0.375000 0.947801
vt 0.341844 0.471731
vt 0.383337 0.449553
vt 0.417675 0.421372
vt 0.419706 0.419706
vt 0.449553 0.383337
vt 0.450897 0.380823
vt 0.471731 0.341844
vt 0.485388 0.296822
vt 0.490000 0.250000
vt 0.485388 0.203178
vt 0.471731 0.158156
vt 0.449553 0.116663
vt 0.419706 0.080294
vt 0.203178 0.014612
vt 0.158156 0.028269
vt 0.116663 0.050447
vt 0.010000 0.250000
vt 0.014612 0.296822
vt 0.028269 0.341844
vt 0.116663 0.449553
vt 0.158156 0.471731
vt 0.203178 0.485388
vt 0.125000 1.000000
vt 1.000000 1.000000
vt 0.031250 1.000000
vt 0.000000 1.000000
vt 0.437500 1.000000
vt 0.468750 1.000000
vt 0.312500 1.000000
vt 0.343750 1.000000
vt 0.500000 1.000000
vt 0.531250 1.000000
vt 0.406250 1.000000
vt 0.375000 1.000000
vt 0.562500 1.000000
vt 0.531250 0.500000
vt 0.500000 0.500000
vt 0.906250 0.548874
vt 0.876745 0.548874
vt 0.843750 0.548874
vt 0.841856 0.548874
vt 1.000000 0.548874
vt 0.968750 0.548874
vt 0.937500 0.548874
vt 0.875000 0.548874
vt 0.812500 0.548874
vt 0.781250 0.548874
vt 0.750000 0.548874
vt 0.718750 0.548873
vt 0.687500 0.548874
vt 0.656250 0.548874
vt 0.625000 0.548874
vt 0.593750 0.548874
vt 0.562500 0.548874
vt 0.531250 0.548874
vt 0.500000 0.548874
vt 0.468750 0.548874
vt 0.437500 0.548874
vt 0.406250 0.548874
vt 0.375000 0.548874
vt 0.343750 0.548874
vt 0.312500 0.548874
vt 0.281250 0.548874
vt 0.250000 0.548874
vt 0.218750 0.548874
vt 0.187500 0.548874
vt 0.156250 0.548874
vt 0.125000 0.548874
vt 0.093750 0.548874
vt 0.062500 0.548874
vt 0.031250 0.548874
vt 0.000000 0.548874
vt 0.031250 0.500000
vt 0.000000 0.500000
vt 0.062500 0.500000
vt 0.093750 0.500000
vt 0.125000 0.500000
vt 0.156250 0.500000
vt 0.187500 0.500000
vt 0.218750 0.500000
vt 0.250000 0.500000
vt 0.281250 0.500000
vt 0.312500 0.500000
vt 0.343750 0.500000
vt 0.375000 0.500000
vt 0.406250 0.500000
vt 0.437500 0.500000
vt 0.468750 0.500000
vt 0.562500 0.500000
vt 0.593750 0.500000
vt 0.625000 0.500000
vt 0.656250 0.500000
vt 0.687500 0.500000
vt 0.718750 0.500000
vt 0.750000 0.500000
vt 0.781250 0.500000
vt 0.812500 0.500000
vt 0.841856 0.500000
vt 0.875000 0.500000
vt 0.843750 0.500000
vt 0.876745 0.500000
vt 0.937500 0.500000
vt 0.906250 0.500000
vt 0.968750 0.500000
vt 1.000000 0.500000
vt 0.784183 0.426031
vt 0.749263 0.429921
vt 0.817222 0.414666
vt 0.858399 0.383740
vt 0.900584 0.377071
vt 0.914282 0.374606
vt 0.902997 0.374091
vt 0.907751 0.323846
vt 0.902452 0.383234
vt 0.925585 0.283138
vt 0.929819 0.248811
vt 0.926642 0.213917
vt 0.916505 0.180203
vt 0.899897 0.149076
vt 0.877489 0.121773
vt 0.877489 0.121773
vt 0.818957 0.082699
vt 0.850157 0.099358
vt 0.785089 0.072443
vt 0.749853 0.068988
vt 0.714605 0.072473
vt 0.680700 0.082768
vt 0.649445 0.099482
vt 0.622043 0.121973
vt 0.599552 0.149378
vt 0.582838 0.180639
vt 0.572544 0.214551
vt 0.569062 0.249808
vt 0.572524 0.285052
vt 0.582790 0.318928
vt 0.599462 0.350132
vt 0.621895 0.377466
vt 0.649223 0.399877
vt 0.680388 0.416493
vt 0.714180 0.426655
vt 0.850157 0.099358
vt 0.650652 0.397673
vt 0.623725 0.375593
vt 0.601621 0.348659
vt 0.585193 0.317910
vt 0.575077 0.284528
vt 0.571666 0.249795
vt 0.575098 0.215049
vt 0.585244 0.181627
vt 0.601717 0.150817
vt 0.623883 0.123809
vt 0.650889 0.101642
vt 0.681693 0.085169
vt 0.715107 0.075022
vt 0.663639 0.374763
vt 0.649786 0.392933
vt 0.625918 0.373363
vt 0.604203 0.346903
vt 0.588064 0.316695
vt 0.578127 0.283900
vt 0.574777 0.249778
vt 0.578149 0.215641
vt 0.588118 0.182806
vt 0.604302 0.152538
vt 0.626079 0.126003
vt 0.652611 0.104225
vt 0.682876 0.088043
vt 0.702193 0.082173
vt 0.661507 0.117618
vt 0.672657 0.186584
vt 0.657434 0.228195
vt 0.638560 0.272860
vt 0.683716 0.318001
vt 0.679843 0.350415
vt 0.661105 0.372973
vt 0.664830 0.118785
vt 0.675836 0.186855
vt 0.660300 0.229301
vt 0.642205 0.272101
vt 0.686955 0.316836
vt 0.682791 0.351696
s 0
f 80/1/1 187/1/1 186/2/1 79/2/1
f 64/3/2 159/3/2 158/4/2 63/4/2
f 43/5/3 143/5/3 142/6/3 41/6/3
f 65/7/4 160/7/4 159/3/4 64/3/4
f 69/8/5 211/8/5 210/9/5 68/9/5
f 66/10/6 161/10/6 160/7/6 65/7/6
f 49/11/7 179/11/7 181/11/7 146/11/7
f 131/12/8 222/12/8 207/13/8 132/13/8
f 67/14/9 162/14/9 161/10/9 66/10/9
f 54/15/10 149/15/10 148/16/10 53/16/10
f 41/6/11 142/6/11 141/17/11 39/17/11
f 138/18/12 197/18/12 193/19/12 139/19/12
f 55/20/13 150/20/13 149/15/13 54/15/13
f 49/11/14 146/11/14 145/21/14 47/21/14
f 231/22/15 234/23/15 150/20/15 55/20/15
f 160/7/16 223/7/16 221/24/16 129/24/16
f 70/25/17 212/25/17 211/8/17 69/8/17
f 130/26/18 220/26/18 222/12/18 131/12/18
f 137/27/19 208/27/19 197/18/19 138/18/19
f 35/28/20 194/28/20 217/29/20 75/29/20
f 71/30/21 213/31/21 212/25/21 70/25/21
f 129/32/22 221/32/22 220/26/22 130/26/22
f 168/28/23 219/28/23 218/28/23 169/28/23
f 81/33/24 188/33/24 187/1/24 80/1/24
f 39/17/25 175/17/25 176/6/25 41/6/25
f 143/34/26 170/34/26 192/35/26 144/35/26
f 117/36/27 167/36/27 166/37/27 116/37/27
f 82/38/28 189/38/28 188/33/28 81/33/28
f 47/21/29 178/21/29 179/11/29 49/11/29
f 83/39/30 190/39/30 189/38/30 82/38/30
f 136/40/31 209/40/31 208/27/31 137/27/31
f 52/41/32 165/41/32 190/39/32 83/39/32
f 37/42/33 174/42/33 175/17/33 39/17/33
f 1/43/34 50/44/34 48/45/34 389/46/34 387/47/34 385/48/34 384/49/34 381/50/34 380/51/34 377/52/34 20/53/34 18/54/34 17/55/34 16/56/34 15/57/34 14/58/34 13/59/34 12/60/34 11/61/34 10/62/34 9/63/34 227/64/34 8/65/34 7/66/34 232/67/34 6/68/34 5/69/34 3/70/34
f 265/71/35 266/72/35 52/41/35 83/39/35
f 264/73/36 265/71/36 83/39/36 82/38/36
f 263/74/37 264/73/37 82/38/37 81/33/37
f 262/75/38 263/74/38 81/33/38 80/1/38
f 261/76/39 262/75/39 80/1/39 79/2/39
f 260/77/40 261/76/40 79/2/40 78/78/40
f 259/79/41 260/77/41 78/78/41 77/80/41
f 258/81/42 259/79/42 77/80/42 76/82/42
f 257/83/43 258/81/43 76/82/43 75/29/43
f 256/84/44 257/83/44 75/29/44 74/85/44
f 255/86/45 256/84/45 74/85/45 73/87/45
f 254/88/46 255/86/46 73/87/46 72/89/46
f 253/90/47 254/88/47 72/89/47 71/30/47
f 252/91/48 253/90/48 71/30/48 70/25/48
f 251/92/49 252/91/49 70/25/49 69/8/49
f 250/93/50 251/92/50 69/8/50 68/9/50
f 249/94/51 250/93/51 68/9/51 67/14/51
f 248/95/52 249/94/52 67/14/52 66/10/52
f 247/96/53 248/95/53 66/10/53 65/7/53
f 246/97/54 247/96/54 65/7/54 64/3/54
f 245/98/55 246/97/55 64/3/55 63/4/55
f 244/99/56 245/98/56 63/4/56 62/100/56
f 243/101/57 244/99/57 62/100/57 61/102/57
f 242/103/58 243/101/58 61/102/58 60/104/58
f 241/105/59 242/103/59 60/104/59 59/106/59
f 240/107/60 241/105/60 59/106/60 58/108/60
f 267/109/61 240/107/61 58/108/61 226/110/61
f 238/111/62 239/112/62 57/113/62 56/114/62
f 268/115/63 238/111/63 56/114/63 231/22/63
f 236/116/64 237/117/64 55/20/64 54/15/64
f 235/118/65 236/116/65 54/15/65 53/16/65
f 266/119/66 235/118/66 53/16/66 52/120/66
f 304/121/67 85/122/67 84/123/67 303/124/67
f 305/125/67 86/126/67 85/122/67 304/121/67
f 306/127/67 87/128/67 86/126/67 305/125/67
f 307/129/68 230/130/68 87/128/68 306/127/68
f 309/131/67 89/132/67 88/133/67 308/134/67
f 310/135/69 225/136/69 89/132/69 309/131/69
f 312/137/67 91/138/67 90/139/67 311/140/67
f 313/141/67 92/142/67 91/138/67 312/137/67
f 314/143/67 93/144/67 92/142/67 313/141/67
f 315/145/67 94/146/67 93/144/67 314/143/67
f 316/147/67 95/148/67 94/146/67 315/145/67
f 317/149/67 96/150/67 95/148/67 316/147/67
f 318/151/67 97/152/67 96/150/67 317/149/67
f 319/153/67 98/154/67 97/152/67 318/151/67
f 320/155/67 99/156/67 98/154/67 319/153/67
f 321/157/70 27/157/70 29/155/70 320/155/70
f 322/158/67 101/159/67 100/160/67 321/157/67
f 323/161/67 102/162/67 101/159/67 322/158/67
f 324/163/67 103/164/67 102/162/67 323/161/67
f 325/165/67 104/166/67 103/164/67 324/163/67
f 326/167/67 105/168/67 104/166/67 325/165/67
f 327/169/67 106/170/67 105/168/67 326/167/67
f 328/171/67 107/172/67 106/170/67 327/169/67
f 329/173/67 108/174/67 107/172/67 328/171/67
f 330/175/67 109/176/67 108/174/67 329/173/67
f 331/177/67 110/178/67 109/176/67 330/175/67
f 332/179/67 111/180/67 110/178/67 331/177/67
f 333/181/67 112/182/67 111/180/67 332/179/67
f 334/183/67 113/184/67 112/182/67 333/181/67
f 335/185/67 114/186/67 113/184/67 334/183/67
f 336/187/67 115/188/67 114/186/67 335/185/67
f 303/124/67 84/123/67 115/188/67 336/187/67
f 148/16/71 149/15/71 118/189/71 116/190/71
f 149/15/64 150/20/64 119/191/64 118/189/64
f 234/23/72 151/114/72 120/192/72 233/193/72
f 151/114/73 152/113/73 121/194/73 120/192/73
f 229/195/74 153/108/74 122/196/74 228/197/74
f 153/108/60 154/106/60 123/198/60 122/196/60
f 154/106/59 155/104/59 124/199/59 123/198/59
f 155/104/75 156/102/75 125/200/75 124/199/75
f 156/102/76 157/100/76 126/201/76 125/200/76
f 157/100/77 158/4/77 127/202/77 126/201/77
f 158/4/78 159/3/78 128/203/78 127/202/78
f 159/3/79 160/7/79 129/24/79 128/203/79
f 67/14/80 200/14/80 199/14/80 162/14/80
f 72/89/81 214/204/81 213/31/81 71/30/81
f 116/37/82 118/205/82 119/206/82 233/207/82 120/208/82 121/209/82 228/210/82 122/211/82 123/212/82 124/213/82 125/214/82 126/215/82 127/216/82 128/217/82 129/32/82 130/26/82 131/12/82 132/13/82 133/218/82 134/219/82 135/220/82 136/40/82 137/27/82 138/18/82 139/19/82 140/221/82 141/222/82 142/223/82 143/34/82 144/35/82 145/224/82 146/225/82 147/226/82 117/36/82
f 135/220/83 51/220/83 209/40/83 136/40/83
f 73/87/84 215/87/84 214/204/84 72/89/84
f 140/42/85 191/42/85 174/42/85 37/42/85
f 63/4/86 158/4/86 157/100/86 62/100/86
f 139/19/87 193/19/87 219/19/87 168/19/87
f 62/100/88 157/100/88 156/102/88 61/102/88
f 139/19/89 168/19/89 191/221/89 140/221/89
f 53/16/90 148/16/90 116/190/90 4/190/90
f 61/102/91 156/102/91 155/104/91 60/104/91
f 161/10/92 224/10/92 223/7/92 160/7/92
f 45/227/93 177/227/93 178/21/93 47/21/93
f 60/104/94 155/104/94 154/106/94 59/106/94
f 134/219/95 195/219/95 51/220/95 135/220/95
f 59/106/96 154/106/96 153/108/96 58/108/96
f 47/21/97 145/21/97 144/227/97 45/227/97
f 226/110/98 229/195/98 152/113/98 57/113/98
f 74/85/99 216/85/99 215/87/99 73/87/99
f 39/17/100 141/17/100 140/42/100 37/42/100
f 57/113/101 152/113/101 151/114/101 56/114/101
f 165/120/102 180/16/102 163/190/102 164/228/102
f 173/229/103 172/229/103 181/11/103 179/11/103
f 182/29/43 183/82/43 174/42/43 169/28/43
f 183/82/42 184/80/42 175/17/42 174/42/42
f 184/80/41 185/78/41 176/6/41 175/17/41
f 185/78/40 186/2/40 171/5/40 176/6/40
f 186/2/39 187/1/39 177/227/39 171/5/39
f 187/1/38 188/33/38 178/21/38 177/227/38
f 188/33/37 189/38/37 179/11/37 178/21/37
f 189/38/36 190/39/36 173/229/36 179/11/36
f 190/39/35 165/41/35 164/230/35 173/229/35
f 163/190/104 166/190/104 167/228/104 164/228/104
f 164/230/105 167/230/105 172/229/105 173/229/105
f 177/227/106 192/227/106 170/5/106 171/5/106
f 174/42/107 191/42/107 168/28/107 169/28/107
f 53/16/108 180/16/108 165/120/108 52/120/108
f 75/29/109 182/29/109 169/28/109 35/28/109
f 79/2/110 186/2/110 185/78/110 78/78/110
f 43/5/7 171/5/7 170/5/7 143/5/7
f 146/225/111 181/225/111 172/226/111 147/226/111
f 41/6/112 176/6/112 171/5/112 43/5/112
f 78/78/113 185/78/113 184/80/113 77/80/113
f 147/226/114 172/226/114 167/36/114 117/36/114
f 116/190/115 166/190/115 163/190/115 4/190/115
f 77/80/116 184/80/116 183/82/116 76/82/116
f 76/82/117 183/82/117 182/29/117 75/29/117
f 4/190/118 163/190/118 180/16/118 53/16/118
f 144/227/85 192/227/85 177/227/85 45/227/85
f 196/231/119 195/231/119 206/232/119 203/232/119
f 198/233/120 197/233/120 208/234/120 205/234/120
f 203/232/121 206/232/121 207/235/121 201/235/121
f 200/14/51 210/9/51 201/235/51 202/236/51
f 210/9/50 211/8/50 203/232/50 201/235/50
f 211/8/49 212/25/49 196/231/49 203/232/49
f 212/25/48 213/31/48 2/237/48 196/231/48
f 213/31/47 214/204/47 204/238/47 2/237/47
f 214/204/46 215/87/46 205/234/46 204/238/46
f 215/87/45 216/85/45 198/233/45 205/234/45
f 216/85/44 217/29/44 194/28/44 198/233/44
f 205/234/122 208/234/122 209/238/122 204/238/122
f 223/7/53 224/10/53 220/239/53 221/24/53
f 224/10/123 199/14/123 222/236/123 220/239/123
f 194/28/124 193/28/124 197/233/124 198/233/124
f 194/28/125 218/28/125 219/28/125 193/28/125
f 2/237/126 51/237/126 195/231/126 196/231/126
f 202/236/127 222/236/127 199/14/127 200/14/127
f 204/238/128 209/238/128 51/237/128 2/237/128
f 201/235/129 207/235/129 222/236/129 202/236/129
f 132/13/130 207/13/130 206/218/130 133/218/130
f 68/9/131 210/9/131 200/14/131 67/14/131
f 169/28/132 218/28/132 194/28/132 35/28/132
f 75/29/133 217/29/133 216/85/133 74/85/133
f 133/218/134 206/218/134 195/219/134 134/219/134
f 162/14/135 199/14/135 224/10/135 161/10/135
f 33/240/136 25/240/136 23/241/136 31/241/136
f 100/160/137 31/160/137 27/157/137 321/157/137
f 99/240/138 33/240/138 31/241/138 100/241/138
f 320/155/139 29/155/139 33/156/139 99/156/139
f 19/157/67 23/160/67 25/156/67 21/155/67
f 29/155/140 21/155/140 25/156/140 33/156/140
f 31/160/141 23/160/141 19/157/141 27/157/141
f 27/157/142 19/157/142 21/155/142 29/155/142
f 58/108/98 153/108/98 229/195/98 226/110/98
f 152/113/74 229/195/74 228/197/74 121/194/74
f 311/140/143 90/139/143 225/136/143 310/135/143
f 239/112/144 267/109/144 226/110/144 57/113/144
f 150/20/72 234/23/72 233/193/72 119/191/72
f 308/134/145 88/133/145 230/130/145 307/129/145
f 237/117/146 268/115/146 231/22/146 55/20/146
f 56/114/15 151/114/15 234/23/15 231/22/15
f 271/242/147 301/243/147 268/115/147 237/117/147
f 273/244/148 300/245/148 267/109/148 239/112/148
f 302/246/149 269/247/149 235/118/149 266/119/149
f 269/247/150 270/248/150 236/116/150 235/118/150
f 270/248/151 271/242/151 237/117/151 236/116/151
f 301/243/152 272/249/152 238/111/152 268/115/152
f 272/249/153 273/244/153 239/112/153 238/111/153
f 300/245/154 274/250/154 240/107/154 267/109/154
f 274/250/155 275/251/155 241/105/155 240/107/155
f 275/251/156 276/252/156 242/103/156 241/105/156
f 276/252/157 277/253/157 243/101/157 242/103/157
f 277/253/158 278/254/158 244/99/158 243/101/158
f 278/254/159 279/255/159 245/98/159 244/99/159
f 279/255/160 280/256/160 246/97/160 245/98/160
f 280/256/161 281/257/161 247/96/161 246/97/161
f 281/257/162 282/258/162 248/95/162 247/96/162
f 282/258/163 283/259/163 249/94/163 248/95/163
f 283/259/164 284/260/164 250/93/164 249/94/164
f 284/260/165 285/261/165 251/92/165 250/93/165
f 285/261/166 286/262/166 252/91/166 251/92/166
f 286/262/167 287/263/167 253/90/167 252/91/167
f 287/263/168 288/264/168 254/88/168 253/90/168
f 288/264/169 289/265/169 255/86/169 254/88/169
f 289/265/170 290/266/170 256/84/170 255/86/170
f 290/266/171 291/267/171 257/83/171 256/84/171
f 291/267/172 292/268/172 258/81/172 257/83/172
f 292/268/173 293/269/173 259/79/173 258/81/173
f 293/269/174 294/270/174 260/77/174 259/79/174
f 294/270/175 295/271/175 261/76/175 260/77/175
f 295/271/176 296/272/176 262/75/176 261/76/176
f 296/272/177 297/273/177 263/74/177 262/75/177
f 297/273/178 298/274/178 264/73/178 263/74/178
f 298/274/179 299/275/179 265/71/179 264/73/179
f 299/275/180 302/276/180 266/72/180 265/71/180
f 115/277/180 84/278/180 302/276/180 299/275/180
f 114/279/179 115/277/179 299/275/179 298/274/179
f 113/280/178 114/279/178 298/274/178 297/273/178
f 112/281/177 113/280/177 297/273/177 296/272/177
f 111/282/176 112/281/176 296/272/176 295/271/176
f 110/283/175 111/282/175 295/271/175 294/270/175
f 109/284/174 110/283/174 294/270/174 293/269/174
f 108/285/173 109/284/173 293/269/173 292/268/173
f 107/286/172 108/285/172 292/268/172 291/267/172
f 106/287/171 107/286/171 291/267/171 290/266/171
f 105/288/170 106/287/170 290/266/170 289/265/170
f 104/289/169 105/288/169 289/265/169 288/264/169
f 103/290/168 104/289/168 288/264/168 287/263/168
f 102/291/167 103/290/167 287/263/167 286/262/167
f 101/292/166 102/291/166 286/262/166 285/261/166
f 100/241/165 101/292/165 285/261/165 284/260/165
f 99/240/164 100/241/164 284/260/164 283/259/164
f 98/293/163 99/240/163 283/259/163 282/258/163
f 97/294/162 98/293/162 282/258/162 281/257/162
f 96/295/161 97/294/161 281/257/161 280/256/161
f 95/296/160 96/295/160 280/256/160 279/255/160
f 94/297/159 95/296/159 279/255/159 278/254/159
f 93/298/158 94/297/158 278/254/158 277/253/158
f 92/299/157 93/298/157 277/253/157 276/252/157
f 91/300/156 92/299/156 276/252/156 275/251/156
f 90/301/155 91/300/155 275/251/155 274/250/155
f 225/302/181 90/301/181 274/250/181 300/245/181
f 88/303/153 89/304/153 273/244/153 272/249/153
f 230/305/182 88/303/182 272/249/182 301/243/182
f 86/306/151 87/307/151 271/242/151 270/248/151
f 85/308/183 86/306/183 270/248/183 269/247/183
f 84/309/184 85/308/184 269/247/184 302/246/184
f 89/304/185 225/302/185 300/245/185 273/244/185
f 87/307/186 230/305/186 301/243/186 271/242/186
f 341/310/187 304/121/187 303/124/187 342/311/187
f 343/312/188 305/125/188 304/121/188 341/310/188
f 344/313/189 306/127/189 305/125/189 343/312/189
f 345/314/190 308/134/190 307/129/190 346/315/190
f 347/316/191 309/131/191 308/134/191 345/314/191
f 348/317/192 311/140/192 310/135/192 349/318/192
f 350/319/193 312/137/193 311/140/193 348/317/193
f 351/320/194 313/141/194 312/137/194 350/319/194
f 352/321/195 314/143/195 313/141/195 351/320/195
f 353/322/196 315/145/196 314/143/196 352/321/196
f 354/323/197 316/147/197 315/145/197 353/322/197
f 355/324/198 317/149/198 316/147/198 354/323/198
f 355/324/199 375/325/199 337/149/199 317/149/199
f 357/326/200 319/153/200 318/151/200 356/327/200
f 358/328/201 320/155/201 319/153/201 357/326/201
f 359/329/202 321/157/202 320/155/202 358/328/202
f 360/330/187 322/158/187 321/157/187 359/329/187
f 361/331/188 323/161/188 322/158/188 360/330/188
f 362/332/203 324/163/203 323/161/203 361/331/203
f 363/333/204 325/165/204 324/163/204 362/332/204
f 364/334/191 326/167/191 325/165/191 363/333/191
f 365/335/205 327/169/205 326/167/205 364/334/205
f 366/336/206 328/171/206 327/169/206 365/335/206
f 367/337/194 329/173/194 328/171/194 366/336/194
f 368/338/195 330/175/195 329/173/195 367/337/195
f 369/339/196 331/177/196 330/175/196 368/338/196
f 370/340/197 332/179/197 331/177/197 369/339/197
f 371/341/198 333/181/198 332/179/198 370/340/198
f 372/342/207 334/183/207 333/181/207 371/341/207
f 373/343/200 335/185/200 334/183/200 372/342/200
f 374/344/201 336/187/201 335/185/201 373/343/201
f 342/311/202 303/124/202 336/187/202 374/344/202
f 349/318/208 310/135/208 309/131/208 347/316/208
f 346/315/209 307/129/209 306/127/209 344/313/209
f 376/345/207 338/151/207 337/149/207 375/325/207
f 317/149/38 337/149/38 338/151/38 318/151/38
f 356/327/210 376/345/210 340/56/210 16/56/210
f 16/56/54 340/56/54 339/57/54 15/57/54
f 318/151/210 338/151/210 376/345/210 356/327/210
f 340/56/211 376/345/211 375/325/211 339/57/211
f 232/67/212 346/315/212 344/313/212 6/68/212
f 227/64/213 349/318/213 347/316/213 8/65/213
f 1/43/214 342/311/214 374/344/214 50/44/214
f 50/44/215 374/344/215 373/343/215 48/45/215
f 48/45/216 373/343/216 372/342/216 407/346/216
f 407/346/211 372/342/211 371/341/211 406/347/211
f 406/347/217 371/341/217 370/340/217 405/348/217
f 405/348/218 370/340/218 369/339/218 404/349/218
f 404/349/219 369/339/219 368/338/219 403/350/219
f 403/350/220 368/338/220 367/337/220 402/351/220
f 402/351/221 367/337/221 366/336/221 401/352/221
f 401/352/222 366/336/222 365/335/222 400/353/222
f 400/353/223 365/335/223 364/334/223 399/354/223
f 399/354/191 364/334/191 363/333/191 398/355/191
f 398/355/224 363/333/224 362/332/224 397/356/224
f 397/356/225 362/332/225 361/331/225 396/357/225
f 396/357/226 361/331/226 360/330/226 395/358/226
f 395/358/227 360/330/227 359/329/227 20/53/227
f 20/53/214 359/329/214 358/328/214 18/54/214
f 18/54/215 358/328/215 357/326/215 17/55/215
f 17/55/216 357/326/216 356/327/216 16/56/216
f 15/57/199 339/57/199 375/325/199 355/324/199
f 15/57/217 355/324/217 354/323/217 14/58/217
f 14/58/218 354/323/218 353/322/218 13/59/218
f 13/59/219 353/322/219 352/321/219 12/60/219
f 12/60/220 352/321/220 351/320/220 11/61/220
f 11/61/221 351/320/221 350/319/221 10/62/221
f 10/62/228 350/319/228 348/317/228 9/63/228
f 9/63/229 348/317/229 349/318/229 227/64/229
f 8/65/191 347/316/191 345/314/191 7/66/191
f 7/66/230 345/314/230 346/315/230 232/67/230
f 6/68/231 344/313/231 343/312/231 5/69/231
f 5/69/226 343/312/226 341/310/226 3/70/226
f 3/70/227 341/310/227 342/311/227 1/43/227
f 48/45/232 407/346/232 414/359/232 389/46/232
f 46/360/233 44/361/233 42/362/233 40/363/233 38/364/233 36/365/233 34/366/233 32/367/233 30/368/233 28/369/233 26/370/233 24/371/233 22/372/233 378/373/233 379/374/233 382/375/233 383/376/233 386/377/233 388/378/233 390/379/233
f 395/358/234 20/53/234 377/52/234 408/380/234
f 408/380/235 377/52/235 380/51/235 409/381/235
f 409/381/236 391/381/236 394/382/236 410/382/236
f 410/382/237 381/50/237 384/49/237 411/383/237
f 411/383/237 384/49/237 385/48/237 412/384/237
f 412/384/238 385/48/238 387/47/238 413/385/238
f 413/385/239 387/47/239 389/46/239 414/359/239
f 391/381/237 392/51/237 393/50/237 394/382/237
f 381/50/240 393/50/240 392/51/240 380/51/240
f 380/51/241 392/51/241 391/381/241 409/381/241
f 410/382/242 394/382/242 393/50/242 381/50/242
f 24/371/243 396/357/243 395/358/243 22/372/243
f 26/370/244 397/356/244 396/357/244 24/371/244
f 28/369/245 398/355/245 397/356/245 26/370/245
f 30/368/246 399/354/246 398/355/246 28/369/246
f 32/367/247 400/353/247 399/354/247 30/368/247
f 34/366/248 401/352/248 400/353/248 32/367/248
f 36/365/249 402/351/249 401/352/249 34/366/249
f 38/364/233 403/350/233 402/351/233 36/365/233
f 40/363/250 404/349/250 403/350/250 38/364/250
f 42/362/251 405/348/251 404/349/251 40/363/251
f 44/361/252 406/347/252 405/348/252 42/362/252
f 46/360/253 407/346/253 406/347/253 44/361/253
f 22/372/254 395/358/254 408/380/254 378/373/254
f 378/373/255 408/380/255 409/381/255 379/374/255
f 379/374/256 409/381/256 410/382/256 382/375/256
f 382/375/257 410/382/257 411/383/257 383/376/257
f 383/376/237 411/383/237 412/384/237 386/377/237
f 386/377/258 412/384/258 413/385/258 388/378/258
f 388/378/259 413/385/259 414/359/259 390/379/259
f 390/379/260 414/359/260 407/346/260 46/360/260
