# Blender 5.2.0 LTS
# www.blender.org
o Cylinder
v -0.003683 0.010327 1.672969 0.1725 0.4353 0.1098
v -0.000628 -2.081156 0.883124 0.1725 0.4353 0.1098
v -0.322768 0.010327 1.641542 0.1725 0.4353 0.1098
v -0.171673 -2.081156 0.866277 0.1725 0.4353 0.1098
v -0.629590 0.010327 1.548468 0.1725 0.4353 0.1098
v -0.336146 -2.081156 0.816385 0.1725 0.4353 0.1098
v -0.912359 0.010327 1.397325 0.1725 0.4353 0.1098
v -0.487725 -2.081156 0.735364 0.1725 0.4353 0.1098
v -1.160208 0.010327 1.193921 0.1725 0.4353 0.1098
v -0.620585 -2.081156 0.626329 0.1725 0.4353 0.1098
v -1.363613 0.010327 0.946071 0.1725 0.4353 0.1098
v -0.729620 -2.081156 0.493469 0.1725 0.4353 0.1098
v -1.514756 0.010327 0.663302 0.1725 0.4353 0.1098
v -0.810641 -2.081156 0.341890 0.1725 0.4353 0.1098
v -1.607830 0.010327 0.356480 0.1725 0.4353 0.1098
v -0.860533 -2.081156 0.177418 0.1725 0.4353 0.1098
v -1.639257 0.010327 0.037395 0.1725 0.4353 0.1098
v -0.877379 -2.081156 0.006372 0.1725 0.4353 0.1098
v -1.607830 0.010327 -0.281689 0.1725 0.4353 0.1098
v -0.860533 -2.081156 -0.164674 0.1725 0.4353 0.1098
v -1.514756 0.010327 -0.588512 0.1725 0.4353 0.1098
v -0.810641 -2.081156 -0.329147 0.1725 0.4353 0.1098
v -1.363613 0.010327 -0.871281 0.1725 0.4353 0.1098
v -0.729620 -2.081156 -0.480725 0.1725 0.4353 0.1098
v -1.160208 0.010327 -1.119130 0.1725 0.4353 0.1098
v -0.620585 -2.081156 -0.613585 0.1725 0.4353 0.1098
v -0.912359 0.010327 -1.322534 0.1725 0.4353 0.1098
v -0.487725 -2.081156 -0.722621 0.1725 0.4353 0.1098
v -0.629590 0.010327 -1.473678 0.1725 0.4353 0.1098
v -0.336146 -2.081156 -0.803641 0.1725 0.4353 0.1098
v -0.322768 0.010327 -1.566751 0.1725 0.4353 0.1098
v -0.171673 -2.081156 -0.853533 0.1725 0.4353 0.1098
v -0.003683 0.010327 -1.598178 0.1725 0.4353 0.1098
v -0.000628 -2.081156 -0.870380 0.1725 0.4353 0.1098
v 0.315401 0.010327 -1.566751 0.1725 0.4353 0.1098
v 0.170418 -2.081156 -0.853533 0.1725 0.4353 0.1098
v 0.622224 0.010327 -1.473678 0.1725 0.4353 0.1098
v 0.334891 -2.081156 -0.803641 0.1725 0.4353 0.1098
v 0.904993 0.010327 -1.322534 0.1725 0.4353 0.1098
v 0.486470 -2.081156 -0.722621 0.1725 0.4353 0.1098
v 1.152842 0.010327 -1.119130 0.1725 0.4353 0.1098
v 0.619330 -2.081156 -0.613585 0.1725 0.4353 0.1098
v 1.356246 0.010327 -0.871281 0.1725 0.4353 0.1098
v 0.728365 -2.081156 -0.480725 0.1725 0.4353 0.1098
v 1.507390 0.010327 -0.588512 0.1725 0.4353 0.1098
v 0.809385 -2.081156 -0.329147 0.1725 0.4353 0.1098
v 1.600463 0.010327 -0.281689 0.1725 0.4353 0.1098
v 0.859278 -2.081156 -0.164674 0.1725 0.4353 0.1098
v 1.631890 0.010327 0.037395 0.1725 0.4353 0.1098
v 0.876124 -2.081156 0.006372 0.1725 0.4353 0.1098
v 1.600463 0.010327 0.356480 0.1725 0.4353 0.1098
v 0.859278 -2.081156 0.177418 0.1725 0.4353 0.1098
v 1.507390 0.010327 0.663302 0.1725 0.4353 0.1098
v 0.809385 -2.081156 0.341890 0.1725 0.4353 0.1098
v 1.356246 0.010327 0.946071 0.1725 0.4353 0.1098
v 0.728365 -2.081156 0.493469 0.1725 0.4353 0.1098
v 1.152842 0.010327 1.193921 0.1725 0.4353 0.1098
v 0.619330 -2.081156 0.626329 0.1725 0.4353 0.1098
v 0.904993 0.010327 1.397325 0.1725 0.4353 0.1098
v 0.486470 -2.081156 0.735364 0.1725 0.4353 0.1098
v 0.622224 0.010327 1.548468 0.1725 0.4353 0.1098
v 0.334891 -2.081156 0.816385 0.1725 0.4353 0.1098
v 0.315401 0.010327 1.641542 0.1725 0.4353 0.1098
v 0.170418 -2.081156 0.866277 0.1725 0.4353 0.1098
v -0.000628 -1.247281 0.883124 0.1725 0.4353 0.1098
v -0.171673 -1.247281 0.866277 0.1725 0.4353 0.1098
v -0.336146 -1.247281 0.816385 0.1725 0.4353 0.1098
v -0.487725 -1.247281 0.735364 0.1725 0.4353 0.1098
v -0.620585 -1.247281 0.626329 0.1725 0.4353 0.1098
v -0.729620 -1.247281 0.493469 0.1725 0.4353 0.1098
v -1.121483 -1.422388 0.488700 0.1725 0.4353 0.1098
v -1.190407 -1.422388 0.261488 0.1725 0.4353 0.1098
v -1.213680 -1.422388 0.025195 0.1725 0.4353 0.1098
v -1.190407 -1.422388 -0.211098 0.1725 0.4353 0.1098
v -1.121483 -1.422388 -0.438311 0.1725 0.4353 0.1098
v -1.009556 -1.422388 -0.647711 0.1725 0.4353 0.1098
v -0.858928 -1.422388 -0.831252 0.1725 0.4353 0.1098
v -0.675387 -1.422388 -0.981880 0.1725 0.4353 0.1098
v -0.465987 -1.422388 -1.093807 0.1725 0.4353 0.1098
v -0.238774 -1.422388 -1.162731 0.1725 0.4353 0.1098
v -0.002481 -1.422388 -1.186004 0.1725 0.4353 0.1098
v 0.233812 -1.422388 -1.162731 0.1725 0.4353 0.1098
v 0.461024 -1.422388 -1.093807 0.1725 0.4353 0.1098
v 0.670424 -1.422388 -0.981880 0.1725 0.4353 0.1098
v 0.853965 -1.422388 -0.831252 0.1725 0.4353 0.1098
v 1.004593 -1.422388 -0.647711 0.1725 0.4353 0.1098
v 1.116520 -1.422388 -0.438311 0.1725 0.4353 0.1098
v 1.185444 -1.422388 -0.211098 0.1725 0.4353 0.1098
v 1.208717 -1.422388 0.025195 0.1725 0.4353 0.1098
v 1.185444 -1.422388 0.261488 0.1725 0.4353 0.1098
v 1.116520 -1.422388 0.488700 0.1725 0.4353 0.1098
v 1.004593 -1.422388 0.698100 0.1725 0.4353 0.1098
v 0.619330 -1.247281 0.626329 0.1725 0.4353 0.1098
v 0.486470 -1.247281 0.735364 0.1725 0.4353 0.1098
v 0.334891 -1.247281 0.816385 0.1725 0.4353 0.1098
v 0.170418 -1.247281 0.866277 0.1725 0.4353 0.1098
v -0.000628 -1.388966 0.883124 0.1725 0.4353 0.1098
v -0.000628 -1.555741 0.883124 0.1725 0.4353 0.1098
v -0.000628 -1.722516 0.883124 0.1725 0.4353 0.1098
v -0.000628 -1.889291 0.883124 0.1725 0.4353 0.1098
v -0.171673 -1.889291 0.866277 0.1725 0.4353 0.1098
v -0.171673 -1.722516 0.866277 0.1725 0.4353 0.1098
v -0.171673 -1.555741 0.866277 0.1725 0.4353 0.1098
v -0.171673 -1.388966 0.866277 0.1725 0.4353 0.1098
v -0.336146 -1.889291 0.816385 0.1725 0.4353 0.1098
v -0.336146 -1.722516 0.816385 0.1725 0.4353 0.1098
v -0.336146 -1.555741 0.816385 0.1725 0.4353 0.1098
v -0.336146 -1.388966 0.816385 0.1725 0.4353 0.1098
v -0.487725 -1.889291 0.735364 0.1725 0.4353 0.1098
v -0.487725 -1.722516 0.735364 0.1725 0.4353 0.1098
v -0.487725 -1.555741 0.735364 0.1725 0.4353 0.1098
v -0.487725 -1.388966 0.735364 0.1725 0.4353 0.1098
v -0.620585 -1.889291 0.626329 0.1725 0.4353 0.1098
v -0.620585 -1.722516 0.626329 0.1725 0.4353 0.1098
v -0.620585 -1.555741 0.626329 0.1725 0.4353 0.1098
v -0.620585 -1.388966 0.626329 0.1725 0.4353 0.1098
v -0.729620 -1.889291 0.493469 0.1725 0.4353 0.1098
v -0.729620 -1.722516 0.493469 0.1725 0.4353 0.1098
v -0.729620 -1.555741 0.493469 0.1725 0.4353 0.1098
v -0.729620 -1.388966 0.493469 0.1725 0.4353 0.1098
v -0.810641 -1.889291 0.341890 0.1725 0.4353 0.1098
v -0.810641 -1.722516 0.341890 0.1725 0.4353 0.1098
v -0.810641 -1.555741 0.341890 0.1725 0.4353 0.1098
v -0.810641 -1.388966 0.341890 0.1725 0.4353 0.1098
v -0.860533 -1.889291 0.177418 0.1725 0.4353 0.1098
v -0.860533 -1.722516 0.177418 0.1725 0.4353 0.1098
v -0.860533 -1.555741 0.177418 0.1725 0.4353 0.1098
v -0.860533 -1.388966 0.177418 0.1725 0.4353 0.1098
v -0.877379 -1.889291 0.006372 0.1725 0.4353 0.1098
v -0.877379 -1.722516 0.006372 0.1725 0.4353 0.1098
v -0.877379 -1.555741 0.006372 0.1725 0.4353 0.1098
v -0.877379 -1.388966 0.006372 0.1725 0.4353 0.1098
v -0.860533 -1.889291 -0.164674 0.1725 0.4353 0.1098
v -0.860533 -1.722516 -0.164674 0.1725 0.4353 0.1098
v -0.860533 -1.555741 -0.164674 0.1725 0.4353 0.1098
v -0.860533 -1.388966 -0.164674 0.1725 0.4353 0.1098
v -0.810641 -1.889291 -0.329147 0.1725 0.4353 0.1098
v -0.810641 -1.722516 -0.329147 0.1725 0.4353 0.1098
v -0.810641 -1.555741 -0.329147 0.1725 0.4353 0.1098
v -0.810641 -1.388966 -0.329147 0.1725 0.4353 0.1098
v -0.729620 -1.889291 -0.480725 0.1725 0.4353 0.1098
v -0.729620 -1.722516 -0.480725 0.1725 0.4353 0.1098
v -0.729620 -1.555741 -0.480725 0.1725 0.4353 0.1098
v -0.729620 -1.388966 -0.480725 0.1725 0.4353 0.1098
v -0.620585 -1.889291 -0.613585 0.1725 0.4353 0.1098
v -0.620585 -1.722516 -0.613585 0.1725 0.4353 0.1098
v -0.620585 -1.555741 -0.613585 0.1725 0.4353 0.1098
v -0.620585 -1.388966 -0.613585 0.1725 0.4353 0.1098
v -0.487725 -1.889291 -0.722621 0.1725 0.4353 0.1098
v -0.487725 -1.722516 -0.722621 0.1725 0.4353 0.1098
v -0.487725 -1.555741 -0.722621 0.1725 0.4353 0.1098
v -0.487725 -1.388966 -0.722621 0.1725 0.4353 0.1098
v -0.336146 -1.889291 -0.803641 0.1725 0.4353 0.1098
v -0.336146 -1.722516 -0.803641 0.1725 0.4353 0.1098
v -0.336146 -1.555741 -0.803641 0.1725 0.4353 0.1098
v -0.336146 -1.388966 -0.803641 0.1725 0.4353 0.1098
v -0.171673 -1.889291 -0.853533 0.1725 0.4353 0.1098
v -0.171673 -1.722516 -0.853533 0.1725 0.4353 0.1098
v -0.171673 -1.555741 -0.853533 0.1725 0.4353 0.1098
v -0.171673 -1.388966 -0.853533 0.1725 0.4353 0.1098
v -0.000628 -1.889291 -0.870380 0.1725 0.4353 0.1098
v -0.000628 -1.722516 -0.870380 0.1725 0.4353 0.1098
v -0.000628 -1.555741 -0.870380 0.1725 0.4353 0.1098
v -0.000628 -1.388966 -0.870380 0.1725 0.4353 0.1098
v 0.170418 -1.889291 -0.853533 0.1725 0.4353 0.1098
v 0.170418 -1.722516 -0.853533 0.1725 0.4353 0.1098
v 0.170418 -1.555741 -0.853533 0.1725 0.4353 0.1098
v 0.170418 -1.388966 -0.853533 0.1725 0.4353 0.1098
v 0.334891 -1.889291 -0.803641 0.1725 0.4353 0.1098
v 0.334891 -1.722516 -0.803641 0.1725 0.4353 0.1098
v 0.334891 -1.555741 -0.803641 0.1725 0.4353 0.1098
v 0.334891 -1.388966 -0.803641 0.1725 0.4353 0.1098
v 0.486470 -1.889291 -0.722621 0.1725 0.4353 0.1098
v 0.486470 -1.722516 -0.722621 0.1725 0.4353 0.1098
v 0.486470 -1.555741 -0.722621 0.1725 0.4353 0.1098
v 0.486470 -1.388966 -0.722621 0.1725 0.4353 0.1098
v 0.619330 -1.889291 -0.613585 0.1725 0.4353 0.1098
v 0.619330 -1.722516 -0.613585 0.1725 0.4353 0.1098
v 0.619330 -1.555741 -0.613585 0.1725 0.4353 0.1098
v 0.619330 -1.388966 -0.613585 0.1725 0.4353 0.1098
v 0.728365 -1.889291 -0.480725 0.1725 0.4353 0.1098
v 0.728365 -1.722516 -0.480725 0.1725 0.4353 0.1098
v 0.728365 -1.555741 -0.480725 0.1725 0.4353 0.1098
v 0.728365 -1.388966 -0.480725 0.1725 0.4353 0.1098
v 0.809385 -1.889291 -0.329147 0.1725 0.4353 0.1098
v 0.809385 -1.722516 -0.329147 0.1725 0.4353 0.1098
v 0.809385 -1.555741 -0.329147 0.1725 0.4353 0.1098
v 0.809385 -1.388966 -0.329147 0.1725 0.4353 0.1098
v 0.859278 -1.889291 -0.164674 0.1725 0.4353 0.1098
v 0.859278 -1.722516 -0.164674 0.1725 0.4353 0.1098
v 0.859278 -1.555741 -0.164674 0.1725 0.4353 0.1098
v 0.859278 -1.388966 -0.164674 0.1725 0.4353 0.1098
v 0.876124 -1.889291 0.006372 0.1725 0.4353 0.1098
v 0.876124 -1.722516 0.006372 0.1725 0.4353 0.1098
v 0.876124 -1.555741 0.006372 0.1725 0.4353 0.1098
v 0.876124 -1.388966 0.006372 0.1725 0.4353 0.1098
v 0.859278 -1.889291 0.177418 0.1725 0.4353 0.1098
v 0.859278 -1.722516 0.177418 0.1725 0.4353 0.1098
v 0.859278 -1.555741 0.177418 0.1725 0.4353 0.1098
v 0.859278 -1.388966 0.177418 0.1725 0.4353 0.1098
v 0.809385 -1.889291 0.341890 0.1725 0.4353 0.1098
v 0.809385 -1.722516 0.341890 0.1725 0.4353 0.1098
v 0.809385 -1.555741 0.341890 0.1725 0.4353 0.1098
v 0.809385 -1.388966 0.341890 0.1725 0.4353 0.1098
v 0.728365 -1.889291 0.493469 0.1725 0.4353 0.1098
v 0.728365 -1.722516 0.493469 0.1725 0.4353 0.1098
v 0.728365 -1.555741 0.493469 0.1725 0.4353 0.1098
v 0.728365 -1.388966 0.493469 0.1725 0.4353 0.1098
v 0.619330 -1.889291 0.626329 0.1725 0.4353 0.1098
v 0.619330 -1.722516 0.626329 0.1725 0.4353 0.1098
v 0.619330 -1.555741 0.626329 0.1725 0.4353 0.1098
v 0.619330 -1.388966 0.626329 0.1725 0.4353 0.1098
v 0.486470 -1.889291 0.735364 0.1725 0.4353 0.1098
v 0.486470 -1.722516 0.735364 0.1725 0.4353 0.1098
v 0.486470 -1.555741 0.735364 0.1725 0.4353 0.1098
v 0.486470 -1.388966 0.735364 0.1725 0.4353 0.1098
v 0.334891 -1.889291 0.816385 0.1725 0.4353 0.1098
v 0.334891 -1.722516 0.816385 0.1725 0.4353 0.1098
v 0.334891 -1.555741 0.816385 0.1725 0.4353 0.1098
v 0.334891 -1.388966 0.816385 0.1725 0.4353 0.1098
v 0.170418 -1.889291 0.866277 0.1725 0.4353 0.1098
v 0.170418 -1.722516 0.866277 0.1725 0.4353 0.1098
v 0.170418 -1.555741 0.866277 0.1725 0.4353 0.1098
v 0.170418 -1.388966 0.866277 0.1725 0.4353 0.1098
v -0.238774 -1.125131 1.213120 0.1725 0.4353 0.1098
v -0.238774 -0.827873 1.213120 0.1725 0.4353 0.1098
v -0.322768 -0.391082 1.641542 0.1725 0.4353 0.1098
v -0.465987 -1.125131 1.144196 0.1725 0.4353 0.1098
v -0.465987 -0.827873 1.144196 0.1725 0.4353 0.1098
v -0.629590 -0.391082 1.548468 0.1725 0.4353 0.1098
v -0.675387 -1.125131 1.032269 0.1725 0.4353 0.1098
v -0.675387 -0.827873 1.032269 0.1725 0.4353 0.1098
v -0.912359 -0.391082 1.397325 0.1725 0.4353 0.1098
v -0.858928 -1.125131 0.881641 0.1725 0.4353 0.1098
v -1.017842 -0.886198 1.053144 0.1725 0.4353 0.1098
v -1.160208 -0.391082 1.193921 0.1725 0.4353 0.1098
v -1.009556 -1.125131 0.698100 0.1725 0.4353 0.1098
v -1.196178 -0.886198 0.835842 0.1725 0.4353 0.1098
v -1.363613 -0.391082 0.946071 0.1725 0.4353 0.1098
v -1.121483 -1.125131 0.488700 0.1725 0.4353 0.1098
v -1.328693 -0.886198 0.587923 0.1725 0.4353 0.1098
v -1.514756 -0.391082 0.663302 0.1725 0.4353 0.1098
v -1.190407 -1.125131 0.261488 0.1725 0.4353 0.1098
v -1.607830 -0.792492 0.356480 0.1725 0.4353 0.1098
v -1.607830 -0.391082 0.356480 0.1725 0.4353 0.1098
v -1.213680 -1.125131 0.025195 0.1725 0.4353 0.1098
v -1.639257 -0.792492 0.037395 0.1725 0.4353 0.1098
v -1.639257 -0.391082 0.037395 0.1725 0.4353 0.1098
v -1.190407 -1.125131 -0.211098 0.1725 0.4353 0.1098
v -1.607830 -0.792492 -0.281689 0.1725 0.4353 0.1098
v -1.607830 -0.391082 -0.281689 0.1725 0.4353 0.1098
v -1.121483 -1.125131 -0.438311 0.1725 0.4353 0.1098
v -1.514756 -0.792492 -0.588512 0.1725 0.4353 0.1098
v -1.514756 -0.391082 -0.588512 0.1725 0.4353 0.1098
v -1.009556 -1.125131 -0.647711 0.1725 0.4353 0.1098
v -1.363613 -0.792492 -0.871281 0.1725 0.4353 0.1098
v -1.363613 -0.391082 -0.871281 0.1725 0.4353 0.1098
v -0.858928 -1.125131 -0.831252 0.1725 0.4353 0.1098
v -1.160208 -0.792492 -1.119130 0.1725 0.4353 0.1098
v -1.160208 -0.391082 -1.119130 0.1725 0.4353 0.1098
v -0.675387 -1.125131 -0.981880 0.1725 0.4353 0.1098
v -0.912359 -0.792492 -1.322534 0.1725 0.4353 0.1098
v -0.912359 -0.391082 -1.322534 0.1725 0.4353 0.1098
v -0.465987 -1.125131 -1.093807 0.1725 0.4353 0.1098
v -0.629590 -0.792492 -1.473678 0.1725 0.4353 0.1098
v -0.629590 -0.391082 -1.473678 0.1725 0.4353 0.1098
v -0.238774 -1.125131 -1.162731 0.1725 0.4353 0.1098
v -0.322768 -0.792492 -1.566751 0.1725 0.4353 0.1098
v -0.322768 -0.391082 -1.566751 0.1725 0.4353 0.1098
v -0.002481 -1.125131 -1.186004 0.1725 0.4353 0.1098
v -0.003683 -0.792492 -1.598178 0.1725 0.4353 0.1098
v -0.003683 -0.391082 -1.598178 0.1725 0.4353 0.1098
v 0.233812 -1.125131 -1.162731 0.1725 0.4353 0.1098
v 0.315401 -0.792492 -1.566751 0.1725 0.4353 0.1098
v 0.315401 -0.391082 -1.566751 0.1725 0.4353 0.1098
v 0.461024 -1.125131 -1.093807 0.1725 0.4353 0.1098
v 0.622224 -0.792492 -1.473678 0.1725 0.4353 0.1098
v 0.622224 -0.391082 -1.473678 0.1725 0.4353 0.1098
v 0.670424 -1.125131 -0.981880 0.1725 0.4353 0.1098
v 0.904993 -0.792492 -1.322534 0.1725 0.4353 0.1098
v 0.904993 -0.391082 -1.322534 0.1725 0.4353 0.1098
v 0.853965 -1.125131 -0.831252 0.1725 0.4353 0.1098
v 1.152842 -0.792492 -1.119130 0.1725 0.4353 0.1098
v 1.152842 -0.391082 -1.119130 0.1725 0.4353 0.1098
v 1.004593 -1.125131 -0.647711 0.1725 0.4353 0.1098
v 1.356246 -0.792492 -0.871281 0.1725 0.4353 0.1098
v 1.356246 -0.391082 -0.871281 0.1725 0.4353 0.1098
v 1.116520 -1.125131 -0.438311 0.1725 0.4353 0.1098
v 1.507390 -0.792492 -0.588512 0.1725 0.4353 0.1098
v 1.507390 -0.391082 -0.588512 0.1725 0.4353 0.1098
v 1.185444 -1.125131 -0.211098 0.1725 0.4353 0.1098
v 1.600463 -0.792492 -0.281689 0.1725 0.4353 0.1098
v 1.600463 -0.391082 -0.281689 0.1725 0.4353 0.1098
v 1.208717 -1.125131 0.025195 0.1725 0.4353 0.1098
v 1.631890 -0.792492 0.037395 0.1725 0.4353 0.1098
v 1.631890 -0.391082 0.037395 0.1725 0.4353 0.1098
v 1.185444 -1.125131 0.261488 0.1725 0.4353 0.1098
v 1.600463 -0.792492 0.356480 0.1725 0.4353 0.1098
v 1.600463 -0.391082 0.356480 0.1725 0.4353 0.1098
v 1.116520 -1.125131 0.488700 0.1725 0.4353 0.1098
v 1.507390 -0.792492 0.663302 0.1725 0.4353 0.1098
v 1.507390 -0.391082 0.663302 0.1725 0.4353 0.1098
v 1.004593 -1.125131 0.698100 0.1725 0.4353 0.1098
v 1.188464 -0.886198 0.835842 0.1725 0.4353 0.1098
v 1.356246 -0.391082 0.946071 0.1725 0.4353 0.1098
v 0.853965 -1.125131 0.881641 0.1725 0.4353 0.1098
v 1.010129 -0.886198 1.053144 0.1725 0.4353 0.1098
v 1.152842 -0.391082 1.193921 0.1725 0.4353 0.1098
v 0.670424 -1.125131 1.032269 0.1725 0.4353 0.1098
v 0.792827 -0.886198 1.231479 0.1725 0.4353 0.1098
v 0.904993 -0.391082 1.397325 0.1725 0.4353 0.1098
v 0.461024 -1.125131 1.144196 0.1725 0.4353 0.1098
v 0.461024 -0.827873 1.144196 0.1725 0.4353 0.1098
v 0.622224 -0.391082 1.548468 0.1725 0.4353 0.1098
v 0.233812 -1.125131 1.213120 0.1725 0.4353 0.1098
v 0.233812 -0.827873 1.213120 0.1725 0.4353 0.1098
v 0.315401 -0.391082 1.641542 0.1725 0.4353 0.1098
v -0.003683 -0.391082 1.672969 0.1725 0.4353 0.1098
v -0.002481 -0.827873 1.236393 0.1725 0.4353 0.1098
v -0.002481 -1.125131 1.236393 0.1725 0.4353 0.1098
v -0.163939 -4.663925 0.829374 0.1530 0.5294 0.1255
v -0.000522 -4.663925 0.845469 0.1530 0.5294 0.1255
v -0.321076 -4.663925 0.781707 0.1530 0.5294 0.1255
v -0.465894 -4.663925 0.704300 0.1530 0.5294 0.1255
v -0.592829 -4.663925 0.600128 0.1530 0.5294 0.1255
v -0.697001 -4.663925 0.473194 0.1530 0.5294 0.1255
v -0.774408 -4.663925 0.328375 0.1530 0.5294 0.1255
v -0.822075 -4.663925 0.171239 0.1530 0.5294 0.1255
v -0.838170 -4.663925 0.007822 0.1530 0.5255 0.1255
v -0.822075 -4.663925 -0.155595 0.1725 0.4432 0.1098
v -0.774408 -4.663925 -0.312732 0.1725 0.4353 0.1098
v -0.697001 -4.663925 -0.457550 0.1725 0.4353 0.1098
v -0.592829 -4.663925 -0.584484 0.1725 0.4353 0.1098
v -0.465894 -4.663925 -0.688657 0.1725 0.4353 0.1098
v -0.321076 -4.663925 -0.766064 0.1725 0.4353 0.1098
v -0.163939 -4.663925 -0.813730 0.1725 0.4353 0.1098
v -0.000522 -4.663925 -0.829826 0.1725 0.4353 0.1098
v 0.162894 -4.663925 -0.813730 0.1725 0.4353 0.1098
v 0.320031 -4.663925 -0.766064 0.1725 0.4353 0.1098
v 0.464849 -4.663925 -0.688657 0.1725 0.4353 0.1098
v 0.591784 -4.663925 -0.584484 0.1725 0.4353 0.1098
v 0.695956 -4.663925 -0.457550 0.1725 0.4353 0.1098
v 0.773363 -4.663925 -0.312732 0.1725 0.4353 0.1098
v 0.821030 -4.663925 -0.155595 0.1725 0.4353 0.1098
v 0.837125 -4.663925 0.007822 0.1725 0.4353 0.1098
v 0.821030 -4.663925 0.171239 0.1725 0.4353 0.1098
v 0.773363 -4.663925 0.328375 0.1725 0.4353 0.1098
v 0.695956 -4.663925 0.473194 0.1725 0.4353 0.1098
v 0.591784 -4.663925 0.600128 0.1725 0.4353 0.1098
v 0.464849 -4.663925 0.704300 0.1725 0.4353 0.1098
v 0.320031 -4.663925 0.781707 0.1725 0.4392 0.1098
v 0.162894 -4.663925 0.829374 0.1569 0.5216 0.1255
v -0.103565 -7.322164 0.543114 0.1725 0.4353 0.1098
v 0.000357 -7.322164 0.553349 0.1725 0.4353 0.1098
v -0.203493 -7.322164 0.512801 0.1725 0.4353 0.1098
v -0.295588 -7.322164 0.463575 0.1725 0.4353 0.1098
v -0.376309 -7.322164 0.397329 0.1725 0.4353 0.1098
v -0.442556 -7.322164 0.316608 0.1725 0.4353 0.1098
v -0.491781 -7.322164 0.224513 0.1725 0.4353 0.1098
v -0.522094 -7.322164 0.124585 0.1725 0.4353 0.1098
v -0.532329 -7.322164 0.020663 0.1725 0.4353 0.1098
v -0.522094 -7.322164 -0.083259 0.1725 0.4353 0.1098
v -0.491781 -7.322164 -0.183187 0.1725 0.4353 0.1098
v -0.442556 -7.322164 -0.275282 0.1725 0.4353 0.1098
v -0.376309 -7.322164 -0.356003 0.1725 0.4353 0.1098
v -0.295588 -7.322164 -0.422250 0.1725 0.4353 0.1098
v -0.203493 -7.322164 -0.471475 0.1725 0.4353 0.1098
v -0.103565 -7.322164 -0.501788 0.1725 0.4353 0.1098
v 0.000357 -7.322164 -0.512024 0.1725 0.4353 0.1098
v 0.104279 -7.322164 -0.501788 0.1725 0.4353 0.1098
v 0.204207 -7.322164 -0.471475 0.1725 0.4353 0.1098
v 0.296302 -7.322164 -0.422250 0.1725 0.4353 0.1098
v 0.377023 -7.322164 -0.356003 0.1725 0.4353 0.1098
v 0.443270 -7.322164 -0.275282 0.1725 0.4353 0.1098
v 0.492495 -7.322164 -0.183187 0.1725 0.4353 0.1098
v 0.522808 -7.322164 -0.083259 0.1725 0.4353 0.1098
v 0.533043 -7.322164 0.020663 0.1725 0.4353 0.1098
v 0.522808 -7.322164 0.124585 0.1725 0.4353 0.1098
v 0.492495 -7.322164 0.224513 0.1725 0.4353 0.1098
v 0.443270 -7.322164 0.316608 0.1725 0.4353 0.1098
v 0.377023 -7.322164 0.397329 0.1725 0.4353 0.1098
v 0.296302 -7.322164 0.463575 0.1725 0.4353 0.1098
v 0.204207 -7.322164 0.512801 0.1725 0.4353 0.1098
v 0.104279 -7.322164 0.543114 0.1725 0.4353 0.1098
v -0.086777 -10.030988 0.474509 0.1530 0.5294 0.1255
v 0.001123 -10.030988 0.483167 0.1530 0.5294 0.1255
v -0.171299 -10.030988 0.448870 0.1530 0.5294 0.1255
v -0.249194 -10.030988 0.407234 0.1530 0.5294 0.1255
v -0.317470 -10.030988 0.351201 0.1530 0.5294 0.1255
v -0.373503 -10.030988 0.282925 0.1569 0.5137 0.1216
v -0.415139 -10.030988 0.205029 0.1725 0.4353 0.1098
v -0.440779 -10.030988 0.120507 0.1725 0.4353 0.1098
v -0.449436 -10.030988 0.032607 0.1725 0.4353 0.1098
v -0.440779 -10.030988 -0.055292 0.1725 0.4353 0.1098
v -0.415139 -10.030988 -0.139814 0.1725 0.4353 0.1098
v -0.373503 -10.030988 -0.217710 0.1725 0.4353 0.1098
v -0.317470 -10.030988 -0.285986 0.1725 0.4353 0.1098
v -0.249194 -10.030988 -0.342019 0.1725 0.4353 0.1098
v -0.171299 -10.030988 -0.383655 0.1725 0.4353 0.1098
v -0.086777 -10.030988 -0.409294 0.1725 0.4353 0.1098
v 0.001123 -10.030988 -0.417952 0.1725 0.4353 0.1098
v 0.089023 -10.030988 -0.409294 0.1725 0.4353 0.1098
v 0.173544 -10.030988 -0.383655 0.1725 0.4353 0.1098
v 0.251440 -10.030988 -0.342019 0.1725 0.4353 0.1098
v 0.319716 -10.030988 -0.285986 0.1725 0.4353 0.1098
v 0.375749 -10.030988 -0.217710 0.1725 0.4353 0.1098
v 0.417385 -10.030988 -0.139814 0.1725 0.4353 0.1098
v 0.443025 -10.030988 -0.055292 0.1725 0.4353 0.1098
v 0.451682 -10.030988 0.032607 0.1725 0.4353 0.1098
v 0.443025 -10.030988 0.120507 0.1725 0.4353 0.1098
v 0.417385 -10.030988 0.205029 0.1725 0.4353 0.1098
v 0.375749 -10.030988 0.282925 0.1725 0.4353 0.1098
v 0.319716 -10.030988 0.351201 0.1725 0.4353 0.1098
v 0.251440 -10.030988 0.407234 0.1725 0.4392 0.1098
v 0.173544 -10.030988 0.448870 0.1608 0.5019 0.1216
v 0.089023 -10.030988 0.474509 0.1530 0.5294 0.1255
v -0.001659 -4.868876 3.192592 0.1530 0.5294 0.1255
v 0.161674 -7.524181 0.020769 0.1725 0.4353 0.1098
v 0.000252 -3.190816 3.342935 0.1725 0.4353 0.1098
v 1.589751 -4.773170 2.758233 0.1725 0.4353 0.1098
v -1.666658 -3.102384 2.890117 0.1725 0.4353 0.1098
v 2.751601 -4.709564 1.584847 0.1725 0.4353 0.1098
v -2.883865 -3.032220 1.663275 0.1530 0.5294 0.1255
v 3.172574 -4.695103 -0.013158 0.1725 0.4353 0.1098
v -3.325219 -2.999125 -0.008861 0.1530 0.5294 0.1255
v 2.739871 -4.733660 -1.607597 0.1725 0.4353 0.1098
v -2.872460 -3.011967 -1.678244 0.1530 0.5255 0.1255
v 1.569434 -4.814904 -2.771243 0.1725 0.4353 0.1098
v -1.646904 -3.067304 -2.897563 0.1725 0.4353 0.1098
v -0.025119 -4.917067 -3.192297 0.1725 0.4353 0.1098
v 0.023063 -3.150310 -3.340104 0.1725 0.4353 0.1098
v -1.616530 -5.012774 -2.757938 0.1725 0.4353 0.1098
v 1.689973 -3.238741 -2.887286 0.1725 0.4353 0.1098
v -2.778380 -5.076379 -1.584552 0.1725 0.4353 0.1098
v 2.907180 -3.308905 -1.660444 0.1725 0.4353 0.1098
v -3.199353 -5.090840 0.013453 0.1530 0.5294 0.1255
v 3.348534 -3.342000 0.011692 0.1725 0.4353 0.1098
v -2.766649 -5.052283 1.607893 0.1530 0.5294 0.1255
v 2.895775 -3.329158 1.681075 0.1725 0.4353 0.1098
v -1.596213 -4.971039 2.771538 0.1530 0.5294 0.1255
v 1.670219 -3.273821 2.900394 0.1725 0.4353 0.1098
v -0.139890 -5.926427 -0.016987 0.1725 0.4353 0.1098
v 0.000136 -6.511706 2.671026 0.1725 0.4353 0.1098
v -0.208349 -8.354195 -0.255664 0.1725 0.4353 0.1098
v 1.325916 -6.596045 2.309522 0.1725 0.4353 0.1098
v 2.301215 -6.570509 1.337881 0.1725 0.4353 0.1098
v 2.664705 -6.441937 0.016454 0.1725 0.4353 0.1098
v 2.318987 -6.244781 -1.300683 0.1725 0.4353 0.1098
v 1.356696 -6.031870 -2.260606 0.1725 0.4353 0.1098
v 0.035678 -5.860250 -2.606104 0.1725 0.4353 0.1098
v -1.290102 -5.775910 -2.244599 0.1725 0.4353 0.1098
v -2.265402 -5.801447 -1.272959 0.1725 0.4353 0.1098
v -2.628891 -5.930019 0.048468 0.1725 0.4353 0.1098
v -2.283173 -6.127174 1.365606 0.1725 0.4353 0.1098
v -1.320882 -6.340086 2.325529 0.1530 0.5294 0.1255
v -1.057372 -9.109348 1.791963 0.1725 0.4353 0.1098
v -1.683281 -9.133126 1.080611 0.1530 0.5294 0.1255
v -1.869469 -9.169450 0.152004 0.1647 0.4823 0.1176
v -1.566046 -9.208585 -0.745037 0.1725 0.4353 0.1098
v -0.854315 -9.240045 -1.370153 0.1725 0.4353 0.1098
v 0.075016 -9.255400 -1.555842 0.1725 0.4353 0.1098
v 0.972934 -9.250535 -1.252350 0.1725 0.4353 0.1098
v 1.598842 -9.226755 -0.540998 0.1725 0.4353 0.1098
v 1.508625 -9.030536 0.270406 0.1725 0.4353 0.1098
v 1.205202 -8.991402 1.167448 0.1725 0.4353 0.1098
v 0.493472 -8.959943 1.792563 0.1530 0.5294 0.1255
v -0.055762 -10.690812 0.335803 0.1530 0.5294 0.1255
v -0.435859 -8.944588 1.978253 0.1530 0.5294 0.1255
v -0.035614 -7.314887 2.172865 0.1725 0.4353 0.1098
v 0.092877 -9.878214 0.089095 0.1725 0.4353 0.1098
v 1.048986 -7.269727 1.894995 0.1725 0.4353 0.1098
v 1.850668 -7.260226 1.112077 0.1725 0.4353 0.1098
v 2.154622 -7.288928 0.033892 0.1725 0.4353 0.1098
v 1.879405 -7.348144 -1.050660 0.1725 0.4353 0.1098
v 1.098759 -7.422007 -1.850974 0.1725 0.4353 0.1098
v 0.021859 -7.490725 -2.152607 0.1725 0.4353 0.1098
v -1.062740 -7.535884 -1.874737 0.1725 0.4353 0.1098
v -1.864423 -7.545386 -1.091819 0.1725 0.4353 0.1098
v -2.168377 -7.516683 -0.013634 0.1530 0.5294 0.1255
v -1.893159 -7.457467 1.070917 0.1530 0.5294 0.1255
v -1.112514 -7.383604 1.871232 0.1725 0.4353 0.1098
v 0.771540 -9.958784 -0.102598 0.1725 0.4353 0.1098
v -0.620585 -3.151912 0.626329 0.1725 0.4353 0.1098
v -0.729620 -3.151912 0.493469 0.1725 0.4353 0.1098
v -0.487725 -3.151912 -0.722621 0.1725 0.4353 0.1098
v -0.336146 -3.151912 -0.803641 0.1725 0.4353 0.1098
v 0.809385 -3.151912 -0.329147 0.1725 0.4353 0.1098
v 0.859278 -3.151912 -0.164674 0.1725 0.4353 0.1098
v -0.000628 -3.151912 0.883124 0.1725 0.4353 0.1098
v -0.171673 -3.151912 0.866277 0.1725 0.4353 0.1098
v 0.170418 -3.151912 0.866277 0.1725 0.4353 0.1098
v -0.860533 -3.151912 -0.164674 0.1725 0.4353 0.1098
v -0.810641 -3.151912 -0.329147 0.1725 0.4353 0.1098
v 0.334891 -3.151912 -0.803641 0.1725 0.4353 0.1098
v 0.486470 -3.151912 -0.722621 0.1725 0.4353 0.1098
v 0.728365 -3.151912 0.493469 0.1725 0.4353 0.1098
v 0.619330 -3.151912 0.626329 0.1725 0.4353 0.1098
v -0.810641 -3.151912 0.341890 0.1725 0.4353 0.1098
v -0.171673 -3.151912 -0.853533 0.1725 0.4353 0.1098
v 0.876124 -3.151912 0.006372 0.1725 0.4353 0.1098
v -0.336146 -3.151912 0.816385 0.1725 0.4353 0.1098
v -0.729620 -3.151912 -0.480725 0.1725 0.4353 0.1098
v 0.619330 -3.151912 -0.613585 0.1725 0.4353 0.1098
v 0.486470 -3.151912 0.735364 0.1725 0.4353 0.1098
v -0.860533 -3.151912 0.177418 0.1725 0.4353 0.1098
v -0.000628 -3.151912 -0.870380 0.1725 0.4353 0.1098
v 0.859278 -3.151912 0.177418 0.1725 0.4353 0.1098
v -0.487725 -3.151912 0.735364 0.1725 0.4353 0.1098
v -0.620585 -3.151912 -0.613585 0.1725 0.4353 0.1098
v 0.728365 -3.151912 -0.480725 0.1725 0.4353 0.1098
v 0.334891 -3.151912 0.816385 0.1725 0.4353 0.1098
v -0.877379 -3.151912 0.006372 0.1725 0.4353 0.1098
v 0.170418 -3.151912 -0.853533 0.1725 0.4353 0.1098
v 0.809385 -3.151912 0.341890 0.1725 0.4353 0.1098
vn -0.0000 0.6857 0.7279
vn -0.0000 -0.0000 1.0000
vn -0.1420 0.6857 0.7139
vn -0.1951 -0.0000 0.9808
vn -0.2785 0.6857 0.6725
vn -0.3827 -0.0000 0.9239
vn -0.4044 0.6857 0.6052
vn -0.5556 -0.0000 0.8315
vn -0.5147 0.6857 0.5147
vn -0.7071 -0.0000 0.7071
vn -0.6052 0.6857 0.4044
vn -0.8315 -0.0000 0.5556
vn -0.6725 0.6857 0.2785
vn -0.9239 -0.0000 0.3827
vn -0.7139 0.6857 0.1420
vn -0.9808 -0.0000 0.1951
vn -0.7279 0.6857 -0.0000
vn -1.0000 -0.0000 -0.0000
vn -0.7139 0.6857 -0.1420
vn -0.9808 -0.0000 -0.1951
vn -0.6725 0.6857 -0.2785
vn -0.9239 -0.0000 -0.3827
vn -0.6052 0.6857 -0.4044
vn -0.8315 -0.0000 -0.5556
vn -0.5147 0.6857 -0.5147
vn -0.7071 -0.0000 -0.7071
vn -0.4044 0.6857 -0.6052
vn -0.5556 -0.0000 -0.8315
vn -0.2785 0.6857 -0.6725
vn -0.3827 -0.0000 -0.9239
vn -0.1420 0.6857 -0.7139
vn -0.1951 -0.0000 -0.9808
vn -0.0000 0.6857 -0.7279
vn -0.0000 -0.0000 -1.0000
vn 0.1420 0.6857 -0.7139
vn 0.1951 -0.0000 -0.9808
vn 0.2785 0.6857 -0.6725
vn 0.3827 -0.0000 -0.9239
vn 0.4044 0.6857 -0.6052
vn 0.5556 -0.0000 -0.8315
vn 0.5147 0.6857 -0.5147
vn 0.7071 -0.0000 -0.7071
vn 0.6052 0.6857 -0.4044
vn 0.8315 -0.0000 -0.5556
vn 0.6725 0.6857 -0.2785
vn 0.9239 -0.0000 -0.3827
vn 0.7139 0.6857 -0.1420
vn 0.9808 -0.0000 -0.1951
vn 0.7279 0.6857 -0.0000
vn 1.0000 -0.0000 -0.0000
vn 0.7139 0.6857 0.1420
vn 0.9808 -0.0000 0.1951
vn 0.6725 0.6857 0.2785
vn 0.9239 -0.0000 0.3827
vn 0.6052 0.6857 0.4044
vn 0.8315 -0.0000 0.5556
vn 0.5147 0.6857 0.5147
vn 0.7071 -0.0000 0.7071
vn 0.4044 0.6857 0.6052
vn 0.5556 -0.0000 0.8315
vn 0.2785 0.6857 0.6725
vn 0.3827 -0.0000 0.9239
vn 0.1420 0.6857 0.7139
vn 0.1951 -0.0000 0.9808
vn 0.0001 -0.5979 0.8016
vn -0.1564 -0.5979 0.7861
vn -0.3070 -0.5976 0.7407
vn -0.4459 -0.5971 0.6668
vn -0.5680 -0.5963 0.5673
vn -0.3887 -0.6487 0.6543
vn -0.4587 -0.7222 0.5177
vn -0.6822 -0.7185 0.1355
vn -0.6952 -0.7188 -0.0002
vn -0.6814 -0.7192 -0.1358
vn -0.6415 -0.7196 -0.2660
vn -0.5770 -0.7199 -0.3858
vn -0.4904 -0.7202 -0.4907
vn -0.3851 -0.7205 -0.5767
vn -0.2652 -0.7207 -0.6405
vn -0.1351 -0.7209 -0.6798
vn -0.0000 -0.7210 -0.6930
vn 0.1352 -0.7210 -0.6797
vn 0.2652 -0.7209 -0.6403
vn 0.3850 -0.7207 -0.5765
vn 0.4902 -0.7205 -0.4905
vn 0.5767 -0.7202 -0.3856
vn 0.6412 -0.7199 -0.2658
vn 0.6810 -0.7196 -0.1357
vn 0.6948 -0.7192 -0.0002
vn 0.6819 -0.7188 0.1354
vn 0.6427 -0.7185 0.2660
vn 0.3488 -0.7222 0.5973
vn 0.2535 -0.6487 0.7176
vn 0.4464 -0.5963 0.6672
vn 0.3073 -0.5971 0.7410
vn 0.1566 -0.5976 0.7863
vn -0.6857 -0.2150 0.6954
vn -0.5840 -0.6450 0.4929
vn -0.6322 -0.7645 0.1260
vn -0.6442 -0.7649 0.0003
vn -0.6314 -0.7653 -0.1253
vn -0.5944 -0.7656 -0.2459
vn -0.5347 -0.7660 -0.3569
vn -0.4545 -0.7663 -0.4541
vn -0.3569 -0.7666 -0.5338
vn -0.2458 -0.7668 -0.5929
vn -0.1253 -0.7670 -0.6293
vn -0.0000 -0.7671 -0.6416
vn 0.1252 -0.7671 -0.6292
vn 0.2456 -0.7670 -0.5928
vn 0.3567 -0.7668 -0.5336
vn 0.4542 -0.7666 -0.4539
vn 0.5343 -0.7663 -0.3567
vn 0.5940 -0.7660 -0.2458
vn 0.6310 -0.7656 -0.1252
vn 0.6437 -0.7653 0.0003
vn 0.6317 -0.7649 0.1260
vn 0.5954 -0.7645 0.2469
vn 0.4766 -0.6450 0.5973
vn 0.5369 -0.2150 0.8158
vn -0.1611 -0.5637 0.8101
vn -0.1796 -0.3913 0.9026
vn -0.1809 -0.3744 0.9095
vn -0.3160 -0.5634 0.7633
vn -0.3524 -0.3910 0.8503
vn -0.3548 -0.3741 0.8568
vn -0.3037 -0.6445 0.7017
vn -0.3240 -0.4147 0.8503
vn -0.4449 -0.3243 0.8348
vn -0.3355 -0.7900 0.5132
vn -0.4492 -0.5204 0.7262
vn -0.6194 -0.2368 0.7485
vn -0.4412 -0.7584 0.4798
vn -0.6992 -0.5404 0.4681
vn -0.8165 -0.1890 0.5455
vn -0.6655 -0.5598 0.4937
vn -0.7253 -0.5615 0.3982
vn -0.8859 -0.1480 0.4396
vn -0.8748 -0.4382 0.2066
vn -0.8597 -0.4256 0.2824
vn -0.9640 -0.0550 0.2600
vn -0.8933 -0.4494 -0.0005
vn -0.9038 -0.4279 0.0004
vn -0.8767 -0.4481 -0.1749
vn -0.8871 -0.4267 -0.1760
vn -0.8263 -0.4468 -0.3428
vn -0.8362 -0.4255 -0.3459
vn -0.7441 -0.4456 -0.4978
vn -0.7531 -0.4244 -0.5027
vn -0.6331 -0.4445 -0.6337
vn -0.6409 -0.4234 -0.6404
vn -0.4976 -0.4436 -0.7454
vn -0.5038 -0.4225 -0.7534
vn -0.3429 -0.4429 -0.8284
vn -0.3472 -0.4218 -0.8376
vn -0.1748 -0.4423 -0.8796
vn -0.1771 -0.4214 -0.8894
vn 0.0001 -0.4421 -0.8970
vn -0.0000 -0.4211 -0.9070
vn 0.1749 -0.4421 -0.8797
vn 0.1770 -0.4211 -0.8896
vn 0.3431 -0.4423 -0.8286
vn 0.3472 -0.4214 -0.8378
vn 0.4979 -0.4429 -0.7456
vn 0.5039 -0.4218 -0.7537
vn 0.6335 -0.4436 -0.6340
vn 0.6411 -0.4225 -0.6407
vn 0.7446 -0.4445 -0.4980
vn 0.7535 -0.4234 -0.5030
vn 0.8269 -0.4456 -0.3430
vn 0.8367 -0.4244 -0.3461
vn 0.8773 -0.4468 -0.1750
vn 0.8877 -0.4255 -0.1761
vn 0.8940 -0.4481 -0.0005
vn 0.9044 -0.4267 0.0004
vn 0.8763 -0.4494 0.1738
vn 0.8864 -0.4279 0.1768
vn 0.8177 -0.4382 0.3733
vn 0.7881 -0.4256 0.4447
vn 0.8948 -0.0550 0.4431
vn 0.5564 -0.5598 0.6140
vn 0.6337 -0.5615 0.5321
vn 0.7831 -0.1480 0.6040
vn 0.3391 -0.7584 0.5566
vn 0.5944 -0.5404 0.5955
vn 0.6944 -0.1890 0.6943
vn 0.2289 -0.7900 0.5687
vn 0.2989 -0.5204 0.7999
vn 0.4615 -0.2368 0.8549
vn 0.1610 -0.6445 0.7474
vn 0.1519 -0.4147 0.8972
vn 0.2735 -0.3243 0.9056
vn 0.1610 -0.5634 0.8103
vn 0.1797 -0.3910 0.9027
vn 0.1808 -0.3741 0.9096
vn -0.0000 -0.3744 0.9273
vn 0.0001 -0.3913 0.9203
vn -0.0001 -0.5637 0.8260
vn -0.1947 -0.0670 0.9786
vn -0.0000 -0.0669 0.9978
vn -0.3819 -0.0672 0.9218
vn -0.5544 -0.0675 0.8295
vn -0.7055 -0.0679 0.7054
vn -0.8296 -0.0684 0.5542
vn -0.9217 -0.0689 0.3817
vn -0.9784 -0.0694 0.1945
vn -0.9975 -0.0700 -0.0001
vn -0.9783 -0.0705 -0.1947
vn -0.9215 -0.0711 -0.3818
vn -0.8293 -0.0715 -0.5542
vn -0.7052 -0.0719 -0.7053
vn -0.5541 -0.0723 -0.8293
vn -0.3816 -0.0725 -0.9215
vn -0.1946 -0.0726 -0.9782
vn -0.0000 -0.0726 -0.9974
vn 0.1945 -0.0725 -0.9782
vn 0.3816 -0.0723 -0.9215
vn 0.5541 -0.0720 -0.8293
vn 0.7052 -0.0717 -0.7054
vn 0.8293 -0.0712 -0.5542
vn 0.9215 -0.0707 -0.3818
vn 0.9783 -0.0702 -0.1947
vn 0.9976 -0.0696 -0.0001
vn 0.9785 -0.0690 0.1945
vn 0.9217 -0.0685 0.3817
vn 0.8296 -0.0681 0.5542
vn 0.7055 -0.0676 0.7054
vn 0.5544 -0.0673 0.8296
vn 0.3819 -0.0671 0.9218
vn 0.1947 -0.0670 0.9786
vn -0.1946 -0.0680 0.9785
vn -0.0000 -0.0678 0.9977
vn -0.3818 -0.0683 0.9217
vn -0.5542 -0.0687 0.8295
vn -0.7054 -0.0694 0.7054
vn -0.8294 -0.0701 0.5542
vn -0.9215 -0.0709 0.3817
vn -0.9783 -0.0718 0.1946
vn -0.9974 -0.0727 -0.0000
vn -0.9781 -0.0736 -0.1945
vn -0.9213 -0.0744 -0.3816
vn -0.8291 -0.0752 -0.5540
vn -0.7051 -0.0759 -0.7051
vn -0.5540 -0.0764 -0.8290
vn -0.3816 -0.0767 -0.9212
vn -0.1945 -0.0769 -0.9779
vn -0.0000 -0.0770 -0.9970
vn 0.1945 -0.0768 -0.9779
vn 0.3816 -0.0765 -0.9212
vn 0.5540 -0.0760 -0.8291
vn 0.7051 -0.0754 -0.7051
vn 0.8292 -0.0747 -0.5540
vn 0.9214 -0.0739 -0.3816
vn 0.9782 -0.0730 -0.1946
vn 0.9974 -0.0721 -0.0000
vn 0.9783 -0.0712 0.1946
vn 0.9216 -0.0704 0.3817
vn 0.8294 -0.0696 0.5542
vn 0.7054 -0.0689 0.7054
vn 0.5543 -0.0684 0.8295
vn 0.3818 -0.0680 0.9217
vn 0.1946 -0.0678 0.9785
vn -0.1402 -0.6951 0.7051
vn -0.0000 -0.6951 0.7190
vn -0.2750 -0.6952 0.6641
vn -0.3992 -0.6954 0.5976
vn -0.5079 -0.6956 0.5081
vn -0.5971 -0.6958 0.3992
vn -0.6632 -0.6961 0.2749
vn -0.7038 -0.6964 0.1402
vn -0.7173 -0.6967 0.0002
vn -0.7033 -0.6970 -0.1397
vn -0.6623 -0.6973 -0.2741
vn -0.5958 -0.6976 -0.3979
vn -0.5066 -0.6978 -0.5064
vn -0.3979 -0.6980 -0.5954
vn -0.2740 -0.6981 -0.6614
vn -0.1397 -0.6982 -0.7021
vn -0.0000 -0.6982 -0.7159
vn 0.1397 -0.6982 -0.7022
vn 0.2741 -0.6981 -0.6615
vn 0.3980 -0.6979 -0.5954
vn 0.5067 -0.6977 -0.5065
vn 0.5960 -0.6974 -0.3980
vn 0.6624 -0.6971 -0.2742
vn 0.7035 -0.6968 -0.1397
vn 0.7175 -0.6965 0.0002
vn 0.7040 -0.6962 0.1402
vn 0.6634 -0.6959 0.2750
vn 0.5972 -0.6957 0.3992
vn 0.5080 -0.6954 0.5082
vn 0.3992 -0.6953 0.5977
vn 0.2750 -0.6951 0.6642
vn 0.1402 -0.6951 0.7051
vn -0.0153 0.3041 0.9525
vn 0.0638 -0.9979 0.0075
vn 0.0123 0.2911 0.9566
vn 0.4607 0.3331 0.8227
vn -0.4640 0.3167 0.8273
vn 0.8083 0.3524 0.4717
vn -0.8119 0.3370 0.4767
vn 0.9342 0.3568 -0.0062
vn -0.9380 0.3466 -0.0011
vn 0.8047 0.3451 -0.4830
vn -0.8086 0.3429 -0.4781
vn 0.4546 0.3204 -0.8310
vn -0.4584 0.3268 -0.8265
vn -0.0223 0.2895 -0.9569
vn 0.0188 0.3028 -0.9529
vn -0.4983 0.2605 -0.8270
vn 0.4951 0.2772 -0.8234
vn -0.8457 0.2413 -0.4760
vn 0.8428 0.2569 -0.4729
vn -0.9715 0.2369 0.0017
vn 0.9689 0.2474 0.0048
vn -0.8422 0.2485 0.4785
vn 0.8396 0.2511 0.4817
vn -0.4922 0.2731 0.8265
vn 0.4895 0.2671 0.8301
vn -0.0528 -0.9986 -0.0064
vn 0.0234 0.1754 0.9842
vn -0.0990 -0.9871 -0.1261
vn 0.4989 0.1449 0.8545
vn 0.8486 0.1541 0.5061
vn 0.9791 0.2007 0.0320
vn 0.8551 0.2723 -0.4411
vn 0.5095 0.3498 -0.7862
vn 0.0351 0.4124 -0.9103
vn -0.4407 0.4431 -0.7806
vn -0.7907 0.4338 -0.4320
vn -0.9211 0.3870 0.0424
vn -0.7968 0.3151 0.5156
vn -0.4510 0.2377 0.8603
vn -0.4480 0.2713 0.8519
vn -0.8857 0.3111 0.3447
vn -0.9508 0.2834 -0.1255
vn -0.7870 0.2593 -0.5598
vn -0.4408 0.2438 -0.8639
vn 0.0114 0.2403 -0.9706
vn 0.4701 0.2504 -0.8464
vn 0.9373 0.2277 -0.2639
vn 0.8743 0.4328 0.2199
vn 0.7821 0.3897 0.4863
vn 0.3882 0.3977 0.8314
vn 0.0399 -0.9955 0.0865
vn 0.0297 0.4301 0.9023
vn -0.0300 0.4009 0.9156
vn 0.0452 -0.9983 0.0358
vn 0.4363 0.4192 0.7962
vn 0.7808 0.4231 0.4597
vn 0.9114 0.4114 -0.0037
vn 0.7931 0.3874 -0.4700
vn 0.4574 0.3575 -0.8143
vn -0.0058 0.3297 -0.9441
vn -0.4721 0.3114 -0.8247
vn -0.8168 0.3076 -0.4881
vn -0.9474 0.3192 -0.0246
vn -0.8289 0.3431 0.4418
vn -0.4931 0.3730 0.7859
vn 0.6349 -0.7680 -0.0843
vn -0.7071 -0.0126 0.7070
vn -0.8314 -0.0127 0.5555
vn -0.5555 -0.0133 -0.8314
vn -0.3826 -0.0134 -0.9238
vn 0.9238 -0.0131 -0.3827
vn 0.9807 -0.0130 -0.1951
vn -0.0000 -0.0124 0.9999
vn -0.1951 -0.0125 0.9807
vn 0.1951 -0.0124 0.9807
vn -0.9807 -0.0130 -0.1951
vn -0.9238 -0.0131 -0.3827
vn 0.3826 -0.0133 -0.9238
vn 0.5555 -0.0133 -0.8314
vn 0.8314 -0.0126 0.5555
vn 0.7071 -0.0126 0.7070
vn -0.9238 -0.0128 0.3826
vn -0.1951 -0.0134 -0.9807
vn 0.9999 -0.0129 -0.0000
vn -0.3827 -0.0125 0.9238
vn -0.8314 -0.0132 -0.5555
vn 0.7070 -0.0132 -0.7071
vn 0.5555 -0.0125 0.8314
vn -0.9807 -0.0129 0.1950
vn -0.0000 -0.0134 -0.9999
vn 0.9807 -0.0128 0.1950
vn -0.5555 -0.0125 0.8314
vn -0.7070 -0.0133 -0.7071
vn 0.8314 -0.0132 -0.5555
vn 0.3827 -0.0125 0.9238
vn -0.9999 -0.0130 -0.0000
vn 0.1951 -0.0134 -0.9807
vn 0.9238 -0.0127 0.3826
vt 0.229243 0.876384
vt 0.232344 0.869067
vt 0.224359 0.866695
vt 0.222002 0.872546
vt 0.233764 0.861243
vt 0.225495 0.860491
vt 0.233660 0.853305
vt 0.225377 0.854185
vt 0.232051 0.845544
vt 0.224225 0.847973
vt 0.228929 0.838247
vt 0.221704 0.842196
vt 0.224435 0.831716
vt 0.218113 0.837012
vt 0.218752 0.826194
vt 0.213585 0.832624
vt 0.212104 0.821893
vt 0.208294 0.829204
vt 0.204752 0.818976
vt 0.202443 0.826882
vt 0.196982 0.817550
vt 0.196259 0.825745
vt 0.189096 0.817666
vt 0.189980 0.825833
vt 0.181395 0.819311
vt 0.183847 0.827139
vt 0.174172 0.822416
vt 0.178094 0.829609
vt 0.167698 0.826858
vt 0.172937 0.833147
vt 0.162216 0.832466
vt 0.168575 0.837617
vt 0.157926 0.839025
vt 0.165174 0.842850
vt 0.154982 0.846285
vt 0.162869 0.848649
vt 0.153471 0.853967
vt 0.161541 0.854757
vt 0.153509 0.861813
vt 0.161627 0.860994
vt 0.155082 0.869500
vt 0.162923 0.867103
vt 0.158116 0.876744
vt 0.165394 0.872847
vt 0.162478 0.883283
vt 0.168780 0.878130
vt 0.168065 0.888845
vt 0.173262 0.882508
vt 0.174638 0.893204
vt 0.178517 0.885945
vt 0.181946 0.896205
vt 0.184348 0.888297
vt 0.189708 0.897735
vt 0.190535 0.889457
vt 0.197626 0.897755
vt 0.196847 0.889589
vt 0.205410 0.896194
vt 0.203012 0.888292
vt 0.212735 0.893125
vt 0.208814 0.885814
vt 0.219321 0.888676
vt 0.214016 0.882236
vt 0.937222 0.837557
vt 0.964017 0.890048
vt 0.974762 0.882913
vt 0.938421 0.836854
vt 0.224915 0.883039
vt 0.218568 0.877843
vt 0.518396 0.874539
vt 0.515546 0.869673
vt 0.512073 0.865070
vt 0.507717 0.861246
vt 0.502645 0.858355
vt 0.497081 0.856536
vt 0.491211 0.855898
vt 0.485358 0.856450
vt 0.479745 0.858185
vt 0.474581 0.861021
vt 0.470024 0.864795
vt 0.466337 0.869376
vt 0.463648 0.874579
vt 0.462056 0.880216
vt 0.461540 0.886071
vt 0.462185 0.891882
vt 0.463965 0.897449
vt 0.466807 0.902554
vt 0.470503 0.907138
vt 0.475068 0.910902
vt 0.480254 0.913721
vt 0.485904 0.915438
vt 0.491803 0.915996
vt 0.497708 0.915356
vt 0.503383 0.913536
vt 0.508594 0.910599
vt 0.513047 0.906674
vt 0.516610 0.901910
vt 0.519112 0.896590
vt 0.520476 0.890940
vt 0.520869 0.885238
vt 0.520166 0.879753
vt 0.552113 0.848414
vt 0.557271 0.859017
vt 0.585418 0.847521
vt 0.576689 0.833097
vt 0.545139 0.838558
vt 0.566585 0.820513
vt 0.535554 0.828753
vt 0.555927 0.809430
vt 0.524743 0.818867
vt 0.544823 0.798711
vt 0.510284 0.808463
vt 0.509754 0.781762
vt 0.491274 0.805613
vt 0.489489 0.782053
vt 0.475276 0.808212
vt 0.469182 0.785405
vt 0.460403 0.813645
vt 0.450108 0.792643
vt 0.447097 0.821714
vt 0.433072 0.803376
vt 0.435798 0.832067
vt 0.418706 0.817056
vt 0.426869 0.844247
vt 0.407491 0.833033
vt 0.420566 0.857730
vt 0.399743 0.850579
vt 0.417022 0.871963
vt 0.395592 0.868930
vt 0.416256 0.886409
vt 0.394966 0.887348
vt 0.418200 0.900578
vt 0.397595 0.905197
vt 0.422789 0.914054
vt 0.403030 0.922073
vt 0.428825 0.927038
vt 0.410739 0.938002
vt 0.437299 0.938713
vt 0.421153 0.952899
vt 0.448004 0.948749
vt 0.434433 0.966075
vt 0.460684 0.956722
vt 0.450398 0.976823
vt 0.474977 0.962203
vt 0.468637 0.984495
vt 0.490416 0.964817
vt 0.488567 0.988544
vt 0.506440 0.964272
vt 0.509482 0.988544
vt 0.522424 0.960377
vt 0.530574 0.984207
vt 0.537712 0.953055
vt 0.550964 0.975407
vt 0.552181 0.939532
vt 0.569710 0.962253
vt 0.557859 0.921887
vt 0.586384 0.925693
vt 0.560699 0.907304
vt 0.588449 0.910468
vt 0.562611 0.893745
vt 0.590079 0.895496
vt 0.562625 0.881708
vt 0.590563 0.879901
vt 0.560851 0.870130
vt 0.589150 0.863901
vt 0.097596 0.430681
vt 0.097596 0.424389
vt 0.092229 0.424389
vt 0.092229 0.430681
vt 0.250671 0.904042
vt 0.258682 0.891811
vt 0.246923 0.885666
vt 0.240329 0.895599
vt 0.237181 0.880566
vt 0.231845 0.888682
vt 0.114358 0.385510
vt 0.114358 0.391802
vt 0.119725 0.391802
vt 0.119725 0.385510
vt 0.240356 0.914363
vt 0.231923 0.904026
vt 0.224999 0.895580
vt 0.103674 0.430681
vt 0.103674 0.424389
vt 0.098307 0.424389
vt 0.098307 0.430681
vt 0.228237 0.922386
vt 0.222038 0.910614
vt 0.216933 0.900992
vt 0.114358 0.420519
vt 0.114358 0.426811
vt 0.119725 0.426811
vt 0.119725 0.420519
vt 0.214826 0.927838
vt 0.211077 0.915118
vt 0.207972 0.904709
vt 0.076399 0.385510
vt 0.076399 0.401315
vt 0.081271 0.399063
vt 0.085442 0.394352
vt 0.200659 0.930546
vt 0.199475 0.917379
vt 0.198470 0.906589
vt 0.094844 0.385510
vt 0.086152 0.385510
vt 0.087992 0.398023
vt 0.094284 0.398023
vt 0.186285 0.930438
vt 0.187688 0.917328
vt 0.188809 0.906569
vt 0.104956 0.397894
vt 0.113648 0.397894
vt 0.111769 0.385510
vt 0.105477 0.385510
vt 0.172243 0.927546
vt 0.176161 0.914989
vt 0.179350 0.904676
vt 0.094844 0.398733
vt 0.086152 0.398733
vt 0.088045 0.410983
vt 0.094336 0.410983
vt 0.159056 0.921994
vt 0.165330 0.910461
vt 0.170454 0.900987
vt 0.076048 0.414140
vt 0.084740 0.414140
vt 0.082861 0.402025
vt 0.076569 0.402025
vt 0.147220 0.913997
vt 0.155602 0.903923
vt 0.162458 0.895644
vt 0.104246 0.411693
vt 0.095554 0.411693
vt 0.097394 0.423679
vt 0.103686 0.423679
vt 0.137185 0.903866
vt 0.147347 0.895630
vt 0.155668 0.888853
vt 0.066646 0.426718
vt 0.075338 0.426718
vt 0.073562 0.414851
vt 0.067271 0.414851
vt 0.129329 0.892001
vt 0.140877 0.885908
vt 0.150346 0.880885
vt 0.000355 0.435367
vt 0.009047 0.435367
vt 0.007357 0.423605
vt 0.001066 0.423605
vt 0.123935 0.878864
vt 0.136424 0.875133
vt 0.146672 0.872049
vt 0.027851 0.423605
vt 0.019159 0.423605
vt 0.020744 0.435282
vt 0.027035 0.435282
vt 0.121193 0.864955
vt 0.134147 0.863715
vt 0.144783 0.862678
vt 0.037253 0.423605
vt 0.028561 0.423605
vt 0.030026 0.435218
vt 0.036317 0.435218
vt 0.121193 0.850802
vt 0.134125 0.852087
vt 0.144751 0.853125
vt 0.047365 0.435179
vt 0.056056 0.435179
vt 0.054721 0.423605
vt 0.048430 0.423605
vt 0.123918 0.836937
vt 0.136349 0.840688
vt 0.146574 0.843762
vt 0.104956 0.435836
vt 0.113648 0.435836
vt 0.112448 0.424275
vt 0.106156 0.424275
vt 0.129249 0.823863
vt 0.140726 0.829935
vt 0.150165 0.834925
vt 0.065458 0.423605
vt 0.056766 0.423605
vt 0.057831 0.435179
vt 0.064123 0.435179
vt 0.136991 0.812051
vt 0.147092 0.820222
vt 0.155394 0.826943
vt 0.046654 0.423605
vt 0.037963 0.423605
vt 0.038898 0.435218
vt 0.045189 0.435218
vt 0.146867 0.801932
vt 0.155217 0.811909
vt 0.162072 0.820115
vt 0.009757 0.435282
vt 0.018449 0.435282
vt 0.017633 0.423605
vt 0.011342 0.423605
vt 0.158530 0.793885
vt 0.164809 0.805310
vt 0.169954 0.814701
vt 0.084740 0.414851
vt 0.076048 0.414851
vt 0.076759 0.426613
vt 0.083050 0.426613
vt 0.171560 0.788227
vt 0.175518 0.800682
vt 0.178751 0.810911
vt 0.104956 0.423565
vt 0.113648 0.423565
vt 0.113023 0.411698
vt 0.106732 0.411698
vt 0.185481 0.785192
vt 0.186948 0.798213
vt 0.188134 0.808898
vt 0.086152 0.423679
vt 0.094844 0.423679
vt 0.094284 0.411693
vt 0.087992 0.411693
vt 0.199771 0.784924
vt 0.198668 0.798016
vt 0.197747 0.808749
vt 0.066646 0.414140
vt 0.075338 0.414140
vt 0.074817 0.402025
vt 0.068525 0.402025
vt 0.213879 0.787460
vt 0.210228 0.800114
vt 0.207223 0.810480
vt 0.095554 0.410983
vt 0.104246 0.410983
vt 0.103738 0.398733
vt 0.097447 0.398733
vt 0.227251 0.792729
vt 0.221176 0.804444
vt 0.216192 0.814035
vt 0.104956 0.410988
vt 0.113648 0.410988
vt 0.113127 0.398604
vt 0.106835 0.398604
vt 0.239348 0.800543
vt 0.231076 0.810848
vt 0.224302 0.819284
vt 0.095554 0.398023
vt 0.104246 0.398023
vt 0.103686 0.385510
vt 0.097394 0.385510
vt 0.249678 0.810604
vt 0.239533 0.819083
vt 0.231232 0.826026
vt 0.075689 0.401315
vt 0.075689 0.385510
vt 0.066646 0.394352
vt 0.070818 0.399063
vt 0.257815 0.822510
vt 0.246205 0.828823
vt 0.236705 0.834002
vt 0.114358 0.399514
vt 0.114358 0.405805
vt 0.119725 0.405805
vt 0.119725 0.399514
vt 0.263437 0.835770
vt 0.250829 0.839680
vt 0.240506 0.842900
vt 0.086152 0.424389
vt 0.086152 0.430681
vt 0.091519 0.430681
vt 0.091519 0.424389
vt 0.266347 0.849840
vt 0.253233 0.851218
vt 0.242485 0.852362
vt 0.114358 0.406516
vt 0.114358 0.412807
vt 0.119725 0.412807
vt 0.119725 0.406516
vt 0.266485 0.864174
vt 0.253338 0.862996
vt 0.242589 0.862033
vt 0.119725 0.398804
vt 0.119725 0.392512
vt 0.114358 0.392512
vt 0.114358 0.398804
vt 0.263915 0.878270
vt 0.251126 0.874570
vt 0.240804 0.871562
vt 0.114358 0.413517
vt 0.114358 0.419809
vt 0.119725 0.419809
vt 0.119725 0.413517
vt 0.527852 0.878090
vt 0.525679 0.871622
vt 0.547390 0.873164
vt 0.544712 0.864064
vt 0.528993 0.884923
vt 0.548701 0.882538
vt 0.529106 0.892190
vt 0.548666 0.891747
vt 0.527333 0.899539
vt 0.543519 0.904115
vt 0.524217 0.906534
vt 0.540411 0.914700
vt 0.519651 0.912927
vt 0.534736 0.925020
vt 0.513578 0.917916
vt 0.520162 0.927508
vt 0.506816 0.921749
vt 0.511349 0.932534
vt 0.499418 0.924087
vt 0.501614 0.935524
vt 0.491719 0.924864
vt 0.491537 0.936427
vt 0.484055 0.924071
vt 0.481571 0.935273
vt 0.476740 0.921778
vt 0.472123 0.932181
vt 0.470053 0.918104
vt 0.463544 0.927342
vt 0.464224 0.913239
vt 0.456113 0.920999
vt 0.459465 0.907359
vt 0.450044 0.913429
vt 0.455896 0.900719
vt 0.445457 0.904921
vt 0.453678 0.893533
vt 0.442736 0.895651
vt 0.452882 0.886046
vt 0.441745 0.886049
vt 0.453535 0.878533
vt 0.442569 0.876401
vt 0.455624 0.871272
vt 0.445234 0.867043
vt 0.459101 0.864541
vt 0.449689 0.858331
vt 0.463856 0.858604
vt 0.455804 0.850619
vt 0.469706 0.853703
vt 0.463368 0.844239
vt 0.476417 0.850047
vt 0.472094 0.839489
vt 0.483731 0.847803
vt 0.481623 0.836623
vt 0.491345 0.847040
vt 0.491484 0.835819
vt 0.499100 0.847757
vt 0.504544 0.829625
vt 0.506439 0.850405
vt 0.514911 0.834645
vt 0.512943 0.854332
vt 0.523446 0.841361
vt 0.518547 0.859333
vt 0.534656 0.848406
vt 0.522634 0.865388
vt 0.540242 0.855747
vt 0.016900 0.163140
vt 0.031131 0.352366
vt 0.031940 0.354162
vt 0.012449 0.158144
vt 0.927056 0.832927
vt 0.870465 0.849152
vt 0.875422 0.861052
vt 0.927546 0.834231
vt 0.933622 0.824041
vt 0.928849 0.765318
vt 0.916187 0.767832
vt 0.932218 0.824246
vt 0.940854 0.833566
vt 0.997082 0.851688
vt 0.999626 0.838981
vt 0.941195 0.832204
vt 0.999645 0.826087
vt 0.941264 0.830795
vt 0.930410 0.837221
vt 0.901745 0.888869
vt 0.913670 0.893804
vt 0.931717 0.837815
vt 0.928646 0.826446
vt 0.883671 0.788191
vt 0.876480 0.798951
vt 0.927809 0.827565
vt 0.939807 0.826900
vt 0.986051 0.790237
vt 0.976908 0.781081
vt 0.938853 0.825848
vt 0.935900 0.838006
vt 0.952031 0.894979
vt 0.926839 0.831564
vt 0.867907 0.836439
vt 0.935038 0.824113
vt 0.941826 0.765318
vt 0.940268 0.834821
vt 0.992080 0.863714
vt 0.929251 0.836403
vt 0.890941 0.881676
vt 0.929689 0.825504
vt 0.892870 0.778993
vt 0.940535 0.828113
vt 0.993271 0.801054
vt 0.934509 0.838185
vt 0.939255 0.897494
vt 0.926899 0.830193
vt 0.867883 0.823397
vt 0.936411 0.824460
vt 0.954620 0.767861
vt 0.939447 0.835930
vt 0.984782 0.874584
vt 0.928286 0.835384
vt 0.881687 0.872462
vt 0.930896 0.824785
vt 0.903746 0.771730
vt 0.941012 0.829439
vt 0.998264 0.813135
vt 0.933101 0.838083
vt 0.926175 0.897475
vt 0.927233 0.828866
vt 0.870430 0.810531
vt 0.937689 0.825065
vt 0.966733 0.772880
vt 0.092314 0.000355
vt 0.096852 0.384800
vt 0.094156 0.372233
vt 0.100739 0.018378
vt 0.064710 0.087628
vt 0.021546 0.382199
vt 0.021502 0.376380
vt 0.065936 0.101684
vt 0.021739 0.166751
vt 0.030270 0.351077
vt 0.062121 0.072378
vt 0.021862 0.388705
vt 0.026836 0.168917
vt 0.029396 0.350233
vt 0.058029 0.055981
vt 0.022482 0.395959
vt 0.032084 0.169731
vt 0.028527 0.349922
vt 0.052289 0.038494
vt 0.023454 0.404007
vt 0.037359 0.169139
vt 0.027636 0.350147
vt 0.005719 0.071210
vt 0.032699 0.388784
vt 0.031814 0.396161
vt 0.010425 0.054945
vt 0.044754 0.019975
vt 0.024829 0.412901
vt 0.042540 0.167141
vt 0.026733 0.350894
vt 0.002563 0.086384
vt 0.033272 0.382136
vt 0.035338 0.000355
vt 0.026677 0.422894
vt 0.047507 0.163740
vt 0.025835 0.352159
vt 0.000820 0.100416
vt 0.033593 0.376195
vt 0.025122 0.019513
vt 0.028907 0.413168
vt 0.052139 0.158942
vt 0.024958 0.353947
vt 0.000355 0.113258
vt 0.033681 0.370891
vt 0.016825 0.037649
vt 0.030551 0.404293
vt 0.056312 0.152758
vt 0.024122 0.356270
vt 0.000988 0.124791
vt 0.033743 0.366460
vt 0.059904 0.145202
vt 0.023351 0.359138
vt 0.002670 0.135136
vt 0.033735 0.362622
vt 0.062790 0.136292
vt 0.022670 0.362570
vt 0.005235 0.144180
vt 0.033297 0.359221
vt 0.064844 0.126050
vt 0.022107 0.366583
vt 0.008527 0.151836
vt 0.032694 0.356425
vt 0.065936 0.114503
vt 0.021695 0.371198
vt 0.089057 0.332198
vt 0.087448 0.334465
vt 0.087233 0.335917
vt 0.086926 0.338021
vt 0.086799 0.340486
vt 0.086568 0.343674
vt 0.087328 0.346360
vt 0.087984 0.349859
vt 0.088962 0.353704
vt 0.089854 0.358472
vt 0.092029 0.364823
vt 0.099269 0.373737
vt 0.101229 0.366944
vt 0.103024 0.360939
vt 0.104745 0.355722
vt 0.106577 0.351430
vt 0.106554 0.347170
vt 0.106659 0.343724
vt 0.106498 0.340659
vt 0.106461 0.338316
vt 0.105103 0.335421
vt 0.103851 0.333176
vt 0.102441 0.331372
vt 0.101110 0.330163
vt 0.099271 0.328972
vt 0.097475 0.328346
vt 0.095682 0.328247
vt 0.093890 0.328666
vt 0.092261 0.329316
vt 0.090599 0.330533
vt 0.085628 0.153249
vt 0.081609 0.150169
vt 0.084318 0.018611
vt 0.110132 0.145465
vt 0.106472 0.149883
vt 0.089822 0.155078
vt 0.077994 0.035857
vt 0.113398 0.139807
vt 0.094097 0.155655
vt 0.073199 0.052053
vt 0.116174 0.132913
vt 0.098360 0.154981
vt 0.069798 0.067162
vt 0.118352 0.124797
vt 0.102516 0.153057
vt 0.067657 0.081151
vt 0.119825 0.115474
vt 0.066646 0.093992
vt 0.120483 0.104961
vt 0.066646 0.105662
vt 0.120215 0.093278
vt 0.067541 0.116140
vt 0.118902 0.080452
vt 0.069217 0.125409
vt 0.116424 0.066513
vt 0.071564 0.133454
vt 0.112657 0.051496
vt 0.074479 0.140267
vt 0.107474 0.035438
vt 0.077860 0.145840
vt 0.271009 0.547901
vt 0.207690 0.547901
vt 0.152853 0.579561
vt 0.121193 0.634398
vt 0.121193 0.697717
vt 0.152853 0.752554
vt 0.207690 0.784214
vt 0.271009 0.784214
vt 0.325846 0.752554
vt 0.357506 0.697717
vt 0.357506 0.634398
vt 0.325846 0.579561
vt 0.394256 0.447243
vt 0.394256 0.374076
vt 0.257725 0.410660
vt 0.221141 0.000355
vt 0.157777 0.036939
vt 0.257725 0.136887
vt 0.668029 0.100303
vt 0.631446 0.036939
vt 0.531498 0.136887
vt 0.357673 0.310712
vt 0.121193 0.100303
vt 0.631446 0.236835
vt 0.668029 0.173470
vt 0.294308 0.274128
vt 0.121193 0.173470
vt 0.568081 0.273418
vt 0.221141 0.274128
vt 0.157777 0.236834
vt 0.494914 0.273418
vt 0.157777 0.310712
vt 0.221141 0.273418
vt 0.431550 0.236834
vt 0.121193 0.374076
vt 0.294308 0.273418
vt 0.394966 0.173470
vt 0.121193 0.447243
vt 0.357673 0.236834
vt 0.394966 0.100303
vt 0.157777 0.510608
vt 0.221141 0.547191
vt 0.394256 0.173470
vt 0.431550 0.036939
vt 0.680773 0.305788
vt 0.649113 0.360625
vt 0.649113 0.423944
vt 0.680773 0.478781
vt 0.735609 0.510441
vt 0.798929 0.510441
vt 0.853766 0.478781
vt 0.885426 0.423944
vt 0.885426 0.360625
vt 0.853766 0.305788
vt 0.798929 0.274128
vt 0.735609 0.274128
vt 0.394256 0.100303
vt 0.494914 0.000355
vt 0.568081 0.000355
vt 0.357673 0.036939
vt 0.680093 0.732948
vt 0.734930 0.764607
vt 0.798250 0.764607
vt 0.853086 0.732948
vt 0.884746 0.678111
vt 0.884746 0.614791
vt 0.853086 0.559955
vt 0.798250 0.528295
vt 0.734930 0.528295
vt 0.680093 0.559955
vt 0.648433 0.614791
vt 0.648433 0.678111
vt 0.294308 0.000355
vt 0.357673 0.510608
vt 0.294308 0.547191
vt 0.394966 0.431798
vt 0.427848 0.491612
vt 0.522094 0.400856
vt 0.554631 0.527585
vt 0.614027 0.493953
vt 0.486380 0.526726
vt 0.648403 0.434985
vt 0.837867 0.794623
vt 0.787109 0.765318
vt 0.728498 0.765318
vt 0.677739 0.794623
vt 0.648433 0.845382
vt 0.648433 0.903993
vt 0.677739 0.954752
vt 0.728498 0.984057
vt 0.787109 0.984057
vt 0.837867 0.954752
vt 0.867173 0.903993
vt 0.867173 0.845382
vt 0.395774 0.366725
vt 0.467796 0.386185
vt 0.427848 0.310101
vt 0.486380 0.274987
vt 0.554631 0.274128
vt 0.614027 0.307760
vt 0.648403 0.366728
vt 0.613860 0.562158
vt 0.555208 0.528295
vt 0.521345 0.654673
vt 0.487482 0.528295
vt 0.428829 0.562158
vt 0.394966 0.620810
vt 0.394966 0.688536
vt 0.428829 0.747189
vt 0.487482 0.781052
vt 0.555208 0.781052
vt 0.613860 0.747189
vt 0.887479 0.139030
vt 0.887479 0.080419
vt 0.858173 0.029661
vt 0.807415 0.000355
vt 0.748804 0.000355
vt 0.698045 0.029661
vt 0.668739 0.080419
vt 0.668739 0.139030
vt 0.698045 0.189789
vt 0.748804 0.219095
vt 0.807415 0.219095
vt 0.858173 0.189789
vt 0.647723 0.620810
vt 0.647723 0.688536
vt 0.194128 0.864825
vt 0.192664 0.864875
vt 0.186022 0.856822
vt 0.186311 0.855401
vt 0.195689 0.850668
vt 0.197030 0.851243
vt 0.199186 0.862302
vt 0.198143 0.863322
vt 0.187631 0.862126
vt 0.186829 0.860949
vt 0.189994 0.851146
vt 0.191356 0.850607
vt 0.200572 0.855653
vt 0.200854 0.857038
vt 0.191218 0.864570
vt 0.186887 0.854087
vt 0.198231 0.852065
vt 0.196921 0.864086
vt 0.186280 0.859633
vt 0.192796 0.850344
vt 0.200850 0.858455
vt 0.189864 0.863993
vt 0.187715 0.852910
vt 0.199245 0.853103
vt 0.195566 0.864594
vt 0.186008 0.858239
vt 0.194260 0.850364
vt 0.200560 0.859842
vt 0.188653 0.863167
vt 0.188764 0.851917
vt 0.200036 0.854315
vt 0.199998 0.861141
s 1
f 100/1/2 101/2/4 4/3/4 2/4/2
f 101/2/4 105/5/6 6/6/6 4/3/4
f 105/5/6 109/7/8 8/8/8 6/6/6
f 109/7/8 113/9/10 10/10/10 8/8/8
f 113/9/10 117/11/12 12/12/12 10/10/10
f 117/11/12 121/13/14 14/14/14 12/12/12
f 121/13/14 125/15/16 16/16/16 14/14/14
f 125/15/16 129/17/18 18/18/18 16/16/16
f 129/17/18 133/19/20 20/20/20 18/18/18
f 133/19/20 137/21/22 22/22/22 20/20/20
f 137/21/22 141/23/24 24/24/24 22/22/22
f 141/23/24 145/25/26 26/26/26 24/24/24
f 145/25/26 149/27/28 28/28/28 26/26/26
f 149/27/28 153/29/30 30/30/30 28/28/28
f 153/29/30 157/31/32 32/32/32 30/30/30
f 157/31/32 161/33/34 34/34/34 32/32/32
f 161/33/34 165/35/36 36/36/36 34/34/34
f 165/35/36 169/37/38 38/38/38 36/36/36
f 169/37/38 173/39/40 40/40/40 38/38/38
f 173/39/40 177/41/42 42/42/42 40/40/40
f 177/41/42 181/43/44 44/44/44 42/42/42
f 181/43/44 185/45/46 46/46/46 44/44/44
f 185/45/46 189/47/48 48/48/48 46/46/46
f 189/47/48 193/49/50 50/50/50 48/48/48
f 193/49/50 197/51/52 52/52/52 50/50/50
f 197/51/52 201/53/54 54/54/54 52/52/52
f 201/53/54 205/55/56 56/56/56 54/54/54
f 205/55/56 209/57/58 58/58/58 56/56/56
f 209/57/58 213/59/60 60/60/60 58/58/58
f 213/59/60 217/61/62 62/62/62 60/60/60
f 484/63/362 326/64/204 325/65/203 483/66/361
f 217/61/62 221/67/64 64/68/64 62/62/62
f 221/67/64 100/1/2 2/4/2 64/68/64
f 1/69/1 63/70/63 61/71/61 59/72/59 57/73/57 55/74/55 53/75/53 51/76/51 49/77/49 47/78/47 45/79/45 43/80/43 41/81/41 39/82/39 37/83/37 35/84/35 33/85/33 31/86/31 29/87/29 27/88/27 25/89/25 23/90/23 21/91/21 19/92/19 17/93/17 15/94/15 13/95/13 11/96/11 9/97/9 7/98/7 5/99/5 3/100/3
f 315/101/193 320/102/198 65/103/65 96/104/96
f 312/105/190 315/101/193 96/104/96 95/106/95
f 309/107/187 312/105/190 95/106/95 94/108/94
f 306/109/184 309/107/187 94/108/94 93/110/93
f 303/111/181 306/109/184 93/110/93 92/112/92
f 300/113/178 303/111/181 92/112/92 91/114/91
f 297/115/176 300/113/178 91/114/91 90/116/90
f 294/117/174 297/115/176 90/116/90 89/118/89
f 291/119/172 294/117/174 89/118/89 88/120/88
f 288/121/170 291/119/172 88/120/88 87/122/87
f 285/123/168 288/121/170 87/122/87 86/124/86
f 282/125/166 285/123/168 86/124/86 85/126/85
f 279/127/164 282/125/166 85/126/85 84/128/84
f 276/129/162 279/127/164 84/128/84 83/130/83
f 273/131/160 276/129/162 83/130/83 82/132/82
f 270/133/158 273/131/160 82/132/82 81/134/81
f 267/135/156 270/133/158 81/134/81 80/136/80
f 264/137/154 267/135/156 80/136/80 79/138/79
f 261/139/152 264/137/154 79/138/79 78/140/78
f 258/141/150 261/139/152 78/140/78 77/142/77
f 255/143/148 258/141/150 77/142/77 76/144/76
f 252/145/146 255/143/148 76/144/76 75/146/75
f 249/147/144 252/145/146 75/146/75 74/148/74
f 246/149/142 249/147/144 74/148/74 73/150/73
f 243/151/139 246/149/142 73/150/73 72/152/72
f 240/153/136 243/151/139 72/152/72 71/154/71
f 237/155/133 240/153/136 71/154/71 70/156/70
f 234/157/130 237/155/133 70/156/70 69/158/69
f 231/159/127 234/157/130 69/158/69 68/160/68
f 228/161/124 231/159/127 68/160/68 67/162/67
f 225/163/121 228/161/124 67/162/67 66/164/66
f 320/102/198 225/163/121 66/164/66 65/103/65
f 96/165/96 65/166/65 97/167/2 224/168/64
f 224/169/64 97/170/2 98/171/2 223/172/64
f 223/172/64 98/171/2 99/173/2 222/174/64
f 222/174/64 99/173/2 100/1/2 221/67/64
f 95/175/95 96/176/96 224/177/64 220/178/62
f 220/179/62 224/169/64 223/172/64 219/180/62
f 219/180/62 223/172/64 222/174/64 218/181/62
f 218/181/62 222/174/64 221/67/64 217/61/62
f 94/182/94 95/183/95 220/184/62 216/185/60
f 216/186/60 220/179/62 219/180/62 215/187/60
f 215/187/60 219/180/62 218/181/62 214/188/60
f 214/188/60 218/181/62 217/61/62 213/59/60
f 93/189/93 94/190/94 216/191/60 212/192/120
f 212/193/120 216/186/60 215/187/60 211/194/58
f 211/194/58 215/187/60 214/188/60 210/195/58
f 210/195/58 214/188/60 213/59/60 209/57/58
f 92/196/92 93/197/93 212/198/120 208/199/119
f 208/200/119 212/193/120 211/194/58 207/201/56
f 207/201/56 211/194/58 210/195/58 206/202/56
f 206/202/56 210/195/58 209/57/58 205/55/56
f 91/203/91 92/204/92 208/205/119 204/206/118
f 204/207/118 208/200/119 207/201/56 203/208/54
f 203/208/54 207/201/56 206/202/56 202/209/54
f 202/209/54 206/202/56 205/55/56 201/53/54
f 90/210/90 91/211/91 204/212/118 200/213/117
f 200/214/117 204/207/118 203/208/54 199/215/52
f 199/215/52 203/208/54 202/209/54 198/216/52
f 198/216/52 202/209/54 201/53/54 197/51/52
f 89/217/89 90/218/90 200/219/117 196/220/116
f 196/221/116 200/214/117 199/215/52 195/222/50
f 195/222/50 199/215/52 198/216/52 194/223/50
f 194/223/50 198/216/52 197/51/52 193/49/50
f 88/224/88 89/225/89 196/226/116 192/227/115
f 192/228/115 196/221/116 195/222/50 191/229/48
f 191/229/48 195/222/50 194/223/50 190/230/48
f 190/230/48 194/223/50 193/49/50 189/47/48
f 87/231/87 88/232/88 192/233/115 188/234/114
f 188/235/114 192/228/115 191/229/48 187/236/46
f 187/236/46 191/229/48 190/230/48 186/237/46
f 186/237/46 190/230/48 189/47/48 185/45/46
f 86/238/86 87/239/87 188/240/114 184/241/113
f 184/242/113 188/235/114 187/236/46 183/243/44
f 183/243/44 187/236/46 186/237/46 182/244/44
f 182/244/44 186/237/46 185/45/46 181/43/44
f 85/245/85 86/246/86 184/247/113 180/248/112
f 180/249/112 184/242/113 183/243/44 179/250/42
f 179/250/42 183/243/44 182/244/44 178/251/42
f 178/251/42 182/244/44 181/43/44 177/41/42
f 84/252/84 85/253/85 180/254/112 176/255/111
f 176/256/111 180/249/112 179/250/42 175/257/40
f 175/257/40 179/250/42 178/251/42 174/258/40
f 174/258/40 178/251/42 177/41/42 173/39/40
f 83/259/83 84/260/84 176/261/111 172/262/110
f 172/263/110 176/256/111 175/257/40 171/264/38
f 171/264/38 175/257/40 174/258/40 170/265/38
f 170/265/38 174/258/40 173/39/40 169/37/38
f 82/266/82 83/267/83 172/268/110 168/269/109
f 168/270/109 172/263/110 171/264/38 167/271/36
f 167/271/36 171/264/38 170/265/38 166/272/36
f 166/272/36 170/265/38 169/37/38 165/35/36
f 81/273/81 82/274/82 168/275/109 164/276/108
f 164/277/108 168/270/109 167/271/36 163/278/34
f 163/278/34 167/271/36 166/272/36 162/279/34
f 162/279/34 166/272/36 165/35/36 161/33/34
f 80/280/80 81/281/81 164/282/108 160/283/107
f 160/284/107 164/277/108 163/278/34 159/285/32
f 159/285/32 163/278/34 162/279/34 158/286/32
f 158/286/32 162/279/34 161/33/34 157/31/32
f 79/287/79 80/288/80 160/289/107 156/290/106
f 156/291/106 160/284/107 159/285/32 155/292/30
f 155/292/30 159/285/32 158/286/32 154/293/30
f 154/293/30 158/286/32 157/31/32 153/29/30
f 78/294/78 79/295/79 156/296/106 152/297/105
f 152/298/105 156/291/106 155/292/30 151/299/28
f 151/299/28 155/292/30 154/293/30 150/300/28
f 150/300/28 154/293/30 153/29/30 149/27/28
f 77/301/77 78/302/78 152/303/105 148/304/104
f 148/305/104 152/298/105 151/299/28 147/306/26
f 147/306/26 151/299/28 150/300/28 146/307/26
f 146/307/26 150/300/28 149/27/28 145/25/26
f 76/308/76 77/309/77 148/310/104 144/311/103
f 144/312/103 148/305/104 147/306/26 143/313/24
f 143/313/24 147/306/26 146/307/26 142/314/24
f 142/314/24 146/307/26 145/25/26 141/23/24
f 75/315/75 76/316/76 144/317/103 140/318/102
f 140/319/102 144/312/103 143/313/24 139/320/22
f 139/320/22 143/313/24 142/314/24 138/321/22
f 138/321/22 142/314/24 141/23/24 137/21/22
f 74/322/74 75/323/75 140/324/102 136/325/101
f 136/326/101 140/319/102 139/320/22 135/327/20
f 135/327/20 139/320/22 138/321/22 134/328/20
f 134/328/20 138/321/22 137/21/22 133/19/20
f 73/329/73 74/330/74 136/331/101 132/332/100
f 132/333/100 136/326/101 135/327/20 131/334/18
f 131/334/18 135/327/20 134/328/20 130/335/18
f 130/335/18 134/328/20 133/19/20 129/17/18
f 72/336/72 73/337/73 132/338/100 128/339/99
f 128/340/99 132/333/100 131/334/18 127/341/16
f 127/341/16 131/334/18 130/335/18 126/342/16
f 126/342/16 130/335/18 129/17/18 125/15/16
f 71/343/71 72/344/72 128/345/99 124/346/98
f 124/347/98 128/340/99 127/341/16 123/348/14
f 123/348/14 127/341/16 126/342/16 122/349/14
f 122/349/14 126/342/16 125/15/16 121/13/14
f 70/350/70 71/351/71 124/352/98 120/353/97
f 120/354/97 124/347/98 123/348/14 119/355/12
f 119/355/12 123/348/14 122/349/14 118/356/12
f 118/356/12 122/349/14 121/13/14 117/11/12
f 69/357/69 70/358/70 120/359/97 116/360/10
f 116/361/10 120/354/97 119/355/12 115/362/10
f 115/362/10 119/355/12 118/356/12 114/363/10
f 114/363/10 118/356/12 117/11/12 113/9/10
f 68/364/68 69/365/69 116/366/10 112/367/8
f 112/368/8 116/361/10 115/362/10 111/369/8
f 111/369/8 115/362/10 114/363/10 110/370/8
f 110/370/8 114/363/10 113/9/10 109/7/8
f 67/371/67 68/372/68 112/373/8 108/374/6
f 108/375/6 112/368/8 111/369/8 107/376/6
f 107/376/6 111/369/8 110/370/8 106/377/6
f 106/377/6 110/370/8 109/7/8 105/5/6
f 66/378/66 67/379/67 108/380/6 104/381/4
f 104/382/4 108/375/6 107/376/6 103/383/4
f 103/383/4 107/376/6 106/377/6 102/384/4
f 102/384/4 106/377/6 105/5/6 101/2/4
f 65/385/65 66/386/66 104/387/4 97/388/2
f 97/170/2 104/382/4 103/383/4 98/171/2
f 98/171/2 103/383/4 102/384/4 99/173/2
f 99/173/2 102/384/4 101/2/4 100/1/2
f 1/69/1 3/100/3 227/389/123 318/390/196
f 318/390/196 227/389/123 226/391/122 319/392/197
f 319/392/197 226/391/122 225/163/121 320/102/198
f 3/100/3 5/99/5 230/393/126 227/389/123
f 227/389/123 230/393/126 229/394/125 226/391/122
f 226/391/122 229/394/125 228/161/124 225/163/121
f 5/99/5 7/98/7 233/395/129 230/393/126
f 230/393/126 233/395/129 232/396/128 229/394/125
f 229/394/125 232/396/128 231/159/127 228/161/124
f 7/98/7 9/97/9 236/397/132 233/395/129
f 233/395/129 236/397/132 235/398/131 232/396/128
f 232/396/128 235/398/131 234/157/130 231/159/127
f 9/97/9 11/96/11 239/399/135 236/397/132
f 236/397/132 239/399/135 238/400/134 235/398/131
f 235/398/131 238/400/134 237/155/133 234/157/130
f 11/96/11 13/95/13 242/401/138 239/399/135
f 239/399/135 242/401/138 241/402/137 238/400/134
f 238/400/134 241/402/137 240/153/136 237/155/133
f 13/95/13 15/94/15 245/403/141 242/401/138
f 242/401/138 245/403/141 244/404/140 241/402/137
f 241/402/137 244/404/140 243/151/139 240/153/136
f 15/94/15 17/93/17 248/405/18 245/403/141
f 245/403/141 248/405/18 247/406/143 244/404/140
f 244/404/140 247/406/143 246/149/142 243/151/139
f 17/93/17 19/92/19 251/407/20 248/405/18
f 248/405/18 251/407/20 250/408/145 247/406/143
f 247/406/143 250/408/145 249/147/144 246/149/142
f 19/92/19 21/91/21 254/409/22 251/407/20
f 251/407/20 254/409/22 253/410/147 250/408/145
f 250/408/145 253/410/147 252/145/146 249/147/144
f 21/91/21 23/90/23 257/411/24 254/409/22
f 254/409/22 257/411/24 256/412/149 253/410/147
f 253/410/147 256/412/149 255/143/148 252/145/146
f 23/90/23 25/89/25 260/413/26 257/411/24
f 257/411/24 260/413/26 259/414/151 256/412/149
f 256/412/149 259/414/151 258/141/150 255/143/148
f 25/89/25 27/88/27 263/415/28 260/413/26
f 260/413/26 263/415/28 262/416/153 259/414/151
f 259/414/151 262/416/153 261/139/152 258/141/150
f 27/88/27 29/87/29 266/417/30 263/415/28
f 263/415/28 266/417/30 265/418/155 262/416/153
f 262/416/153 265/418/155 264/137/154 261/139/152
f 29/87/29 31/86/31 269/419/32 266/417/30
f 266/417/30 269/419/32 268/420/157 265/418/155
f 265/418/155 268/420/157 267/135/156 264/137/154
f 31/86/31 33/85/33 272/421/34 269/419/32
f 269/419/32 272/421/34 271/422/159 268/420/157
f 268/420/157 271/422/159 270/133/158 267/135/156
f 33/85/33 35/84/35 275/423/36 272/421/34
f 272/421/34 275/423/36 274/424/161 271/422/159
f 271/422/159 274/424/161 273/131/160 270/133/158
f 35/84/35 37/83/37 278/425/38 275/423/36
f 275/423/36 278/425/38 277/426/163 274/424/161
f 274/424/161 277/426/163 276/129/162 273/131/160
f 37/83/37 39/82/39 281/427/40 278/425/38
f 278/425/38 281/427/40 280/428/165 277/426/163
f 277/426/163 280/428/165 279/127/164 276/129/162
f 39/82/39 41/81/41 284/429/42 281/427/40
f 281/427/40 284/429/42 283/430/167 280/428/165
f 280/428/165 283/430/167 282/125/166 279/127/164
f 41/81/41 43/80/43 287/431/44 284/429/42
f 284/429/42 287/431/44 286/432/169 283/430/167
f 283/430/167 286/432/169 285/123/168 282/125/166
f 43/80/43 45/79/45 290/433/46 287/431/44
f 287/431/44 290/433/46 289/434/171 286/432/169
f 286/432/169 289/434/171 288/121/170 285/123/168
f 45/79/45 47/78/47 293/435/48 290/433/46
f 290/433/46 293/435/48 292/436/173 289/434/171
f 289/434/171 292/436/173 291/119/172 288/121/170
f 47/78/47 49/77/49 296/437/50 293/435/48
f 293/435/48 296/437/50 295/438/175 292/436/173
f 292/436/173 295/438/175 294/117/174 291/119/172
f 49/77/49 51/76/51 299/439/52 296/437/50
f 296/437/50 299/439/52 298/440/177 295/438/175
f 295/438/175 298/440/177 297/115/176 294/117/174
f 51/76/51 53/75/53 302/441/180 299/439/52
f 299/439/52 302/441/180 301/442/179 298/440/177
f 298/440/177 301/442/179 300/113/178 297/115/176
f 53/75/53 55/74/55 305/443/183 302/441/180
f 302/441/180 305/443/183 304/444/182 301/442/179
f 301/442/179 304/444/182 303/111/181 300/113/178
f 55/74/55 57/73/57 308/445/186 305/443/183
f 305/443/183 308/445/186 307/446/185 304/444/182
f 304/444/182 307/446/185 306/109/184 303/111/181
f 57/73/57 59/72/59 311/447/189 308/445/186
f 308/445/186 311/447/189 310/448/188 307/446/185
f 307/446/185 310/448/188 309/107/187 306/109/184
f 59/72/59 61/71/61 314/449/192 311/447/189
f 311/447/189 314/449/192 313/450/191 310/448/188
f 310/448/188 313/450/191 312/105/190 309/107/187
f 61/71/61 63/70/63 317/451/195 314/449/192
f 314/449/192 317/451/195 316/452/194 313/450/191
f 313/450/191 316/452/194 315/101/193 312/105/190
f 63/70/63 1/69/1 318/390/196 317/451/195
f 317/451/195 318/390/196 319/392/197 316/452/194
f 316/452/194 319/392/197 320/102/198 315/101/193
f 331/453/209 363/454/241 362/455/240 330/456/208
f 486/457/364 335/458/213 334/459/212 485/460/363
f 488/461/366 344/462/222 343/463/221 487/464/365
f 490/465/368 321/466/199 322/467/200 489/468/367
f 489/468/367 322/467/200 352/469/230 491/470/369
f 493/471/371 331/472/209 330/473/208 492/474/370
f 495/475/373 340/476/218 339/477/217 494/478/372
f 497/479/375 349/480/227 348/481/226 496/482/374
f 498/483/376 327/484/205 326/64/204 484/63/362
f 499/485/377 336/486/214 335/458/213 486/457/364
f 500/487/378 345/488/223 344/462/222 488/461/366
f 501/489/379 323/490/201 321/466/199 490/465/368
f 502/491/380 332/492/210 331/472/209 493/471/371
f 503/493/381 341/494/219 340/476/218 495/475/373
f 504/495/382 350/496/228 349/480/227 497/479/375
f 505/497/383 328/498/206 327/484/205 498/483/376
f 506/499/384 337/500/215 336/486/214 499/485/377
f 507/501/385 346/502/224 345/488/223 500/487/378
f 508/503/386 324/504/202 323/490/201 501/489/379
f 509/505/387 333/506/211 332/492/210 502/491/380
f 510/507/388 342/508/220 341/494/219 503/493/381
f 511/509/389 351/510/229 350/496/228 504/495/382
f 512/511/390 329/512/207 328/498/206 505/497/383
f 513/513/391 338/514/216 337/500/215 506/499/384
f 514/515/392 347/516/225 346/502/224 507/501/385
f 483/66/361 325/65/203 324/504/202 508/503/386
f 485/460/363 334/459/212 333/506/211 509/505/387
f 487/464/365 343/463/221 342/508/220 510/507/388
f 491/470/369 352/469/230 351/510/229 511/509/389
f 492/474/370 330/473/208 329/512/207 512/511/390
f 494/478/372 339/477/217 338/514/216 513/513/391
f 496/482/374 348/481/226 347/516/225 514/515/392
f 366/517/244 398/518/276 397/519/275 365/520/243
f 345/521/223 377/522/255 376/523/254 344/524/222
f 332/525/210 364/526/242 363/454/241 331/453/209
f 346/527/224 378/528/256 377/522/255 345/521/223
f 333/529/211 365/530/243 364/526/242 332/525/210
f 347/531/225 379/532/257 378/528/256 346/527/224
f 334/533/212 366/534/244 365/530/243 333/529/211
f 348/535/226 380/536/258 379/532/257 347/531/225
f 335/537/213 367/538/245 366/534/244 334/533/212
f 321/539/199 353/540/231 354/541/232 322/542/200
f 349/543/227 381/544/259 380/536/258 348/535/226
f 336/545/214 368/546/246 367/538/245 335/537/213
f 323/547/201 355/548/233 353/540/231 321/539/199
f 350/549/228 382/550/260 381/544/259 349/543/227
f 337/551/215 369/552/247 368/546/246 336/545/214
f 324/553/202 356/554/234 355/548/233 323/547/201
f 351/555/229 383/556/261 382/550/260 350/549/228
f 338/557/216 370/558/248 369/552/247 337/551/215
f 325/559/203 357/560/235 356/554/234 324/553/202
f 352/561/230 384/562/262 383/556/261 351/555/229
f 339/563/217 371/564/249 370/558/248 338/557/216
f 326/565/204 358/566/236 357/560/235 325/559/203
f 322/542/200 354/541/232 384/562/262 352/561/230
f 340/567/218 372/568/250 371/564/249 339/563/217
f 327/569/205 359/570/237 358/566/236 326/565/204
f 341/571/219 373/572/251 372/568/250 340/567/218
f 328/573/206 360/574/238 359/570/237 327/569/205
f 342/575/220 374/576/252 373/572/251 341/571/219
f 329/577/207 361/578/239 360/574/238 328/573/206
f 343/579/221 375/580/253 374/576/252 342/575/220
f 330/456/208 362/455/240 361/578/239 329/577/207
f 344/524/222 376/523/254 375/580/253 343/579/221
f 385/581/263 387/582/265 388/583/266 389/584/267 390/585/268 391/586/269 392/587/270 393/588/271 394/589/272 395/590/273 396/591/274 397/519/275 398/518/276 399/592/277 400/593/278 401/594/279 402/595/280 403/596/281 404/597/282 405/598/283 406/599/284 407/600/285 408/601/286 409/602/287 410/603/288 411/604/289 412/605/290 413/606/291 414/607/292 415/608/293 416/609/294 386/610/264
f 380/611/258 412/605/290 411/604/289 379/612/257
f 367/613/245 399/592/277 398/518/276 366/517/244
f 353/614/231 385/581/263 386/610/264 354/615/232
f 381/616/259 413/606/291 412/605/290 380/611/258
f 368/617/246 400/593/278 399/592/277 367/613/245
f 355/618/233 387/582/265 385/581/263 353/614/231
f 382/619/260 414/607/292 413/606/291 381/616/259
f 369/620/247 401/594/279 400/593/278 368/617/246
f 356/621/234 388/583/266 387/582/265 355/618/233
f 383/622/261 415/608/293 414/607/292 382/619/260
f 370/623/248 402/595/280 401/594/279 369/620/247
f 357/624/235 389/584/267 388/583/266 356/621/234
f 384/625/262 416/609/294 415/608/293 383/622/261
f 371/626/249 403/596/281 402/595/280 370/623/248
f 358/627/236 390/585/268 389/584/267 357/624/235
f 354/615/232 386/610/264 416/609/294 384/625/262
f 372/628/250 404/597/282 403/596/281 371/626/249
f 359/629/237 391/586/269 390/585/268 358/627/236
f 373/630/251 405/598/283 404/597/282 372/628/250
f 360/631/238 392/587/270 391/586/269 359/629/237
f 374/632/252 406/599/284 405/598/283 373/630/251
f 361/633/239 393/588/271 392/587/270 360/631/238
f 375/634/253 407/600/285 406/599/284 374/632/252
f 362/635/240 394/589/272 393/588/271 361/633/239
f 376/636/254 408/601/286 407/600/285 375/634/253
f 363/637/241 395/590/273 394/589/272 362/635/240
f 377/638/255 409/602/287 408/601/286 376/636/254
f 364/639/242 396/591/274 395/590/273 363/637/241
f 378/640/256 410/603/288 409/602/287 377/638/255
f 365/520/243 397/519/275 396/591/274 364/639/242
f 379/612/257 411/604/289 410/603/288 378/640/256
f 417/641/295 420/642/298 422/643/300 424/644/302 426/645/304 428/646/306 430/647/308 432/648/310 434/649/312 436/650/314 438/651/316 440/652/318
f 454/653/332 453/654/331 444/655/322
f 419/656/297 421/657/299 442/658/320
f 422/659/300 420/660/298 418/661/296
f 453/654/331 452/662/330 444/655/322
f 421/657/299 423/663/301 442/658/320
f 426/664/304 424/665/302 418/661/296
f 452/662/330 451/666/329 444/655/322
f 423/663/301 425/667/303 442/658/320
f 428/668/306 426/664/304 418/661/296
f 451/666/329 450/669/328 444/655/322
f 425/667/303 427/670/305 442/658/320
f 430/671/308 428/668/306 418/661/296
f 450/669/328 449/672/327 444/655/322
f 427/670/305 429/673/307 442/658/320
f 432/674/310 430/671/308 418/661/296
f 449/672/327 448/675/326 444/655/322
f 429/673/307 431/676/309 442/658/320
f 434/677/312 432/674/310 418/661/296
f 448/675/326 447/678/325 444/655/322
f 431/676/309 433/679/311 442/658/320
f 436/680/314 434/677/312 418/661/296
f 446/681/324 445/682/323 444/655/322
f 433/679/311 435/683/313 442/658/320
f 438/684/316 436/680/314 418/661/296
f 443/685/321 445/686/323 446/687/324 447/688/325 448/689/326 449/690/327 450/691/328 451/692/329 452/693/330 453/694/331 454/695/332 455/696/333
f 435/683/313 437/697/315 442/658/320
f 440/698/318 438/684/316 418/661/296
f 420/660/298 417/699/295 418/661/296
f 437/697/315 439/700/317 442/658/320
f 417/699/295 440/698/318 418/661/296
f 419/701/297 441/702/319 439/703/317 437/704/315 435/705/313 433/706/311 431/707/309 429/708/307 427/709/305 425/710/303 423/711/301 421/712/299
f 439/700/317 441/713/319 442/658/320
f 424/665/302 422/659/300 418/661/296
f 455/714/333 454/653/332 444/655/322
f 441/713/319 419/656/297 442/658/320
f 445/682/323 443/715/321 444/655/322
f 443/715/321 455/714/333 444/655/322
f 447/678/325 446/681/324 444/655/322
f 464/716/342 465/717/343 467/718/345
f 468/719/346 456/720/334 467/718/345
f 466/721/344 468/719/346 467/718/345
f 456/720/334 457/722/335 467/718/345
f 468/723/346 466/724/344 465/725/343 464/726/342 463/727/341 462/728/340 461/729/339 460/730/338 459/731/337 458/732/336 457/733/335 456/734/334
f 465/717/343 466/721/344 467/718/345
f 463/735/341 464/716/342 467/718/345 482/736/360
f 462/737/340 463/735/341 482/736/360 467/718/345
f 461/738/339 462/737/340 467/718/345
f 460/739/338 461/738/339 467/718/345
f 459/740/337 460/739/338 467/718/345
f 458/741/336 459/740/337 467/718/345
f 457/722/335 458/741/336 467/718/345
f 480/742/358 479/743/357 470/744/348
f 479/743/357 478/745/356 470/744/348
f 478/745/356 477/746/355 470/744/348
f 477/746/355 476/747/354 470/744/348
f 476/747/354 475/748/353 470/744/348
f 475/748/353 474/749/352 470/744/348
f 474/749/352 473/750/351 470/744/348
f 472/751/350 471/752/349 470/744/348
f 469/753/347 471/754/349 472/755/350 473/756/351 474/757/352 475/758/353 476/759/354 477/760/355 478/761/356 479/762/357 480/763/358 481/764/359
f 481/765/359 480/742/358 470/744/348
f 471/752/349 469/766/347 470/744/348
f 469/766/347 481/765/359 470/744/348
f 473/750/351 472/751/350 470/744/348
f 56/56/56 496/767/374 514/768/392 54/54/54
f 38/38/38 494/769/372 513/770/391 36/36/36
f 20/20/20 492/771/370 512/772/390 18/18/18
f 64/68/64 491/773/369 511/774/389 62/62/62
f 46/46/46 487/775/365 510/776/388 44/44/44
f 28/28/28 485/777/363 509/778/387 26/26/26
f 10/10/10 483/779/361 508/780/386 8/8/8
f 54/54/54 514/768/392 507/781/385 52/52/52
f 36/36/36 513/770/391 506/782/384 34/34/34
f 18/18/18 512/772/390 505/783/383 16/16/16
f 62/62/62 511/774/389 504/784/382 60/60/60
f 44/44/44 510/776/388 503/785/381 42/42/42
f 26/26/26 509/778/387 502/786/380 24/24/24
f 8/8/8 508/780/386 501/787/379 6/6/6
f 52/52/52 507/781/385 500/788/378 50/50/50
f 34/34/34 506/782/384 499/789/377 32/32/32
f 16/16/16 505/783/383 498/790/376 14/14/14
f 60/60/60 504/784/382 497/791/375 58/58/58
f 42/42/42 503/785/381 495/792/373 40/40/40
f 24/24/24 502/786/380 493/793/371 22/22/22
f 6/6/6 501/787/379 490/794/368 4/3/4
f 50/50/50 500/788/378 488/795/366 48/48/48
f 32/32/32 499/789/377 486/796/364 30/30/30
f 14/14/14 498/790/376 484/797/362 12/12/12
f 58/58/58 497/791/375 496/767/374 56/56/56
f 40/40/40 495/792/373 494/769/372 38/38/38
f 22/22/22 493/793/371 492/771/370 20/20/20
f 2/4/2 489/798/367 491/773/369 64/68/64
f 4/3/4 490/794/368 489/798/367 2/4/2
f 48/48/48 488/795/366 487/775/365 46/46/46
f 30/30/30 486/796/364 485/777/363 28/28/28
f 12/12/12 484/797/362 483/779/361 10/10/10
