# Blender 5.2.0 LTS
# www.blender.org
mtllib tree.mtl
o Circle.005
v 0.108585 -10.482766 -1.498309 0.1497 0.4609 0.1202
v 0.822280 -10.428554 -1.287835 0.1497 0.4609 0.1202
v 1.333407 -10.358022 -0.748972 0.1497 0.4609 0.1202
v 1.505009 -10.290070 -0.026106 0.1497 0.4609 0.1202
v 1.291106 -10.242907 0.687070 0.1497 0.4609 0.1202
v 0.749013 -10.229168 1.199462 0.1497 0.4609 0.1202
v 0.023983 -10.252536 1.373775 0.1497 0.4609 0.1202
v -0.689712 -10.306748 1.163301 0.1497 0.4609 0.1202
v -1.200839 -10.377280 0.624437 0.1497 0.4609 0.1202
v -1.372441 -10.445232 -0.098428 0.1497 0.4609 0.1202
v -1.158538 -10.492395 -0.811605 0.1497 0.4609 0.1202
v -0.616444 -10.506134 -1.323997 0.1497 0.4609 0.1202
v 0.553972 -11.106354 -0.736438 0.1497 0.4609 0.1202
v 0.127965 -11.138714 -0.862070 0.1497 0.4609 0.1202
v 0.859065 -11.064253 -0.414788 0.1497 0.4609 0.1202
v 0.961494 -11.023693 0.016692 0.1497 0.4609 0.1202
v 0.833815 -10.995541 0.442389 0.1497 0.4609 0.1202
v 0.510238 -10.987340 0.748238 0.1497 0.4609 0.1202
v 0.077465 -11.001288 0.852285 0.1497 0.4609 0.1202
v -0.348541 -11.033648 0.726653 0.1497 0.4609 0.1202
v -0.653634 -11.075748 0.405003 0.1497 0.4609 0.1202
v -0.756064 -11.116309 -0.026477 0.1497 0.4609 0.1202
v -0.628385 -11.144462 -0.452174 0.1497 0.4609 0.1202
v -0.304808 -11.152662 -0.758023 0.1497 0.4609 0.1202
v 0.201938 -11.417335 -0.298841 0.1497 0.4609 0.1202
v 0.140585 -11.421995 -0.316934 0.1497 0.4609 0.1202
v 0.245878 -11.411271 -0.252517 0.1497 0.4609 0.1202
v 0.260630 -11.405430 -0.190375 0.1497 0.4609 0.1202
v 0.242241 -11.401375 -0.129066 0.1497 0.4609 0.1202
v 0.195640 -11.400194 -0.085018 0.1497 0.4609 0.1202
v 0.133312 -11.402203 -0.070033 0.1497 0.4609 0.1202
v 0.071959 -11.406863 -0.088127 0.1497 0.4609 0.1202
v 0.028020 -11.412927 -0.134451 0.1497 0.4609 0.1202
v 0.013268 -11.418768 -0.196592 0.1497 0.4609 0.1202
v 0.031656 -11.422823 -0.257901 0.1497 0.4609 0.1202
v 0.078257 -11.424004 -0.301949 0.1497 0.4609 0.1202
v 0.054460 0.018304 -1.006880 0.1497 0.4609 0.1202
v 0.054460 -1.981696 -1.006880 0.1497 0.4609 0.1202
v -0.811566 0.018304 -0.506880 0.1497 0.4609 0.1202
v -0.811566 -1.981696 -0.506880 0.1497 0.4609 0.1202
v -0.811566 0.018304 0.493120 0.1497 0.4609 0.1202
v -0.811566 -1.981696 0.493120 0.1497 0.4609 0.1202
v 0.054460 0.018304 0.993120 0.1497 0.4609 0.1202
v 0.054460 -1.981696 0.993120 0.1497 0.4609 0.1202
v 0.920485 0.018304 0.493120 0.1497 0.4609 0.1202
v 0.920485 -1.981696 0.493120 0.1497 0.4609 0.1202
v 0.920485 0.018304 -0.506880 0.1497 0.4609 0.1202
v 0.920485 -1.981696 -0.506880 0.1497 0.4609 0.1202
v -0.234060 -10.993790 -0.173457 0.1497 0.4609 0.1202
v 0.054460 -10.993790 -0.340033 0.1497 0.4609 0.1202
v -0.234060 -10.993791 0.159697 0.1497 0.4609 0.1202
v 0.054460 -10.993791 0.326274 0.1497 0.4609 0.1202
v 0.342979 -10.993791 0.159697 0.1497 0.4609 0.1202
v 0.342979 -10.993790 -0.173457 0.1497 0.4609 0.1202
v 0.363570 -1.576226 -0.565559 0.1497 0.4609 0.1202
v -0.000000 0.000000 -2.220000 0.1497 0.4609 0.1202
v 1.110000 0.000000 -1.922576 0.1497 0.4609 0.1202
v 1.922576 0.000001 -1.110000 0.1497 0.4609 0.1202
v 2.219999 0.000000 -0.000000 0.1497 0.4609 0.1202
v 1.922576 0.000000 1.110000 0.1497 0.4609 0.1202
v 1.110000 0.000001 1.922576 0.1497 0.4609 0.1202
v -0.000000 0.000000 2.220000 0.1497 0.4609 0.1202
v -1.110000 0.000000 1.922576 0.1497 0.4609 0.1202
v -1.922576 0.000000 1.110000 0.1497 0.4609 0.1202
v -2.220000 0.000001 -0.000000 0.1497 0.4609 0.1202
v -1.922576 0.000001 -1.110000 0.1497 0.4609 0.1202
v -1.110000 0.000001 -1.922577 0.1497 0.4609 0.1202
v 0.047024 -1.576227 -0.650377 0.1497 0.4609 0.1202
v 0.595297 -1.576227 -0.333831 0.1497 0.4609 0.1202
v 0.680116 -1.576227 -0.017285 0.1497 0.4609 0.1202
v 0.595297 -1.576226 0.299261 0.1497 0.4609 0.1202
v 0.363570 -1.576226 0.530988 0.1497 0.4609 0.1202
v 0.047024 -1.576227 0.615807 0.1497 0.4609 0.1202
v -0.269522 -1.576226 0.530988 0.1497 0.4609 0.1202
v -0.501250 -1.576227 0.299261 0.1497 0.4609 0.1202
v -0.586068 -1.576227 -0.017285 0.1497 0.4609 0.1202
v -0.501250 -1.576226 -0.333831 0.1497 0.4609 0.1202
v -0.269522 -1.576227 -0.565559 0.1497 0.4609 0.1202
v 0.402351 -4.900841 -3.417977 0.1497 0.4609 0.1202
v 1.998030 -4.868351 -2.839500 0.1497 0.4609 0.1202
v 3.093985 -4.660127 -1.559887 0.1497 0.4609 0.1202
v 3.396555 -4.331961 0.077990 0.1497 0.4609 0.1202
v 2.824668 -3.971784 1.635264 0.1497 0.4609 0.1202
v 1.531559 -3.676106 2.694664 0.1497 0.4609 0.1202
v -0.136283 -3.524154 2.972324 0.1497 0.4609 0.1202
v -1.731963 -3.556643 2.393847 0.1497 0.4609 0.1202
v -2.827918 -3.764868 1.114234 0.1497 0.4609 0.1202
v -3.130488 -4.093034 -0.523643 0.1497 0.4609 0.1202
v -2.558601 -4.453211 -2.080917 0.1497 0.4609 0.1202
v -1.265492 -4.748889 -3.140316 0.1497 0.4609 0.1202
v 1.158361 -6.172749 -1.454170 0.1497 0.4609 0.1202
v 0.205895 -6.192142 -1.799464 0.1497 0.4609 0.1202
v 1.812540 -6.048460 -0.690365 0.1497 0.4609 0.1202
v 1.993145 -5.852576 0.287289 0.1497 0.4609 0.1202
v 1.651783 -5.637585 1.216830 0.1497 0.4609 0.1202
v 0.879923 -5.461094 1.849189 0.1497 0.4609 0.1202
v -0.115617 -5.370394 2.014926 0.1497 0.4609 0.1202
v -1.068083 -5.389786 1.669631 0.1497 0.4609 0.1202
v -1.722262 -5.514076 0.905826 0.1497 0.4609 0.1202
v -1.902867 -5.709960 -0.071827 0.1497 0.4609 0.1202
v -1.561505 -5.924951 -1.001369 0.1497 0.4609 0.1202
v -0.789645 -6.101441 -1.633728 0.1497 0.4609 0.1202
v -0.587950 -5.385281 -3.271117 0.1497 0.4609 0.1202
v 1.106345 -5.414163 -3.169079 0.1497 0.4609 0.1202
v 2.521957 -5.482176 -2.234574 0.1497 0.4609 0.1202
v 3.279574 -5.571097 -0.718001 0.1497 0.4609 0.1202
v 3.176192 -5.657098 0.974275 0.1497 0.4609 0.1202
v 2.239512 -5.717137 2.388811 0.1497 0.4609 0.1202
v 0.720519 -5.735125 3.146582 0.1497 0.4609 0.1202
v -0.973777 -5.706243 3.044545 0.1497 0.4609 0.1202
v -2.389390 -5.638229 2.110039 0.1497 0.4609 0.1202
v -3.147006 -5.549308 0.593466 0.1497 0.4609 0.1202
v -3.043624 -5.463307 -1.098810 0.1497 0.4609 0.1202
v -2.106945 -5.403268 -2.513346 0.1497 0.4609 0.1202
v 0.664758 -7.076363 -1.999579 0.1497 0.4609 0.1202
v -0.346573 -7.059123 -2.060485 0.1497 0.4609 0.1202
v 1.509740 -7.116961 -1.441770 0.1497 0.4609 0.1202
v 1.961964 -7.170037 -0.536523 0.1497 0.4609 0.1202
v 1.900255 -7.221372 0.473602 0.1497 0.4609 0.1202
v 1.341149 -7.257208 1.317943 0.1497 0.4609 0.1202
v 0.434456 -7.267945 1.770258 0.1497 0.4609 0.1202
v -0.576874 -7.250706 1.709352 0.1497 0.4609 0.1202
v -1.421857 -7.210109 1.151543 0.1497 0.4609 0.1202
v -1.874080 -7.157031 0.246296 0.1497 0.4609 0.1202
v -1.812371 -7.105697 -0.763829 0.1497 0.4609 0.1202
v -1.253265 -7.069860 -1.608169 0.1497 0.4609 0.1202
v -0.526617 -6.810053 -2.888003 0.1497 0.4609 0.1202
v 0.951737 -6.607065 -2.798148 0.1497 0.4609 0.1202
v 2.192836 -6.475653 -1.975216 0.1497 0.4609 0.1202
v 2.864126 -6.451030 -0.639711 0.1497 0.4609 0.1202
v 2.785737 -6.539792 0.850520 0.1497 0.4609 0.1202
v 1.978673 -6.718157 2.096170 0.1497 0.4609 0.1202
v 0.659185 -6.938331 2.763469 0.1497 0.4609 0.1202
v -0.819169 -7.141319 2.673614 0.1497 0.4609 0.1202
v -2.060268 -7.272731 1.850681 0.1497 0.4609 0.1202
v -2.731558 -7.297354 0.515176 0.1497 0.4609 0.1202
v -2.653169 -7.208591 -0.975054 0.1497 0.4609 0.1202
v -1.846105 -7.030227 -2.220704 0.1497 0.4609 0.1202
v 0.791246 -8.113055 -1.768277 0.1497 0.4609 0.1202
v -0.091189 -8.234220 -1.821912 0.1497 0.4609 0.1202
v 1.532061 -8.034616 -1.277067 0.1497 0.4609 0.1202
v 1.932756 -8.019917 -0.479900 0.1497 0.4609 0.1202
v 1.885965 -8.072900 0.409623 0.1497 0.4609 0.1202
v 1.404226 -8.179366 1.153155 0.1497 0.4609 0.1202
v 0.616620 -8.310789 1.551468 0.1497 0.4609 0.1202
v -0.265814 -8.431953 1.497833 0.1497 0.4609 0.1202
v -1.006629 -8.510393 1.006622 0.1497 0.4609 0.1202
v -1.407325 -8.525091 0.209456 0.1497 0.4609 0.1202
v -1.360534 -8.472108 -0.680067 0.1497 0.4609 0.1202
v -0.878795 -8.365642 -1.423600 0.1497 0.4609 0.1202
v -0.143578 -8.379344 -2.517144 0.1497 0.4609 0.1202
v 1.101526 -8.180546 -2.304851 0.1497 0.4609 0.1202
v 2.069237 -7.987865 -1.491659 0.1497 0.4609 0.1202
v 2.500259 -7.852931 -0.295463 0.1497 0.4609 0.1202
v 2.279099 -7.811898 0.963218 0.1497 0.4609 0.1202
v 1.465017 -7.875761 1.947121 0.1497 0.4609 0.1202
v 0.276146 -8.027409 2.392610 0.1497 0.4609 0.1202
v -0.968958 -8.226207 2.180316 0.1497 0.4609 0.1202
v -1.936669 -8.418887 1.367124 0.1497 0.4609 0.1202
v -2.367691 -8.553822 0.170928 0.1497 0.4609 0.1202
v -2.146531 -8.594854 -1.087753 0.1497 0.4609 0.1202
v -1.332449 -8.530991 -2.071656 0.1497 0.4609 0.1202
v 0.862873 -9.383751 -1.330558 0.1497 0.4609 0.1202
v 0.119667 -9.502414 -1.457276 0.1497 0.4609 0.1202
v 1.440503 -9.268740 -0.845161 0.1497 0.4609 0.1202
v 1.697781 -9.188196 -0.131148 0.1497 0.4609 0.1202
v 1.565770 -9.163704 0.620163 0.1497 0.4609 0.1202
v 1.079842 -9.201824 1.207457 0.1497 0.4609 0.1202
v 0.370201 -9.292343 1.473371 0.1497 0.4609 0.1202
v -0.373005 -9.411006 1.346652 0.1497 0.4609 0.1202
v -0.950635 -9.526017 0.861255 0.1497 0.4609 0.1202
v -1.207913 -9.606561 0.147242 0.1497 0.4609 0.1202
v -1.075902 -9.631053 -0.604068 0.1497 0.4609 0.1202
v -0.589974 -9.592933 -1.191363 0.1497 0.4609 0.1202
v -0.121334 -9.504888 -1.977054 0.1497 0.4609 0.1202
v 0.861315 -9.545111 -1.811466 0.1497 0.4609 0.1202
v 1.630937 -9.547188 -1.177182 0.1497 0.4609 0.1202
v 1.981311 -9.510562 -0.244158 0.1497 0.4609 0.1202
v 1.818555 -9.445047 0.737604 0.1497 0.4609 0.1202
v 1.186280 -9.368198 1.505041 0.1497 0.4609 0.1202
v 0.253902 -9.300608 1.852519 0.1497 0.4609 0.1202
v -0.728747 -9.260385 1.686932 0.1497 0.4609 0.1202
v -1.498369 -9.258307 1.052648 0.1497 0.4609 0.1202
v -1.848743 -9.294933 0.119623 0.1497 0.4609 0.1202
v -1.685987 -9.360448 -0.862139 0.1497 0.4609 0.1202
v -1.053711 -9.437297 -1.629575 0.1497 0.4609 0.1202
v 0.493102 -10.428193 -1.051524 0.1497 0.4609 0.1202
v -0.093444 -10.404184 -1.150364 0.1497 0.4609 0.1202
v 0.952492 -10.429433 -0.672918 0.1497 0.4609 0.1202
v 1.161631 -10.407571 -0.115993 0.1497 0.4609 0.1202
v 1.064482 -10.368465 0.470023 0.1497 0.4609 0.1202
v 0.687075 -10.322594 0.928109 0.1497 0.4609 0.1202
v 0.130536 -10.282248 1.135519 0.1497 0.4609 0.1202
v -0.456011 -10.258240 1.036680 0.1497 0.4609 0.1202
v -0.915400 -10.257000 0.658074 0.1497 0.4609 0.1202
v -1.124539 -10.278862 0.101149 0.1497 0.4609 0.1202
v -1.027390 -10.317967 -0.484868 0.1497 0.4609 0.1202
v -0.649983 -10.363839 -0.942953 0.1497 0.4609 0.1202
v 0.778398 -4.198993 0.411086 0.1497 0.4609 0.1202
v 0.778398 -4.198993 -0.424846 0.1497 0.4609 0.1202
v 0.054460 -4.198992 -0.842812 0.1497 0.4609 0.1202
v -0.669479 -4.198993 -0.424846 0.1497 0.4609 0.1202
v -0.669479 -4.198993 0.411086 0.1497 0.4609 0.1202
v 0.054460 -4.198992 0.829052 0.1497 0.4609 0.1202
v 0.541583 -1.182758 -0.873886 0.1497 0.4609 0.1202
v 0.047024 -1.182759 -1.006403 0.1497 0.4609 0.1202
v -0.942094 -1.182758 -0.017285 0.1497 0.4609 0.1202
v -0.809577 -1.182759 0.477274 0.1497 0.4609 0.1202
v 0.903625 -1.182758 0.477274 0.1497 0.4609 0.1202
v 1.036142 -1.182759 -0.017285 0.1497 0.4609 0.1202
v -0.447535 -1.182758 -0.873886 0.1497 0.4609 0.1202
v -0.809577 -1.182759 -0.511844 0.1497 0.4609 0.1202
v 0.047024 -1.182758 0.971833 0.1497 0.4609 0.1202
v 0.541583 -1.182759 0.839316 0.1497 0.4609 0.1202
v -0.447535 -1.182759 0.839316 0.1497 0.4609 0.1202
v 0.903625 -1.182758 -0.511844 0.1497 0.4609 0.1202
vn -0.0516 0.9954 -0.0813
vn 0.4268 -0.8849 0.1865
vn -0.5041 -0.6935 -0.5147
vn 0.2565 -0.6690 -0.6976
vn -0.5366 -0.6051 0.5881
vn 0.5683 -0.5456 0.6159
vn -0.1479 -0.6908 -0.7077
vn 0.6008 -0.6340 -0.4869
vn -0.7285 -0.6441 0.2335
vn 0.2122 -0.5483 0.8089
vn 0.7927 -0.5950 -0.1323
vn -0.7166 -0.6764 -0.1702
vn -0.1923 -0.5701 0.7988
vn 0.7809 -0.5627 0.2714
vn 0.0516 -0.9954 0.0813
vn -0.2979 -0.9092 -0.2908
vn 0.2002 -0.8675 -0.4554
vn -0.2067 -0.9255 0.3172
vn 0.2926 -0.8962 0.3336
vn -0.0816 -0.8852 -0.4581
vn 0.4154 -0.8652 -0.2807
vn -0.3289 -0.9297 0.1655
vn 0.1259 -0.9070 0.4019
vn 0.4856 -0.8736 -0.0332
vn -0.3752 -0.9255 -0.0513
vn -0.0471 -0.9171 0.3958
vn -0.5000 -0.0000 -0.8660
vn -1.0000 -0.0000 -0.0000
vn -0.5000 -0.0000 0.8660
vn 0.5000 -0.0000 0.8660
vn 0.9980 -0.0640 -0.0000
vn 1.0000 -0.0000 -0.0000
vn 0.5000 -0.0000 -0.8660
vn -0.0000 1.0000 -0.0000
vn -0.0000 -1.0000 -0.0000
vn -0.4990 -0.0640 -0.8643
vn -0.4990 -0.0640 0.8643
vn 0.4990 -0.0640 -0.8643
vn 0.4990 -0.0640 0.8643
vn -0.9980 -0.0640 -0.0000
vn -0.1949 -0.6581 -0.7273
vn -0.1949 -0.6581 0.7273
vn -0.7273 -0.6581 -0.1949
vn 0.7273 -0.6581 -0.1949
vn -0.5324 -0.6581 0.5324
vn 0.1949 -0.6581 0.7273
vn -0.5324 -0.6581 -0.5324
vn 0.7273 -0.6581 0.1949
vn -0.7273 -0.6581 0.1949
vn 0.1949 -0.6581 -0.7273
vn 0.5324 -0.6581 0.5324
vn 0.5324 -0.6581 -0.5324
vn 0.0547 0.9770 -0.2059
vn -0.0547 -0.9770 0.2059
vn -0.5394 -0.7042 -0.4618
vn 0.2296 -0.7742 -0.5898
vn -0.6302 -0.4718 0.6166
vn 0.4712 -0.5122 0.7181
vn -0.1736 -0.7595 -0.6270
vn 0.5621 -0.7445 -0.3603
vn -0.8030 -0.5381 0.2562
vn 0.1054 -0.4569 0.8833
vn 0.7349 -0.6782 0.0001
vn -0.7697 -0.6231 -0.1386
vn -0.2977 -0.4421 0.8461
vn 0.7016 -0.5932 0.3948
vn 0.0139 0.9986 0.0516
vn -0.0139 -0.9986 -0.0516
vn -0.6613 -0.5902 -0.4630
vn 0.0390 -0.5819 -0.8123
vn -0.4405 -0.6492 0.6200
vn 0.6440 -0.6529 0.3987
vn -0.3580 -0.5806 -0.7313
vn 0.4232 -0.5939 -0.6843
vn -0.7090 -0.6298 0.3172
vn 0.3406 -0.6625 0.6671
vn 0.6917 -0.6133 -0.3815
vn -0.7898 -0.6082 -0.0792
vn -0.0563 -0.6612 0.7481
vn 0.7725 -0.6349 0.0149
vn -0.1389 0.9890 0.0516
vn 0.1389 -0.9890 -0.0516
vn -0.5633 -0.6844 -0.4630
vn 0.1275 -0.5691 -0.8123
vn -0.3361 -0.7089 0.6200
vn 0.7362 -0.5468 0.3987
vn -0.2650 -0.6285 -0.7313
vn 0.5090 -0.5222 -0.6843
vn -0.6043 -0.7308 0.3172
vn 0.4379 -0.6027 0.6671
vn 0.7773 -0.5003 -0.3815
vn -0.6875 -0.7218 -0.0792
vn 0.0454 -0.6620 0.7481
vn 0.8605 -0.5093 0.0149
vn -0.1477 0.9873 -0.0581
vn 0.1477 -0.9873 0.0581
vn -0.5004 -0.7325 -0.4616
vn 0.2273 -0.6397 -0.7343
vn -0.4064 -0.6536 0.6385
vn 0.6843 -0.4966 0.5340
vn -0.1719 -0.6971 -0.6960
vn 0.5903 -0.5755 -0.5661
vn -0.6358 -0.7074 0.3089
vn 0.3558 -0.5320 0.7684
vn 0.8197 -0.5217 -0.2365
vn -0.6702 -0.7362 -0.0938
vn -0.0434 -0.5894 0.8067
vn 0.8541 -0.4929 0.1661
vn 0.0506 0.9970 -0.0581
vn -0.0506 -0.9970 0.0581
vn -0.6355 -0.6190 -0.4616
vn 0.0962 -0.6720 -0.7343
vn -0.5277 -0.5603 0.6385
vn 0.5725 -0.6222 0.5340
vn -0.3065 -0.6493 -0.6960
vn 0.4647 -0.6809 -0.5661
vn -0.7632 -0.5675 0.3089
vn 0.2435 -0.5918 0.7684
vn 0.7002 -0.6736 -0.2365
vn -0.8027 -0.5890 -0.0938
vn -0.1592 -0.5692 0.8067
vn 0.7397 -0.6522 0.1661
vn 0.5084 -0.6951 -0.5084
vn 0.5031 -0.7026 0.5031
vn 0.1848 -0.7002 -0.6896
vn -0.6670 -0.7233 0.1787
vn 0.6931 -0.6965 0.1857
vn -0.4943 -0.7151 -0.4943
vn 0.1822 -0.7103 0.6799
vn -0.4892 -0.7221 0.4892
vn 0.6957 -0.6937 -0.1864
vn -0.6695 -0.7208 -0.1794
vn -0.1803 -0.7174 0.6730
vn -0.1829 -0.7076 -0.6825
vt 0.134204 0.000165
vt 0.134194 0.000159
vt 0.134183 0.000159
vt 0.134172 0.000165
vt 0.134167 0.000175
vt 0.134167 0.000186
vt 0.134172 0.000197
vt 0.134183 0.000202
vt 0.134194 0.000202
vt 0.134204 0.000197
vt 0.134210 0.000186
vt 0.134210 0.000175
vt 0.529078 0.694085
vt 0.505545 0.678351
vt 0.552825 0.644635
vt 0.557212 0.646239
vt 0.446718 0.580440
vt 0.477145 0.543893
vt 0.512197 0.588132
vt 0.495475 0.607092
vt 0.460769 0.715394
vt 0.437924 0.673203
vt 0.491585 0.656093
vt 0.519676 0.521566
vt 0.536095 0.577254
vt 0.432501 0.625752
vt 0.487886 0.631000
vt 0.567874 0.516526
vt 0.564288 0.576734
vt 0.499003 0.747049
vt 0.567874 0.636997
vt 0.566119 0.642068
vt 0.561877 0.645855
vt 0.549427 0.640838
vt 0.548196 0.635821
vt 0.549804 0.630843
vt 0.553582 0.627307
vt 0.558498 0.625942
vt 0.563109 0.626955
vt 0.566858 0.631727
vt 0.559090 0.695005
vt 0.111469 0.069145
vt 0.092144 0.184455
vt 0.102591 0.173123
vt 0.122790 0.000038
vt 0.110057 0.187073
vt 0.112988 0.072900
vt 0.938287 0.000710
vt 0.937309 0.126497
vt 0.874912 0.125074
vt 0.875394 0.000238
vt 0.812507 0.126013
vt 0.812507 0.000238
vt 0.009684 0.063256
vt 0.005402 0.070153
vt 0.010700 0.999962
vt 0.018042 0.975142
vt 0.108364 0.125142
vt 0.093508 0.224511
vt 0.087300 0.207344
vt 0.107451 0.108822
vt 0.113626 0.111416
vt 0.009485 0.951055
vt 0.019364 0.959700
vt 0.003046 0.973467
vt 0.000038 0.961568
vt 0.005499 0.000038
vt 0.011222 0.039803
vt 0.000796 0.064283
vt 0.000038 0.038526
vt 0.134167 0.000536
vt 0.134172 0.000526
vt 0.324082 0.709587
vt 0.317350 0.741207
vt 0.286764 0.728430
vt 0.290995 0.708832
vt 0.134172 0.000558
vt 0.134167 0.000548
vt 0.246415 0.620493
vt 0.276980 0.630054
vt 0.261460 0.659291
vt 0.242067 0.653145
vt 0.299588 0.768170
vt 0.275714 0.745230
vt 0.318753 0.677733
vt 0.287649 0.689054
vt 0.302254 0.649997
vt 0.277325 0.671805
vt 0.273344 0.786592
vt 0.259232 0.756905
vt 0.134183 0.000520
vt 0.134194 0.000520
vt 0.134204 0.000526
vt 0.134210 0.000536
vt 0.134210 0.000548
vt 0.134204 0.000558
vt 0.134194 0.000564
vt 0.134183 0.000564
vt 0.134194 0.000520
vt 0.134204 0.000646
vt 0.134194 0.000640
vt 0.134183 0.000640
vt 0.134172 0.000646
vt 0.134167 0.000656
vt 0.134167 0.000668
vt 0.134172 0.000678
vt 0.134183 0.000684
vt 0.134194 0.000684
vt 0.134204 0.000678
vt 0.134210 0.000668
vt 0.134210 0.000656
vt 0.242067 0.272341
vt 0.246273 0.207675
vt 0.281143 0.151646
vt 0.343084 0.137455
vt 0.402972 0.149294
vt 0.448870 0.185295
vt 0.472933 0.236986
vt 0.469758 0.293068
vt 0.438956 0.339120
vt 0.387481 0.367882
vt 0.323395 0.371462
vt 0.270166 0.330259
vt 0.592097 0.327514
vt 0.535928 0.425936
vt 0.468649 0.034347
vt 0.554530 0.110556
vt 0.441563 0.492476
vt 0.599018 0.215040
vt 0.242067 0.012042
vt 0.356907 0.000238
vt 0.329196 0.516051
vt 0.134210 0.000295
vt 0.134204 0.000285
vt 0.134194 0.000279
vt 0.134183 0.000279
vt 0.134172 0.000285
vt 0.134167 0.000295
vt 0.134167 0.000307
vt 0.134172 0.000317
vt 0.134183 0.000323
vt 0.134194 0.000323
vt 0.134204 0.000317
vt 0.134210 0.000307
vt 0.241592 0.349537
vt 0.207058 0.450186
vt 0.092388 0.388168
vt 0.113002 0.328090
vt 0.141729 0.058484
vt 0.207058 0.142478
vt 0.092388 0.204496
vt 0.053393 0.154360
vt 0.141729 0.534181
vt 0.053393 0.438305
vt 0.241592 0.243128
vt 0.113002 0.264574
vt 0.052677 0.592427
vt 0.000238 0.473072
vt 0.052677 0.000238
vt 0.000238 0.119592
vt 0.134167 0.000054
vt 0.134167 0.000066
vt 0.134172 0.000076
vt 0.134183 0.000082
vt 0.134194 0.000082
vt 0.134204 0.000076
vt 0.134210 0.000066
vt 0.134210 0.000054
vt 0.134204 0.000044
vt 0.134194 0.000038
vt 0.134183 0.000038
vt 0.134172 0.000044
vt 0.599493 0.214128
vt 0.629904 0.125495
vt 0.730883 0.180109
vt 0.712730 0.233014
vt 0.687433 0.470431
vt 0.629904 0.396466
vt 0.730883 0.341852
vt 0.765222 0.386002
vt 0.687433 0.051530
vt 0.765222 0.135959
vt 0.599493 0.307833
vt 0.712730 0.288947
vt 0.765853 0.000238
vt 0.812031 0.105342
vt 0.765853 0.521723
vt 0.812031 0.416619
vt 0.134210 0.000788
vt 0.134210 0.000777
vt 0.134204 0.000766
vt 0.134194 0.000761
vt 0.134183 0.000761
vt 0.134172 0.000766
vt 0.134167 0.000777
vt 0.134167 0.000788
vt 0.134172 0.000798
vt 0.134183 0.000804
vt 0.134194 0.000804
vt 0.134204 0.000798
vt 0.868060 0.727065
vt 0.847750 0.770944
vt 0.808221 0.798790
vt 0.760066 0.803140
vt 0.719006 0.776591
vt 0.695869 0.738851
vt 0.693681 0.695404
vt 0.710607 0.656074
vt 0.745006 0.631008
vt 0.789123 0.623531
vt 0.835532 0.636917
vt 0.863709 0.678910
vt 0.634411 0.597734
vt 0.699986 0.544130
vt 0.637101 0.837344
vt 0.600288 0.759509
vt 0.783257 0.522199
vt 0.599493 0.674573
vt 0.868060 0.534228
vt 0.703315 0.896512
vt 0.134172 0.000437
vt 0.134183 0.000443
vt 0.134194 0.000443
vt 0.134204 0.000437
vt 0.134210 0.000427
vt 0.134210 0.000415
vt 0.134204 0.000405
vt 0.134194 0.000399
vt 0.134183 0.000399
vt 0.134172 0.000405
vt 0.134167 0.000415
vt 0.134167 0.000427
vt 0.208914 0.754334
vt 0.193053 0.788522
vt 0.162223 0.810199
vt 0.124684 0.813557
vt 0.092924 0.792162
vt 0.075154 0.762176
vt 0.073099 0.728884
vt 0.086443 0.698825
vt 0.113087 0.678689
vt 0.147426 0.672431
vt 0.184046 0.682183
vt 0.205557 0.716795
vt 0.027990 0.652484
vt 0.078522 0.610601
vt 0.028490 0.838866
vt 0.000481 0.777920
vt 0.142505 0.592902
vt 0.000238 0.711920
vt 0.208914 0.601867
vt 0.079458 0.885682
vt 0.999762 0.133487
vt 0.979109 0.271676
vt 0.926902 0.265833
vt 0.874406 0.263856
vt 0.821822 0.265436
vt 0.019441 0.378808
vt 0.041853 0.288725
vt 0.092433 0.261325
vt 0.060779 0.519497
vt 0.383115 0.581894
vt 0.420073 0.643751
vt 0.377139 0.845317
vt 0.317774 0.886102
vt 0.326379 0.537536
vt 0.432026 0.714831
vt 0.417066 0.785356
vt 0.257567 0.516526
vt 0.247575 0.901730
vt 0.242067 0.793555
s 0
usemtl Material.001
f 1/1/1 12/2/1 11/3/1 10/4/1 9/5/1 8/6/1 7/7/1 6/8/1 5/9/1 4/10/1 3/11/1 2/12/1
f 16/13/2 17/14/2 29/15/2 28/16/2
f 11/3/3 12/2/3 24/2/3 23/3/3
f 1/1/4 2/12/4 13/12/4 14/1/4
f 8/17/5 9/18/5 21/19/5 20/20/5
f 5/21/6 6/22/6 18/23/6 17/14/6
f 12/2/7 1/1/7 14/1/7 24/2/7
f 2/12/8 3/11/8 15/11/8 13/12/8
f 9/18/9 10/24/9 22/25/9 21/19/9
f 6/22/10 7/26/10 19/27/10 18/23/10
f 3/11/11 4/10/11 16/10/11 15/11/11
f 10/24/12 11/28/12 23/29/12 22/25/12
f 7/26/13 8/17/13 20/20/13 19/27/13
f 4/30/14 5/21/14 17/14/14 16/13/14
f 26/31/15 25/32/15 27/33/15 28/16/15 29/15/15 30/34/15 31/35/15 32/36/15 33/37/15 34/38/15 35/39/15 36/40/15
f 23/3/16 24/2/16 36/2/16 35/3/16
f 14/1/17 13/12/17 25/12/17 26/1/17
f 20/20/18 21/19/18 33/37/18 32/36/18
f 17/14/19 18/23/19 30/34/19 29/15/19
f 24/2/20 14/1/20 26/1/20 36/2/20
f 13/12/21 15/11/21 27/11/21 25/12/21
f 21/19/22 22/25/22 34/38/22 33/37/22
f 18/23/23 19/27/23 31/35/23 30/34/23
f 15/41/24 16/13/24 28/16/24 27/33/24
f 22/25/25 23/29/25 35/39/25 34/38/25
f 19/27/26 20/20/26 32/36/26 31/35/26
f 37/42/27 38/43/27 40/44/27 39/45/27
f 39/45/28 40/44/28 42/46/28 41/47/28
f 41/48/29 42/49/29 44/50/29 43/51/29
f 43/51/30 44/50/30 46/52/30 45/53/30
f 200/54/31 199/55/31 53/56/31 54/57/31
f 45/58/32 46/59/32 48/60/32 47/61/32
f 47/61/33 48/60/33 38/43/33 37/42/33
f 37/42/34 39/45/34 41/47/34 43/62/34 45/58/34 47/61/34
f 49/63/35 50/64/35 54/57/35 53/56/35 52/65/35 51/66/35
f 202/67/36 201/68/36 50/64/36 49/63/36
f 204/69/37 203/70/37 51/66/37 52/65/37
f 201/68/38 200/54/38 54/57/38 50/64/38
f 199/55/39 204/69/39 52/65/39 53/56/39
f 203/70/40 202/67/40 49/63/40 51/66/40
f 211/71/41 206/72/41 68/72/41 78/71/41
f 213/73/42 215/74/42 74/75/42 73/76/42
f 207/77/43 212/78/43 77/78/43 76/77/43
f 216/79/44 210/80/44 70/81/44 69/82/44
f 215/74/45 208/83/45 75/84/45 74/75/45
f 214/85/46 213/73/46 73/76/46 72/86/46
f 212/78/47 211/71/47 78/71/47 77/78/47
f 210/80/48 209/87/48 71/88/48 70/81/48
f 208/83/49 207/89/49 76/90/49 75/84/49
f 206/72/50 205/91/50 55/91/50 68/72/50
f 68/72/35 55/91/35 69/92/35 70/93/35 71/94/35 72/95/35 73/96/35 74/97/35 75/98/35 76/77/35 77/78/35 78/71/35
f 209/87/51 214/85/51 72/86/51 71/88/51
f 56/72/34 67/71/34 66/78/34 65/77/34 64/98/34 63/97/34 62/96/34 61/95/34 60/94/34 59/93/34 58/92/34 57/91/34
f 205/91/52 216/99/52 69/92/52 55/91/52
f 79/100/53 90/101/53 89/102/53 88/103/53 87/104/53 86/105/53 85/106/53 84/107/53 83/108/53 82/109/53 81/110/53 80/111/53
f 92/112/54 91/113/54 93/114/54 94/115/54 95/116/54 96/117/54 97/118/54 98/119/54 99/120/54 100/121/54 101/122/54 102/123/54
f 89/102/55 90/101/55 102/101/55 101/102/55
f 79/100/56 80/111/56 91/111/56 92/100/56
f 86/124/57 87/125/57 99/120/57 98/119/57
f 83/126/58 84/127/58 96/117/58 95/116/58
f 90/101/59 79/100/59 92/100/59 102/101/59
f 80/111/60 81/110/60 93/110/60 91/111/60
f 87/125/61 88/128/61 100/121/61 99/120/61
f 84/127/62 85/129/62 97/118/62 96/117/62
f 81/130/63 82/131/63 94/115/63 93/114/63
f 88/128/64 89/132/64 101/122/64 100/121/64
f 85/129/65 86/124/65 98/119/65 97/118/65
f 82/131/66 83/126/66 95/116/66 94/115/66
f 103/133/67 114/134/67 113/135/67 112/136/67 111/137/67 110/138/67 109/139/67 108/140/67 107/141/67 106/142/67 105/143/67 104/144/67
f 116/133/68 115/144/68 117/143/68 118/142/68 119/141/68 120/140/68 121/139/68 122/138/68 123/137/68 124/136/68 125/135/68 126/134/68
f 113/135/69 114/134/69 126/134/69 125/135/69
f 103/133/70 104/144/70 115/144/70 116/133/70
f 110/145/71 111/146/71 123/147/71 122/148/71
f 107/149/72 108/150/72 120/151/72 119/152/72
f 114/134/73 103/133/73 116/133/73 126/134/73
f 104/144/74 105/143/74 117/143/74 115/144/74
f 111/146/75 112/153/75 124/154/75 123/147/75
f 108/150/76 109/155/76 121/156/76 120/151/76
f 105/143/77 106/142/77 118/142/77 117/143/77
f 112/153/78 113/157/78 125/158/78 124/154/78
f 109/155/79 110/145/79 122/148/79 121/156/79
f 106/159/80 107/149/80 119/152/80 118/160/80
f 127/161/81 138/162/81 137/163/81 136/164/81 135/165/81 134/166/81 133/167/81 132/168/81 131/169/81 130/170/81 129/171/81 128/172/81
f 140/161/82 139/172/82 141/171/82 142/170/82 143/169/82 144/168/82 145/167/82 146/166/82 147/165/82 148/164/82 149/163/82 150/162/82
f 137/163/83 138/162/83 150/162/83 149/163/83
f 127/161/84 128/172/84 139/172/84 140/161/84
f 134/173/85 135/174/85 147/175/85 146/176/85
f 131/177/86 132/178/86 144/179/86 143/180/86
f 138/162/87 127/161/87 140/161/87 150/162/87
f 128/172/88 129/171/88 141/171/88 139/172/88
f 135/174/89 136/181/89 148/182/89 147/175/89
f 132/178/90 133/183/90 145/184/90 144/179/90
f 129/171/91 130/170/91 142/170/91 141/171/91
f 136/181/92 137/185/92 149/186/92 148/182/92
f 133/183/93 134/173/93 146/176/93 145/184/93
f 130/187/94 131/177/94 143/180/94 142/188/94
f 151/189/95 162/190/95 161/191/95 160/192/95 159/193/95 158/194/95 157/195/95 156/196/95 155/197/95 154/198/95 153/199/95 152/200/95
f 164/201/96 163/202/96 165/203/96 166/204/96 167/205/96 168/206/96 169/207/96 170/208/96 171/209/96 172/210/96 173/211/96 174/212/96
f 161/191/97 162/190/97 174/190/97 173/191/97
f 151/189/98 152/200/98 163/200/98 164/189/98
f 158/213/99 159/214/99 171/209/99 170/208/99
f 155/215/100 156/216/100 168/206/100 167/205/100
f 162/190/101 151/189/101 164/189/101 174/190/101
f 152/200/102 153/199/102 165/199/102 163/200/102
f 159/214/103 160/217/103 172/210/103 171/209/103
f 156/216/104 157/218/104 169/207/104 168/206/104
f 153/199/105 154/198/105 166/198/105 165/199/105
f 160/217/106 161/219/106 173/211/106 172/210/106
f 157/218/107 158/213/107 170/208/107 169/207/107
f 154/220/108 155/215/108 167/205/108 166/204/108
f 175/221/109 186/222/109 185/223/109 184/224/109 183/225/109 182/226/109 181/227/109 180/228/109 179/229/109 178/230/109 177/231/109 176/232/109
f 188/233/110 187/234/110 189/235/110 190/236/110 191/237/110 192/238/110 193/239/110 194/240/110 195/241/110 196/242/110 197/243/110 198/244/110
f 185/223/111 186/222/111 198/222/111 197/223/111
f 175/221/112 176/232/112 187/232/112 188/221/112
f 182/245/113 183/246/113 195/241/113 194/240/113
f 179/247/114 180/248/114 192/238/114 191/237/114
f 186/222/115 175/221/115 188/221/115 198/222/115
f 176/232/116 177/231/116 189/231/116 187/232/116
f 183/246/117 184/249/117 196/242/117 195/241/117
f 180/248/118 181/250/118 193/239/118 192/238/118
f 177/231/119 178/230/119 190/230/119 189/231/119
f 184/249/120 185/251/120 197/243/120 196/242/120
f 181/250/121 182/245/121 194/240/121 193/239/121
f 178/252/122 179/247/122 191/237/122 190/236/122
f 42/49/40 40/253/40 202/254/40 203/255/40
f 46/52/39 44/50/39 204/256/39 199/257/39
f 38/43/38 48/60/38 200/258/38 201/259/38
f 44/50/37 42/49/37 203/255/37 204/256/37
f 40/44/36 38/43/36 201/259/36 202/260/36
f 48/60/31 46/59/31 199/261/31 200/258/31
f 57/91/123 58/92/123 216/99/123 205/91/123
f 60/262/124 61/263/124 214/85/124 209/87/124
f 56/72/125 57/91/125 205/91/125 206/72/125
f 64/264/126 65/265/126 207/89/126 208/83/126
f 59/266/127 60/262/127 209/87/127 210/80/127
f 66/78/128 67/71/128 211/71/128 212/78/128
f 61/263/129 62/267/129 213/73/129 214/85/129
f 63/268/130 64/264/130 208/83/130 215/74/130
f 58/269/131 59/266/131 210/80/131 216/79/131
f 65/265/132 66/270/132 212/271/132 207/89/132
f 62/267/133 63/268/133 215/74/133 213/73/133
f 67/71/134 56/72/134 206/72/134 211/71/134
